<?xml version="1.0" encoding="utf-8"?>
<!-- Generator: Adobe Illustrator 26.5.3, SVG Export Plug-In . SVG Version: 6.00 Build 0)  -->
<svg version="1.1" id="Layer_1" xmlns="http://www.w3.org/2000/svg" xmlns:xlink="http://www.w3.org/1999/xlink" x="0px" y="0px"
	 viewBox="0 0 85.3 76.9" style="enable-background:new 0 0 85.3 76.9;" xml:space="preserve">
<style type="text/css">
	.st0{clip-path:url(#SVGID_00000048493131701277188380000009402343152053169556_);}
	.st1{fill:#E47637;}
	.st2{fill:#E47737;}
	.st3{fill:#E57838;}
	.st4{fill:#E57938;}
	.st5{fill:#E57A38;}
	.st6{fill:#E67B39;}
	.st7{fill:#E67C39;}
	.st8{fill:#E67D39;}
	.st9{fill:#E77E3A;}
	.st10{fill:#E77F3A;}
	.st11{fill:#E7803A;}
	.st12{fill:#E7813A;}
	.st13{fill:#E8823B;}
	.st14{fill:#E8833B;}
	.st15{fill:#E8843B;}
	.st16{fill:#E9853C;}
	.st17{fill:#E9863C;}
	.st18{fill:#E9873C;}
	.st19{fill:#EA883D;}
	.st20{fill:#EA893D;}
	.st21{fill:#EA8A3D;}
	.st22{fill:#EB8B3E;}
	.st23{fill:#EB8C3E;}
	.st24{fill:#EB8D3E;}
	.st25{fill:#EC8E3F;}
	.st26{fill:#EC8F3F;}
	.st27{fill:#EC903F;}
	.st28{fill:#ED9140;}
	.st29{fill:#ED9240;}
	.st30{fill:#ED9340;}
	.st31{fill:#EE9441;}
	.st32{fill:#EE9541;}
	.st33{fill:#EE9641;}
	.st34{fill:#EE9741;}
	.st35{fill:#EF9842;}
	.st36{fill:#EF9942;}
	.st37{fill:#EF9A42;}
	.st38{fill:#F09B43;}
	.st39{fill:#F09C43;}
	.st40{fill:#F09D43;}
	.st41{fill:#F19E44;}
	.st42{fill:#F19F44;}
	.st43{fill:#F1A044;}
	.st44{fill:#F2A245;}
	.st45{fill:#F2A345;}
	.st46{fill:#F2A445;}
	.st47{fill:#F3A546;}
	.st48{fill:#F3A646;}
	.st49{fill:#F3A746;}
	.st50{fill:#F4A847;}
	.st51{fill:#F4A947;}
	.st52{fill:#F4AA47;}
	.st53{fill:#F5AB48;}
	.st54{fill:#F5AC48;}
	.st55{fill:#F5AD48;}
	.st56{fill:#F5AE48;}
	.st57{fill:#F6AF49;}
	.st58{fill:#F6B049;}
	.st59{fill:#F6B149;}
	.st60{fill:#F7B24A;}
	.st61{fill:#F7B34A;}
	.st62{fill:#F7B44A;}
	.st63{fill:#F8B54B;}
	.st64{fill:#F8B64B;}
	.st65{fill:#F8B74B;}
	.st66{fill:#F9B84C;}
	.st67{fill:#F9B94C;}
	.st68{fill:#F9BA4C;}
	.st69{fill:#FABB4D;}
	.st70{fill:#FABC4D;}
	.st71{fill:#FABD4D;}
	.st72{fill:#FBBE4E;}
	.st73{fill:#FBBF4E;}
	.st74{fill:#FBC04E;}
	.st75{fill:#FCC14F;}
	.st76{fill:#FCC24F;}
	.st77{fill:#FCC34F;}
	.st78{fill:#FCC44F;}
	.st79{fill:#FDC550;}
	.st80{fill:#FDC650;}
	.st81{fill:#FDC750;}
	.st82{fill:#FEC851;}
	.st83{fill:#FEC951;}
	.st84{fill:#FECA51;}
	.st85{fill:#FFCB52;}
	.st86{fill:#FFCC52;}
	.st87{fill:#FFFFFF;}
	.st88{fill:#1A5B6E;}
	.st89{fill:#F07537;}
	.st90{fill:#48C0B9;}
	.st91{fill:#008597;}
</style>
<g id="Group_1427" transform="translate(4.786)">
	<g id="Group_1426" transform="translate(0.001)">
		<g>
			<defs>
				<polygon id="SVGID_1_" points="80.5,0 0,14.3 52.7,76.9 				"/>
			</defs>
			<clipPath id="SVGID_00000178169897269314229070000007205892004753548458_">
				<use xlink:href="#SVGID_1_"  style="overflow:visible;"/>
			</clipPath>
			<g id="Group_1425" style="clip-path:url(#SVGID_00000178169897269314229070000007205892004753548458_);">
				<path id="Path_3601" class="st1" d="M0,24.2l52.7,52.7H0V24.2z"/>
				<path id="Path_3602" class="st1" d="M0,23.1l53.8,53.8h-1.1L0,24.2V23.1z"/>
				<path id="Path_3603" class="st2" d="M0,22.1l54.8,54.8h-1.1L0,23.1V22.1z"/>
				<path id="Path_3604" class="st3" d="M0,21l55.9,55.9h-1.1L0,22.1V21z"/>
				<path id="Path_3605" class="st4" d="M0,19.9l57,57h-1.1L0,21V19.9z"/>
				<path id="Path_3606" class="st5" d="M0,18.8l58.1,58.1H57l-57-57V18.8z"/>
				<path id="Path_3607" class="st6" d="M0,17.8l58.6,58.6l-0.5,0.5h0L0,18.8V17.8z"/>
				<path id="Path_3608" class="st7" d="M0,16.7l59.2,59.2l-0.5,0.5L0,17.8V16.7z"/>
				<path id="Path_3609" class="st8" d="M0,15.6l59.7,59.7l-0.5,0.5L0,16.7V15.6z"/>
				<path id="Path_3610" class="st9" d="M0,14.5l60.2,60.2l-0.5,0.5L0,15.6L0,14.5z"/>
				<path id="Path_3611" class="st10" d="M0,13.5l60.8,60.8l-0.5,0.5L0,14.5V13.5z"/>
				<path id="Path_3612" class="st11" d="M0,12.4l61.3,61.3l-0.5,0.5L0,13.5V12.4z"/>
				<path id="Path_3613" class="st12" d="M0,11.3l61.9,61.8l-0.5,0.5L0,12.4V11.3z"/>
				<path id="Path_3614" class="st13" d="M0,10.2l62.4,62.4l-0.5,0.5L0,11.3V10.2z"/>
				<path id="Path_3615" class="st14" d="M0,9.2l62.9,62.9l-0.5,0.5L0,10.2V9.2z"/>
				<path id="Path_3616" class="st15" d="M0,8.9l0.4-0.4l63,63l-0.5,0.5L0,9.2V8.9z"/>
				
					<rect id="Rectangle_6694" x="31.8" y="-4.8" transform="matrix(0.7071 -0.7071 0.7071 0.7071 -18.6771 34.4248)" class="st16" width="0.8" height="89.1"/>
				
					<rect id="Rectangle_6695" x="32.4" y="-5.3" transform="matrix(0.7071 -0.7071 0.7071 0.7071 -18.1372 34.6429)" class="st17" width="0.8" height="89.1"/>
				
					<rect id="Rectangle_6696" x="32.9" y="-5.9" transform="matrix(0.7071 -0.7071 0.7071 0.7071 -17.5999 34.866)" class="st18" width="0.8" height="89.1"/>
				
					<rect id="Rectangle_6697" x="33.4" y="-6.4" transform="matrix(0.7071 -0.7071 0.7071 0.7071 -17.0631 35.0934)" class="st19" width="0.8" height="89.1"/>
				
					<rect id="Rectangle_6698" x="34" y="-7" transform="matrix(0.7071 -0.7071 0.7071 0.7071 -16.5232 35.3114)" class="st20" width="0.8" height="89.1"/>
				
					<rect id="Rectangle_6699" x="34.5" y="-7.5" transform="matrix(0.7071 -0.7071 0.7071 0.7071 -15.9859 35.5346)" class="st21" width="0.8" height="89.1"/>
				
					<rect id="Rectangle_6700" x="35.1" y="-8" transform="matrix(0.7071 -0.7071 0.7071 0.7071 -15.4491 35.7619)" class="st22" width="0.8" height="89.1"/>
				
					<rect id="Rectangle_6701" x="35.6" y="-8.6" transform="matrix(0.7071 -0.7071 0.7071 0.7071 -14.9111 35.9848)" class="st23" width="0.8" height="89.1"/>
				
					<rect id="Rectangle_6702" x="36.1" y="-9.1" transform="matrix(0.7071 -0.7071 0.7071 0.7071 -14.3731 36.2076)" class="st24" width="0.8" height="89.1"/>
				
					<rect id="Rectangle_6703" x="36.7" y="-9.7" transform="matrix(0.7071 -0.7071 0.7071 0.7071 -13.8332 36.4257)" class="st25" width="0.8" height="89.1"/>
				
					<rect id="Rectangle_6704" x="37.2" y="-10.2" transform="matrix(0.7071 -0.7071 0.7071 0.7071 -13.2959 36.6488)" class="st26" width="0.8" height="89.1"/>
				
					<rect id="Rectangle_6705" x="37.8" y="-10.7" transform="matrix(0.7071 -0.7071 0.7071 0.7071 -12.7591 36.8762)" class="st27" width="0.8" height="89.1"/>
				
					<rect id="Rectangle_6706" x="38.3" y="-11.3" transform="matrix(0.7071 -0.7071 0.7071 0.7071 -12.2192 37.0942)" class="st28" width="0.8" height="89.1"/>
				
					<rect id="Rectangle_6707" x="38.8" y="-11.8" transform="matrix(0.7071 -0.7071 0.7071 0.7071 -11.6819 37.3174)" class="st29" width="0.8" height="89.1"/>
				
					<rect id="Rectangle_6708" x="39.4" y="-12.3" transform="matrix(0.7071 -0.7071 0.7071 0.7071 -11.1451 37.5447)" class="st30" width="0.8" height="89.1"/>
				<path id="Path_3617" class="st31" d="M8.5,0.4L8.9,0h0.2l62.9,62.9l-0.5,0.5L8.5,0.4z"/>
				<path id="Path_3618" class="st32" d="M10.2,0l62.4,62.4l-0.5,0.5L9.1,0H10.2z"/>
				<path id="Path_3619" class="st33" d="M11.3,0l61.9,61.9l-0.5,0.5L10.2,0L11.3,0z"/>
				<path id="Path_3620" class="st34" d="M12.4,0l61.3,61.3l-0.5,0.5L11.3,0H12.4z"/>
				<path id="Path_3621" class="st35" d="M13.4,0l60.8,60.8l-0.5,0.5L12.4,0H13.4z"/>
				<path id="Path_3622" class="st36" d="M14.5,0l60.2,60.2l-0.5,0.5L13.4,0H14.5z"/>
				<path id="Path_3623" class="st37" d="M15.6,0l59.7,59.7l-0.5,0.5L14.5,0H15.6z"/>
				<path id="Path_3624" class="st38" d="M16.7,0l59.2,59.2l-0.5,0.5L15.6,0H16.7z"/>
				<path id="Path_3625" class="st39" d="M17.7,0l58.6,58.6l-0.5,0.5L16.7,0H17.7z"/>
				<path id="Path_3626" class="st40" d="M18.8,0l58.1,58.1l-0.5,0.5L17.7,0H18.8z"/>
				<path id="Path_3627" class="st41" d="M19.9,0l57.6,57.6l-0.5,0.5L18.8,0H19.9z"/>
				<path id="Path_3628" class="st42" d="M21,0l57,57l-0.5,0.5L19.9,0H21z"/>
				<path id="Path_3629" class="st43" d="M22,0l56.5,56.5L78,57L21,0H22z"/>
				<path id="Path_3630" class="st44" d="M23.1,0l55.9,55.9l-0.5,0.5L22,0H23.1z"/>
				<path id="Path_3631" class="st45" d="M24.2,0l55.4,55.4l-0.5,0.5L23.1,0H24.2z"/>
				<path id="Path_3632" class="st46" d="M25.3,0l54.9,54.9l-0.5,0.5L24.2,0L25.3,0z"/>
				<path id="Path_3633" class="st47" d="M26.4,0l54.2,54.2v0.3l-0.4,0.4L25.3,0H26.4z"/>
				<path id="Path_3634" class="st48" d="M27.4,0l53.1,53.1v1.1L26.4,0H27.4z"/>
				<path id="Path_3635" class="st49" d="M28.5,0l52,52v1.1L27.4,0L28.5,0z"/>
				<path id="Path_3636" class="st50" d="M29.6,0l50.9,50.9V52l-52-52L29.6,0z"/>
				<path id="Path_3637" class="st51" d="M30.7,0l49.9,49.9v1.1L29.6,0H30.7z"/>
				<path id="Path_3638" class="st52" d="M31.7,0l48.8,48.8v1.1L30.7,0H31.7z"/>
				<path id="Path_3639" class="st53" d="M32.8,0l47.7,47.7v1.1L31.7,0H32.8z"/>
				<path id="Path_3640" class="st54" d="M33.9,0l46.6,46.6v1.1L32.8,0H33.9z"/>
				<path id="Path_3641" class="st55" d="M35,0l45.6,45.6v1.1L33.9,0H35z"/>
				<path id="Path_3642" class="st56" d="M36,0l44.5,44.5v1.1L35,0H36z"/>
				<path id="Path_3643" class="st57" d="M37.1,0l43.4,43.4v1.1L36,0H37.1z"/>
				<path id="Path_3644" class="st58" d="M38.2,0l42.3,42.3v1.1L37.1,0H38.2z"/>
				<path id="Path_3645" class="st59" d="M39.3,0l41.3,41.3v1.1L38.2,0H39.3z"/>
				<path id="Path_3646" class="st60" d="M40.3,0l40.2,40.2v1.1L39.3,0L40.3,0z"/>
				<path id="Path_3647" class="st61" d="M41.4,0l39.1,39.1v1.1L40.3,0H41.4z"/>
				<path id="Path_3648" class="st62" d="M42.5,0l38,38v1.1L41.4,0H42.5z"/>
				<path id="Path_3649" class="st63" d="M43.6,0l37,37V38l-38-38H43.6z"/>
				<path id="Path_3650" class="st64" d="M44.6,0l35.9,35.9V37l-37-37H44.6z"/>
				<path id="Path_3651" class="st65" d="M45.7,0l34.8,34.8v1.1L44.6,0L45.7,0z"/>
				<path id="Path_3652" class="st66" d="M46.8,0l33.7,33.7v1.1L45.7,0L46.8,0z"/>
				<path id="Path_3653" class="st67" d="M47.9,0l32.7,32.7v1.1L46.8,0H47.9z"/>
				<path id="Path_3654" class="st68" d="M48.9,0l31.6,31.6v1.1L47.9,0H48.9z"/>
				<path id="Path_3655" class="st69" d="M50,0l30.5,30.5v1.1L48.9,0H50z"/>
				<path id="Path_3656" class="st70" d="M51.1,0l29.4,29.4v1.1L50,0H51.1z"/>
				<path id="Path_3657" class="st71" d="M52.2,0l28.3,28.3v1.1L51.1,0H52.2z"/>
				<path id="Path_3658" class="st72" d="M53.3,0l27.3,27.3v1.1L52.2,0H53.3z"/>
				<path id="Path_3659" class="st73" d="M54.3,0l26.2,26.2v1.1L53.3,0H54.3z"/>
				<path id="Path_3660" class="st74" d="M55.4,0l25.1,25.1v1.1L54.3,0L55.4,0z"/>
				<path id="Path_3661" class="st75" d="M56.5,0l24,24v1.1L55.4,0H56.5z"/>
				<path id="Path_3662" class="st76" d="M57.6,0l23,23V24l-24-24H57.6z"/>
				<path id="Path_3663" class="st77" d="M58.6,0l21.9,21.9V23l-23-23H58.6z"/>
				<path id="Path_3664" class="st78" d="M59.7,0l20.8,20.8v1.1L58.6,0H59.7z"/>
				<path id="Path_3665" class="st79" d="M60.8,0l19.7,19.7v1.1L59.7,0H60.8z"/>
				<path id="Path_3666" class="st80" d="M61.9,0l18.7,18.7v1.1L60.8,0H61.9z"/>
				<path id="Path_3667" class="st81" d="M62.9,0l17.6,17.6v1.1L61.9,0H62.9z"/>
				<path id="Path_3668" class="st82" d="M64,0l16.5,16.5v1.1L62.9,0H64z"/>
				<path id="Path_3669" class="st83" d="M65.1,0l15.4,15.4v1.1L64,0H65.1z"/>
				<path id="Path_3670" class="st84" d="M66.2,0l14.4,14.4v1.1L65.1,0H66.2z"/>
				<path id="Path_3671" class="st85" d="M67.2,0l13.3,13.3v1.1L66.2,0H67.2z"/>
				<path id="Path_3672" class="st86" d="M68.3,0l12.2,12.2v1.1L67.2,0H68.3z"/>
				<path id="Path_3673" class="st86" d="M80.5,12.2L68.3,0h12.2V12.2z"/>
			</g>
		</g>
	</g>
</g>
<g id="Group_1428" transform="translate(25.716 28.372)">
	
		<rect id="Rectangle_6709" x="3.4" y="3.4" transform="matrix(0.7649 -0.6442 0.6442 0.7649 -4.8445 10.4139)" class="st87" width="16.8" height="16.8"/>
</g>
<g id="Group_1429" transform="translate(12.859 39.201)">
	
		<rect id="Rectangle_6710" x="3.4" y="3.4" transform="matrix(0.7649 -0.6442 0.6442 0.7649 -4.8447 10.4133)" class="st88" width="16.8" height="16.8"/>
</g>
<g id="Group_1430" transform="translate(-0.001 50.03)">
	
		<rect id="Rectangle_6711" x="3.4" y="3.4" transform="matrix(0.7649 -0.6442 0.6442 0.7649 -4.8443 10.4146)" class="st89" width="16.8" height="16.8"/>
</g>
<g id="Group_1431" transform="translate(2.03 26.343)">
	
		<rect id="Rectangle_6712" x="3.4" y="3.4" transform="matrix(0.7649 -0.6442 0.6442 0.7649 -4.8445 10.4139)" class="st90" width="16.8" height="16.8"/>
</g>
<g id="Group_1432" transform="translate(23.687 52.059)">
	
		<rect id="Rectangle_6713" x="3.4" y="3.4" transform="matrix(0.7649 -0.6442 0.6442 0.7649 -4.8443 10.4146)" class="st91" width="16.8" height="16.8"/>
</g>
</svg>
