<?xml version="1.0" encoding="utf-8"?>
<!-- Generator: Adobe Illustrator 26.5.3, SVG Export Plug-In . SVG Version: 6.00 Build 0)  -->
<svg version="1.1" id="Layer_1" xmlns="http://www.w3.org/2000/svg" xmlns:xlink="http://www.w3.org/1999/xlink" x="0px" y="0px"
	 viewBox="0 0 109 63.6" style="enable-background:new 0 0 109 63.6;" xml:space="preserve">
<style type="text/css">
	.st0{fill:#48C0B9;}
	.st1{fill:#138597;}
</style>
<path class="st0" d="M46,13H6c-3.3,0-6,2.7-6,6v27c0,3.3,2.7,6,6,6h25.5l13.4,11.6l0-11.6H46c3.3,0,6-2.7,6-6V19
	C52,15.7,49.3,13,46,13z"/>
<path class="st1" d="M103,0H63c-3.3,0-6,2.7-6,6v27c0,3.3,2.7,6,6,6h3.9l0,13.1L81.9,39H103c3.3,0,6-2.7,6-6V6
	C109,2.7,106.3,0,103,0z"/>
</svg>
