<?xml version="1.0" encoding="utf-8"?>
<!-- Generator: Adobe Illustrator 26.5.3, SVG Export Plug-In . SVG Version: 6.00 Build 0)  -->
<svg version="1.1" id="Layer_1" xmlns="http://www.w3.org/2000/svg" xmlns:xlink="http://www.w3.org/1999/xlink" x="0px" y="0px"
	 viewBox="0 0 81.8 54.6" style="enable-background:new 0 0 81.8 54.6;" xml:space="preserve">
<style type="text/css">
	.st0{fill:#1A5B6E;}
	.st1{fill:#FFFFFF;}
	.st2{fill:#F2F2F2;}
	.st3{fill:#138597;}
</style>
<g id="Group_1420" transform="translate(0 39.567)">
	<path id="Rectangle_6687" class="st0" d="M3.6,0h74.5c2,0,3.6,1.6,3.6,3.6v7.8c0,2-1.6,3.6-3.6,3.6H3.6c-2,0-3.6-1.6-3.6-3.6V3.6
		C0,1.6,1.6,0,3.6,0z"/>
	<rect id="Rectangle_6688" x="9.8" y="3.4" class="st1" width="2.5" height="8.3"/>
	<rect id="Rectangle_6689" x="4.7" y="3.3" class="st1" width="2.5" height="8.3"/>
	<rect id="Rectangle_6690" x="20" y="3.4" class="st1" width="2.5" height="8.3"/>
	<rect id="Rectangle_6691" x="14.9" y="3.4" class="st1" width="2.5" height="8.3"/>
	<rect id="Rectangle_6692" x="25.1" y="3.4" class="st1" width="2.5" height="8.3"/>
	<rect id="Rectangle_6693" x="30.2" y="3.3" class="st1" width="2.5" height="8.3"/>
	<ellipse id="Ellipse_108" class="st2" cx="58.8" cy="7.5" rx="3.2" ry="2.6"/>
	<ellipse id="Ellipse_109" class="st2" cx="70.3" cy="7.5" rx="3.2" ry="2.6"/>
</g>
<g id="Group_1539" transform="translate(0 19.784)">
	<path id="Rectangle_6687-2" class="st3" d="M3.6,0h74.5c2,0,3.6,1.6,3.6,3.6v7.8c0,2-1.6,3.6-3.6,3.6H3.6c-2,0-3.6-1.6-3.6-3.6V3.6
		C0,1.6,1.6,0,3.6,0z"/>
	<rect id="Rectangle_6688-2" x="9.8" y="3.4" class="st1" width="2.5" height="8.3"/>
	<rect id="Rectangle_6689-2" x="4.7" y="3.3" class="st1" width="2.5" height="8.3"/>
	<rect id="Rectangle_6690-2" x="20" y="3.4" class="st1" width="2.5" height="8.3"/>
	<rect id="Rectangle_6691-2" x="14.9" y="3.4" class="st1" width="2.5" height="8.3"/>
	<rect id="Rectangle_6692-2" x="25.1" y="3.4" class="st1" width="2.5" height="8.3"/>
	<rect id="Rectangle_6693-2" x="30.2" y="3.3" class="st1" width="2.5" height="8.3"/>
	<ellipse id="Ellipse_108-2" class="st2" cx="58.8" cy="7.5" rx="3.2" ry="2.6"/>
	<ellipse id="Ellipse_109-2" class="st2" cx="70.3" cy="7.5" rx="3.2" ry="2.6"/>
</g>
<g id="Group_1540">
	<path id="Rectangle_6687-3" class="st0" d="M3.6,0h74.5c2,0,3.6,1.6,3.6,3.6v7.8c0,2-1.6,3.6-3.6,3.6H3.6c-2,0-3.6-1.6-3.6-3.6V3.6
		C0,1.6,1.6,0,3.6,0z"/>
	<rect id="Rectangle_6688-3" x="9.8" y="3.4" class="st1" width="2.5" height="8.3"/>
	<rect id="Rectangle_6689-3" x="4.7" y="3.3" class="st1" width="2.5" height="8.3"/>
	<rect id="Rectangle_6690-3" x="20" y="3.4" class="st1" width="2.5" height="8.3"/>
	<rect id="Rectangle_6691-3" x="14.9" y="3.4" class="st1" width="2.5" height="8.3"/>
	<rect id="Rectangle_6692-3" x="25.1" y="3.4" class="st1" width="2.5" height="8.3"/>
	<rect id="Rectangle_6693-3" x="30.2" y="3.3" class="st1" width="2.5" height="8.3"/>
	<ellipse id="Ellipse_108-3" class="st2" cx="58.8" cy="7.5" rx="3.2" ry="2.6"/>
	<ellipse id="Ellipse_109-3" class="st2" cx="70.3" cy="7.5" rx="3.2" ry="2.6"/>
</g>
</svg>
