<?xml version="1.0" encoding="utf-8"?>
<!-- Generator: Adobe Illustrator 26.5.3, SVG Export Plug-In . SVG Version: 6.00 Build 0)  -->
<svg version="1.1" id="Layer_1" xmlns="http://www.w3.org/2000/svg" xmlns:xlink="http://www.w3.org/1999/xlink" x="0px" y="0px"
	 viewBox="0 0 87.8 88.7" style="enable-background:new 0 0 87.8 88.7;" xml:space="preserve">
<style type="text/css">
	.st0{fill-rule:evenodd;clip-rule:evenodd;fill:#FFFFFF;}
	.st1{fill-rule:evenodd;clip-rule:evenodd;fill:#48C0B9;}
	.st2{fill-rule:evenodd;clip-rule:evenodd;fill:#138597;}
</style>
<path id="Path_3047" class="st0" d="M38.2,10.7H62c6.3,0,11.6,5,12.5,11.4h-6.7c-0.7-2.6-3.1-4.4-5.8-4.5H35.5l-7.4-7.9l-7.4,7.9h-8
	c-3.5,0.1-6.2,3-6.1,6.5v26.7c-0.1,3.5,2.6,6.4,6.1,6.5H62c3.5-0.1,6.2-3,6.1-6.5v-17h6.6v17c0,7.3-5.7,13.4-12.7,13.4H12.7
	c-7,0-12.7-6-12.7-13.4V24.1c0-7.3,5.7-13.4,12.7-13.4H18L28.1,0L38.2,10.7z"/>
<path id="Path_3048" class="st0" d="M49.7,78H25.7c-6.3,0-11.6-5-12.5-11.4h6.7c0.7,2.6,3.1,4.4,5.8,4.5h26.6l7.4,7.9l7.3-7.9h8
	c3.5-0.1,6.2-3,6.1-6.5V37.8c0.1-3.5-2.6-6.4-6.1-6.5H25.7c-3.5,0.1-6.2,3-6.1,6.5v17h-6.6V37.9c0-7.3,5.7-13.4,12.7-13.4h49.4
	c7,0,12.7,6,12.7,13.4v26.7C87.8,72,82.1,78,75.1,78h-5.3L59.7,88.7L49.7,78z"/>
<path id="Path_3049" class="st0" d="M35.4,44.8c0,2.5-2,4.5-4.5,4.5s-4.5-2-4.5-4.5s2-4.5,4.5-4.5l0,0
	C33.4,40.3,35.4,42.3,35.4,44.8"/>
<path id="Path_3050" class="st0" d="M48.4,44.8c0,2.5-2,4.5-4.5,4.5s-4.5-2-4.5-4.5s2-4.5,4.5-4.5l0,0
	C46.3,40.3,48.4,42.3,48.4,44.8"/>
<path id="Path_3051" class="st0" d="M61.7,44.8c0,2.5-2,4.5-4.5,4.5c-2.5,0-4.5-2-4.5-4.5c0-2.5,2-4.5,4.5-4.5
	C59.6,40.3,61.6,42.3,61.7,44.8"/>
<path id="Path_3052" class="st1" d="M38.2,10.7H62c6.3,0,11.6,5,12.5,11.4h-6.7c-0.7-2.6-3.1-4.4-5.8-4.5H35.5l-7.4-7.9l-7.4,7.9h-8
	c-3.5,0.1-6.2,3-6.1,6.5v26.7c-0.1,3.5,2.6,6.4,6.1,6.5H62c3.5-0.1,6.2-3,6.1-6.5v-17h6.6v17c0,7.3-5.7,13.4-12.7,13.4H12.7
	c-7,0-12.7-6-12.7-13.4V24.1c0-7.3,5.7-13.4,12.7-13.4H18L28.1,0L38.2,10.7z"/>
<path id="Path_3053" class="st2" d="M49.7,78H25.7c-6.3,0-11.6-5-12.5-11.4h6.7c0.7,2.6,3.1,4.4,5.8,4.5h26.6l7.4,7.9l7.3-7.9h8
	c3.5-0.1,6.2-3,6.1-6.5V37.8c0.1-3.5-2.6-6.4-6.1-6.5H25.7c-3.5,0.1-6.2,3-6.1,6.5v17h-6.6V37.9c0-7.3,5.7-13.4,12.7-13.4h49.4
	c7,0,12.7,6,12.7,13.4v26.7C87.8,72,82.1,78,75.1,78h-5.3L59.7,88.7L49.7,78z"/>
<path id="Path_3054" class="st1" d="M35.4,44.8c0,2.5-2,4.5-4.5,4.5s-4.5-2-4.5-4.5s2-4.5,4.5-4.5l0,0
	C33.4,40.3,35.4,42.3,35.4,44.8"/>
<path id="Path_3055" class="st1" d="M48.4,44.8c0,2.5-2,4.5-4.5,4.5s-4.5-2-4.5-4.5s2-4.5,4.5-4.5l0,0
	C46.3,40.3,48.4,42.3,48.4,44.8"/>
<path id="Path_3056" class="st1" d="M61.7,44.8c0,2.5-2,4.5-4.5,4.5c-2.5,0-4.5-2-4.5-4.5c0-2.5,2-4.5,4.5-4.5
	C59.6,40.3,61.6,42.3,61.7,44.8"/>
</svg>
