<?xml version="1.0" encoding="utf-8"?>
<!-- Generator: Adobe Illustrator 26.5.3, SVG Export Plug-In . SVG Version: 6.00 Build 0)  -->
<svg version="1.1" id="Layer_1" xmlns="http://www.w3.org/2000/svg" xmlns:xlink="http://www.w3.org/1999/xlink" x="0px" y="0px"
	 viewBox="0 0 77.1 66.8" style="enable-background:new 0 0 77.1 66.8;" xml:space="preserve">
<style type="text/css">
	.st0{fill:#48C0B9;}
	.st1{fill:#138597;}
</style>
<path id="Path_3675" class="st0" d="M71.7,35.1c7.2-8.3,7.2-20.7,0-29c-6-7.1-16.6-8-23.8-2.2L47.7,4c-1.9,1.6-2.3,4.3-0.9,6.3
	c1.1,1.8,3.4,2.4,5.2,1.4c0,0,0,0,0,0c0.2-0.1,0.3-0.2,0.5-0.3l0.2-0.2c4-3.3,9.9-2.7,13.2,1.2c4,4.6,4,11.5,0,16.2l-14.3,16
	c-3.4,4-9.5,4.5-13.5,1.1c-0.4-0.3-0.7-0.7-1.1-1.1c-3.6-4.1-4-10.1-1.1-14.7l0.1-0.2c1.3-2.1,0.9-4.8-0.9-6.3
	c-1.7-1.3-4.1-1-5.4,0.6c0,0,0,0,0,0c-0.1,0.1-0.2,0.3-0.3,0.4l-0.1,0.2c-5.2,8.3-4.5,19,1.9,26.4c6.1,7.2,17,8.1,24.2,1.9
	c0.7-0.6,1.3-1.2,1.9-1.9L71.7,35.1z"/>
<path id="Path_3676" class="st1" d="M5.4,31.7c-7.2,8.3-7.2,20.7,0,29c6,7.1,16.6,8,23.8,2.2l0.2-0.2c1.9-1.6,2.3-4.3,0.9-6.3
	c-1.1-1.8-3.4-2.4-5.2-1.4c0,0,0,0,0,0c-0.2,0.1-0.3,0.2-0.5,0.3l-0.2,0.2c-4.1,3.3-9.9,3.1-13.2-1.2s-4-11.7,0-16.2l14.3-15.9
	c3.4-4,9.5-4.5,13.5-1.1c0.4,0.3,0.7,0.7,1.1,1.1c3.6,4.1,4,10.1,1.1,14.8L41,37.2c-1.3,2.1-0.9,4.8,0.9,6.3c1.7,1.3,4.1,1,5.4-0.6
	c0,0,0,0,0,0c0.1-0.1,0.2-0.3,0.3-0.4l0.1-0.2c5.2-8.3,4.5-19-2-26.5c-6.1-7.2-17-8.1-24.2-1.9c-0.7,0.6-1.3,1.2-1.9,1.9L5.4,31.7z"
	/>
</svg>
