<?xml version="1.0" encoding="utf-8"?>
<!-- Generator: Adobe Illustrator 26.5.3, SVG Export Plug-In . SVG Version: 6.00 Build 0)  -->
<svg version="1.1" id="Layer_1" xmlns="http://www.w3.org/2000/svg" xmlns:xlink="http://www.w3.org/1999/xlink" x="0px" y="0px"
	 viewBox="0 0 34 34" style="enable-background:new 0 0 34 34;" xml:space="preserve">
<style type="text/css">
	.st0{fill:#48C0B9;}
	.st1{fill:#FFFFFF;}
</style>
<path id="Path_3352_00000164514286690759379030000007044308521305088958_" class="st0" d="M17,34C7.6,34,0,26.4,0,17S7.6,0,17,0
	s17,7.6,17,17c0,0,0,0,0,0C34,26.4,26.4,34,17,34z"/>
<path class="st1" d="M21.8,24.6c-0.3,0-0.6,0.1-0.8,0.4l-3.2,4.3c-0.3,0.4-0.9,0.5-1.3,0.2c-0.1-0.1-0.1-0.1-0.2-0.2L13,25l0,0
	c-0.2-0.3-0.5-0.4-0.8-0.4c-3,0.3-5.6,2-7.1,4.5c3.1,3,7.3,4.9,11.9,4.9c4.7,0,8.9-1.9,11.9-4.9C27.4,26.6,24.8,24.9,21.8,24.6z"/>
<path class="st1" d="M16.6,23.4c4.2,0,7.7-3.4,7.7-7.7v-1c0-4.2-3.4-7.7-7.7-7.7S9,10.5,9,14.8v1C9,20,12.4,23.4,16.6,23.4z
	 M11.8,14.8c0-0.3,0-0.6,0.1-1h1.8c1.7,0,3.3-0.9,4.2-2.4c0.7,0.9,1.8,1.5,3,1.5H21c0.3,0.6,0.4,1.3,0.4,1.9v1
	c0,2.7-2.1,4.8-4.8,4.8s-4.8-2.1-4.8-4.8V14.8z"/>
</svg>
