<?xml version="1.0" encoding="utf-8"?>
<!-- Generator: Adobe Illustrator 26.5.3, SVG Export Plug-In . SVG Version: 6.00 Build 0)  -->
<svg version="1.1" id="Layer_1" xmlns="http://www.w3.org/2000/svg" xmlns:xlink="http://www.w3.org/1999/xlink" x="0px" y="0px"
	 viewBox="0 0 66.7 66.5" style="enable-background:new 0 0 66.7 66.5;" xml:space="preserve">
<style type="text/css">
	.st0{fill:#107180;}
</style>
<path class="st0" d="M66.3,28.5c0-0.2-0.1-0.5-0.1-0.7C63.2,9.6,46-2.6,27.9,0.5C11.9,3,0,16.8,0,33.1c0,10.6,0,21.2,0,31.8v1.6h1.2
	c7.1,0,14.1,0,21.2,0c4.8,0,9.6,0.2,14.3-0.2C55.4,64.6,69.1,46.9,66.3,28.5z M33.6,53c-2.4-0.1-4.8-0.9-7.2-1.3
	c-0.6-0.1-1.3-0.2-1.9-0.1c-4,0.8-8,1.8-12.2,2.7l0,0c1.2-3.7,2.3-7.1,3.3-10.6c0.2-0.7,0.1-1.4-0.1-2c-3.3-7.7-2.6-15,2.8-21.5
	c5.5-6.5,12.7-8.8,20.9-6.7C47.3,15.5,52.4,21,54,29.3c0.3,1.4,0.4,2.8,0.3,4.2C54,44.6,44.7,53.3,33.6,53z"/>
</svg>
