<?xml version="1.0" encoding="utf-8"?>
<!-- Generator: Adobe Illustrator 26.5.3, SVG Export Plug-In . SVG Version: 6.00 Build 0)  -->
<svg version="1.1" id="Layer_1" xmlns="http://www.w3.org/2000/svg" xmlns:xlink="http://www.w3.org/1999/xlink" x="0px" y="0px"
	 viewBox="0 0 76.5 69.9" style="enable-background:new 0 0 76.5 69.9;" xml:space="preserve">
<style type="text/css">
	.st0{fill:#138597;}
	.st1{fill:#48C0B9;}
</style>
<g id="Group_1529" transform="translate(0.001)">
	<path id="Path_3830" class="st0" d="M0.3,57.1c-0.7,1.1-0.3,2.4,0.7,3.1l0.1,0L17,69.5c1.1,0.7,2.6,0.3,3.3-0.8c0,0,0,0,0,0
		c10-15.9,12-13.6,42-0.1c1.2,0.6,2.6,0.1,3.2-1.1c0,0,0,0,0-0.1l7.5-16.2c0.5-1.1,0-2.5-1.1-3c0,0,0,0,0,0c0,0,0,0-0.1,0
		c-3.3-1.5-9.9-4.4-15.8-7.1C19,24,6.7,47.6,0.3,57.1z"/>
	<path id="Path_3831" class="st1" d="M76.2,12.8c0.7-1.1,0.3-2.4-0.7-3.1c0,0-0.1,0-0.1,0L59.5,0.4C58.4-0.3,56.9,0,56.2,1
		c0,0-0.1,0.1-0.1,0.1C46,17.2,43.9,14.7,14.1,1.3c-1.2-0.6-2.6-0.1-3.2,1.1c0,0,0,0,0,0.1L3.3,18.6c-0.5,1.1,0,2.5,1.1,3
		c0,0,0,0,0,0c0,0,0,0,0.1,0c3.3,1.5,9.9,4.4,15.8,7.2C57.4,45.9,69.8,22.4,76.2,12.8L76.2,12.8z"/>
</g>
</svg>
