<?xml version="1.0" encoding="utf-8"?>
<!-- Generator: Adobe Illustrator 28.1.0, SVG Export Plug-In . SVG Version: 6.00 Build 0)  -->
<svg version="1.1" id="Layer_1" xmlns="http://www.w3.org/2000/svg" xmlns:xlink="http://www.w3.org/1999/xlink" x="0px" y="0px"
	 viewBox="0 0 34 34" style="enable-background:new 0 0 34 34;" xml:space="preserve">
<style type="text/css">
	.st0{fill:#48C0B9;}
	.st1{fill:#F2F2F2;}
</style>
<path id="Path_3352_00000164514286690759379030000007044308521305088958_" class="st0" d="M17,34C7.6,34,0,26.4,0,17S7.6,0,17,0
	s17,7.6,17,17l0,0C34,26.4,26.4,34,17,34z"/>
<path class="st1" d="M16.2,7.7v0.9v1.4h4V8.6V7.7H22v0.9v1.4h3.8v2.3v1.7v0.6V21v1.7H24H12.5h-1.7V21v-6.4v-0.6v-1.7v-2.3h3.8V8.6
	V7.7H16.2z M12.5,14.7V21H24v-6.4H12.5z M9,14.4v10.1h12.4h0.9v1.7h-0.9H8.1H7.3v-0.9v-11v-0.9H9V14.4z"/>
</svg>
