<?xml version="1.0" encoding="utf-8"?>
<!-- Generator: Adobe Illustrator 26.5.3, SVG Export Plug-In . SVG Version: 6.00 Build 0)  -->
<svg version="1.1" id="Layer_6" xmlns="http://www.w3.org/2000/svg" xmlns:xlink="http://www.w3.org/1999/xlink" x="0px" y="0px"
	 viewBox="0 0 300 300" style="enable-background:new 0 0 300 300;" xml:space="preserve">
<style type="text/css">
	.st0{fill:#138597;}
	.st1{fill:#48C0B9;}
</style>
<g id="Group_1542" transform="translate(-0.001 0)">
	<path id="Path_3830" class="st0" d="M7.3,233.2c-2.4,3.9-1.2,9,2.7,11.4c0,0,0,0,0,0l0.3,0.2l58,33.9c4.2,2.5,9.5,1.3,12.3-2.8
		c0,0,0-0.1,0.1-0.1c36.8-58.4,44.1-49.9,153.9-0.4c4.4,2,9.6,0.3,11.9-4c0.1-0.1,0.1-0.2,0.1-0.2l27.6-59.4c1.9-4.2,0-9.1-4.1-11
		l-0.3-0.1c-12.2-5.4-36.3-16.2-58-26.2C75.9,111.8,30.5,198.4,7.3,233.2z"/>
	<path id="Path_3831" class="st1" d="M285.3,70.8c2.4-3.9,1.2-9-2.7-11.4c0,0,0,0,0,0l-0.3-0.2l-58-33.9c-4.1-2.6-9.5-1.6-12.4,2.3
		c-0.1,0.2-0.2,0.3-0.3,0.5c-36.9,58.6-44.4,49.8-153.7,0.5c-4.4-2-9.6-0.3-11.9,4c-0.1,0.1-0.1,0.2-0.1,0.2L18.2,92.2
		c-1.9,4.2,0,9.1,4.2,11c0,0,0,0,0,0l0.3,0.1c12.2,5.4,36.3,16.2,58.1,26.2C216.6,192,261.9,105.9,285.3,70.8L285.3,70.8z"/>
</g>
</svg>
