<?xml version="1.0" encoding="UTF-8"?><svg id="Layer_2" xmlns="http://www.w3.org/2000/svg" viewBox="0 0 288.65 285.88"><defs><style>.cls-1{fill:#00c3ba;}.cls-2{fill:#00879a;}</style></defs><g id="Layer_2-2"><g id="Group_1495"><g id="Group_1494"><g id="Group_1493"><g id="_1923_Group_Leader_Leadership_People_Person"><g id="Group_1492"><path id="Path_3721" class="cls-1" d="M165.82,105.55c15.79-12,18.85-34.53,6.85-50.31-12-15.79-34.53-18.85-50.31-6.85-15.79,12-18.85,34.53-6.85,50.31,1.96,2.58,4.27,4.89,6.85,6.85-19.48,8.53-32.08,27.77-32.13,49.04v47.63c.08,3.35,2.79,6.03,6.14,6.07h17.96v71.45c0,3.39,2.75,6.14,6.14,6.14s6.14-2.75,6.14-6.14h0v-95.74c0-3.39-2.75-6.14-6.14-6.14s-6.14,2.75-6.14,6.14v12.14h-11.81v-42.03c.3-23.22,19.37-41.8,42.59-41.5,22.79,.3,41.2,18.7,41.5,41.5v42.03h-11.81v-11.68c0-3.39-2.75-6.14-6.14-6.14s-6.14,2.75-6.14,6.14v95.27c0,3.39,2.75,6.14,6.14,6.14s6.14-2.75,6.14-6.14v-71.91h17.94c3.35-.04,6.06-2.72,6.14-6.07v-47.64c-.45-21.3-13.4-40.34-33.06-48.56Zm-45.82-28.49c-.15-13.31,10.51-24.22,23.81-24.37,13.31-.15,24.22,10.51,24.37,23.81,.15,13.31-10.51,24.22-23.81,24.37-.09,0-.18,0-.28,0-13.21,.02-23.96-10.61-24.09-23.82Z"/><path id="Path_3722" class="cls-1" d="M144.09,225.57c-3.35,.04-6.06,2.72-6.14,6.07v47.63c.08,3.39,2.89,6.07,6.28,5.99,3.28-.08,5.92-2.72,5.99-5.99v-47.63c-.08-3.35-2.79-6.03-6.14-6.07Z"/><path id="Path_3723" class="cls-1" d="M77.95,70.99c19.6-.23,35.31-16.3,35.08-35.91C112.81,15.48,96.73-.22,77.13,0c-19.44,.23-35.09,16.05-35.08,35.49,.1,19.71,16.16,35.6,35.87,35.49,.01,0,.02,0,.04,0Zm0-59.31c13.15,.15,23.7,10.94,23.54,24.09-.15,13.15-10.94,23.7-24.09,23.54-13.05-.15-23.55-10.77-23.55-23.82,.13-13.21,10.89-23.84,24.09-23.82h0Z"/><path id="Path_3724" class="cls-2" d="M210.23,70.99c19.6-.23,35.31-16.3,35.09-35.9C245.09,15.49,229.02-.22,209.42,0c-19.44,.22-35.09,16.05-35.09,35.49,.1,19.71,16.16,35.6,35.87,35.49,.01,0,.02,0,.03,0Zm0-59.31c13.15,.15,23.7,10.94,23.54,24.09-.15,13.15-10.94,23.7-24.09,23.54-13.05-.15-23.55-10.77-23.55-23.82,.13-13.21,10.89-23.84,24.09-23.82h0Z"/><path id="Path_3725" class="cls-2" d="M68.97,190.08c-3.35,.04-6.06,2.72-6.14,6.07v83.13c.08,3.39,2.89,6.07,6.28,5.99,3.28-.08,5.92-2.72,5.99-5.99v-83.13c-.24-3.28-2.86-5.87-6.14-6.07Z"/><path id="Path_3726" class="cls-2" d="M47.71,231.64c-3.35,.04-6.06,2.72-6.14,6.07v41.56c0,3.39,2.75,6.14,6.14,6.14s6.14-2.75,6.14-6.14v-41.56c-.08-3.35-2.8-6.03-6.15-6.07Z"/><path id="Path_3727" class="cls-2" d="M47.71,70.05c-17.71-.03-32.1,14.31-32.13,32.02,0,.07,0,.13,0,.2,.14,9.58,4.45,18.62,11.82,24.75C10.77,134.9,.12,151.6,0,169.99v41.56c.08,3.35,2.79,6.03,6.14,6.07h15.12v61.64c0,3.39,2.75,6.14,6.14,6.14s6.14-2.75,6.14-6.14v-83.13c0-3.39-2.75-6.14-6.14-6.14s-6.14,2.75-6.14,6.14v9.34H12.29v-35.49c.11-19.71,16.17-35.6,35.88-35.49,0,0,.02,0,.03,0,17.72,.12,32.25-14.04,32.59-31.76-.32-18.07-15-32.58-33.07-32.69Zm0,52.3c-11.09-.13-19.98-9.22-19.85-20.31,.13-11.09,9.22-19.98,20.31-19.85,11,.13,19.85,9.08,19.85,20.08,.02,11.07-8.94,20.06-20.01,20.08-.1,0-.2,0-.3,0Z"/><path id="Path_3728" class="cls-1" d="M260.77,127.03c7.36-6.13,11.67-15.17,11.81-24.75,.2-17.74-14.01-32.29-31.76-32.49-17.74-.2-32.29,14.01-32.49,31.76-.2,17.74,14.01,32.29,31.76,32.49,.12,0,.25,0,.37,0,19.71-.12,35.78,15.75,35.9,35.46,0,.01,0,.02,0,.03v35.96h-8.98v-9.34c0-3.39-2.75-6.14-6.14-6.14s-6.14,2.75-6.14,6.14v83.13c0,3.39,2.75,6.14,6.14,6.14s6.14-2.75,6.14-6.14v-61.64h15.12c3.35-.04,6.06-2.72,6.14-6.07v-41.56c0-18.57-10.91-35.41-27.87-42.97Zm-40.63-24.75c-.13-11.22,8.86-20.42,20.08-20.55,11.22-.13,20.42,8.86,20.55,20.08,.13,11.22-8.86,20.42-20.08,20.55-.08,0-.16,0-.24,0-11.07,.15-20.16-8.71-20.31-19.78,0-.1,0-.2,0-.3Z"/><path id="Path_3729" class="cls-1" d="M219.2,190.08c-3.35,.04-6.06,2.72-6.14,6.07v83.13c0,3.39,2.75,6.14,6.14,6.14s6.14-2.75,6.14-6.14v-83.13c-.08-3.35-2.79-6.03-6.14-6.07Z"/><path id="Path_3730" class="cls-1" d="M240.46,231.64c-3.35,.04-6.06,2.72-6.14,6.07v41.56c0,3.39,2.75,6.14,6.14,6.14s6.14-2.75,6.14-6.14v-41.56c-.08-3.35-2.79-6.03-6.14-6.07Z"/></g></g></g></g></g></g></svg>