<?xml version="1.0" encoding="UTF-8"?><svg id="Layer_2" xmlns="http://www.w3.org/2000/svg" viewBox="0 0 297.11 294.72"><defs><style>.cls-1{fill:#138597;}.cls-2{fill:#48c0b9;}</style></defs><g id="Layer_3"><g id="Group_1497"><g id="_1907_Class_Education_People_School_Students"><g id="Group_1496"><path id="Path_3732" class="cls-2" d="M290.79,.53H105.04c-3.45-.09-6.32,2.64-6.4,6.09-.09,3.45,2.64,6.32,6.09,6.4,.1,0,.21,0,.31,0h179.92V181.28H105.04c-3.45-.09-6.32,2.64-6.4,6.09-.09,3.45,2.64,6.32,6.09,6.4,.1,0,.21,0,.31,0h185.75c3.45-.04,6.24-2.8,6.32-6.25V6.78c-.08-3.44-2.88-6.2-6.32-6.25Z"/><path id="Path_3733" class="cls-1" d="M61.76,190.4v-30.77c0-3.49-2.84-6.32-6.33-6.32-3.49,0-6.31,2.83-6.32,6.32v30.77c0,3.49,2.84,6.32,6.33,6.32,3.49,0,6.31-2.83,6.32-6.32Z"/><path id="Path_3734" class="cls-1" d="M105.03,141.38c3.45-.04,6.24-2.81,6.32-6.25v-18.27c-3.34-34.07-26.26-47.59-33.55-50.47,16.25-12.35,19.41-35.54,7.05-51.79C72.5-1.66,49.31-4.81,33.06,7.54c-16.25,12.35-19.41,35.54-7.05,51.79,2.02,2.66,4.39,5.03,7.05,7.05C13.01,75.17,.05,94.97,0,116.86v18.75c.08,3.44,2.87,6.21,6.32,6.25H24.31v49.03c0,3.49,2.84,6.32,6.33,6.32,3.49,0,6.31-2.83,6.32-6.32V116.86c0-3.49-2.84-6.32-6.33-6.32-3.49,0-6.31,2.83-6.32,6.32v12.02H12.16v-12.02c.2-23.74,19.54-42.85,43.28-42.78,24.97,.58,42.71,17.55,43.28,42.3v12.02h-12.16v-12.03c0-3.49-2.84-6.32-6.33-6.32-3.49,0-6.31,2.83-6.32,6.32v73.55c0,3.49,2.84,6.32,6.33,6.32,3.49,0,6.31-2.83,6.32-6.32v-48.55h18.48ZM30.63,37.55c-.16-13.7,10.82-24.93,24.51-25.08s24.93,10.82,25.08,24.51c.16,13.7-10.82,24.93-24.51,25.08-.1,0-.19,0-.29,0-13.59,.02-24.66-10.93-24.79-24.52h0Z"/><path id="Path_3736" class="cls-1" d="M54.95,250.01c4.47-4.44,6.93-10.52,6.81-16.82-.01-13.7-11.13-24.79-24.82-24.78-13.68,.01-24.76,11.1-24.78,24.78-.12,6.3,2.33,12.38,6.81,16.82C7.13,256.37-.18,268.79,0,282.22v6.25c.08,3.44,2.87,6.21,6.32,6.25h61.75c3.45-.04,6.24-2.81,6.32-6.25v-6.25c-.66-13.32-7.97-25.42-19.45-32.2Zm-30.63-16.82c-.08-6.71,5.3-12.22,12.02-12.3,6.71-.08,12.22,5.3,12.3,12.02s-5.3,12.22-12.02,12.3c-.05,0-.09,0-.14,0-6.61,.11-12.06-5.17-12.16-11.78,0-.08,0-.16,0-.24Zm-12.16,49.03c.01-13.7,11.13-24.79,24.82-24.78,13.68,.01,24.76,11.1,24.78,24.78H12.16Z"/><path id="Path_3737" class="cls-1" d="M166.31,250.01c4.47-4.44,6.93-10.52,6.81-16.82-.01-13.7-11.13-24.79-24.82-24.78-13.68,.01-24.76,11.1-24.78,24.78-.13,6.3,2.33,12.38,6.81,16.82-11.95,6.3-19.44,18.69-19.44,32.2v6.25c.08,3.44,2.87,6.21,6.32,6.25h61.75c3.45-.04,6.24-2.81,6.32-6.25v-6.25c-.27-13.31-7.46-25.52-18.97-32.2Zm-30.15-16.82c-.08-6.71,5.3-12.22,12.02-12.3,6.71-.08,12.22,5.3,12.3,12.02,.08,6.71-5.3,12.22-12.02,12.3-.05,0-.1,0-.14,0-6.61,.1-12.05-5.18-12.15-11.79,0-.08,0-.15,0-.23Zm-12.63,49.03c.01-13.7,11.13-24.79,24.82-24.78,13.68,.01,24.76,11.1,24.78,24.78h-49.6Z"/><path id="Path_3738" class="cls-1" d="M277.67,250.01c4.47-4.44,6.93-10.52,6.81-16.82-.01-13.7-11.13-24.79-24.82-24.78-13.68,.01-24.76,11.1-24.78,24.78-.13,6.3,2.34,12.38,6.81,16.82-11.84,6.35-19.16,18.77-18.97,32.2v6.25c.08,3.44,2.87,6.21,6.32,6.25h61.75c3.45-.04,6.24-2.8,6.32-6.25v-6.25c-.25-13.44-7.67-25.72-19.45-32.2Zm-30.15-16.82c-.08-6.71,5.3-12.22,12.02-12.3,6.71-.08,12.22,5.3,12.3,12.02s-5.3,12.22-12.02,12.3c-.05,0-.1,0-.14,0-6.45,.26-11.89-4.75-12.15-11.2-.01-.27-.01-.55,0-.82Zm-12.64,49.03c.01-13.7,11.13-24.79,24.82-24.78,13.68,.01,24.76,11.1,24.78,24.78h-49.6Z"/><g><path class="cls-1" d="M232.5,108.17c-1.42-.61-3-.63-4.44-.05-1.44,.58-2.57,1.68-3.18,3.1-5.65,13.2-18.57,21.73-32.93,21.73h-.02c-8.11,0-15.74-3.17-21.49-8.9l-9.47-9.47h9.31c.11,0,.22,0,.32,0,3.2-.09,5.72-2.76,5.64-5.96-.09-3.2-2.72-5.73-5.94-5.64h-23.35c-1.55,0-3,.61-4.09,1.71s-1.69,2.55-1.68,4.1v23.35c.09,3.07,2.56,5.55,5.64,5.64,3.21,.09,5.87-2.44,5.96-5.66v-9.33l9.47,9.48c7.92,7.92,18.46,12.29,29.66,12.29,.01,0,.02,0,.03,0,19.01,0,36.12-11.29,43.59-28.77,1.26-2.94-.11-6.35-3.04-7.61Z"/><path class="cls-1" d="M237.04,49.88c-1.51-.05-3.02,.52-4.15,1.58-1.13,1.06-1.77,2.5-1.81,4.07v15.97l-9.47-9.48c-7.92-7.92-18.46-12.29-29.66-12.29h-.01c-19.05,0-36.19,11.34-43.66,28.91-1.02,2.81,.24,5.91,2.92,7.21,2.88,1.4,6.36,.19,7.77-2.73,5.64-13.24,18.57-21.79,32.96-21.79h0c8.11,0,15.74,3.17,21.49,8.9l9.47,9.47h-15.99c-3.07,.09-5.55,2.56-5.64,5.64-.09,3.2,2.44,5.87,5.66,5.96h29.99c3.19,0,5.78-2.61,5.77-5.8v-29.98c-.09-3.07-2.56-5.55-5.64-5.64Z"/></g></g></g></g></g></svg>