<?xml version="1.0" encoding="utf-8"?>
<!-- Generator: Adobe Illustrator 26.5.3, SVG Export Plug-In . SVG Version: 6.00 Build 0)  -->
<svg version="1.1" id="Layer_6" xmlns="http://www.w3.org/2000/svg" xmlns:xlink="http://www.w3.org/1999/xlink" x="0px" y="0px"
	 viewBox="0 0 296.3 185.9" style="enable-background:new 0 0 296.3 185.9;" xml:space="preserve">
<style type="text/css">
	.st0{fill:#138597;stroke:#168698;stroke-width:3.1569;}
</style>
<g id="E_-_575_Mail_message" transform="translate(-66.194 -80)">
	<path id="Path_3739" class="st0" d="M343.8,81.6H84.4c-8.8-0.4-16.2,6.5-16.6,15.3c0,0.1,0,0.2,0,0.2v151.7
		c0.2,8.8,7.6,15.7,16.4,15.5c0.1,0,0.2,0,0.2,0h259.9c8.8,0.4,16.2-6.5,16.6-15.3c0-0.1,0-0.2,0-0.2V97.1
		C360.2,88.2,352.7,81.4,343.8,81.6z M80,100.7l78.5,70.2L80,244.2V100.7z M233.6,187.3c-11.2,9.6-27.8,9.6-39,0L88.7,93h250.7
		L233.6,187.3z M167.3,178.6l18.5,16.9c16,14.1,40.1,14.1,56.1,0l18.5-16.9l79,73.8H88.7L167.3,178.6z M269.7,170.9l78.5-70.2v143.5
		L269.7,170.9z"/>
</g>
</svg>
