<?xml version="1.0" encoding="UTF-8"?><svg id="Layer_2" xmlns="http://www.w3.org/2000/svg" viewBox="0 0 295.61 288.48"><defs><style>.cls-1{fill:#00c3ba;}.cls-2{fill:#00879a;}</style></defs><g id="Layer_6"><g><g id="technical_consultancy"><path id="Path_3847" class="cls-2" d="M74.59,87.86c-4.99,6.5-9.11,13.63-12.25,21.2l-3.69,8.99-9.43,2.08-30.88,6.66,.11,34.91,30.79,6.71,9.42,2.1,3.67,8.91c1.59,3.77,3.39,7.44,5.41,11,2.02,3.56,4.3,6.96,6.82,10.19l5.89,7.63-2.89,9.21-9.58,30.02,30.28,17.49,21.27-23.31,6.51-7.12,9.63,1.3c8.12,1.1,16.36,1.09,24.48,0l9.63-1.26,6.53,7.12,21.24,23.25,30.28-17.48-9.52-30.02-2.9-9.22,5.86-7.55c4.99-6.5,9.11-13.63,12.25-21.2l3.69-8.99,9.43-2.08,30.82-6.76v-34.97s-30.8-6.71-30.8-6.71l-9.44-2.08-3.67-8.91c-1.59-3.77-3.39-7.44-5.41-11-2.02-3.56-4.3-6.96-6.82-10.19l-5.89-7.64,2.89-9.21,9.58-30.02-30.28-17.49-21.27,23.31-6.51,7.12-9.63-1.3c-8.12-1.1-16.36-1.09-24.48,0l-9.63,1.26-6.53-7.12-21.3-23.35-30.15,17.41,9.48,30.17,2.9,9.22-5.91,7.72Zm-28.7-55.54L101.88,0l31.23,34.3c9.73-1.3,19.6-1.3,29.33,.01L193.64,.03l56.07,32.34-14.05,44.17c5.95,7.82,10.88,16.36,14.68,25.42l45.27,9.91-.03,64.72-45.29,9.87c-3.73,9.09-8.66,17.63-14.65,25.41l14.13,44.29-55.99,32.33-31.23-34.28c-9.73,1.3-19.6,1.3-29.33-.01l-31.25,34.19-56.01-32.24,14.05-44.17c-5.95-7.82-10.88-16.36-14.68-25.42L0,176.53,.03,111.81l45.29-9.87c3.73-9.09,8.66-17.63,14.65-25.41l-14.08-44.2Z"/></g><path id="Path_3848" class="cls-1" d="M166.18,90.25l-18.52,110.91-1.5,9.09-18.29-3.03,1.5-9.09,18.52-110.91,1.5-9.09,18.29,3.03-1.5,9.09Z"/><path id="Path_3849" class="cls-1" d="M108.17,127.65l-16.54,16.54,16.54,16.54,6.53,6.53-13.05,13.05-6.53-6.53-23.07-23.07-6.53-6.53,6.53-6.53,23.07-23.07,6.53-6.53,13.05,13.05-6.53,6.54Z"/><path id="Path_3850" class="cls-1" d="M200.56,114.6l23.07,23.07,6.53,6.53-6.53,6.53-23.07,23.19-6.53,6.53-13.05-13.05,6.53-6.53,16.54-16.54-16.54-16.54-6.53-6.53,13.05-13.05,6.53,6.39Z"/></g></g></svg>