<?xml version="1.0" encoding="UTF-8"?><svg id="Layer_2" xmlns="http://www.w3.org/2000/svg" viewBox="0 0 265.65 293.89"><defs><style>.cls-1{fill:#fff;}.cls-2{fill:#48c0b9;}.cls-3{fill:#138597;stroke-width:3.08px;}.cls-3,.cls-4{stroke:#138597;}.cls-5{stroke:#fff;stroke-width:9.24px;}.cls-5,.cls-6,.cls-4{fill:none;}.cls-6{stroke:#48c0b9;}.cls-6,.cls-4{stroke-miterlimit:10;stroke-width:9.47px;}</style></defs><g id="Layer_4"><g id="Group_1457"><circle id="Ellipse_123" class="cls-5" cx="114.21" cy="78.67" r="30.13"/><circle id="Ellipse_124" class="cls-4" cx="239.58" cy="86.28" r="21.34"/><circle id="Ellipse_124-2" class="cls-6" cx="114.72" cy="70.85" r="29.45"/><circle id="Ellipse_125" class="cls-4" cx="24.06" cy="142.95" r="19.33"/><g id="Group_1456"><g id="Group_1448"><g id="Group_1446"><path id="Path_3694" class="cls-1" d="M205.05,136.01c-4.38-.18-8.67,1.25-12.08,4-1.86-8.03-8.81-13.85-17.04-14.28-4.38-.18-8.67,1.25-12.08,4-1.86-8.03-8.81-13.85-17.04-14.28-4.16-.16-8.25,1.12-11.58,3.62v-42.07c.02-9.86-7.69-18.01-17.54-18.54-10.05-.36-18.48,7.48-18.85,17.53,0,.22-.01,.43-.01,.65v86.36c-6.59-7.59-18.09-8.41-25.68-1.82-5.49,4.77-7.62,12.34-5.41,19.27,0,0,11.8,37.04,16.45,51.59,.69,2.16,1.35,4.41,1.99,6.57,.25,.83,.49,1.67,.74,2.5,4.03,13.35,12.18,25.08,23.28,33.51,11.35,8.63,25.22,13.29,39.48,13.25h7.39c36.16-.04,65.46-29.34,65.5-65.5v-67.86c.02-9.86-7.69-18-17.53-18.54Z"/></g><g id="Group_1447"><path id="Path_3695" class="cls-3" d="M205.31,137.04c-4.48-.18-8.87,1.28-12.35,4.1-1.9-8.21-9.01-14.17-17.42-14.6-4.48-.18-8.87,1.28-12.35,4.1-1.9-8.21-9.01-14.17-17.42-14.6-4.25-.17-8.44,1.14-11.84,3.7v-43.02c.02-10.08-7.86-18.41-17.93-18.95-10.27-.37-18.9,7.65-19.27,17.92,0,.22-.01,.45-.01,.67v88.29c-6.74-7.76-18.5-8.58-26.26-1.84-5.61,4.87-7.78,12.61-5.53,19.69,0,0,12.06,37.86,16.82,52.75,.71,2.22,1.38,4.51,2.04,6.72,.25,.85,.5,1.71,.76,2.56,4.12,13.65,12.45,25.65,23.8,34.27,11.6,8.82,25.78,13.58,40.36,13.53h7.57c36.97-.04,66.92-30,66.97-66.97v-69.39c.02-10.08-7.86-18.41-17.93-18.95Zm10.47,88.33c-.04,32.86-26.67,59.49-59.52,59.52h-7.56c-26.27-.11-49.4-17.34-57.03-42.48l-.75-2.54c-.67-2.25-1.35-4.58-2.09-6.88-4.75-14.88-16.81-52.74-16.81-52.74-1.89-5.87,1.33-12.16,7.2-14.05,5.87-1.89,12.16,1.33,14.05,7.2,0,.03,.02,.05,.02,.08l3.58,11.25c.55,1.72,2.25,2.8,4.04,2.56l.15-.02c1.78-.31,3.08-1.86,3.08-3.67V76.38c0-6.17,5-11.16,11.17-11.16,.14,0,.27,0,.41,0,6.08,.37,10.8,5.43,10.75,11.51v93.74c0,2.06,1.67,3.72,3.72,3.72s3.72-1.67,3.72-3.72v-35.84c0-6.17,5-11.16,11.17-11.16,.14,0,.27,0,.41,0,6.08,.37,10.8,5.43,10.75,11.51v42.85c0,2.06,1.67,3.72,3.72,3.72s3.72-1.67,3.72-3.72v-32.72c0-6.17,5-11.16,11.17-11.16,.14,0,.27,0,.41,0,6.08,.37,10.8,5.43,10.75,11.51v37.7c0,2.06,1.67,3.72,3.72,3.72s3.72-1.67,3.72-3.72h0v-27.56c0-6.17,5-11.16,11.16-11.17,.14,0,.27,0,.41,0,6.08,.37,10.8,5.43,10.75,11.51l-.02,69.38Z"/></g></g><g id="Group_1455"><g id="Group_1449"><path id="Path_3696" class="cls-2" d="M112.27,28.9c-.76-.75-1.18-1.78-1.18-2.85V4.03C111.09,1.81,112.88,0,115.11,0s4.03,1.79,4.03,4.02V26.07c0,2.22-1.8,4.03-4.02,4.03-1.07,0-2.1-.42-2.85-1.18h0Z"/></g><g id="Group_1450"><path id="Path_3697" class="cls-2" d="M80.8,41.59l-15.57-15.57c-1.56-1.58-1.54-4.13,.04-5.69,1.57-1.55,4.09-1.55,5.65,0l15.57,15.57c1.57,1.57,1.57,4.12,0,5.7-1.57,1.57-4.12,1.57-5.7,0h0Z"/></g><g id="Group_1451"><path id="Path_3698" class="cls-2" d="M45.51,72.81c-1.57-1.57-1.57-4.12,0-5.69,.76-.76,1.78-1.18,2.85-1.18h22.01c2.22,0,4.03,1.79,4.03,4.02s-1.79,4.03-4.02,4.03h-22.03c-1.07,0-2.09-.42-2.85-1.18Z"/></g><g id="Group_1452"><path id="Path_3699" class="cls-2" d="M64.65,119.85c-1.57-1.57-1.57-4.12,0-5.7l15.57-15.57c1.58-1.56,4.13-1.55,5.69,.04,1.55,1.57,1.55,4.09,0,5.66l-15.57,15.57c-1.57,1.57-4.12,1.57-5.69,0Z"/></g><g id="Group_1453"><path id="Path_3700" class="cls-2" d="M156.18,73.64c-1.57-1.57-1.57-4.12,0-5.69,.76-.76,1.78-1.18,2.85-1.18h22.02c2.22,0,4.03,1.79,4.03,4.02,0,2.22-1.79,4.03-4.02,4.03h-22.03c-1.07,0-2.09-.42-2.85-1.18Z"/></g><g id="Group_1454"><path id="Path_3701" class="cls-2" d="M143.49,42.17c-1.57-1.57-1.57-4.12,0-5.69l15.57-15.57c1.57-1.57,4.12-1.57,5.7,0s1.57,4.12,0,5.7l-15.57,15.57c-1.57,1.57-4.12,1.57-5.69,0h0Z"/></g></g></g></g></g></svg>