<?xml version="1.0" encoding="utf-8"?>
<!-- Generator: Adobe Illustrator 26.5.3, SVG Export Plug-In . SVG Version: 6.00 Build 0)  -->
<svg version="1.1" id="Layer_6" xmlns="http://www.w3.org/2000/svg" xmlns:xlink="http://www.w3.org/1999/xlink" x="0px" y="0px"
	 viewBox="0 0 300 300" style="enable-background:new 0 0 300 300;" xml:space="preserve">
<style type="text/css">
	.st0{fill:#F07537;}
</style>
<path id="Path_3845" class="st0" d="M187.3,251.9c-5.4,13.6-9.3,22.7-9.3,22.7h-60.6c0,0-3.6-8.8-8.7-22.1l-44.6,44.3L34.4,207
	l45-45c-0.6-2.4-1-4.7-1.5-7C61.9,72.1,116,23.3,148.4,3.9C180.7,23.3,234.8,72,218.9,155c-0.5,2.3-0.9,4.6-1.5,7l45,45l-30,90
	L187.3,251.9z M161,249.1c3-7.4,6.7-16.8,10.6-27.2c9.2-24.6,18.7-52.7,22.3-71.7C205,92.5,175.1,55,148.4,34.7
	C121.7,55,91.8,92.5,102.9,150.2c3.6,19.1,12.9,47.3,21.8,71.9c3.7,10.3,7.3,19.7,10.1,27L161,249.1L161,249.1z M133.4,89.9
	c8.3-8.3,21.7-8.3,30,0c8.3,8.3,8.3,21.7,0,30s-21.7,8.3-30,0C125.1,111.7,125.1,98.2,133.4,89.9z"/>
</svg>
