<?xml version="1.0" encoding="utf-8"?>
<!-- Generator: Adobe Illustrator 26.5.3, SVG Export Plug-In . SVG Version: 6.00 Build 0)  -->
<svg version="1.1" id="Layer_1" xmlns="http://www.w3.org/2000/svg" xmlns:xlink="http://www.w3.org/1999/xlink" x="0px" y="0px"
	 viewBox="0 0 81.5 65.4" style="enable-background:new 0 0 81.5 65.4;" xml:space="preserve">
<style type="text/css">
	.st0{fill:#48C0B9;}
	.st1{fill:#138597;}
</style>
<g id="Group_1443" transform="translate(502.923 -417.129)">
	<path id="Path_3677" class="st0" d="M-435.2,452.8c-7.7-0.1-14,6-14.2,13.7c0,0,0,0,0,0c-0.1,7.7,6,14,13.7,14.2c0,0,0,0,0,0h0.2
		c2.2,0,4.4-0.5,6.4-1.5c4.7-2.4,7.7-7.2,7.6-12.5c0.1-7.5-5.8-13.7-13.3-13.8c0,0,0,0,0,0C-434.9,452.8-435,452.8-435.2,452.8z
		 M-430.1,468h-3.9v3.8c0,0.6-0.5,1.2-1.2,1.2l0,0c-0.6,0-1.2-0.5-1.2-1.2l0,0V468h-3.9c-0.6,0-1.2-0.5-1.2-1.1l0,0
		c0-0.6,0.5-1.2,1.1-1.2l0,0h3.9v-3.8c0-0.6,0.5-1.2,1.2-1.2l0,0c0.6,0,1.2,0.5,1.2,1.2l0,0l0,0v3.8h3.9c0.6,0,1.2,0.5,1.2,1.1l0,0
		C-429,467.4-429.5,468-430.1,468L-430.1,468L-430.1,468z"/>
	<ellipse id="Ellipse_110" class="st1" cx="-465.5" cy="434" rx="17.1" ry="16.9"/>
	<path id="Path_3687" class="st1" d="M-453.2,466.7c0-5.5,2.6-10.8,7.1-14.1c-1.9-0.8-3.9-1.4-6-1.6c-0.9-0.1-1.8,0.4-2.3,1.2
		l-9,14.5c-0.6,1.2-2.1,1.6-3.3,1c-0.4-0.2-0.8-0.6-1-1l-9-14.5l0,0c-0.5-0.8-1.3-1.3-2.3-1.3c-13.3,1.7-23.7,15.2-24,31.6h59.8
		C-449.2,479.6-453.1,473.5-453.2,466.7z"/>
</g>
</svg>
