<?xml version="1.0" encoding="utf-8"?>
<!-- Generator: Adobe Illustrator 26.5.3, SVG Export Plug-In . SVG Version: 6.00 Build 0)  -->
<svg version="1.1" id="Layer_1" xmlns="http://www.w3.org/2000/svg" xmlns:xlink="http://www.w3.org/1999/xlink" x="0px" y="0px"
	 viewBox="0 0 34 34" style="enable-background:new 0 0 34 34;" xml:space="preserve">
<style type="text/css">
	.st0{fill:#48C0B9;}
	.st1{fill:#F2F2F2;}
</style>
<path id="Path_3352_00000164514286690759379030000007044308521305088958_" class="st0" d="M17,34C7.6,34,0,26.4,0,17S7.6,0,17,0
	s17,7.6,17,17c0,0,0,0,0,0C34,26.4,26.4,34,17,34z"/>
<g id="Group_1548" transform="translate(-522.841 -319.993)">
	<g id="Group_1540" transform="translate(0 -1)">
		<path id="Rectangle_6687-3" class="st1" d="M531.4,331.7h16.4c0.4,0,0.8,0.4,0.8,0.8v1.7c0,0.4-0.4,0.8-0.8,0.8h-16.4
			c-0.4,0-0.8-0.4-0.8-0.8v-1.7C530.6,332.1,531,331.7,531.4,331.7z"/>
		<rect id="Rectangle_6688-3" x="532.8" y="332.5" class="st0" width="0.6" height="1.8"/>
		<rect id="Rectangle_6689-3" x="531.7" y="332.4" class="st0" width="0.6" height="1.8"/>
		<rect id="Rectangle_6690-3" x="535" y="332.5" class="st0" width="0.6" height="1.8"/>
		<rect id="Rectangle_6691-3" x="533.9" y="332.5" class="st0" width="0.6" height="1.8"/>
		<rect id="Rectangle_6692-3" x="536.1" y="332.5" class="st0" width="0.6" height="1.8"/>
		<rect id="Rectangle_6693-3" x="537.3" y="332.4" class="st0" width="0.6" height="1.8"/>
		<ellipse id="Ellipse_108-3" class="st0" cx="543.6" cy="333.4" rx="0.7" ry="0.6"/>
		<ellipse id="Ellipse_109-3" class="st0" cx="546.1" cy="333.4" rx="0.7" ry="0.6"/>
	</g>
	<g id="Group_1540-2" transform="translate(0 4)">
		<path id="Rectangle_6687-3-2" class="st1" d="M531.4,331.7h16.4c0.4,0,0.8,0.4,0.8,0.8v1.7c0,0.4-0.4,0.8-0.8,0.8h-16.4
			c-0.4,0-0.8-0.4-0.8-0.8v-1.7C530.6,332.1,531,331.7,531.4,331.7z"/>
		<rect id="Rectangle_6688-3-2" x="532.8" y="332.5" class="st0" width="0.6" height="1.8"/>
		<rect id="Rectangle_6689-3-2" x="531.7" y="332.4" class="st0" width="0.6" height="1.8"/>
		<rect id="Rectangle_6690-3-2" x="535" y="332.5" class="st0" width="0.6" height="1.8"/>
		<rect id="Rectangle_6691-3-2" x="533.9" y="332.5" class="st0" width="0.6" height="1.8"/>
		<rect id="Rectangle_6692-3-2" x="536.1" y="332.5" class="st0" width="0.6" height="1.8"/>
		<rect id="Rectangle_6693-3-2" x="537.3" y="332.4" class="st0" width="0.6" height="1.8"/>
		<ellipse id="Ellipse_108-3-2" class="st0" cx="543.6" cy="333.4" rx="0.7" ry="0.6"/>
		<ellipse id="Ellipse_109-3-2" class="st0" cx="546.1" cy="333.4" rx="0.7" ry="0.6"/>
	</g>
	<g id="Group_1540-3" transform="translate(0 9)">
		<path id="Rectangle_6687-3-3" class="st1" d="M531.4,331.7h16.4c0.4,0,0.8,0.4,0.8,0.8v1.7c0,0.4-0.4,0.8-0.8,0.8h-16.4
			c-0.4,0-0.8-0.4-0.8-0.8v-1.7C530.6,332.1,531,331.7,531.4,331.7z"/>
		<rect id="Rectangle_6688-3-3" x="532.8" y="332.5" class="st0" width="0.6" height="1.8"/>
		<rect id="Rectangle_6689-3-3" x="531.7" y="332.4" class="st0" width="0.6" height="1.8"/>
		<rect id="Rectangle_6690-3-3" x="535" y="332.5" class="st0" width="0.6" height="1.8"/>
		<rect id="Rectangle_6691-3-3" x="533.9" y="332.5" class="st0" width="0.6" height="1.8"/>
		<rect id="Rectangle_6692-3-3" x="536.1" y="332.5" class="st0" width="0.6" height="1.8"/>
		<rect id="Rectangle_6693-3-3" x="537.3" y="332.4" class="st0" width="0.6" height="1.8"/>
		<ellipse id="Ellipse_108-3-3" class="st0" cx="543.6" cy="333.4" rx="0.7" ry="0.6"/>
		<ellipse id="Ellipse_109-3-3" class="st0" cx="546.1" cy="333.4" rx="0.7" ry="0.6"/>
	</g>
</g>
</svg>
