<?xml version="1.0" encoding="utf-8"?>
<!-- Generator: Adobe Illustrator 26.5.3, SVG Export Plug-In . SVG Version: 6.00 Build 0)  -->
<svg version="1.1" id="Layer_1" xmlns="http://www.w3.org/2000/svg" xmlns:xlink="http://www.w3.org/1999/xlink" x="0px" y="0px"
	 viewBox="0 0 23 23.9" style="enable-background:new 0 0 23 23.9;" xml:space="preserve">
<style type="text/css">
	.st0{fill:#232323;}
</style>
<path id="Path_3256" class="st0" d="M9.3,15.7C6,15.8,3.3,13.2,3.1,9.9C3,6.6,5.6,3.9,8.9,3.7s6.1,2.4,6.2,5.7c0,0.1,0,0.2,0,0.2
	C15.1,12.9,12.6,15.6,9.3,15.7C9.3,15.7,9.3,15.7,9.3,15.7z M22.7,20.7L18.2,16c-0.2-0.2-0.5-0.3-0.8-0.3h-0.7c1.3-1.7,2-3.8,2-6
	c0.2-5.2-3.8-9.5-9-9.7C4.5-0.2,0.2,3.8,0,9c0,0.2,0,0.5,0,0.7c-0.1,5.3,4.1,9.6,9.3,9.7c2.1,0,4.1-0.7,5.7-2.1v0.8
	c0,0.3,0.1,0.6,0.3,0.8l4.5,4.7c0.4,0.4,1.1,0.4,1.5,0c0,0,0,0,0,0l1.3-1.3C23.1,21.8,23.1,21.1,22.7,20.7L22.7,20.7z"/>
</svg>
