<?xml version="1.0" encoding="utf-8"?>
<!-- Generator: Adobe Illustrator 26.5.3, SVG Export Plug-In . SVG Version: 6.00 Build 0)  -->
<svg version="1.1" id="Layer_1" xmlns="http://www.w3.org/2000/svg" xmlns:xlink="http://www.w3.org/1999/xlink" x="0px" y="0px"
	 viewBox="0 0 81.3 61" style="enable-background:new 0 0 81.3 61;" xml:space="preserve">
<style type="text/css">
	.st0{fill:#FFFFFF;}
	.st1{fill:none;stroke:#707070;}
	.st2{fill:url(#Path_3594-2_00000147181774303315804900000002377312470105353637_);}
</style>
<g id="Group_1439" transform="translate(-172.443 -1262.952)">
	<g id="Rectangle_6714" transform="translate(186.655 1272.44)">
		<rect x="0" y="0" class="st0" width="52.5" height="45.8"/>
		<rect x="0.5" y="0.5" class="st1" width="51.5" height="44.8"/>
	</g>
	<g id="youtube" transform="translate(172.443 1262.952)">
		<g id="Group_1415" transform="translate(0 0)">
			
				<linearGradient id="Path_3594-2_00000075155740875081735420000018273055741543842233_" gradientUnits="userSpaceOnUse" x1="-349.4073" y1="333.315" x2="-349.4073" y2="332.315" gradientTransform="matrix(81.316 0 0 -61.012 28453.0664 20336.2148)">
				<stop  offset="0" style="stop-color:#66BEB9"/>
				<stop  offset="1" style="stop-color:#388496"/>
				<stop  offset="1" style="stop-color:#D6763B"/>
			</linearGradient>
			<path id="Path_3594-2" style="fill:url(#Path_3594-2_00000075155740875081735420000018273055741543842233_);" d="M66,0H15.3
				C6.8,0,0,6.8,0,15.3c0,0,0,0,0,0v30.5C0,54.2,6.9,61,15.3,61H66c8.4,0,15.2-6.9,15.3-15.3V15.3C81.2,6.9,74.4,0.1,66,0z
				 M30.5,50.8V10.2l25.4,20.3L30.5,50.8z"/>
		</g>
	</g>
</g>
</svg>
