<?xml version="1.0" encoding="utf-8"?>
<!-- Generator: Adobe Illustrator 26.5.3, SVG Export Plug-In . SVG Version: 6.00 Build 0)  -->
<svg version="1.1" id="Layer_1" xmlns="http://www.w3.org/2000/svg" xmlns:xlink="http://www.w3.org/1999/xlink" x="0px" y="0px"
	 viewBox="0 0 397 52" style="enable-background:new 0 0 397 52;" xml:space="preserve">
<style type="text/css">
	.st0{fill:#48C0B9;}
	.st1{enable-background:new    ;}
</style>
<rect id="Rectangle_6869" class="st0" width="13" height="52"/>
<g class="st1">
	<path d="M31.7,18.8c-0.9-0.3-1.6-0.8-2.1-1.5c-0.5-0.6-0.8-1.4-0.8-2.3l0-0.4h2.9l0,0.3c0,0.6,0.3,1.1,0.8,1.4
		c0.5,0.3,1.2,0.5,2.2,0.5c1,0,1.7-0.1,2.1-0.4c0.4-0.3,0.7-0.6,0.7-1c0-0.4-0.1-0.7-0.4-1s-0.6-0.5-1.1-0.6s-1-0.3-1.8-0.5
		c-1.1-0.3-2-0.6-2.6-0.9c-0.7-0.3-1.2-0.7-1.7-1.2c-0.5-0.6-0.7-1.3-0.7-2.2c0-1.3,0.5-2.2,1.5-2.9c1-0.7,2.4-1,4-1
		c1.6,0,2.9,0.3,3.9,1c1,0.7,1.5,1.7,1.5,3v0.2h-2.9V9.1c0-0.5-0.2-0.9-0.7-1.2c-0.5-0.3-1.1-0.4-1.9-0.4c-0.8,0-1.5,0.1-1.9,0.3
		s-0.7,0.5-0.7,0.9c0,0.3,0.1,0.6,0.4,0.8c0.3,0.2,0.6,0.4,1,0.5c0.4,0.1,1,0.3,1.7,0.5c1.1,0.3,2,0.6,2.7,0.9
		c0.7,0.3,1.3,0.7,1.8,1.3c0.5,0.6,0.8,1.3,0.8,2.2c0,1.5-0.5,2.5-1.6,3.2c-1,0.7-2.5,1-4.3,1C33.5,19.2,32.6,19.1,31.7,18.8z"/>
	<path d="M44.2,17.9c-1-0.9-1.5-2.2-1.5-4V5.3h2.9v8.5c0,1,0.3,1.7,0.8,2.3c0.5,0.5,1.2,0.8,2.2,0.8c0.9,0,1.7-0.3,2.2-0.8
		c0.5-0.5,0.8-1.3,0.8-2.3V5.3h2.9v8.6c0,1.7-0.5,3.1-1.6,4c-1,0.9-2.5,1.4-4.3,1.4C46.7,19.2,45.2,18.8,44.2,17.9z"/>
	<path d="M57.1,5.3h6.5c1.5,0,2.7,0.4,3.5,1.2s1.2,1.9,1.2,3.3s-0.4,2.5-1.2,3.3c-0.8,0.8-2,1.2-3.6,1.2H60V19h-2.9V5.3z M63.4,11.8
		c0.6,0,1.1-0.2,1.4-0.5c0.3-0.4,0.5-0.9,0.5-1.5c0-0.6-0.2-1.1-0.5-1.5c-0.3-0.4-0.8-0.5-1.4-0.5H60v4.1H63.4z"/>
	<path d="M70.5,5.3H77c1.5,0,2.7,0.4,3.5,1.2s1.2,1.9,1.2,3.3s-0.4,2.5-1.2,3.3c-0.8,0.8-2,1.2-3.6,1.2h-3.4V19h-2.9V5.3z
		 M76.7,11.8c0.6,0,1.1-0.2,1.4-0.5c0.3-0.4,0.5-0.9,0.5-1.5c0-0.6-0.2-1.1-0.5-1.5c-0.3-0.4-0.8-0.5-1.4-0.5h-3.4v4.1H76.7z"/>
	<path d="M85.1,17.5c-1.2-1.2-1.8-3-1.8-5.3c0-2.4,0.6-4.1,1.8-5.3C86.3,5.6,88,5,90.2,5c2.2,0,3.9,0.6,5.1,1.8
		c1.2,1.2,1.8,3,1.8,5.3c0,2.4-0.6,4.2-1.8,5.3c-1.2,1.2-2.9,1.8-5.1,1.8C88,19.2,86.3,18.7,85.1,17.5z M93.2,15.7
		c0.7-0.8,1-1.8,1-3.2v-0.6c0-1.4-0.3-2.5-1-3.2c-0.7-0.8-1.7-1.1-3-1.1s-2.3,0.4-3,1.1c-0.7,0.8-1,1.8-1,3.2v0.6
		c0,1.4,0.3,2.5,1,3.2c0.7,0.8,1.7,1.1,3,1.1S92.5,16.4,93.2,15.7z"/>
	<path d="M99.4,5.3h7.3c1.5,0,2.7,0.4,3.5,1.1c0.8,0.8,1.2,1.8,1.2,3.2c0,1.9-0.8,3.2-2.4,3.8l2.8,5.6h-3.1l-2.4-5.1h-3.8V19h-2.9
		V5.3z M106.4,11.5c0.6,0,1.1-0.2,1.4-0.5c0.3-0.3,0.5-0.8,0.5-1.4s-0.2-1-0.5-1.4c-0.3-0.3-0.8-0.5-1.4-0.5h-4.1v3.7H106.4z"/>
	<path d="M117.1,7.8h-4.2V5.3h11.4v2.5H120V19h-2.9V7.8z"/>
	<path d="M131.6,5.3h10.8v2.5h-7.9v3h7v2.5h-7v3.3h8V19h-10.9V5.3z"/>
	<path d="M144.9,5.3h2.8l5.3,7.5c0.1,0.1,0.3,0.4,0.4,0.7c0.2,0.3,0.3,0.5,0.4,0.6l0.1-0.1c0-0.1,0-0.3,0-0.5s0-0.5,0-0.6V5.3h2.8
		V19h-2.8l-5.3-7.5c-0.2-0.2-0.3-0.5-0.5-0.8c-0.2-0.3-0.3-0.5-0.3-0.5l-0.1,0.1c0,0.1,0,0.3,0,0.5c0,0.2,0,0.5,0,0.7V19h-2.8V5.3z"
		/>
	<path d="M165.3,11.5h7.1V19h-2l-0.3-1.5c-0.6,0.6-1.3,1.1-2,1.3c-0.7,0.3-1.6,0.4-2.6,0.4c-2.1,0-3.8-0.6-4.9-1.7s-1.7-2.9-1.7-5.4
		c0-2.4,0.6-4.1,1.8-5.3c1.2-1.2,3-1.8,5.2-1.8c1.2,0,2.3,0.2,3.2,0.5c1,0.4,1.8,0.9,2.3,1.7c0.6,0.7,0.9,1.6,0.9,2.7h-3
		c0-0.7-0.3-1.3-1-1.8c-0.7-0.4-1.5-0.7-2.4-0.7c-1.4,0-2.4,0.4-3.1,1.1c-0.7,0.7-1,1.8-1,3.2v0.6c0,1.5,0.3,2.6,1,3.3
		c0.6,0.7,1.6,1.1,2.9,1.1c1.1,0,2-0.3,2.7-0.8c0.7-0.5,1.1-1.2,1.1-2.1h-4.2V11.5z"/>
	<path d="M179,5.3h3.6L188,19h-3.2l-1-2.6h-6.2l-1,2.6h-3L179,5.3z M182.9,14l-1.3-3.5c-0.1-0.3-0.3-0.7-0.5-1.4
		c-0.2-0.7-0.3-1.1-0.4-1.3h-0.1c-0.1,0.2-0.2,0.6-0.4,1.3c-0.2,0.7-0.4,1.1-0.5,1.4l-1.3,3.5H182.9z"/>
	<path d="M195.3,11.5h7.1V19h-2l-0.3-1.5c-0.6,0.6-1.3,1.1-2,1.3c-0.7,0.3-1.6,0.4-2.6,0.4c-2.1,0-3.8-0.6-4.9-1.7s-1.7-2.9-1.7-5.4
		c0-2.4,0.6-4.1,1.8-5.3c1.2-1.2,3-1.8,5.2-1.8c1.2,0,2.3,0.2,3.2,0.5c1,0.4,1.8,0.9,2.3,1.7c0.6,0.7,0.9,1.6,0.9,2.7h-3
		c0-0.7-0.3-1.3-1-1.8c-0.7-0.4-1.5-0.7-2.4-0.7c-1.4,0-2.4,0.4-3.1,1.1c-0.7,0.7-1,1.8-1,3.2v0.6c0,1.5,0.3,2.6,1,3.3
		c0.6,0.7,1.6,1.1,2.9,1.1c1.1,0,2-0.3,2.7-0.8c0.7-0.5,1.1-1.2,1.1-2.1h-4.2V11.5z"/>
	<path d="M204.9,5.3h10.8v2.5h-7.9v3h7v2.5h-7v3.3h8V19h-10.9V5.3z"/>
	<path d="M218.3,5.3h4.5l1.9,7.6c0.1,0.4,0.2,0.9,0.4,1.7c0.1,0.7,0.2,1.2,0.3,1.5h0.1c0-0.3,0.1-0.8,0.2-1.5
		c0.1-0.7,0.2-1.3,0.3-1.6l1.9-7.6h4.3V19h-2.9v-8.7c0-0.3,0-0.6,0.1-1.2c0-0.5,0.1-0.9,0.1-1h-0.1l-0.4,1.6l-2.4,9.3h-2.8l-2.4-9.3
		L221,8.1h-0.1c0,0.2,0,0.5,0.1,1.1s0.1,0.9,0.1,1.1V19h-2.8V5.3z"/>
	<path d="M234.9,5.3h10.8v2.5h-7.9v3h7v2.5h-7v3.3h8V19h-10.9V5.3z"/>
	<path d="M248.3,5.3h2.8l5.3,7.5c0.1,0.1,0.3,0.4,0.4,0.7c0.2,0.3,0.3,0.5,0.4,0.6l0.1-0.1c0-0.1,0-0.3,0-0.5c0-0.2,0-0.5,0-0.6V5.3
		h2.8V19h-2.8l-5.3-7.5c-0.2-0.2-0.3-0.5-0.5-0.8c-0.2-0.3-0.3-0.5-0.3-0.5l-0.1,0.1c0,0.1,0,0.3,0,0.5c0,0.2,0,0.5,0,0.7V19h-2.8
		V5.3z"/>
	<path d="M266,7.8h-4.2V5.3h11.4v2.5h-4.2V19H266V7.8z"/>
	<path d="M277.3,18.8c-0.9-0.3-1.6-0.8-2.1-1.5c-0.5-0.6-0.8-1.4-0.8-2.3l0-0.4h2.9l0,0.3c0,0.6,0.3,1.1,0.8,1.4
		c0.5,0.3,1.2,0.5,2.2,0.5c1,0,1.7-0.1,2.1-0.4c0.4-0.3,0.7-0.6,0.7-1c0-0.4-0.1-0.7-0.4-1c-0.3-0.3-0.6-0.5-1.1-0.6
		c-0.4-0.2-1-0.3-1.8-0.5c-1.1-0.3-2-0.6-2.6-0.9c-0.7-0.3-1.2-0.7-1.7-1.2c-0.5-0.6-0.7-1.3-0.7-2.2c0-1.3,0.5-2.2,1.5-2.9
		c1-0.7,2.4-1,4-1c1.6,0,2.9,0.3,3.9,1c1,0.7,1.5,1.7,1.5,3v0.2h-2.9V9.1c0-0.5-0.2-0.9-0.7-1.2c-0.5-0.3-1.1-0.4-1.9-0.4
		c-0.8,0-1.5,0.1-1.9,0.3c-0.4,0.2-0.7,0.5-0.7,0.9c0,0.3,0.1,0.6,0.4,0.8c0.3,0.2,0.6,0.4,1,0.5c0.4,0.1,1,0.3,1.7,0.5
		c1.1,0.3,2,0.6,2.7,0.9c0.7,0.3,1.3,0.7,1.8,1.3c0.5,0.6,0.8,1.3,0.8,2.2c0,1.5-0.5,2.5-1.6,3.2c-1,0.7-2.5,1-4.3,1
		C279.1,19.2,278.2,19.1,277.3,18.8z"/>
	<path d="M293.8,5.3h9.9v2.5h-7v3.4h6.3v2.5h-6.3V19h-2.9V5.3z"/>
	<path d="M307.4,17.5c-1.2-1.2-1.8-3-1.8-5.3c0-2.4,0.6-4.1,1.8-5.3c1.2-1.2,2.9-1.8,5.1-1.8c2.2,0,3.9,0.6,5.1,1.8
		c1.2,1.2,1.8,3,1.8,5.3c0,2.4-0.6,4.2-1.8,5.3c-1.2,1.2-2.9,1.8-5.1,1.8C310.3,19.2,308.6,18.7,307.4,17.5z M315.4,15.7
		c0.7-0.8,1-1.8,1-3.2v-0.6c0-1.4-0.3-2.5-1-3.2c-0.7-0.8-1.7-1.1-3-1.1s-2.3,0.4-3,1.1c-0.7,0.8-1,1.8-1,3.2v0.6
		c0,1.4,0.3,2.5,1,3.2c0.7,0.8,1.7,1.1,3,1.1S314.8,16.4,315.4,15.7z"/>
	<path d="M321.6,5.3h7.3c1.5,0,2.7,0.4,3.5,1.1s1.2,1.8,1.2,3.2c0,1.9-0.8,3.2-2.4,3.8l2.8,5.6h-3.1l-2.4-5.1h-3.8V19h-2.9V5.3z
		 M328.6,11.5c0.6,0,1.1-0.2,1.4-0.5c0.3-0.3,0.5-0.8,0.5-1.4s-0.2-1-0.5-1.4c-0.3-0.3-0.8-0.5-1.4-0.5h-4.1v3.7H328.6z"/>
</g>
<g class="st1">
	<path d="M33.2,37.5L28,29.3h3.3l3.4,5.6h0.1l3.4-5.6h3.1l-5.2,8.2V43h-2.9V37.5z"/>
	<path d="M44,41.5c-1.2-1.2-1.8-3-1.8-5.3c0-2.4,0.6-4.1,1.8-5.3c1.2-1.2,2.9-1.8,5.1-1.8c2.2,0,3.9,0.6,5.1,1.8
		c1.2,1.2,1.8,3,1.8,5.3c0,2.4-0.6,4.2-1.8,5.3c-1.2,1.2-2.9,1.8-5.1,1.8C46.9,43.2,45.2,42.7,44,41.5z M52.1,39.7
		c0.7-0.8,1-1.8,1-3.2v-0.6c0-1.4-0.3-2.5-1-3.2c-0.7-0.8-1.7-1.1-3-1.1s-2.3,0.4-3,1.1c-0.7,0.8-1,1.8-1,3.2v0.6
		c0,1.4,0.3,2.5,1,3.2c0.7,0.8,1.7,1.1,3,1.1S51.4,40.4,52.1,39.7z"/>
	<path d="M59.8,41.9c-1-0.9-1.5-2.2-1.5-4v-8.6h2.9v8.5c0,1,0.3,1.7,0.8,2.2c0.5,0.5,1.2,0.8,2.2,0.8c0.9,0,1.7-0.3,2.2-0.8
		c0.5-0.5,0.8-1.3,0.8-2.2v-8.5H70v8.6c0,1.7-0.5,3.1-1.6,4c-1,0.9-2.5,1.4-4.3,1.4C62.2,43.2,60.8,42.8,59.8,41.9z"/>
	<path d="M72.7,29.3H80c1.5,0,2.7,0.4,3.5,1.1c0.8,0.8,1.2,1.8,1.2,3.2c0,1.9-0.8,3.2-2.4,3.8L85,43h-3.1l-2.4-5.1h-3.8V43h-2.9
		V29.3z M79.7,35.5c0.6,0,1.1-0.2,1.4-0.5c0.3-0.3,0.5-0.8,0.5-1.4s-0.2-1-0.5-1.4c-0.3-0.3-0.8-0.5-1.4-0.5h-4.1v3.7H79.7z"/>
	<path d="M92.7,29.3h7.3c1.5,0,2.7,0.4,3.5,1.1c0.8,0.8,1.2,1.8,1.2,3.2c0,1.9-0.8,3.2-2.4,3.8L105,43h-3.1l-2.4-5.1h-3.8V43h-2.9
		V29.3z M99.7,35.5c0.6,0,1.1-0.2,1.4-0.5c0.3-0.3,0.5-0.8,0.5-1.4s-0.2-1-0.5-1.4c-0.3-0.3-0.8-0.5-1.4-0.5h-4.1v3.7H99.7z"/>
	<path d="M107.1,29.3h10.8v2.5H110v3h7v2.5h-7v3.3h8V43h-10.9V29.3z"/>
	<path d="M122.8,42.8c-0.9-0.3-1.6-0.8-2.1-1.5c-0.5-0.6-0.8-1.4-0.8-2.3l0-0.4h2.9l0,0.3c0,0.6,0.3,1.1,0.8,1.4s1.2,0.5,2.2,0.5
		c1,0,1.7-0.1,2.1-0.4c0.4-0.3,0.7-0.6,0.7-1c0-0.4-0.1-0.7-0.4-1c-0.3-0.3-0.6-0.5-1.1-0.6s-1-0.3-1.8-0.5c-1.1-0.3-2-0.6-2.6-0.9
		c-0.7-0.3-1.2-0.7-1.7-1.2c-0.5-0.6-0.7-1.3-0.7-2.2c0-1.3,0.5-2.2,1.5-2.9c1-0.7,2.4-1,4-1c1.6,0,2.9,0.3,3.9,1
		c1,0.7,1.5,1.7,1.5,3v0.2h-2.9v-0.2c0-0.5-0.2-0.9-0.7-1.2c-0.5-0.3-1.1-0.4-1.9-0.4c-0.8,0-1.5,0.1-1.9,0.3s-0.7,0.5-0.7,0.9
		c0,0.3,0.1,0.6,0.4,0.8c0.3,0.2,0.6,0.4,1,0.5c0.4,0.1,1,0.3,1.7,0.5c1.1,0.3,2,0.6,2.7,0.9c0.7,0.3,1.3,0.7,1.8,1.3
		c0.5,0.6,0.8,1.3,0.8,2.2c0,1.5-0.5,2.5-1.6,3.2c-1,0.7-2.5,1-4.3,1C124.7,43.2,123.7,43.1,122.8,42.8z"/>
	<path d="M133.8,29.3h10.8v2.5h-7.9v3h7v2.5h-7v3.3h8V43h-10.9V29.3z"/>
	<path d="M151.2,29.3h3.6l5.4,13.7H157l-1-2.6h-6.2l-1,2.6h-3L151.2,29.3z M155.1,38l-1.3-3.5c-0.1-0.3-0.3-0.7-0.5-1.4
		c-0.2-0.7-0.3-1.1-0.4-1.3h-0.1c-0.1,0.2-0.2,0.6-0.4,1.3c-0.2,0.7-0.4,1.1-0.5,1.4l-1.3,3.5H155.1z"/>
	<path d="M161.6,29.3h7.3c1.5,0,2.7,0.4,3.5,1.1c0.8,0.8,1.2,1.8,1.2,3.2c0,1.9-0.8,3.2-2.4,3.8l2.8,5.6h-3.1l-2.4-5.1h-3.8V43h-2.9
		V29.3z M168.6,35.5c0.6,0,1.1-0.2,1.4-0.5c0.3-0.3,0.5-0.8,0.5-1.4s-0.2-1-0.5-1.4c-0.3-0.3-0.8-0.5-1.4-0.5h-4.1v3.7H168.6z"/>
	<path d="M175.5,36.1c0-2.4,0.6-4.1,1.7-5.3c1.2-1.2,2.8-1.8,4.9-1.8c1.2,0,2.2,0.2,3.1,0.6c0.9,0.4,1.7,1,2.2,1.8
		c0.5,0.8,0.8,1.8,0.8,3h-3c0-0.9-0.3-1.6-0.9-2.1c-0.6-0.5-1.3-0.8-2.2-0.8c-1.3,0-2.2,0.4-2.8,1.1c-0.6,0.7-0.9,1.8-0.9,3.2v0.6
		c0,2.9,1.2,4.3,3.7,4.3c1,0,1.8-0.3,2.3-0.8c0.6-0.5,0.9-1.2,0.9-2.1h2.9c0,1.2-0.3,2.2-0.8,3s-1.3,1.4-2.2,1.8
		c-0.9,0.4-2,0.6-3.2,0.6C177.7,43.2,175.5,40.9,175.5,36.1z"/>
	<path d="M190.5,29.3h2.9v5.4h6v-5.4h2.9V43h-2.9v-5.8h-6V43h-2.9V29.3z"/>
	<path d="M210.5,29.3h2.8l5.3,7.5c0.1,0.1,0.3,0.4,0.4,0.7c0.2,0.3,0.3,0.5,0.4,0.6l0.1-0.1c0-0.1,0-0.3,0-0.5c0-0.2,0-0.5,0-0.6
		v-7.6h2.8V43h-2.8l-5.3-7.5c-0.2-0.2-0.3-0.5-0.5-0.8c-0.2-0.3-0.3-0.5-0.3-0.5l-0.1,0.1c0,0.1,0,0.3,0,0.5c0,0.2,0,0.5,0,0.7V43
		h-2.8V29.3z"/>
	<path d="M224.9,29.3h10.8v2.5h-7.9v3h7v2.5h-7v3.3h8V43h-10.9V29.3z"/>
	<path d="M238.2,29.3H249v2.5h-7.9v3h7v2.5h-7v3.3h8V43h-10.9V29.3z"/>
	<path d="M251.6,29.3h5.7c2.1,0,3.7,0.6,4.9,1.7c1.1,1.1,1.7,2.9,1.7,5.1c0,2.3-0.6,4-1.7,5.2c-1.1,1.1-2.8,1.7-4.9,1.7h-5.7V29.3z
		 M257.3,40.5c1.2,0,2.1-0.4,2.7-1.1c0.6-0.7,0.9-1.7,0.9-3v-0.6c0-1.3-0.3-2.3-0.9-3c-0.6-0.7-1.5-1.1-2.7-1.1h-2.8v8.8H257.3z"/>
	<path d="M268.4,42.8c-0.9-0.3-1.6-0.8-2.1-1.5c-0.5-0.6-0.8-1.4-0.8-2.3l0-0.4h2.9l0,0.3c0,0.6,0.3,1.1,0.8,1.4
		c0.5,0.3,1.2,0.5,2.2,0.5c1,0,1.7-0.1,2.1-0.4c0.4-0.3,0.7-0.6,0.7-1c0-0.4-0.1-0.7-0.4-1c-0.3-0.3-0.6-0.5-1.1-0.6
		c-0.4-0.2-1-0.3-1.8-0.5c-1.1-0.3-2-0.6-2.6-0.9c-0.7-0.3-1.2-0.7-1.7-1.2c-0.5-0.6-0.7-1.3-0.7-2.2c0-1.3,0.5-2.2,1.5-2.9
		c1-0.7,2.4-1,4-1c1.6,0,2.9,0.3,3.9,1c1,0.7,1.5,1.7,1.5,3v0.2h-2.9v-0.2c0-0.5-0.2-0.9-0.7-1.2c-0.5-0.3-1.1-0.4-1.9-0.4
		c-0.8,0-1.5,0.1-1.9,0.3c-0.4,0.2-0.7,0.5-0.7,0.9c0,0.3,0.1,0.6,0.4,0.8c0.3,0.2,0.6,0.4,1,0.5c0.4,0.1,1,0.3,1.7,0.5
		c1.1,0.3,2,0.6,2.7,0.9s1.3,0.7,1.8,1.3c0.5,0.6,0.8,1.3,0.8,2.2c0,1.5-0.5,2.5-1.6,3.2s-2.5,1-4.3,1
		C270.2,43.2,269.3,43.1,268.4,42.8z"/>
</g>
<rect id="Rectangle_6870" x="384" class="st0" width="13" height="52"/>
</svg>
