<?xml version="1.0" encoding="utf-8"?>
<!-- Generator: Adobe Illustrator 26.5.3, SVG Export Plug-In . SVG Version: 6.00 Build 0)  -->
<svg version="1.1" id="Layer_1" xmlns="http://www.w3.org/2000/svg" xmlns:xlink="http://www.w3.org/1999/xlink" x="0px" y="0px"
	 viewBox="0 0 397.3 162.8" style="enable-background:new 0 0 397.3 162.8;" xml:space="preserve">
<style type="text/css">
	.st0{enable-background:new    ;}
	.st1{fill:#48C0B9;}
</style>
<g class="st0">
	<path d="M0,162.3v-56h11.1l7.9,42.9l7.9-42.9H38v56h-8v-44.2l-8,44.2h-6l-8-44.2v44.2H0z"/>
	<path d="M42.5,162.3l12-56h8l12,56h-8l-3-14h-10l-3,14H42.5z M54.5,142.3h8l-4-24L54.5,142.3z"/>
	<path d="M83.4,162.3v-48.9h-10v-7.1h28v7.1h-10v48.9H83.4z"/>
	<path d="M119.3,162.8c-2.4,0-4.4-0.3-6.2-1c-1.8-0.7-3.3-1.6-4.4-2.8c-1.1-1.2-2.1-2.6-2.8-4.4c-0.7-1.8-1.2-3.6-1.5-5.6
		c-0.3-2-0.4-4.3-0.4-6.8v-16c0-2.5,0.1-4.8,0.4-6.8c0.3-2,0.8-3.9,1.5-5.6c0.7-1.8,1.7-3.2,2.8-4.4c1.1-1.2,2.6-2.1,4.4-2.8
		c1.8-0.7,3.9-1,6.2-1c2.6,0,4.9,0.4,6.8,1.2c1.9,0.8,3.4,1.9,4.5,3.4c1.1,1.5,2,3.2,2.6,5.2c0.6,2,0.9,4.3,1,6.9c0,0.4,0,1,0,1.8
		h-8v-1.8c0-1.1-0.1-2-0.1-2.8s-0.2-1.6-0.3-2.4c-0.2-0.8-0.4-1.5-0.7-2.1c-0.3-0.6-0.7-1.1-1.2-1.5c-0.5-0.5-1.1-0.8-1.9-1
		s-1.6-0.3-2.6-0.3c-1.3,0-2.4,0.2-3.3,0.6c-0.9,0.4-1.7,1-2.2,1.6c-0.5,0.7-0.9,1.5-1.2,2.6c-0.3,1.1-0.5,2.2-0.5,3.2
		c-0.1,1.1-0.1,2.3-0.1,3.9v20c0,1.3,0.1,2.5,0.2,3.6c0.1,1.1,0.3,2.2,0.7,3.2c0.3,1.1,0.8,2,1.3,2.7c0.5,0.7,1.2,1.3,2.1,1.8
		c0.9,0.4,1.9,0.7,3.1,0.7s2.2-0.2,3.1-0.7c0.9-0.5,1.5-1,2-1.8c0.5-0.7,0.9-1.6,1.2-2.7c0.3-1.1,0.5-2.2,0.5-3.2
		c0.1-1,0.1-2.2,0.1-3.6v-2h8v2c0,2.9-0.3,5.4-0.8,7.6c-0.5,2.2-1.3,4.1-2.5,5.8c-1.1,1.7-2.7,3-4.6,3.8
		C124.4,162.4,122.1,162.8,119.3,162.8z"/>
	<path d="M139.5,162.3v-56h8v24h14v-24h8v56h-8v-26h-14v26H139.5z"/>
	<path d="M205.1,162.8c-5,0-8.9-1.5-11.5-4.4c-2.7-3-4.1-7-4.5-12.1l8-2c0.4,8,3.1,12,8,12c4,0,6-2,6-6c0-1.2-0.2-2.3-0.5-3.3
		c-0.3-1-0.8-1.9-1.5-2.8c-0.7-0.8-1.3-1.5-1.8-2c-0.5-0.5-1.3-1.1-2.2-1.9l-10-8c-1.8-1.4-3.3-3.3-4.4-5.5s-1.6-4.7-1.6-7.6
		c0-4.1,1.3-7.4,3.8-9.8s6-3.7,10.2-3.7c4.5,0,8.2,1.1,10.8,3.3c2.7,2.2,4.3,5.4,5,9.4c0.1,0.4,0.1,1,0.2,1.8l-8,2
		c0-0.4-0.1-0.9-0.2-1.6c-0.4-2.5-1.2-4.6-2.4-6.1c-1.2-1.5-3.1-2.3-5.5-2.3c-1.9,0-3.4,0.5-4.4,1.6c-1,1.1-1.6,2.6-1.6,4.5
		c0,3.1,1.3,5.8,4,7.9l10,8c5.3,4.3,8,9.5,8,15.5c0,4.1-1.3,7.3-3.8,9.6C212.8,161.7,209.4,162.8,205.1,162.8z"/>
	<path d="M235.9,162.8c-1.9,0-3.6-0.3-5-1c-1.4-0.7-2.6-1.5-3.4-2.6c-0.8-1.1-1.5-2.4-2-4.1c-0.5-1.7-0.9-3.4-1.1-5
		c-0.2-1.7-0.3-3.6-0.4-5.9c-0.1-1.8-0.1-3.5,0-5.2c0.1-2.1,0.2-3.9,0.4-5.5c0.2-1.6,0.6-3.2,1.1-4.7c0.5-1.5,1.2-2.8,2.1-3.8
		c0.9-1,2-1.8,3.4-2.4s3-0.9,4.9-0.9c1.7,0,3.2,0.2,4.5,0.7c1.3,0.4,2.4,1.1,3.2,2c0.9,0.9,1.6,1.9,2.2,3c0.6,1.1,1,2.4,1.3,4
		c0.3,1.6,0.5,3.1,0.6,4.6c0.1,1.5,0.2,3.3,0.2,5.2v0.9h-16v2c0,0.3,0,0.7,0,1.3c0,0.8,0,1.6,0,2.4c0,0.8,0.1,1.6,0.1,2.4
		c0,0.8,0.2,1.5,0.3,2.3s0.4,1.3,0.7,1.9c0.3,0.5,0.7,1,1.1,1.3c0.5,0.3,1.1,0.5,1.7,0.5c0.8,0,1.5-0.2,2.1-0.5
		c0.5-0.3,0.9-0.8,1.2-1.5c0.3-0.6,0.4-1.3,0.5-1.9c0.1-0.6,0.2-1.5,0.2-2.4v-1.7h7.9v1.6c-0.2,4.3-1.2,7.5-3.2,9.7
		C242.9,161.7,239.9,162.8,235.9,162.8z M232,138.3h7.9v-2.4c0-1.1-0.1-2-0.2-2.8c-0.1-0.8-0.3-1.6-0.5-2.4
		c-0.3-0.8-0.7-1.4-1.2-1.8c-0.5-0.4-1.2-0.6-2-0.6c-0.8,0-1.5,0.2-2,0.7c-0.6,0.4-1,1.1-1.2,1.9c-0.3,0.8-0.4,1.6-0.5,2.4
		c-0.1,0.8-0.2,1.7-0.2,2.8V138.3z"/>
	<path d="M253.8,162.3v-40h8v5.3c0.8-1.6,2-3,3.5-4.1c1.6-1.2,3.3-1.8,5.2-1.8c0.1,0,0.5,0,1.3,0.1v8.8c-1.5-0.6-3-0.9-4.4-0.9
		c-1.7,0-3,0.5-4,1.5c-1,1-1.5,2.3-1.5,4v27H253.8z"/>
	<path d="M281.4,162.3l-9-40h7.7l5.6,30l5.1-30h7.7l-8.9,40H281.4z"/>
	<path d="M303,116.3v-8h8v8H303z M303,162.3v-40h8v40H303z"/>
	<path d="M328.7,162.8c-1.9,0-3.6-0.3-5-1c-1.4-0.6-2.6-1.5-3.4-2.5c-0.9-1-1.5-2.4-2.1-4c-0.5-1.6-0.9-3.2-1.1-4.8
		c-0.2-1.6-0.3-3.5-0.4-5.6c-0.1-1.7-0.1-3.5,0-5.2c0-2.1,0.2-4,0.4-5.6c0.2-1.6,0.6-3.2,1.1-4.9c0.5-1.6,1.2-2.9,2.1-4
		s2-1.9,3.4-2.5c1.4-0.6,3.1-1,5-1c4.2,0,7.2,1.1,9.1,3.4c1.8,2.3,2.8,5.6,2.9,10.1v1.1h-8v-1.1c0-1-0.1-1.9-0.2-2.6
		c-0.1-0.8-0.3-1.5-0.6-2.2c-0.3-0.8-0.7-1.3-1.2-1.7c-0.6-0.4-1.2-0.6-2-0.6c-0.8,0-1.5,0.2-2,0.7c-0.5,0.5-1,1.1-1.2,2
		s-0.5,1.8-0.6,2.7c-0.1,0.9-0.2,2-0.2,3.2c-0.1,2.6-0.1,6.5,0,11.7c0,1.1,0.1,2.2,0.2,3c0.1,0.9,0.3,1.7,0.6,2.5
		c0.3,0.8,0.7,1.4,1.2,1.9c0.5,0.4,1.2,0.7,2,0.7c0.7,0,1.3-0.1,1.8-0.4c0.5-0.3,0.9-0.6,1.2-1c0.3-0.4,0.5-0.9,0.6-1.6
		c0.2-0.7,0.3-1.3,0.3-1.9c0-0.6,0.1-1.3,0.1-2.2v-1h8v1c-0.1,2.1-0.3,4-0.8,5.6c-0.5,1.6-1.2,3-2.1,4.2c-0.9,1.2-2.2,2.1-3.7,2.8
		S330.8,162.8,328.7,162.8z"/>
	<path d="M357,162.8c-1.9,0-3.6-0.3-5-1c-1.4-0.7-2.6-1.5-3.4-2.6c-0.8-1.1-1.5-2.4-2-4.1c-0.5-1.7-0.9-3.4-1.1-5
		c-0.2-1.7-0.3-3.6-0.4-5.9c-0.1-1.8-0.1-3.5,0-5.2c0.1-2.1,0.2-3.9,0.4-5.5c0.2-1.6,0.6-3.2,1.1-4.7c0.5-1.5,1.2-2.8,2.1-3.8
		c0.9-1,2-1.8,3.4-2.4s3-0.9,4.9-0.9c1.7,0,3.2,0.2,4.5,0.7c1.3,0.4,2.4,1.1,3.2,2c0.9,0.9,1.6,1.9,2.2,3c0.6,1.1,1,2.4,1.3,4
		c0.3,1.6,0.5,3.1,0.6,4.6c0.1,1.5,0.2,3.3,0.2,5.2v0.9h-16v2c0,0.3,0,0.7,0,1.3c0,0.8,0,1.6,0,2.4c0,0.8,0.1,1.6,0.1,2.4
		c0,0.8,0.2,1.5,0.3,2.3s0.4,1.3,0.7,1.9c0.3,0.5,0.7,1,1.1,1.3c0.5,0.3,1.1,0.5,1.7,0.5c0.8,0,1.5-0.2,2.1-0.5
		c0.5-0.3,0.9-0.8,1.2-1.5c0.3-0.6,0.4-1.3,0.5-1.9c0.1-0.6,0.2-1.5,0.2-2.4v-1.7h7.9v1.6c-0.2,4.3-1.2,7.5-3.2,9.7
		C363.9,161.7,360.9,162.8,357,162.8z M353,138.3h7.9v-2.4c0-1.1-0.1-2-0.2-2.8c-0.1-0.8-0.3-1.6-0.5-2.4c-0.3-0.8-0.7-1.4-1.2-1.8
		c-0.5-0.4-1.2-0.6-2-0.6c-0.8,0-1.5,0.2-2,0.7c-0.6,0.4-1,1.1-1.2,1.9c-0.3,0.8-0.4,1.6-0.5,2.4c-0.1,0.8-0.2,1.7-0.2,2.8V138.3z"
		/>
	<path d="M385.3,162.8c-3.3,0-5.9-1-7.9-2.9c-2-2-3.3-4.5-4.1-7.6l6-2c1.4,4,3.4,6,6,6c1.3,0,2.3-0.3,3-1c0.7-0.7,1-1.7,1-3
		c0-1.9-0.7-3.4-2-4.6l-8-6c-0.9-0.6-1.6-1.2-2.2-1.7c-0.6-0.5-1.2-1.2-1.8-2c-0.6-0.8-1.1-1.6-1.4-2.6c-0.3-1-0.5-2-0.5-3.1
		c0-3.4,1.1-6,3.3-7.8c2.2-1.8,5.1-2.7,8.7-2.7c1.7,0,3.3,0.3,4.7,0.8c1.4,0.6,2.6,1.3,3.5,2.3c0.9,1,1.7,2.1,2.3,3.3
		c0.6,1.2,1.1,2.6,1.5,4.1l-6,2c-0.3-0.8-0.6-1.5-0.9-2c-0.3-0.6-0.7-1.2-1.2-1.9c-0.5-0.7-1.1-1.2-1.7-1.5
		c-0.7-0.4-1.4-0.5-2.2-0.5c-1.3,0-2.3,0.3-3,1c-0.7,0.7-1,1.7-1,3c0,1.2,0.7,2.4,2,3.4l8,6c0.9,0.7,1.7,1.4,2.3,2
		c0.6,0.7,1.3,1.4,1.9,2.3c0.6,0.9,1.1,1.8,1.4,2.9s0.5,2.2,0.5,3.4c0,3.4-1.1,6-3.3,7.8C391.9,161.9,389,162.8,385.3,162.8z"/>
</g>
<g id="Path_3772" transform="translate(10.348)">
	<path id="Path_3772-2" class="st1" d="M75.4,29.1c-10.8-4.1-22.8,1.3-26.8,12.1c-4-1.5-8.3-1.5-12.3,0
		C32.2,30.5,20.2,25.1,9.5,29.1C1.4,32.2-4,40-4,48.6v35.8c0,1,0.8,1.9,1.9,1.9s1.9-0.8,1.9-1.9V48.6c0-9.4,7.7-17.1,17.1-17.1
		c7.3,0,13.8,4.6,16.1,11.5c-4.8,3.2-7.7,8.6-7.7,14.3v22.7c0,3.4,2.8,6.2,6.2,6.2c3.4,0,6.2-2.8,6.2-6.2l0,0V48.6
		c0-1.3-0.1-2.5-0.3-3.8c3.3-1.4,7-1.4,10.3,0c-0.2,1.2-0.3,2.5-0.3,3.8l0,31.4c0,3.4,2.8,6.2,6.2,6.2c3.4,0,6.2-2.8,6.2-6.2V57.3
		c0-5.8-2.9-11.2-7.7-14.3c3.1-8.9,12.9-13.6,21.8-10.5c6.9,2.4,11.5,8.9,11.5,16.1v35.8c0,1,0.8,1.9,1.9,1.9c1,0,1.9-0.8,1.9-1.9
		V48.6C88.9,40,83.5,32.2,75.4,29.1L75.4,29.1z M51,46.9c3.1,2.6,4.9,6.4,4.9,10.4v22.8c0,1.4-1.2,2.5-2.5,2.4
		c-1.4,0-2.5-1.2-2.4-2.5l0,0l0-31.4C51,48.1,51,47.5,51,46.9L51,46.9z M33.8,47c0.1,0.6,0.1,1.1,0.1,1.7v31.4
		c0,1.4-1.1,2.5-2.5,2.5c-1.4,0-2.5-1.1-2.5-2.5V57.3C29,53.3,30.8,49.5,33.8,47L33.8,47z M42.5,39.2c6,0,11-4.9,11-11l0,0
		c0-6.1-4.9-11-11-11s-11,4.9-11,11S36.4,39.2,42.5,39.2L42.5,39.2z M35.2,28.3c0-4,3.2-7.2,7.2-7.2l0,0c4,0,7.2,3.2,7.2,7.2
		c0,4-3.2,7.2-7.2,7.2C38.5,35.5,35.2,32.3,35.2,28.3L35.2,28.3L35.2,28.3z M16.8,26.6c7.3,0,13.3-6,13.3-13.3C30.1,6,24.2,0,16.8,0
		C9.5,0,3.5,6,3.5,13.3l0,0l0,0C3.5,20.6,9.5,26.6,16.8,26.6z M26.4,13.3c0,5.3-4.3,9.6-9.6,9.6s-9.6-4.3-9.6-9.6
		c0-5.3,4.3-9.6,9.6-9.6l0,0C22.1,3.7,26.4,8,26.4,13.3L26.4,13.3z M68.1,26.6c7.3,0,13.3-6,13.3-13.3C81.4,6,75.4,0,68.1,0
		c-7.3,0-13.3,6-13.3,13.3l0,0l0,0C54.8,20.6,60.7,26.6,68.1,26.6z M77.6,13.3c0,5.3-4.3,9.6-9.6,9.6s-9.6-4.3-9.6-9.6
		s4.3-9.6,9.6-9.6h0l0,0C73.3,3.7,77.6,8,77.6,13.3L77.6,13.3z"/>
</g>
</svg>
