<?xml version="1.0" encoding="UTF-8"?>
<svg id="Layer_1" xmlns="http://www.w3.org/2000/svg" version="1.1" viewBox="0 0 397 52">
  <!-- Generator: Adobe Illustrator 29.1.0, SVG Export Plug-In . SVG Version: 2.1.0 Build 142)  -->
  <defs>
    <style>
      .st0 {
        fill: #48c0b9;
      }
    </style>
  </defs>
  <rect id="Rectangle_6869" class="st0" width="13" height="52"/>
  <rect id="Rectangle_6870" class="st0" x="384" width="13" height="52"/>
  <g>
    <path d="M36.1,21.1c-2.2,0-3.8-.6-5-1.7-1.2-1.2-1.8-2.9-1.8-5.4s.3-2.9.8-4c.6-1,1.4-1.8,2.4-2.3s2.3-.8,3.8-.8,1.7.1,2.5.3c.8.2,1.5.5,2.1.9.6.4,1.1.9,1.4,1.6s.5,1.4.5,2.2h-3c0-.4,0-.8-.3-1.1-.2-.3-.4-.6-.8-.8-.3-.2-.7-.4-1.1-.5-.4-.1-.8-.2-1.3-.2-.7,0-1.3,0-1.8.3s-.9.5-1.3.8c-.3.4-.6.8-.8,1.4-.2.5-.3,1.2-.3,1.9v.6c0,1,.1,1.8.4,2.5.3.6.7,1.1,1.3,1.4.6.3,1.3.5,2.2.5s1.4-.1,1.9-.3c.6-.2,1-.5,1.3-1,.3-.4.5-.9.5-1.5h0c0-.1-4.1-.1-4.1-.1v-2.3h7.1v7.4h-2l-.3-1.5c-.4.4-.8.7-1.3,1-.5.3-1,.4-1.5.6-.6.1-1.2.2-1.9.2Z"/>
    <path d="M45.9,20.9V7.1h11v2.4h-8v3.1h7v2.4h-7v3.3h8.1v2.5h-11.1Z"/>
    <path d="M62.9,20.9v-11.2h-4.4v-2.5h11.8v2.5h-4.4v11.2h-3Z"/>
    <path d="M76.3,20.9V7.1h3v5.4h6.1v-5.4h3v13.7h-3v-5.8h-6.1v5.8h-3Z"/>
    <path d="M91.4,20.9V7.1h11v2.4h-8v3.1h7v2.4h-7v3.3h8.1v2.5h-11.1Z"/>
    <path d="M105,20.9V7.1h3v11.2h6.9v2.5h-9.9Z"/>
    <path d="M116.8,20.9V7.1h7.1c1,0,1.8.2,2.5.6.7.4,1.2.9,1.5,1.5.3.7.5,1.4.5,2.4s-.2,1.7-.5,2.4c-.4.7-.9,1.2-1.5,1.6s-1.5.6-2.5.6h-4.1v4.8h-3ZM119.8,13.6h3.7c.6,0,1.1-.2,1.4-.5.3-.4.5-.9.5-1.5s0-.8-.2-1.1c-.1-.3-.4-.5-.6-.7-.3-.2-.6-.2-1.1-.2h-3.7v4.1Z"/>
    <path d="M135.6,20.9l-3.6-13.7h3.2l2,8.2c0,.1,0,.3.1.5s0,.5.1.7,0,.5.1.7h0c0-.1,0-.3,0-.5,0-.2,0-.4,0-.5,0-.2,0-.4,0-.5,0-.2,0-.3,0-.4l1.9-8.2h3.6l1.9,8.2c0,.1,0,.3.1.5,0,.2,0,.5.1.7s0,.5,0,.7h.1c0-.1,0-.3,0-.5,0-.2,0-.4,0-.5,0-.2,0-.4.1-.5,0-.2,0-.3,0-.4l2-8.2h2.9l-3.6,13.7h-3.4l-2-8.4c0-.2,0-.4-.1-.6,0-.2,0-.5-.1-.7,0-.2,0-.5,0-.6h0c0,.2,0,.4,0,.7s0,.5-.1.7c0,.2,0,.4-.1.6l-2,8.4h-3.5Z"/>
    <path d="M152.7,20.9V7.1h3v13.7h-3Z"/>
    <path d="M162.1,20.9v-11.2h-4.4v-2.5h11.8v2.5h-4.4v11.2h-3Z"/>
    <path d="M171.5,20.9V7.1h3v5.4h6.1v-5.4h3v13.7h-3v-5.8h-6.1v5.8h-3Z"/>
    <path d="M193.5,20.9v-5.5l-5.3-8.2h3.5l3.4,5.5h.1l3.4-5.5h3.3l-5.3,8.2v5.5h-3Z"/>
    <path d="M209.5,21.1c-1.5,0-2.7-.3-3.8-.8-1.1-.5-1.9-1.3-2.4-2.4-.6-1.1-.8-2.4-.8-4s.3-2.9.8-4c.6-1,1.4-1.8,2.4-2.3,1.1-.5,2.3-.8,3.8-.8s2.7.3,3.8.8,1.8,1.3,2.4,2.3c.6,1,.8,2.4.8,4s-.3,2.9-.8,4c-.6,1.1-1.4,1.8-2.4,2.4s-2.3.8-3.8.8ZM209.5,18.7c.7,0,1.2,0,1.7-.3.5-.2.9-.5,1.2-.8.3-.4.6-.8.8-1.4.2-.5.3-1.2.3-1.9v-.6c0-.7,0-1.3-.3-1.9-.2-.5-.4-1-.8-1.4-.3-.4-.7-.6-1.2-.8-.5-.2-1.1-.3-1.7-.3s-1.2,0-1.7.3c-.5.2-.9.5-1.2.8-.3.4-.6.8-.8,1.4-.2.5-.2,1.2-.2,1.9v.6c0,.7,0,1.3.2,1.9.2.5.4,1,.8,1.4.3.4.7.7,1.2.8.5.2,1.1.3,1.7.3Z"/>
    <path d="M224.9,21.1c-1.3,0-2.3-.2-3.2-.6-.9-.4-1.6-1-2.1-1.8-.5-.8-.7-1.8-.7-3V7.1h3v8.5c0,1,.3,1.7.8,2.3.5.5,1.3.8,2.2.8s1.7-.3,2.2-.8c.5-.5.8-1.3.8-2.3V7.1h3v8.5c0,1.2-.2,2.2-.7,3-.5.8-1.2,1.4-2.1,1.8s-2,.6-3.2.6Z"/>
    <path d="M233.9,20.9V7.1h7.5c1,0,1.9.2,2.5.5.7.4,1.2.9,1.5,1.5.3.6.5,1.4.5,2.2s-.2,1.7-.6,2.4c-.4.7-1,1.2-1.7,1.6l2.8,5.5h-3.3l-2.4-5h-3.8v5h-3ZM236.9,13.5h4.1c.6,0,1.1-.2,1.4-.6.3-.4.5-.9.5-1.5s0-.7-.2-1c-.1-.3-.4-.5-.6-.6-.3-.1-.6-.2-1-.2h-4.1v3.9Z"/>
    <path d="M252.5,20.9V7.1h7.1c1,0,1.8.2,2.5.6s1.2.9,1.5,1.5c.3.7.5,1.4.5,2.4s-.2,1.7-.5,2.4c-.4.7-.9,1.2-1.6,1.6-.7.4-1.5.6-2.5.6h-4.1v4.8h-3ZM255.4,13.6h3.7c.6,0,1.1-.2,1.5-.5.3-.4.5-.9.5-1.5s0-.8-.2-1.1c-.1-.3-.4-.5-.7-.7-.3-.2-.7-.2-1.1-.2h-3.7v4.1Z"/>
    <path d="M266.1,20.9V7.1h7.5c1,0,1.9.2,2.5.5.7.4,1.2.9,1.5,1.5.3.6.5,1.4.5,2.2s-.2,1.7-.6,2.4c-.4.7-1,1.2-1.7,1.6l2.8,5.5h-3.3l-2.4-5h-3.8v5h-3ZM269.1,13.5h4.1c.6,0,1.1-.2,1.4-.6.3-.4.5-.9.5-1.5s0-.7-.2-1c-.1-.3-.4-.5-.6-.6-.3-.1-.6-.2-1-.2h-4.1v3.9Z"/>
    <path d="M287,21.1c-1.5,0-2.7-.3-3.8-.8-1.1-.5-1.9-1.3-2.4-2.4-.6-1.1-.8-2.4-.8-4s.3-2.9.8-4c.6-1,1.4-1.8,2.4-2.3,1.1-.5,2.3-.8,3.8-.8s2.7.3,3.8.8,1.8,1.3,2.4,2.3c.6,1,.8,2.4.8,4s-.3,2.9-.8,4c-.6,1.1-1.4,1.8-2.4,2.4s-2.3.8-3.8.8ZM287,18.7c.7,0,1.2,0,1.7-.3.5-.2.9-.5,1.2-.8.3-.4.6-.8.8-1.4.2-.5.3-1.2.3-1.9v-.6c0-.7,0-1.3-.3-1.9-.2-.5-.4-1-.8-1.4-.3-.4-.7-.6-1.2-.8-.5-.2-1.1-.3-1.7-.3s-1.2,0-1.7.3c-.5.2-.9.5-1.2.8-.3.4-.6.8-.8,1.4-.2.5-.2,1.2-.2,1.9v.6c0,.7,0,1.3.2,1.9.2.5.4,1,.8,1.4.3.4.7.7,1.2.8.5.2,1.1.3,1.7.3Z"/>
    <path d="M300.6,21.1c-1.1,0-1.9-.2-2.7-.5s-1.3-.8-1.7-1.4c-.4-.6-.6-1.4-.6-2.4v-.6h2.9v.6c0,.6.2,1.1.5,1.4.3.3.9.4,1.5.4s1.1-.2,1.5-.6c.3-.4.5-1.1.5-1.9V7.1h3v9c0,1.1-.2,2-.6,2.8-.4.7-.9,1.3-1.7,1.7-.7.4-1.6.5-2.7.5Z"/>
    <path d="M308.5,20.9V7.1h11v2.4h-8v3.1h7v2.4h-7v3.3h8.1v2.5h-11.1Z"/>
    <path d="M328.3,21.1c-1.4,0-2.6-.2-3.7-.8-1-.5-1.8-1.3-2.3-2.3-.5-1.1-.8-2.4-.8-4,0-2.4.6-4.2,1.8-5.4,1.2-1.2,2.8-1.8,5-1.8s2.2.2,3.2.6c.9.4,1.7,1,2.2,1.8.5.8.8,1.8.8,3h-3c0-.6-.1-1.2-.4-1.6s-.6-.8-1.1-1c-.5-.2-1-.4-1.6-.4s-1.6.2-2.1.5c-.6.3-1,.8-1.2,1.5-.3.6-.4,1.4-.4,2.4v.6c0,1,.1,1.8.4,2.4.3.6.7,1.1,1.2,1.5s1.2.5,2.1.5,1.2-.1,1.7-.3c.5-.2.9-.6,1.1-1s.4-1,.4-1.6h2.9c0,1.2-.3,2.2-.8,3-.5.8-1.3,1.4-2.2,1.8-.9.4-2,.6-3.2.6Z"/>
    <path d="M339.8,20.9v-11.2h-4.4v-2.5h11.8v2.5h-4.4v11.2h-3Z"/>
    <path d="M29.8,44.9v-13.7h10.1v2.4h-7.1v3.4h6.4v2.4h-6.4v5.5h-3Z"/>
    <path d="M42.3,44.9v-13.7h7.5c1,0,1.9.2,2.5.5.7.4,1.2.9,1.5,1.5.3.6.5,1.4.5,2.2s-.2,1.7-.6,2.4-1,1.2-1.7,1.6l2.8,5.5h-3.3l-2.4-5h-3.8v5h-3ZM45.3,37.5h4.1c.6,0,1.1-.2,1.4-.5.3-.4.5-.9.5-1.5s0-.7-.2-1c-.1-.3-.4-.5-.6-.6-.3-.1-.6-.2-1-.2h-4.1v3.9Z"/>
    <path d="M63.2,45.1c-1.5,0-2.7-.3-3.8-.8-1.1-.5-1.9-1.3-2.4-2.4-.6-1.1-.8-2.4-.8-4s.3-2.9.8-4c.6-1,1.4-1.8,2.4-2.3,1.1-.5,2.3-.8,3.8-.8s2.7.3,3.8.8c1,.5,1.9,1.3,2.4,2.3.6,1,.8,2.4.8,4s-.3,2.9-.8,4c-.6,1.1-1.4,1.8-2.4,2.4-1,.5-2.3.8-3.8.8ZM63.2,42.7c.7,0,1.2,0,1.7-.3.5-.2.9-.5,1.2-.8.3-.4.6-.8.8-1.4.2-.5.3-1.2.3-1.8v-.6c0-.7,0-1.3-.3-1.9-.2-.5-.4-1-.8-1.4-.3-.4-.7-.6-1.2-.8-.5-.2-1.1-.3-1.7-.3s-1.2,0-1.7.3c-.5.2-.9.5-1.2.8-.3.4-.6.8-.8,1.4-.2.5-.2,1.2-.2,1.9v.6c0,.7,0,1.3.2,1.8.2.5.4,1,.8,1.4.3.4.7.7,1.2.8.5.2,1.1.3,1.7.3Z"/>
    <path d="M72.7,44.9v-13.7h4.5l2,7c0,.3.2.6.2.9,0,.3.2.7.2,1,0,.3.2.6.2.9h.2c0-.2,0-.5.1-.8,0-.3.1-.7.2-1,0-.4.2-.7.3-1l2-7h4.5v13.7h-2.9v-6.5c0-.6,0-1.2,0-1.8,0-.6,0-1.1,0-1.6s0-.7,0-.9h-.2c0,.1,0,.4-.2.8-.1.4-.2.8-.3,1.2-.1.4-.2.8-.3,1.1l-2.1,7.6h-2.6l-2.2-7.6c0-.3-.2-.6-.3-1-.1-.4-.2-.8-.3-1.2,0-.4-.2-.8-.2-1h-.2c0,.4,0,.8,0,1.3s0,1,0,1.5,0,1,0,1.5v6.5h-2.8Z"/>
    <path d="M94,44.9v-13.7h11v2.4h-8v3.1h7v2.4h-7v3.3h8.1v2.5h-11.1Z"/>
    <path d="M106.3,44.9l4.9-7.2-4.5-6.5h3.6l2.8,4.3h.1l2.8-4.3h3.4l-4.5,6.5,4.9,7.2h-3.6l-3.3-5.1h-.1l-3.3,5.1h-3.4Z"/>
    <path d="M121.8,44.9v-13.7h7.1c1,0,1.8.2,2.5.6.7.4,1.2.9,1.5,1.5.3.7.5,1.4.5,2.3s-.2,1.7-.5,2.4c-.4.7-.9,1.2-1.5,1.6s-1.5.6-2.5.6h-4.1v4.8h-3ZM124.8,37.6h3.7c.6,0,1.1-.2,1.4-.5.3-.4.5-.9.5-1.5s0-.8-.2-1.1c-.1-.3-.4-.5-.6-.7-.3-.2-.6-.2-1.1-.2h-3.7v4.1Z"/>
    <path d="M135.4,44.9v-13.7h11v2.4h-8v3.1h7v2.4h-7v3.3h8.1v2.5h-11.1Z"/>
    <path d="M149.1,44.9v-13.7h7.5c1,0,1.9.2,2.5.5.7.4,1.2.9,1.5,1.5.3.6.5,1.4.5,2.2s-.2,1.7-.6,2.4-1,1.2-1.7,1.6l2.8,5.5h-3.3l-2.4-5h-3.8v5h-3ZM152.1,37.5h4.1c.6,0,1.1-.2,1.4-.5.3-.4.5-.9.5-1.5s0-.7-.2-1c-.1-.3-.4-.5-.6-.6-.3-.1-.6-.2-1-.2h-4.1v3.9Z"/>
    <path d="M163.7,44.9v-13.7h3v13.7h-3Z"/>
    <path d="M169.7,44.9v-13.7h11v2.4h-8v3.1h7v2.4h-7v3.3h8.1v2.5h-11.1Z"/>
    <path d="M183.4,44.9v-13.7h2.7l5.5,7.4c0,0,.2.2.3.4.1.2.2.3.3.5.1.2.2.3.2.4h.1v-8.7h2.8v13.7h-2.7l-5.6-7.6c-.1-.2-.3-.4-.4-.6-.1-.2-.3-.4-.3-.5h-.1v8.7h-2.8Z"/>
    <path d="M204.6,45.1c-1.4,0-2.6-.2-3.7-.8-1-.5-1.8-1.3-2.3-2.3-.5-1.1-.8-2.4-.8-4,0-2.4.6-4.2,1.8-5.3,1.2-1.2,2.8-1.8,5-1.8s2.2.2,3.2.6c.9.4,1.7,1,2.2,1.8.5.8.8,1.8.8,3h-3c0-.6-.1-1.2-.4-1.6-.3-.4-.6-.8-1.1-1-.5-.2-1-.4-1.6-.4s-1.6.2-2.1.5c-.6.3-1,.8-1.2,1.5-.3.6-.4,1.4-.4,2.4v.6c0,1,.1,1.8.4,2.4.3.6.7,1.1,1.2,1.5.5.3,1.2.5,2.1.5s1.2-.1,1.7-.3.9-.6,1.1-1c.3-.4.4-1,.4-1.6h2.9c0,1.2-.3,2.2-.8,3-.5.8-1.3,1.4-2.2,1.8-.9.4-2,.6-3.2.6Z"/>
    <path d="M213.1,44.9v-13.7h11v2.4h-8v3.1h7v2.4h-7v3.3h8.1v2.5h-11.1Z"/>
    <path d="M226.8,44.9v-13.7h5.6c1.4,0,2.6.2,3.6.7,1,.5,1.8,1.2,2.3,2.2.5,1,.8,2.3.8,3.9s-.3,2.8-.8,3.9-1.3,1.8-2.3,2.3-2.2.7-3.6.7h-5.6ZM229.7,42.4h2.6c.6,0,1.1,0,1.6-.3.5-.2.9-.4,1.2-.8.3-.3.5-.8.7-1.3.2-.5.2-1.1.2-1.8v-.6c0-.7,0-1.3-.2-1.8-.2-.5-.4-.9-.7-1.3-.3-.3-.7-.6-1.2-.8-.5-.2-1-.3-1.6-.3h-2.6v8.8Z"/>
    <path d="M245.5,44.9v-13.7h4.5l2,7c0,.3.2.6.2.9s.2.7.2,1,.2.6.2.9h.2c0-.2,0-.5.1-.8,0-.3.1-.7.2-1,0-.4.2-.7.3-1l2-7h4.5v13.7h-2.9v-6.5c0-.6,0-1.2,0-1.8,0-.6,0-1.1,0-1.6,0-.5,0-.7,0-.9h-.2c0,.1,0,.4-.2.8,0,.4-.2.8-.3,1.2-.1.4-.2.8-.3,1.1l-2.1,7.6h-2.6l-2.2-7.6c0-.3-.2-.6-.3-1-.1-.4-.2-.8-.3-1.2,0-.4-.2-.8-.2-1h-.2c0,.4,0,.8,0,1.3s0,1,0,1.5,0,1,0,1.5v6.5h-2.8Z"/>
    <path d="M262.9,44.9v-13.7h11v2.4h-8v3.1h7v2.4h-7v3.3h8.1v2.5h-11.1Z"/>
    <path d="M276.6,44.9v-13.7h2.7l5.5,7.4c0,0,.2.2.3.4.1.2.2.3.3.5s.2.3.2.4h.1v-8.7h2.8v13.7h-2.7l-5.6-7.6c-.1-.2-.3-.4-.4-.6s-.3-.4-.3-.5h-.1v8.7h-2.8Z"/>
    <path d="M295,44.9v-11.2h-4.4v-2.5h11.8v2.5h-4.4v11.2h-3Z"/>
    <path d="M310.3,45.1c-1.5,0-2.7-.3-3.8-.8-1.1-.5-1.9-1.3-2.4-2.4-.6-1.1-.8-2.4-.8-4s.3-2.9.8-4c.6-1,1.4-1.8,2.4-2.3,1.1-.5,2.3-.8,3.8-.8s2.7.3,3.8.8c1,.5,1.8,1.3,2.4,2.3.6,1,.8,2.4.8,4s-.3,2.9-.8,4c-.6,1.1-1.4,1.8-2.4,2.4-1,.5-2.3.8-3.8.8ZM310.3,42.7c.7,0,1.2,0,1.7-.3.5-.2.9-.5,1.2-.8s.6-.8.8-1.4c.2-.5.3-1.2.3-1.8v-.6c0-.7,0-1.3-.3-1.9-.2-.5-.4-1-.8-1.4-.3-.4-.7-.6-1.2-.8s-1.1-.3-1.7-.3-1.2,0-1.7.3-.9.5-1.2.8c-.3.4-.6.8-.8,1.4-.2.5-.2,1.2-.2,1.9v.6c0,.7,0,1.3.2,1.8.2.5.4,1,.8,1.4.3.4.7.7,1.2.8.5.2,1.1.3,1.7.3Z"/>
    <path d="M319.8,44.9v-13.7h7.5c1,0,1.9.2,2.5.5.7.4,1.2.9,1.5,1.5.3.6.5,1.4.5,2.2s-.2,1.7-.6,2.4c-.4.7-1,1.2-1.7,1.6l2.8,5.5h-3.3l-2.4-5h-3.8v5h-3ZM322.8,37.5h4.1c.6,0,1.1-.2,1.4-.5.3-.4.5-.9.5-1.5s0-.7-.2-1c-.1-.3-.4-.5-.6-.6-.3-.1-.6-.2-1-.2h-4.1v3.9Z"/>
    <path d="M339.7,45.1c-.8,0-1.6,0-2.3-.2s-1.4-.4-1.9-.8c-.6-.4-1-.8-1.3-1.3s-.5-1.2-.5-2v-.2c0,0,0-.1,0-.2h3s0,0,0,.2v.2c0,.4.1.8.3,1.1s.6.5,1,.7c.5.1,1,.2,1.6.2s.7,0,1,0c.3,0,.6-.1.8-.2.2,0,.4-.2.6-.3.2-.1.3-.3.3-.4,0-.2.1-.3.1-.5,0-.4-.1-.7-.3-.9s-.6-.4-1-.6c-.4-.2-.9-.3-1.4-.4-.5-.1-1-.3-1.6-.4-.5-.1-1.1-.3-1.6-.5-.5-.2-1-.5-1.4-.8-.4-.3-.7-.7-1-1.1-.2-.5-.4-1-.4-1.6s.1-1.3.4-1.8.7-.9,1.2-1.2c.5-.3,1.1-.6,1.8-.7.7-.2,1.4-.2,2.2-.2s1.5,0,2.1.2c.7.2,1.3.4,1.8.7.5.3.9.8,1.2,1.3.3.5.4,1.1.4,1.8v.2h-2.9v-.2c0-.4-.1-.7-.3-.9-.2-.3-.5-.5-.9-.6s-.8-.2-1.4-.2-1,0-1.4.2c-.4.1-.7.3-.9.5-.2.2-.3.5-.3.7s.1.6.3.8.6.4,1,.5c.4.2.9.3,1.4.4s1,.3,1.6.4c.5.1,1.1.3,1.6.5s1,.5,1.4.8c.4.3.7.7,1,1.1.2.4.4,1,.4,1.6,0,1.1-.3,1.9-.8,2.5-.5.6-1.2,1.1-2.1,1.4s-1.9.4-3,.4Z"/>
  </g>
</svg>