<?xml version="1.0" encoding="utf-8"?>
<!-- Generator: Adobe Illustrator 26.5.3, SVG Export Plug-In . SVG Version: 6.00 Build 0)  -->
<svg version="1.1" id="Layer_1" xmlns="http://www.w3.org/2000/svg" xmlns:xlink="http://www.w3.org/1999/xlink" x="0px" y="0px"
	 viewBox="0 0 150 119" style="enable-background:new 0 0 150 119;" xml:space="preserve">
<style type="text/css">
	.st0{fill:#007386;}
	.st1{fill:#114A5C;}
	.st2{fill:#EB5D26;}
	.st3{fill:#40B5AB;}
	.st4{fill:#FFBF3B;}
</style>
<g>
	<path class="st2" d="M19.9,114.2c-0.8,0.3-1.4,1.1-1.4,2.1c0,1.2,1,2.2,2.2,2.2c1.2,0,2.2-1,2.2-2.2c0-0.8-0.5-1.6-1.2-1.9
		c1.9-28.2,25-50.5,53.3-50.5v-1.8C45.8,62,21.9,85,19.9,114.2z"/>
	<path class="st2" d="M38.2,114.1c-1,0.2-1.7,1.1-1.7,2.2c0,1.2,1,2.2,2.2,2.2c1.2,0,2.2-1,2.2-2.2c0-0.7-0.3-1.4-0.9-1.8
		C41.7,96.4,56.7,82.3,75,82.2v-1.8C55.9,80.4,40.1,95.2,38.2,114.1z"/>
	<path class="st2" d="M44.3,114.2c-0.8,0.3-1.4,1.1-1.4,2c0,1.2,1,2.2,2.2,2.2c1.2,0,2.2-1,2.2-2.2c0-0.9-0.5-1.6-1.2-2
		C47.9,99.7,60.2,88.4,75,88.4v-1.8C59.2,86.6,46.1,98.6,44.3,114.2z"/>
	<path class="st2" d="M50.4,114.1c-0.9,0.3-1.6,1.1-1.6,2.1c0,1.2,1,2.2,2.2,2.2c1.2,0,2.2-1,2.2-2.2c0-0.8-0.4-1.5-1-1.9
		c1.7-11.2,11.3-19.8,22.8-19.8v-1.8C62.6,92.7,52.2,102,50.4,114.1z"/>
	<path class="st2" d="M56.6,114.1c-1.1,0.1-1.9,1.1-1.9,2.2c0,1.2,1,2.2,2.2,2.2c1.2,0,2.2-1,2.2-2.2c0-0.6-0.3-1.2-0.7-1.6
		c1.5-7.9,8.4-13.9,16.7-13.9v-1.8C65.9,98.9,58.4,105.4,56.6,114.1z"/>
	<path class="st2" d="M62.8,114.1c-1,0.2-1.7,1.1-1.7,2.2c0,1.2,1,2.2,2.2,2.2c1.2,0,2.2-1,2.2-2.2c0-0.7-0.3-1.3-0.8-1.7
		c1.4-4.4,5.6-7.7,10.4-7.7V105C69.3,105,64.5,108.8,62.8,114.1z"/>
	<path class="st2" d="M69.6,114C69.6,114,69.6,114,69.6,114c-1.2,0-2.2,1-2.2,2.2c0,1.2,1,2.2,2.2,2.2c1.2,0,2.2-1,2.2-2.2
		c0-0.5-0.2-1-0.5-1.4c0.9-1.1,2.3-1.9,3.8-1.9v-1.8C72.8,111.2,70.8,112.3,69.6,114z"/>
	<path class="st2" d="M3.5,114.4C5.4,76,36.7,45.4,75,45.3v-1.8c-39.3,0-71.3,31.3-73.4,70.7c-0.9,0.3-1.5,1.1-1.5,2.1
		c0,1.2,1,2.2,2.2,2.2c1.2,0,2.2-1,2.2-2.2C4.5,115.5,4.1,114.8,3.5,114.4z"/>
	<path class="st2" d="M9.6,114.4C11.5,79.3,40,51.5,75,51.5v-1.8c-35.9,0-65.3,28.6-67.3,64.5c-0.9,0.3-1.5,1.1-1.5,2.1
		c0,1.2,1,2.2,2.2,2.2c1.2,0,2.2-1,2.2-2.2C10.6,115.4,10.2,114.7,9.6,114.4z"/>
	<path class="st2" d="M15.7,114.3C17.6,82.7,43.4,57.7,75,57.6v-1.8c-32.6,0-59.3,25.9-61.2,58.5c-0.8,0.3-1.3,1.1-1.3,2
		c0,1.2,1,2.2,2.2,2.2c1.2,0,2.2-1,2.2-2.2C16.9,115.4,16.4,114.6,15.7,114.3z"/>
	<path class="st2" d="M27.8,114.4C29.6,89.6,50.1,70,75,69.9v-1.8c-25.9,0-47.1,20.3-49,46c-0.9,0.3-1.6,1.1-1.6,2.1
		c0,1.2,1,2.2,2.2,2.2c1.2,0,2.2-1,2.2-2.2C28.8,115.5,28.4,114.8,27.8,114.4z"/>
	<path class="st2" d="M33.9,114.2C35.8,92.9,53.5,76.1,75,76.1v-1.8c-22.6,0-41.1,17.6-42.9,40c-0.7,0.4-1.2,1.1-1.2,2
		c0,1.2,1,2.2,2.2,2.2c1.2,0,2.2-1,2.2-2.2C35.2,115.3,34.7,114.6,33.9,114.2z"/>
	<path class="st2" d="M130.2,42.3c0.8-0.3,1.4-1.1,1.4-2.1c0-1.2-1-2.2-2.2-2.2c-1.2,0-2.2,1-2.2,2.2c0,0.8,0.5,1.6,1.2,1.9
		c-1.9,28.2-25,50.5-53.3,50.5v1.8C104.3,94.5,128.2,71.5,130.2,42.3z"/>
	<path class="st2" d="M111.9,42.4c1-0.2,1.7-1.1,1.7-2.2c0-1.2-1-2.2-2.2-2.2c-1.2,0-2.2,1-2.2,2.2c0,0.7,0.3,1.4,0.9,1.8
		C108.4,60.1,93.3,74.2,75,74.3v1.8C94.2,76.1,110,61.3,111.9,42.4z"/>
	<path class="st2" d="M105.8,42.3c0.8-0.3,1.4-1.1,1.4-2c0-1.2-1-2.2-2.2-2.2c-1.2,0-2.2,1-2.2,2.2c0,0.9,0.5,1.6,1.2,2
		C102.2,56.8,89.9,68.1,75,68.1V70C90.9,69.9,103.9,57.9,105.8,42.3z"/>
	<path class="st2" d="M99.7,42.4c0.9-0.3,1.6-1.1,1.6-2.1c0-1.2-1-2.2-2.2-2.2c-1.2,0-2.2,1-2.2,2.2c0,0.8,0.4,1.5,1,1.9
		C96.2,53.4,86.6,61.9,75,62v1.8C87.5,63.8,97.8,54.5,99.7,42.4z"/>
	<path class="st2" d="M93.5,42.4c1.1-0.1,1.9-1.1,1.9-2.2c0-1.2-1-2.2-2.2-2.2C92,38,91,39,91,40.3c0,0.6,0.3,1.2,0.7,1.6
		c-1.5,7.9-8.4,13.9-16.7,13.9v1.8C84.1,57.6,91.7,51.1,93.5,42.4z"/>
	<path class="st2" d="M87.2,42.4c1-0.2,1.7-1.1,1.7-2.2c0-1.2-1-2.2-2.2-2.2c-1.2,0-2.2,1-2.2,2.2c0,0.7,0.3,1.3,0.8,1.7
		c-1.4,4.4-5.6,7.7-10.4,7.7v1.8C80.8,51.5,85.6,47.7,87.2,42.4z"/>
	<path class="st2" d="M80.5,42.5C80.5,42.5,80.5,42.5,80.5,42.5c1.2,0,2.2-1,2.2-2.2c0-1.2-1-2.2-2.2-2.2c-1.2,0-2.2,1-2.2,2.2
		c0,0.5,0.2,1,0.5,1.4c-0.9,1.1-2.3,1.9-3.8,1.9v1.8C77.3,45.3,79.3,44.2,80.5,42.5z"/>
	<path class="st2" d="M147.8,38c-1.2,0-2.2,1-2.2,2.2c0,0.8,0.4,1.5,1,1.9c-1.9,38.4-33.2,69-71.6,69.1v1.8
		c39.3,0,71.3-31.3,73.4-70.7c0.9-0.3,1.5-1.1,1.5-2.1C149.9,39,149,38,147.8,38z"/>
	<path class="st2" d="M140.5,42.2C138.6,77.2,110,105,75,105v1.8c35.9,0,65.3-28.6,67.3-64.5c0.9-0.3,1.5-1.1,1.5-2.1
		c0-1.2-1-2.2-2.2-2.2c-1.2,0-2.2,1-2.2,2.2C139.4,41.1,139.9,41.8,140.5,42.2z"/>
	<path class="st2" d="M134.4,42.3c-1.9,31.6-27.8,56.6-59.4,56.6v1.8c32.6,0,59.3-25.9,61.2-58.5c0.8-0.3,1.3-1.1,1.3-2
		c0-1.2-1-2.2-2.2-2.2c-1.2,0-2.2,1-2.2,2.2C133.2,41.2,133.7,41.9,134.4,42.3z"/>
	<path class="st2" d="M122.3,42.1C120.4,66.9,100,86.5,75,86.6v1.8c25.9,0,47.1-20.3,49-46c0.9-0.3,1.6-1.1,1.6-2.1
		c0-1.2-1-2.2-2.2-2.2c-1.2,0-2.2,1-2.2,2.2C121.3,41,121.7,41.7,122.3,42.1z"/>
	<path class="st2" d="M116.2,42.3C114.3,63.7,96.6,80.4,75,80.4v1.8c22.6,0,41.1-17.6,42.9-40c0.7-0.4,1.2-1.1,1.2-2
		c0-1.2-1-2.2-2.2-2.2c-1.2,0-2.2,1-2.2,2.2C114.8,41.2,115.4,42,116.2,42.3z"/>
</g>
<path class="st4" d="M149.9,0.1c0,20.7-16.8,37.5-37.5,37.5S74.9,20.8,74.9,0.1"/>
</svg>
