<?xml version="1.0" encoding="utf-8"?>
<!-- Generator: Adobe Illustrator 26.5.3, SVG Export Plug-In . SVG Version: 6.00 Build 0)  -->
<svg version="1.1" id="Layer_1" xmlns="http://www.w3.org/2000/svg" xmlns:xlink="http://www.w3.org/1999/xlink" x="0px" y="0px"
	 viewBox="0 0 375 75" style="enable-background:new 0 0 375 75;" xml:space="preserve">
<style type="text/css">
	.st0{fill:#007386;}
	.st1{fill:#114A5C;}
	.st2{fill:#EB5D26;}
	.st3{fill:#40B5AB;}
	.st4{fill:#FFBF3B;}
</style>
<g id="Group_1567" transform="translate(0 0.663)">
	<path id="Path_3466" class="st0" d="M75,74.4H0c0-41.4,33.6-75,75-75L75,74.4z"/>
	<path id="Path_3467" class="st1" d="M225.2-0.6L225.2-0.6c0,41.4-33.6,75-75,75v-75H225.2z"/>
	<path id="Path_3468" class="st2" d="M146.8,73.8h1.8c0-41.1-32.9-74.4-73.6-74.5v1.8C114.7,1.2,146.8,33.7,146.8,73.8"/>
	<path id="Path_3469" class="st2" d="M140.8,73.8h1.8c0-37.7-30.2-68.3-67.5-68.3v1.8C111.3,7.3,140.7,37.1,140.8,73.8"/>
	<path id="Path_3470" class="st2" d="M134.7,73.8h1.8c0-34.3-27.5-62.1-61.4-62.2v1.8C108,13.5,134.6,40.5,134.7,73.8"/>
	<path id="Path_3471" class="st2" d="M128.6,73.8h1.8c0-30.9-24.8-56-55.3-56v1.8C104.6,19.6,128.6,43.9,128.6,73.8"/>
	<path id="Path_3472" class="st2" d="M122.5,73.8h1.8c0-27.5-22.1-49.8-49.2-49.9v1.8C101.3,25.8,122.5,47.3,122.5,73.8"/>
	<path id="Path_3473" class="st2" d="M116.5,73.8h1.8c0-24.1-19.3-43.7-43.2-43.7v1.8C97.9,31.9,116.4,50.6,116.5,73.8"/>
	<path id="Path_3474" class="st2" d="M110.4,73.8h1.8c0-20.7-16.6-37.6-37.1-37.6V38C94.6,38.1,110.4,54,110.4,73.8"/>
	<path id="Path_3475" class="st2" d="M104.3,73.8h1.8c0-17.3-13.9-31.4-31-31.4v1.8C91.2,44.2,104.3,57.4,104.3,73.8"/>
	<path id="Path_3476" class="st2" d="M98.2,73.8h1.8c0-13.9-11.2-25.3-24.9-25.3v1.8C87.9,50.4,98.2,60.8,98.2,73.8"/>
	<path id="Path_3477" class="st2" d="M92.2,73.8H94c0-10.6-8.5-19.1-18.9-19.1v1.8C84.5,56.5,92.1,64.2,92.2,73.8"/>
	<path id="Path_3478" class="st2" d="M86.1,73.8h1.8c0-7.2-5.7-13-12.8-13v1.8C81.2,62.7,86.1,67.6,86.1,73.8"/>
	<path id="Path_3479" class="st2" d="M80,73.8h1.8c0-3.8-3-6.8-6.7-6.8v1.8C77.8,68.8,80,71,80,73.8"/>
	<path id="Path_3480" class="st2" d="M147.9,69.8c-1.2,0-2.2,1-2.2,2.2c0,1.2,1,2.2,2.2,2.2c1.2,0,2.2-1,2.2-2.2
		C150.1,70.8,149.1,69.8,147.9,69.8"/>
	<path id="Path_3481" class="st2" d="M141.8,69.8c-1.2,0-2.2,1-2.2,2.2c0,1.2,1,2.2,2.2,2.2c1.2,0,2.2-1,2.2-2.2
		C143.9,70.8,143,69.8,141.8,69.8"/>
	<path id="Path_3482" class="st2" d="M135.5,69.8c-1.2,0-2.2,1-2.2,2.2s1,2.2,2.2,2.2c1.2,0,2.2-1,2.2-2.2
		C137.7,70.8,136.7,69.8,135.5,69.8"/>
	<path id="Path_3483" class="st2" d="M129.5,69.9c-1.2,0-2.2,1-2.2,2.2c0,1.2,1,2.2,2.2,2.2c1.2,0,2.2-1,2.2-2.2
		C131.7,70.8,130.7,69.9,129.5,69.9"/>
	<path id="Path_3484" class="st2" d="M123.6,69.8c-1.2,0-2.2,1-2.2,2.2s1,2.2,2.2,2.2c1.2,0,2.2-1,2.2-2.2
		C125.8,70.8,124.8,69.8,123.6,69.8"/>
	<path id="Path_3485" class="st2" d="M117.1,69.8c-1.2,0-2.2,1-2.2,2.2s1,2.2,2.2,2.2c1.2,0,2.2-1,2.2-2.2
		C119.3,70.8,118.3,69.8,117.1,69.8"/>
	<path id="Path_3486" class="st2" d="M111.5,69.8c-1.2,0-2.2,1-2.2,2.2s1,2.2,2.2,2.2c1.2,0,2.2-1,2.2-2.2
		C113.7,70.8,112.7,69.8,111.5,69.8"/>
	<path id="Path_3487" class="st2" d="M105.1,69.8c-1.2,0-2.2,1-2.2,2.2s1,2.2,2.2,2.2c1.2,0,2.2-1,2.2-2.2
		C107.3,70.8,106.3,69.8,105.1,69.8"/>
	<path id="Path_3488" class="st2" d="M99.1,69.8c-1.2,0-2.2,1-2.2,2.2s1,2.2,2.2,2.2c1.2,0,2.2-1,2.2-2.2
		C101.3,70.8,100.3,69.8,99.1,69.8"/>
	<path id="Path_3489" class="st2" d="M93.3,69.8c-1.2,0-2.2,1-2.2,2.2s1,2.2,2.2,2.2c1.2,0,2.2-1,2.2-2.2
		C95.5,70.8,94.5,69.8,93.3,69.8"/>
	<path id="Path_3490" class="st2" d="M86.9,69.8c-1.2,0-2.2,1-2.2,2.2s1,2.2,2.2,2.2c1.2,0,2.2-1,2.2-2.2
		C89.1,70.8,88.1,69.8,86.9,69.8"/>
	<path id="Path_3491" class="st2" d="M80.6,69.8c-1.2,0-2.2,1-2.2,2.2s1,2.2,2.2,2.2c1.2,0,2.2-1,2.2-2.2
		C82.8,70.8,81.8,69.8,80.6,69.8"/>
	<path id="Path_3492" class="st3" d="M375-0.6L375-0.6c0,41.4-33.6,75-75,75v-75H375z"/>
</g>
<path id="Path_3945" class="st2" d="M301.3-0.1h-75v75L301.3-0.1z"/>
</svg>
