<?xml version="1.0" encoding="utf-8"?>
<!-- Generator: Adobe Illustrator 26.5.3, SVG Export Plug-In . SVG Version: 6.00 Build 0)  -->
<svg version="1.1" id="Layer_1" xmlns="http://www.w3.org/2000/svg" xmlns:xlink="http://www.w3.org/1999/xlink" x="0px" y="0px"
	 viewBox="0 0 860 500" style="enable-background:new 0 0 860 500;" xml:space="preserve">
<style type="text/css">
	.st0{fill:#DC5E25;}
	.st1{fill:#FFBF3B;}
	.st2{fill:#007386;}
	.st3{fill:#114A5C;}
	.st4{fill:#EB5D26;}
	.st5{fill:#40B5AB;}
</style>
<g id="Group_1385" transform="translate(425.791 145.7) rotate(180)">
	<g id="Group_1383" transform="translate(0 0)">
		<path id="Path_3415" class="st0" d="M-327.8-9.6v-2.5C-384.6-12.1-430.6,34-430.7,90.8h2.5C-428.1,35.4-383.2-9.5-327.8-9.6"/>
		<path id="Path_3416" class="st0" d="M-327.8-1.1v-2.5c-52.1,0.1-94.3,42.3-94.4,94.4h2.5C-419.6,40.1-378.5-1-327.8-1.1"/>
		<path id="Path_3417" class="st0" d="M-327.8,7.4V4.9c-47.4,0.1-85.8,38.5-85.9,85.9h2.5C-411.1,44.8-373.8,7.5-327.8,7.4"/>
		<path id="Path_3418" class="st0" d="M-327.8,15.9v-2.5c-42.7,0-77.3,34.7-77.4,77.4h2.5C-402.6,49.4-369.1,16-327.8,15.9"/>
		<path id="Path_3419" class="st0" d="M-327.8,24.4v-2.5c-38,0-68.9,30.9-68.9,68.9h2.5C-394.1,54.1-364.4,24.5-327.8,24.4"/>
		<path id="Path_3420" class="st0" d="M-327.8,32.9v-2.5c-33.3,0-60.4,27.1-60.4,60.4h2.5C-385.6,58.8-359.8,32.9-327.8,32.9"/>
		<path id="Path_3421" class="st0" d="M-327.8,41.4v-2.5c-28.6,0-51.9,23.2-51.9,51.9h2.5C-377.1,63.5-355.1,41.4-327.8,41.4"/>
		<path id="Path_3422" class="st0" d="M-327.8,49.9v-2.5c-24,0-43.4,19.4-43.4,43.4h2.5C-368.6,68.2-350.4,49.9-327.8,49.9"/>
		<path id="Path_3423" class="st0" d="M-327.8,58.4v-2.5c-19.3,0-34.9,15.6-34.9,34.9h2.5C-360.1,72.9-345.7,58.4-327.8,58.4"/>
		<path id="Path_3424" class="st0" d="M-327.8,66.9v-2.5c-14.6,0-26.4,11.8-26.4,26.4h2.5C-351.7,77.6-341,66.9-327.8,66.9"/>
		<path id="Path_3425" class="st0" d="M-327.8,75.4v-2.5c-9.9,0-17.9,8-17.9,17.9h2.5C-343.2,82.3-336.3,75.4-327.8,75.4"/>
		<path id="Path_3426" class="st0" d="M-327.8,83.9v-2.5c-5.2,0-9.4,4.2-9.4,9.4h2.5C-334.7,87-331.6,83.9-327.8,83.9"/>
		<path id="Path_3427" class="st0" d="M-335.5,84.6c-1.7,0-3.1,1.4-3.1,3.1s1.4,3.1,3.1,3.1s3.1-1.4,3.1-3.1l0,0
			C-332.4,86-333.8,84.6-335.5,84.6"/>
		<path id="Path_3428" class="st0" d="M-344.1,84.6c-1.7,0-3.1,1.4-3.1,3.1s1.4,3.1,3.1,3.1s3.1-1.4,3.1-3.1l0,0
			C-341,86-342.4,84.6-344.1,84.6"/>
		<path id="Path_3429" class="st0" d="M-352.9,84.6c-1.7,0-3.1,1.4-3.1,3.1s1.4,3.1,3.1,3.1c1.7,0,3.1-1.4,3.1-3.1l0,0
			C-349.8,86-351.2,84.6-352.9,84.6"/>
		<path id="Path_3430" class="st0" d="M-361.2,84.7c-1.7,0-3.1,1.4-3.1,3.1s1.4,3.1,3.1,3.1c1.7,0,3.1-1.4,3.1-3.1l0,0
			C-358.2,86-359.6,84.7-361.2,84.7"/>
		<path id="Path_3431" class="st0" d="M-369.4,84.6c-1.7,0-3.1,1.4-3.1,3.1s1.4,3.1,3.1,3.1c1.7,0,3.1-1.4,3.1-3.1l0,0
			C-366.4,86-367.8,84.6-369.4,84.6"/>
		<path id="Path_3432" class="st0" d="M-378.5,84.6c-1.7,0-3.1,1.4-3.1,3.1s1.4,3.1,3.1,3.1c1.7,0,3.1-1.4,3.1-3.1l0,0
			C-375.5,86-376.8,84.6-378.5,84.6"/>
		<path id="Path_3433" class="st0" d="M-386.4,84.6c-1.7,0-3.1,1.4-3.1,3.1s1.4,3.1,3.1,3.1c1.7,0,3.1-1.4,3.1-3.1l0,0
			C-383.3,86-384.7,84.6-386.4,84.6"/>
		<path id="Path_3434" class="st0" d="M-395.4,84.6c-1.7,0-3.1,1.4-3.1,3.1s1.4,3.1,3.1,3.1c1.7,0,3.1-1.4,3.1-3.1l0,0
			C-392.3,86-393.7,84.6-395.4,84.6"/>
		<path id="Path_3435" class="st0" d="M-403.7,84.6c-1.7,0-3.1,1.4-3.1,3.1s1.4,3.1,3.1,3.1c1.7,0,3.1-1.4,3.1-3.1l0,0
			C-400.7,86-402,84.6-403.7,84.6"/>
		<path id="Path_3436" class="st0" d="M-411.9,84.6c-1.7,0-3.1,1.4-3.1,3.1s1.4,3.1,3.1,3.1c1.7,0,3.1-1.4,3.1-3.1l0,0
			C-408.8,86-410.2,84.6-411.9,84.6"/>
		<path id="Path_3437" class="st0" d="M-420.9,84.6c-1.7,0-3.1,1.4-3.1,3.1s1.4,3.1,3.1,3.1c1.7,0,3.1-1.4,3.1-3.1l0,0
			C-417.8,86-419.2,84.6-420.9,84.6"/>
		<path id="Path_3438" class="st0" d="M-429.6,84.6c-1.7,0-3.1,1.4-3.1,3.1s1.4,3.1,3.1,3.1c1.7,0,3.1-1.4,3.1-3.1l0,0
			C-426.6,86-427.9,84.6-429.6,84.6"/>
		<path id="Path_3439" class="st0" d="M-328.2,81.4V84c56.8-0.1,102.8-46.1,102.9-102.9h-2.5C-227.9,36.5-272.8,81.4-328.2,81.4"/>
		<path id="Path_3440" class="st0" d="M-328.2,72.9v2.5c52.1-0.1,94.3-42.3,94.4-94.4h-2.5C-236.4,31.8-277.5,72.9-328.2,72.9"/>
		<path id="Path_3441" class="st0" d="M-328.2,64.4V67c47.4-0.1,85.8-38.5,85.9-85.9h-2.5C-244.9,27.1-282.1,64.4-328.2,64.4"/>
		<path id="Path_3442" class="st0" d="M-328.2,55.9v2.5c42.7,0,77.3-34.7,77.4-77.4h-2.5C-253.4,22.4-286.8,55.9-328.2,55.9"/>
		<path id="Path_3443" class="st0" d="M-328.2,47.4V50c38,0,68.9-30.9,68.9-68.9h-2.5C-261.9,17.7-291.5,47.4-328.2,47.4"/>
		<path id="Path_3444" class="st0" d="M-328.2,38.9v2.5c33.3,0,60.4-27.1,60.4-60.4h-2.5C-270.3,13-296.2,38.9-328.2,38.9"/>
		<path id="Path_3445" class="st0" d="M-328.2,30.4V33c28.6,0,51.9-23.2,51.9-51.9h-2.5C-278.8,8.3-300.9,30.4-328.2,30.4"/>
		<path id="Path_3446" class="st0" d="M-328.2,21.9v2.5c24,0,43.4-19.4,43.4-43.4h-2.5C-287.3,3.6-305.6,21.9-328.2,21.9"/>
		<path id="Path_3447" class="st0" d="M-328.2,13.4V16c19.3,0,34.9-15.6,34.9-34.9h-2.5C-295.8-1-310.3,13.4-328.2,13.4"/>
		<path id="Path_3448" class="st0" d="M-328.2,4.9v2.5c14.6,0,26.4-11.8,26.4-26.4h-2.5C-304.3-5.7-315,4.9-328.2,4.9"/>
		<path id="Path_3449" class="st0" d="M-328.2-3.6V-1c9.9,0,17.9-8,17.9-17.9h-2.5C-312.8-10.4-319.7-3.6-328.2-3.6"/>
		<path id="Path_3450" class="st0" d="M-328.2-12v2.5c5.2,0,9.4-4.2,9.4-9.4h-2.5C-321.3-15.1-324.4-12.1-328.2-12"/>
		<path id="Path_3451" class="st0" d="M-320.5-12.8c1.7,0,3.1-1.4,3.1-3.1s-1.4-3.1-3.1-3.1c-1.7,0-3.1,1.4-3.1,3.1c0,0,0,0,0,0
			C-323.6-14.1-322.2-12.8-320.5-12.8"/>
		<path id="Path_3452" class="st0" d="M-311.9-12.8c1.7,0,3.1-1.4,3.1-3.1s-1.4-3.1-3.1-3.1c-1.7,0-3.1,1.4-3.1,3.1c0,0,0,0,0,0
			C-315-14.1-313.6-12.8-311.9-12.8"/>
		<path id="Path_3453" class="st0" d="M-303.1-12.8c1.7,0,3.1-1.4,3.1-3.1s-1.4-3.1-3.1-3.1c-1.7,0-3.1,1.4-3.1,3.1c0,0,0,0,0,0
			C-306.2-14.1-304.8-12.8-303.1-12.8"/>
		<path id="Path_3454" class="st0" d="M-294.7-12.8c1.7,0,3.1-1.4,3.1-3.1s-1.4-3.1-3.1-3.1c-1.7,0-3.1,1.4-3.1,3.1c0,0,0,0,0,0
			C-297.8-14.2-296.4-12.8-294.7-12.8"/>
		<path id="Path_3455" class="st0" d="M-286.5-12.8c1.7,0,3.1-1.4,3.1-3.1s-1.4-3.1-3.1-3.1c-1.7,0-3.1,1.4-3.1,3.1c0,0,0,0,0,0
			C-289.6-14.1-288.2-12.8-286.5-12.8"/>
		<path id="Path_3456" class="st0" d="M-277.5-12.8c1.7,0,3.1-1.4,3.1-3.1s-1.4-3.1-3.1-3.1c-1.7,0-3.1,1.4-3.1,3.1c0,0,0,0,0,0
			C-280.5-14.1-279.1-12.8-277.5-12.8"/>
		<path id="Path_3457" class="st0" d="M-269.6-12.8c1.7,0,3.1-1.4,3.1-3.1s-1.4-3.1-3.1-3.1c-1.7,0-3.1,1.4-3.1,3.1c0,0,0,0,0,0
			C-272.6-14.1-271.3-12.8-269.6-12.8"/>
		<path id="Path_3458" class="st0" d="M-260.6-12.8c1.7,0,3.1-1.4,3.1-3.1s-1.4-3.1-3.1-3.1c-1.7,0-3.1,1.4-3.1,3.1c0,0,0,0,0,0
			C-263.6-14.1-262.3-12.8-260.6-12.8"/>
		<path id="Path_3459" class="st0" d="M-252.3-12.8c1.7,0,3.1-1.4,3.1-3.1s-1.4-3.1-3.1-3.1s-3.1,1.4-3.1,3.1c0,0,0,0,0,0
			C-255.3-14.1-254-12.8-252.3-12.8"/>
		<path id="Path_3460" class="st0" d="M-244.1-12.8c1.7,0,3.1-1.4,3.1-3.1s-1.4-3.1-3.1-3.1s-3.1,1.4-3.1,3.1c0,0,0,0,0,0
			C-247.2-14.1-245.8-12.8-244.1-12.8"/>
		<path id="Path_3461" class="st0" d="M-235.1-12.8c1.7,0,3.1-1.4,3.1-3.1s-1.4-3.1-3.1-3.1s-3.1,1.4-3.1,3.1c0,0,0,0,0,0
			C-238.2-14.1-236.8-12.8-235.1-12.8"/>
		<path id="Path_3462" class="st0" d="M-226.3-12.8c1.7,0,3.1-1.4,3.1-3.1s-1.4-3.1-3.1-3.1s-3.1,1.4-3.1,3.1c0,0,0,0,0,0
			C-229.4-14.1-228-12.8-226.3-12.8"/>
	</g>
	<g id="Group_1384" transform="translate(0.887 99.237)">
		<path id="Path_3463" class="st1" d="M-432.6,45.2c0-0.2,0-0.4,0-0.6c0-28.4,23-51.4,51.4-51.4s51.4,23,51.4,51.4
			c0,0.2,0,0.4,0,0.6H-432.6z"/>
	</g>
</g>
<g id="Group_1386" transform="translate(0 332.396)">
	<path id="Path_3466" class="st2" d="M476,166.3h-94.8c0-52.4,42.5-94.8,94.8-94.8c0,0,0,0,0,0L476,166.3z"/>
	<path id="Path_3467" class="st3" d="M666.2,71.5L666.2,71.5c0,52.4-42.5,94.8-94.8,94.8l0,0V71.5H666.2z"/>
	<path id="Path_3468" class="st4" d="M568.3,166.3h2.3c-0.1-52.3-42.5-94.8-94.8-94.8v2.3C526.9,73.9,568.2,115.3,568.3,166.3"/>
	<path id="Path_3469" class="st4" d="M560.5,166.3h2.3c-0.1-48-39-86.9-87-87v2.3C522.5,81.7,560.4,119.6,560.5,166.3"/>
	<path id="Path_3470" class="st4" d="M552.6,166.3h2.3c-0.1-43.7-35.5-79.1-79.1-79.1v2.3C518.2,89.6,552.6,123.9,552.6,166.3"/>
	<path id="Path_3471" class="st4" d="M544.8,166.3h2.3c0-39.4-31.9-71.3-71.3-71.3v2.3C513.9,97.4,544.8,128.2,544.8,166.3"/>
	<path id="Path_3472" class="st4" d="M537,166.3h2.3c0-35-28.4-63.4-63.5-63.5v2.3C509.6,105.2,536.9,132.6,537,166.3"/>
	<path id="Path_3473" class="st4" d="M529.1,166.3h2.3c0-30.7-24.9-55.6-55.7-55.7v2.3C505.2,113,529.1,136.9,529.1,166.3"/>
	<path id="Path_3474" class="st4" d="M521.3,166.3h2.3c0-26.4-21.4-47.8-47.8-47.8v2.3C500.9,120.9,521.3,141.2,521.3,166.3"/>
	<path id="Path_3475" class="st4" d="M513.5,166.3h2.3c0-22.1-17.9-40-40-40v2.3C496.6,128.7,513.4,145.5,513.5,166.3"/>
	<path id="Path_3476" class="st4" d="M505.6,166.3h2.3c0-17.8-14.4-32.1-32.2-32.2v2.3C492.3,136.5,505.6,149.9,505.6,166.3"/>
	<path id="Path_3477" class="st4" d="M497.8,166.3h2.3c0-13.4-10.9-24.3-24.3-24.3v2.3C487.9,144.4,497.8,154.2,497.8,166.3"/>
	<path id="Path_3478" class="st4" d="M490,166.3h2.3c0-9.1-7.4-16.5-16.5-16.5v2.3C483.6,152.2,490,158.5,490,166.3"/>
	<path id="Path_3479" class="st4" d="M482.1,166.3h2.3c0-4.8-3.9-8.7-8.7-8.7v2.3C479.3,160,482.1,162.8,482.1,166.3"/>
	<path id="Path_3480" class="st4" d="M569.7,161.3c-1.6,0-2.8,1.3-2.8,2.8c0,1.6,1.3,2.8,2.8,2.8c1.6,0,2.8-1.3,2.8-2.8c0,0,0,0,0,0
		C572.5,162.6,571.2,161.3,569.7,161.3"/>
	<path id="Path_3481" class="st4" d="M561.7,161.3c-1.6,0-2.8,1.3-2.8,2.8c0,1.6,1.3,2.8,2.8,2.8c1.6,0,2.8-1.3,2.8-2.8c0,0,0,0,0,0
		C564.6,162.6,563.3,161.3,561.7,161.3"/>
	<path id="Path_3482" class="st4" d="M553.6,161.3c-1.6,0-2.8,1.3-2.8,2.8c0,1.6,1.3,2.8,2.8,2.8s2.8-1.3,2.8-2.8l0,0
		C556.5,162.6,555.2,161.3,553.6,161.3"/>
	<path id="Path_3483" class="st4" d="M545.9,161.3c-1.6,0-2.8,1.3-2.8,2.8c0,1.6,1.3,2.8,2.8,2.8c1.6,0,2.8-1.3,2.8-2.8l0,0
		C548.7,162.6,547.5,161.3,545.9,161.3"/>
	<path id="Path_3484" class="st4" d="M538.4,161.3c-1.6,0-2.8,1.3-2.8,2.8c0,1.6,1.3,2.8,2.8,2.8s2.8-1.3,2.8-2.8l0,0
		C541.2,162.6,539.9,161.3,538.4,161.3"/>
	<path id="Path_3485" class="st4" d="M530,161.3c-1.6,0-2.8,1.3-2.8,2.8c0,1.6,1.3,2.8,2.8,2.8c1.6,0,2.8-1.3,2.8-2.8l0,0
		C532.8,162.6,531.6,161.3,530,161.3"/>
	<path id="Path_3486" class="st4" d="M522.7,161.3c-1.6,0-2.8,1.3-2.8,2.8c0,1.6,1.3,2.8,2.8,2.8c1.6,0,2.8-1.3,2.8-2.8l0,0
		C525.6,162.6,524.3,161.3,522.7,161.3"/>
	<path id="Path_3487" class="st4" d="M514.5,161.3c-1.6,0-2.8,1.3-2.8,2.8c0,1.6,1.3,2.8,2.8,2.8s2.8-1.3,2.8-2.8l0,0
		C517.3,162.6,516,161.3,514.5,161.3"/>
	<path id="Path_3488" class="st4" d="M506.8,161.3c-1.6,0-2.8,1.3-2.8,2.8c0,1.6,1.3,2.8,2.8,2.8c1.6,0,2.8-1.3,2.8-2.8l0,0
		C509.6,162.6,508.3,161.3,506.8,161.3"/>
	<path id="Path_3489" class="st4" d="M499.3,161.3c-1.6,0-2.8,1.3-2.8,2.8c0,1.6,1.3,2.8,2.8,2.8c1.6,0,2.8-1.3,2.8-2.8l0,0
		C502.1,162.6,500.8,161.3,499.3,161.3"/>
	<path id="Path_3490" class="st4" d="M491,161.3c-1.6,0-2.8,1.3-2.8,2.8c0,1.6,1.3,2.8,2.8,2.8c1.6,0,2.8-1.3,2.8-2.8l0,0
		C493.8,162.6,492.5,161.3,491,161.3"/>
	<path id="Path_3491" class="st4" d="M482.9,161.3c-1.6,0-2.8,1.3-2.8,2.8c0,1.6,1.3,2.8,2.8,2.8c1.6,0,2.8-1.3,2.8-2.8l0,0
		C485.7,162.6,484.4,161.3,482.9,161.3"/>
	<path id="Path_3492" class="st5" d="M855,71.5L855,71.5c0,52.4-42.5,94.8-94.8,94.8l0,0V71.5H855z"/>
</g>
<path id="Path_3493" class="st4" d="M762.5,403.1h-96v96L762.5,403.1z"/>
</svg>
