<?xml version="1.0" encoding="utf-8"?>
<!-- Generator: Adobe Illustrator 26.5.3, SVG Export Plug-In . SVG Version: 6.00 Build 0)  -->
<svg version="1.1" id="Layer_1" xmlns="http://www.w3.org/2000/svg" xmlns:xlink="http://www.w3.org/1999/xlink" x="0px" y="0px"
	 viewBox="0 0 393.2 133.5" style="enable-background:new 0 0 393.2 133.5;" xml:space="preserve">
<style type="text/css">
	.st0{fill:#0952D3;}
	.st1{fill-rule:evenodd;clip-rule:evenodd;fill:#3667F2;}
	.st2{fill-rule:evenodd;clip-rule:evenodd;fill:#4B45D6;}
	.st3{fill-rule:evenodd;clip-rule:evenodd;}
</style>
<g id="Group_1549" transform="translate(-195.02 203.323)">
	<g id="Layer_1_00000124858181607480092370000015444347731049158297_" transform="translate(502.052 -106.737)">
		<g id="Group_1518">
			<path id="Path_3810" class="st0" d="M14,30c-1.8,0-3.6-0.3-5.3-1c-1.7-0.6-3.2-1.6-4.5-2.9c-1.3-1.3-2.4-2.9-3.1-4.7
				C0.3,19.4,0,17.2,0,15c0-2.2,0.3-4.4,1.1-6.5c0.7-1.8,1.7-3.4,3-4.7C5.4,2.5,6.9,1.6,8.6,1c1.7-0.6,3.5-1,5.4-1
				c1.8,0,3.7,0.3,5.4,1c1.7,0.6,3.2,1.6,4.5,2.8c1.3,1.3,2.4,2.9,3,4.7c0.8,2.1,1.1,4.3,1.1,6.5c0,2.2-0.3,4.4-1.1,6.5
				c-0.7,1.8-1.7,3.4-3.1,4.7c-1.3,1.3-2.8,2.2-4.5,2.9C17.6,29.7,15.8,30,14,30z M14,23.9c1,0,2-0.3,2.8-0.8c1-0.7,1.8-1.6,2.2-2.7
				c0.7-1.7,1-3.5,0.9-5.4c0.1-1.8-0.2-3.7-0.9-5.4c-0.4-1.1-1.2-2.1-2.2-2.7C15.9,6.4,15,6.1,14,6.1c-1,0-2,0.3-2.8,0.8
				c-1,0.6-1.8,1.6-2.2,2.7c-0.7,1.7-1,3.5-0.9,5.4c-0.1,1.8,0.2,3.7,0.9,5.4c0.4,1.1,1.2,2.1,2.2,2.7C12,23.6,13,23.8,14,23.9z
				 M10.4,29h6.7c0,0.5,0.2,1,0.6,1.3c0.5,0.3,1,0.6,1.5,0.8c0.5,0.2,1.1,0.3,1.7,0.4c0.5,0.1,0.9,0.1,1.1,0.2l-2.2,5.2
				c-0.2,0-0.6,0-1.3-0.1c-0.8-0.1-1.6-0.3-2.4-0.6c-0.9-0.3-1.8-0.7-2.7-1.3c-0.9-0.6-1.6-1.4-2.2-2.3C10.6,31.5,10.3,30.3,10.4,29
				z"/>
			<path id="Path_3811" class="st0" d="M41.9,30c-1.9,0-3.9-0.3-5.7-0.9c-1.6-0.5-3-1.5-4-2.8c-1-1.3-1.5-2.9-1.5-4.5
				c0-1.3,0.4-2.6,1.1-3.7c0.9-1.2,2-2.2,3.2-3c1.7-1.1,3.4-2.2,5.2-3.1c1.3-0.6,2.5-1.4,3.5-2.4c0.6-0.6,1-1.4,1.1-2.2
				c0-0.4-0.1-0.8-0.3-1.1c-0.2-0.3-0.4-0.5-0.7-0.7c-0.3-0.2-0.7-0.3-1.1-0.3c-0.4,0-0.8,0.1-1.1,0.3C41.3,5.7,41,6,40.8,6.3
				c-0.2,0.3-0.3,0.7-0.3,1.1c0,0.8,0.3,1.5,0.7,2.2c0.5,0.8,1.1,1.6,1.7,2.4l9.6,11.3c0.4,0.5,0.8,0.8,1.4,1
				c0.4,0.1,0.7,0.2,1.1,0.2c0.4,0,0.7-0.1,1.1-0.1c0.3-0.1,0.6-0.1,0.9-0.2v5.4c-0.1,0-0.4,0.1-0.9,0.3c-0.7,0.2-1.4,0.2-2.1,0.2
				c-1,0-1.9-0.2-2.8-0.5c-0.9-0.3-1.8-0.9-2.4-1.6L38.2,15.4c-0.6-0.7-1.2-1.4-1.8-2.3c-0.7-0.9-1.2-1.9-1.6-2.9
				c-0.4-1-0.7-2.1-0.7-3.2c0-1.2,0.4-2.4,1.1-3.3c0.8-1.1,1.8-1.9,3-2.5c1.4-0.7,3-1,4.5-1c1.6,0,3.1,0.3,4.5,0.9
				c1.2,0.6,2.2,1.4,2.9,2.5c0.7,1,1,2.1,1,3.3c0,1.3-0.3,2.5-0.9,3.7c-0.7,1.1-1.5,2.2-2.6,3c-1.3,1-2.7,2-4.2,2.8
				c-1.4,0.8-2.8,1.7-4.1,2.6c-0.8,0.6-1.3,1.5-1.4,2.5c0,0.6,0.2,1.1,0.6,1.5c0.4,0.5,0.9,0.8,1.5,1.1c0.6,0.3,1.3,0.4,2,0.4
				c1.2,0,2.4-0.2,3.5-0.7c1-0.4,1.9-1.1,2.6-1.8c0.7-0.7,1.3-1.5,1.8-2.3c0.5-1.2,0.8-2.4,0.7-3.7h6.4c0,1.5-0.2,3-0.6,4.5
				c-0.4,1.2-0.9,2.3-1.7,3.2c-0.7,0.9-1.4,1.7-2.2,2.4c-1.3,1.3-2.9,2.3-4.6,2.9C46,29.6,44,30,41.9,30z"/>
			<path id="Path_3812" class="st0" d="M60.1,29.5l6.7-29h12.6l6.7,29H78L73.1,5.2h0l-5,24.2H60.1z M66,23.4v-6h14.3v6H66z"/>
		</g>
	</g>
	<g id="Layer_2_00000031910441294281125910000001025060373991337891_" transform="translate(195.02 -203.323)">
		<g id="Group_1519" transform="translate(132.306 15.643)">
			<path id="Path_3813" d="M22.7,70.2c-4.3,0.1-8.5-1.1-12.1-3.4c-3.4-2.3-6.1-5.4-7.8-9.1c-1.9-4-2.8-8.4-2.7-12.8
				c-0.1-4.5,1-8.9,3-12.8c2-3.8,5-6.9,8.7-9.1c4.2-2.3,8.9-3.5,13.6-3.4c4.6-0.1,9.2,1,13.1,3.3c3.6,2.1,6.5,5.3,8.5,9
				c2,3.9,3,8.3,3,12.7V69h-8.8v-9.8h-0.2c-1,1.9-2.3,3.7-3.8,5.2c-1.7,1.7-3.8,3.1-6,4.1C28.4,69.7,25.6,70.2,22.7,70.2z M25,62.7
				c3,0.1,5.9-0.7,8.4-2.3c2.5-1.6,4.4-3.8,5.7-6.4c1.4-2.9,2.1-6,2-9.2c0.1-3.1-0.6-6.2-1.9-9c-1.2-2.6-3.1-4.7-5.5-6.3
				c-2.5-1.6-5.4-2.4-8.4-2.3c-3.1-0.1-6.1,0.7-8.7,2.4c-2.4,1.6-4.3,3.8-5.6,6.4c-1.3,2.9-2,6-1.9,9.1c0,3.1,0.6,6.1,1.9,8.9
				c1.2,2.6,3.1,4.8,5.5,6.4C18.9,62,21.9,62.8,25,62.7L25,62.7z"/>
			<path id="Path_3814" d="M59.6,69v-7.5h23.1c1.4,0,2.7-0.3,3.9-1c1.1-0.6,1.9-1.5,2.5-2.6c0.6-1,0.9-2.2,0.9-3.4
				c0-1.1-0.3-2.2-0.8-3.2c-0.5-1-1.3-1.8-2.3-2.4c-1.1-0.6-2.4-0.9-3.7-0.9h-9.7c-2.8,0.1-5.5-0.5-8.1-1.6c-2.2-1-4.1-2.6-5.4-4.6
				c-1.3-2.2-2-4.8-1.9-7.4c0-2.4,0.6-4.7,1.8-6.8c1.2-2.1,2.9-3.8,5-5.1c2.2-1.3,4.8-2,7.4-1.9h22.2v7.5H73
				c-1.7-0.1-3.4,0.6-4.6,1.8c-1.1,1.1-1.7,2.7-1.7,4.3c0,1.6,0.6,3,1.7,4.1c1.3,1.2,3.1,1.9,5,1.7h9.3c3-0.1,6,0.5,8.7,1.7
				c2.2,1,4.1,2.7,5.4,4.8c1.3,2.3,1.9,5,1.8,7.7c0,2.5-0.6,5-1.9,7.2c-1.3,2.2-3.1,4.1-5.2,5.4c-2.4,1.4-5.1,2.1-7.8,2.1L59.6,69z"
				/>
			<path id="Path_3815" d="M106.6,69V0h8.7v41h13.2l12.7-20.2h9.6l-13.7,21.6c4.3,1.2,8.1,3.8,10.6,7.4c2.6,3.7,3.9,8.1,3.8,12.6V69
				h-8.8v-6.6c0-2.5-0.6-4.9-1.7-7.1c-1.1-2.1-2.8-3.8-4.9-5c-2.2-1.3-4.7-1.9-7.2-1.8h-13.7V69H106.6z"/>
			<path id="Path_3816" d="M163.4,70c-1.7,0-3.3-0.6-4.4-1.8c-1.2-1.1-1.9-2.7-1.8-4.4c0-1.7,0.6-3.3,1.8-4.4
				c1.1-1.2,2.7-1.9,4.4-1.8c1.7,0,3.3,0.6,4.4,1.8c1.2,1.1,1.9,2.7,1.8,4.4c0,1.1-0.3,2.2-0.8,3.1c-0.5,0.9-1.3,1.7-2.2,2.3
				C165.6,69.7,164.5,70,163.4,70z"/>
			<path id="Path_3817" d="M206.4,69c-4.7,0-9.4-0.9-13.8-2.7c-4-1.6-7.7-4.1-10.7-7.1c-3-3-5.3-6.6-6.9-10.5
				c-1.6-4.1-2.4-8.4-2.4-12.8c0-4.4,0.8-8.7,2.4-12.8c1.6-3.9,3.9-7.5,6.9-10.5c3.1-3.1,6.7-5.5,10.7-7.1c4.4-1.8,9.1-2.7,13.8-2.7
				h8.5v8h-8.2c-3.4,0-6.8,0.6-9.9,1.9c-2.9,1.2-5.6,3-7.9,5.3c-2.3,2.3-4,4.9-5.2,7.9c-1.3,3.2-1.9,6.5-1.9,9.9
				c0,3.4,0.6,6.7,1.9,9.9c1.2,3,3,5.7,5.2,7.9c2.3,2.3,4.9,4,7.9,5.2c3.2,1.3,6.5,2,9.9,2h8.2v8L206.4,69z"/>
			<path id="Path_3818" d="M219.7,69v-8h12.8V10.9h-12.8v-8h34.5v8h-12.7V61h12.7v8H219.7z"/>
		</g>
		<path id="Path_3819" class="st1" d="M47.8,13.4h29.9c7.9,0,14.6,6.2,15.7,14.3H85c-0.9-3.3-3.9-5.5-7.3-5.6H44.5l-9.3-9.8L26,22.1
			H15.9c-4.3,0.1-7.8,3.7-7.7,8.1v33.5c-0.1,4.3,3.3,7.9,7.7,8.1h61.8c4.3-0.1,7.8-3.7,7.7-8.1V42.4h8.2v21.2
			c0,9.2-7.2,16.7-15.9,16.7H15.9C7.2,80.4,0,72.8,0,63.6V30.1c0-9.2,7.2-16.7,15.9-16.7h6.7L35.2,0L47.8,13.4z"/>
		<path id="Path_3820" class="st2" d="M62.2,97.7H32.3c-7.9,0-14.6-6.2-15.7-14.3H25c0.9,3.3,3.9,5.5,7.3,5.6h33.3l9.3,9.8l9.3-9.8
			h10.1c4.3-0.1,7.8-3.7,7.7-8.1V47.5c0.1-4.3-3.3-7.9-7.7-8.1H32.3c-4.3,0.1-7.8,3.7-7.7,8.1v21.2h-8.2V47.5
			c0-9.2,7.2-16.7,15.9-16.7h61.8c8.7,0,15.9,7.5,15.9,16.7v33.5c0,9.2-7.2,16.7-15.9,16.7h-6.7l-12.6,13.4L62.2,97.7z"/>
		<path id="Path_3821" class="st3" d="M44.3,56.1c0,3.1-2.5,5.6-5.6,5.6c0,0,0,0,0,0c-3.1,0-5.6-2.5-5.6-5.6c0,0,0,0,0,0
			c0-3.1,2.5-5.6,5.6-5.6c0,0,0,0,0,0C41.8,50.5,44.3,53,44.3,56.1C44.3,56.1,44.3,56.1,44.3,56.1"/>
		<path id="Path_3822" class="st3" d="M60.6,56.1c0,3.1-2.5,5.6-5.6,5.6c0,0,0,0,0,0c-3.1,0-5.6-2.5-5.6-5.6c0,0,0,0,0,0
			c0-3.1,2.5-5.6,5.6-5.6C58.1,50.5,60.6,53,60.6,56.1C60.6,56.1,60.6,56.1,60.6,56.1"/>
		<path id="Path_3823" class="st3" d="M77.2,56.1c0,3.1-2.5,5.6-5.6,5.6c0,0,0,0,0,0c-3.1,0-5.6-2.5-5.6-5.6c0,0,0,0,0,0
			c0-3.1,2.5-5.6,5.6-5.6c0,0,0,0,0,0C74.7,50.5,77.2,53,77.2,56.1C77.2,56.1,77.2,56.1,77.2,56.1"/>
	</g>
</g>
</svg>
