<?xml version="1.0" encoding="utf-8"?>
<!-- Generator: Adobe Illustrator 26.5.3, SVG Export Plug-In . SVG Version: 6.00 Build 0)  -->
<svg version="1.1" id="Layer_1" xmlns="http://www.w3.org/2000/svg" xmlns:xlink="http://www.w3.org/1999/xlink" x="0px" y="0px"
	 viewBox="0 0 368.5 163.7" style="enable-background:new 0 0 368.5 163.7;" xml:space="preserve">
<style type="text/css">
	.st0{enable-background:new    ;}
	.st1{fill:#48C0B9;}
	.st2{fill:#2B5A6F;}
</style>
<g class="st0">
	<path class="st1" d="M1.3,112c0-3.6,0.9-6.2,2.6-8c1.7-1.8,4.2-2.7,7.4-2.7c1.7,0,3.3,0.3,4.7,0.9c1.4,0.6,2.5,1.5,3.3,2.7
		c0.8,1.2,1.2,2.7,1.2,4.4H16c0-1.3-0.4-2.4-1.3-3.2s-2-1.2-3.4-1.2c-1.9,0-3.3,0.6-4.2,1.7c-0.9,1.1-1.4,2.7-1.4,4.8v0.9
		c0,4.3,1.9,6.5,5.6,6.5c1.5,0,2.6-0.4,3.5-1.1c0.9-0.8,1.3-1.8,1.3-3.2h4.3c0,1.8-0.4,3.2-1.2,4.4c-0.8,1.2-1.9,2.1-3.3,2.7
		c-1.4,0.6-3,0.9-4.7,0.9C4.6,122.7,1.3,119.1,1.3,112z"/>
	<path class="st1" d="M24.8,120.6c-1.3-1.3-2-3.4-2-6.2c0-2.8,0.7-4.9,2-6.2c1.3-1.3,3.3-2,6-2c2.7,0,4.7,0.7,6,2s2,3.4,2,6.2
		c0,2.8-0.7,4.9-2,6.2c-1.3,1.3-3.3,2-6,2C28.1,122.7,26.1,122,24.8,120.6z M33.7,118.1c0.6-0.8,0.9-1.9,0.9-3.5v-0.5
		c0-1.6-0.3-2.7-0.9-3.5c-0.6-0.8-1.6-1.2-2.9-1.2s-2.3,0.4-2.9,1.2c-0.6,0.8-0.9,1.9-0.9,3.5v0.5c0,1.6,0.3,2.7,0.9,3.5
		c0.6,0.8,1.6,1.2,2.9,1.2S33.1,118.9,33.7,118.1z"/>
	<path class="st1" d="M42.1,106.5h3.5l0.3,2.1h0.2c1.2-1.6,2.7-2.4,4.5-2.4c2,0,3.4,0.8,4.1,2.4H55c1.2-1.6,2.8-2.4,4.7-2.4
		c1.5,0,2.7,0.4,3.6,1.3c0.9,0.9,1.3,2.3,1.3,4.2v10.6h-4.1v-9.7c0-1.9-0.8-2.8-2.3-2.8c-0.8,0-1.5,0.3-2,1
		c-0.5,0.7-0.8,1.5-0.8,2.4v9.1h-4.1v-9.7c0-1.9-0.8-2.8-2.3-2.8c-0.8,0-1.5,0.3-2,1c-0.5,0.7-0.8,1.5-0.8,2.4v9.1h-4.1V106.5z"/>
	<path class="st1" d="M68.8,106.5h3.5l0.3,2.1h0.2c0.5-0.8,1.2-1.4,2-1.8c0.8-0.4,1.8-0.6,2.8-0.6c2,0,3.5,0.7,4.6,2.1
		s1.7,3.4,1.7,6.2c0,2.7-0.6,4.8-1.7,6.2c-1.1,1.4-2.6,2.1-4.4,2.1c-1.1,0-2-0.2-2.8-0.6c-0.8-0.4-1.4-0.9-1.9-1.6h-0.2v7h-4.1
		V106.5z M78.9,118c0.5-0.7,0.8-1.8,0.8-3.3v-0.5c0-1.5-0.3-2.6-0.8-3.3c-0.5-0.7-1.4-1.1-2.6-1.1c-2.2,0-3.4,1.5-3.4,4.4v0.5
		c0,3,1.1,4.5,3.4,4.5C77.5,119.1,78.3,118.7,78.9,118z"/>
	<path class="st1" d="M88.4,121.3c-0.9-0.9-1.4-2.3-1.4-4.2v-10.6h4.1v9.7c0,1,0.2,1.7,0.7,2.1c0.5,0.4,1.1,0.7,2,0.7
		c0.9,0,1.7-0.3,2.3-1c0.6-0.6,0.9-1.5,0.9-2.4v-9.1h4.1v15.8h-3.5l-0.3-2.1h-0.2c-1.3,1.6-2.9,2.4-4.9,2.4
		C90.6,122.7,89.4,122.2,88.4,121.3z"/>
	<path class="st1" d="M106.5,121.5c-0.6-0.8-1-1.8-1-3v-8.5h-1.9v-3.4h2l0.7-4.4h3.3v4.4h2.7v3.4h-2.7v8.1c0,0.9,0.4,1.3,1.3,1.3
		h1.4v2.9c-0.3,0.1-0.8,0.2-1.3,0.3c-0.5,0.1-1,0.2-1.4,0.2C108.2,122.7,107.1,122.3,106.5,121.5z"/>
	<path class="st1" d="M115.7,121.7c-1-0.6-1.5-1.8-1.5-3.5c0-2,0.8-3.5,2.5-4.3s4-1.3,7.1-1.3v-1.1c0-0.7-0.2-1.2-0.5-1.6
		s-0.9-0.6-1.8-0.6c-0.9,0-1.6,0.1-2,0.4s-0.6,0.6-0.6,1v0.5h-4c0-0.1,0-0.3,0-0.7c0-1.3,0.6-2.4,1.8-3.2c1.2-0.8,2.7-1.2,4.7-1.2
		c2.2,0,3.8,0.4,4.8,1.3c1.1,0.9,1.6,2.2,1.6,3.8v7c0,0.4,0.1,0.6,0.3,0.8c0.2,0.2,0.5,0.3,0.8,0.3h0.8v2.9
		c-0.6,0.3-1.4,0.5-2.4,0.5c-0.8,0-1.5-0.2-2.1-0.5c-0.6-0.4-0.9-0.9-1.1-1.5H124c-0.6,0.7-1.2,1.2-2,1.5s-1.7,0.5-2.9,0.5
		C117.8,122.7,116.7,122.3,115.7,121.7z M122.9,118.4c0.5-0.6,0.8-1.5,0.8-2.6v-0.5c-3.6,0-5.4,0.8-5.4,2.4c0,0.5,0.2,0.9,0.5,1.2
		s0.8,0.5,1.5,0.5C121.5,119.4,122.4,119.1,122.9,118.4z"/>
	<path class="st1" d="M133.2,121.5c-0.6-0.8-1-1.8-1-3v-8.5h-1.9v-3.4h2l0.7-4.4h3.3v4.4h2.7v3.4h-2.7v8.1c0,0.9,0.4,1.3,1.3,1.3
		h1.4v2.9c-0.3,0.1-0.8,0.2-1.3,0.3c-0.5,0.1-1,0.2-1.4,0.2C134.9,122.7,133.8,122.3,133.2,121.5z"/>
	<path class="st1" d="M142.1,100.6h4.1v3.7h-4.1V100.6z M142.1,106.5h4.1v15.8h-4.1V106.5z"/>
	<path class="st1" d="M151.4,120.6c-1.3-1.3-2-3.4-2-6.2c0-2.8,0.7-4.9,2-6.2c1.3-1.3,3.3-2,6-2c2.7,0,4.7,0.7,6,2s2,3.4,2,6.2
		c0,2.8-0.7,4.9-2,6.2c-1.3,1.3-3.3,2-6,2C154.8,122.7,152.8,122,151.4,120.6z M160.4,118.1c0.6-0.8,0.9-1.9,0.9-3.5v-0.5
		c0-1.6-0.3-2.7-0.9-3.5c-0.6-0.8-1.6-1.2-2.9-1.2s-2.3,0.4-2.9,1.2c-0.6,0.8-0.9,1.9-0.9,3.5v0.5c0,1.6,0.3,2.7,0.9,3.5
		c0.6,0.8,1.6,1.2,2.9,1.2S159.8,118.9,160.4,118.1z"/>
	<path class="st1" d="M168.8,106.5h3.5l0.3,2.1h0.2c1.3-1.6,2.9-2.4,4.9-2.4c1.6,0,2.9,0.4,3.8,1.3c0.9,0.9,1.4,2.3,1.4,4.2v10.6
		h-4.1v-9.7c0-1-0.2-1.7-0.7-2.1c-0.5-0.4-1.1-0.7-2-0.7c-0.9,0-1.7,0.3-2.3,1c-0.6,0.7-0.9,1.5-0.9,2.4v9.1h-4.1V106.5z"/>
	<path class="st1" d="M187.4,121.7c-1-0.6-1.5-1.8-1.5-3.5c0-2,0.8-3.5,2.5-4.3s4-1.3,7.1-1.3v-1.1c0-0.7-0.2-1.2-0.5-1.6
		c-0.3-0.4-0.9-0.6-1.8-0.6c-0.9,0-1.6,0.1-2,0.4c-0.4,0.3-0.6,0.6-0.6,1v0.5h-4c0-0.1,0-0.3,0-0.7c0-1.3,0.6-2.4,1.8-3.2
		c1.2-0.8,2.7-1.2,4.7-1.2c2.2,0,3.8,0.4,4.8,1.3c1.1,0.9,1.6,2.2,1.6,3.8v7c0,0.4,0.1,0.6,0.3,0.8s0.5,0.3,0.8,0.3h0.8v2.9
		c-0.6,0.3-1.4,0.5-2.4,0.5c-0.8,0-1.5-0.2-2.1-0.5c-0.5-0.4-0.9-0.9-1.1-1.5h-0.2c-0.6,0.7-1.2,1.2-2,1.5s-1.7,0.5-2.9,0.5
		C189.5,122.7,188.4,122.3,187.4,121.7z M194.6,118.4c0.5-0.6,0.8-1.5,0.8-2.6v-0.5c-3.6,0-5.4,0.8-5.4,2.4c0,0.5,0.2,0.9,0.5,1.2
		s0.8,0.5,1.5,0.5C193.2,119.4,194,119.1,194.6,118.4z"/>
	<path class="st1" d="M203.8,100.6h4.1v21.7h-4.1V100.6z"/>
	<path class="st1" d="M223.9,121.9c-1.3-0.5-2.4-1.2-3.1-2.2s-1.2-2.1-1.2-3.5l0-0.7h4.4l0,0.5c0,0.9,0.4,1.6,1.2,2.1
		c0.8,0.5,1.9,0.8,3.3,0.8c1.5,0,2.6-0.2,3.2-0.6c0.7-0.4,1-0.9,1-1.6c0-0.6-0.2-1.1-0.6-1.5c-0.4-0.4-1-0.7-1.6-0.9
		c-0.7-0.2-1.5-0.5-2.7-0.8c-1.6-0.5-2.9-0.9-3.9-1.3c-1-0.4-1.9-1-2.6-1.9s-1.1-1.9-1.1-3.3c0-1.9,0.8-3.3,2.3-4.3
		c1.5-1,3.5-1.5,6.1-1.5c2.4,0,4.3,0.5,5.8,1.5c1.5,1,2.3,2.5,2.3,4.5v0.4h-4.3v-0.3c0-0.8-0.3-1.4-1-1.8c-0.7-0.4-1.6-0.7-2.8-0.7
		c-1.3,0-2.2,0.2-2.9,0.5c-0.7,0.3-1,0.8-1,1.4c0,0.5,0.2,0.9,0.6,1.2c0.4,0.3,0.9,0.6,1.5,0.8c0.6,0.2,1.4,0.5,2.5,0.8
		c1.6,0.4,3,0.9,4,1.3c1,0.4,2,1.1,2.7,1.9c0.8,0.8,1.1,1.9,1.1,3.3c0,2.2-0.8,3.8-2.4,4.9c-1.6,1-3.7,1.6-6.4,1.6
		C226.7,122.7,225.2,122.4,223.9,121.9z"/>
	<path class="st1" d="M241.4,120.6c-1.2-1.3-1.9-3.4-1.9-6.2c0-2.8,0.6-4.9,1.9-6.2c1.2-1.3,3.1-2,5.7-2c2.1,0,3.8,0.5,5,1.6
		c1.2,1.1,1.9,2.6,1.9,4.7h-4.1c0-1-0.2-1.7-0.8-2.2c-0.5-0.5-1.2-0.8-2.1-0.8c-1.1,0-1.9,0.4-2.5,1.2c-0.5,0.8-0.8,2-0.8,3.5v0.5
		c0,1.6,0.3,2.7,0.8,3.5c0.5,0.8,1.4,1.2,2.7,1.2c0.9,0,1.5-0.3,2.1-0.8c0.5-0.5,0.8-1.3,0.8-2.2h4c0,2.1-0.6,3.6-1.9,4.7
		c-1.2,1.1-2.9,1.6-5,1.6C244.5,122.7,242.6,122,241.4,120.6z"/>
	<path class="st1" d="M257.2,100.6h4.1v3.7h-4.1V100.6z M257.2,106.5h4.1v15.8h-4.1V106.5z"/>
	<path class="st1" d="M266.3,120.6c-1.2-1.3-1.9-3.4-1.9-6.2c0-2.8,0.6-4.9,1.9-6.2s3.1-2,5.7-2c2.3,0,4.1,0.7,5.2,2
		c1.2,1.4,1.7,3.4,1.7,6.2v1h-10.4c0,1.4,0.3,2.4,0.8,3.1c0.5,0.7,1.4,1,2.6,1c0.9,0,1.6-0.2,2.1-0.7c0.5-0.5,0.8-1.2,0.8-2h4
		c0,2-0.6,3.5-1.9,4.5s-3,1.5-5.1,1.5C269.5,122.7,267.6,122,266.3,120.6z M274.7,112.6c0-2.2-0.9-3.3-2.7-3.3c-1,0-1.8,0.3-2.4,0.8
		c-0.5,0.5-0.9,1.4-1,2.5H274.7z"/>
	<path class="st1" d="M282.2,106.5h3.5l0.3,2.1h0.2c1.3-1.6,2.9-2.4,4.9-2.4c1.6,0,2.9,0.4,3.8,1.3c0.9,0.9,1.4,2.3,1.4,4.2v10.6
		h-4.1v-9.7c0-1-0.2-1.7-0.7-2.1c-0.5-0.4-1.1-0.7-2-0.7c-0.9,0-1.7,0.3-2.3,1c-0.6,0.7-0.9,1.5-0.9,2.4v9.1h-4.1V106.5z"/>
	<path class="st1" d="M301.4,120.6c-1.3-1.3-1.9-3.4-1.9-6.2c0-2.8,0.6-4.9,1.9-6.2c1.2-1.3,3.1-2,5.7-2c2.1,0,3.8,0.5,5,1.6
		c1.2,1.1,1.9,2.6,1.9,4.7h-4.1c0-1-0.3-1.7-0.8-2.2c-0.5-0.5-1.2-0.8-2.1-0.8c-1.1,0-1.9,0.4-2.5,1.2c-0.5,0.8-0.8,2-0.8,3.5v0.5
		c0,1.6,0.3,2.7,0.8,3.5c0.6,0.8,1.4,1.2,2.7,1.2c0.9,0,1.5-0.3,2.1-0.8c0.5-0.5,0.8-1.3,0.8-2.2h4c0,2.1-0.6,3.6-1.9,4.7
		c-1.2,1.1-2.9,1.6-5,1.6C304.5,122.7,302.6,122,301.4,120.6z"/>
	<path class="st1" d="M318,120.6c-1.2-1.3-1.9-3.4-1.9-6.2c0-2.8,0.6-4.9,1.9-6.2s3.1-2,5.7-2c2.3,0,4.1,0.7,5.2,2
		c1.2,1.4,1.7,3.4,1.7,6.2v1h-10.4c0,1.4,0.3,2.4,0.8,3.1c0.5,0.7,1.4,1,2.6,1c0.9,0,1.6-0.2,2.1-0.7c0.5-0.5,0.8-1.2,0.8-2h4
		c0,2-0.6,3.5-1.9,4.5s-3,1.5-5.1,1.5C321.2,122.7,319.3,122,318,120.6z M326.4,112.6c0-2.2-0.9-3.3-2.7-3.3c-1,0-1.8,0.3-2.4,0.8
		c-0.5,0.5-0.9,1.4-1,2.5H326.4z"/>
</g>
<g class="st0">
	<path class="st1" d="M5.6,153.9c-1.3-0.5-2.4-1.2-3.1-2.2c-0.8-1-1.2-2.1-1.2-3.5l0-0.7h4.4l0,0.5c0,0.9,0.4,1.6,1.2,2.1
		c0.8,0.5,1.9,0.8,3.3,0.8c1.5,0,2.6-0.2,3.2-0.6c0.7-0.4,1-0.9,1-1.6c0-0.6-0.2-1.1-0.6-1.5c-0.4-0.4-1-0.7-1.6-0.9
		c-0.6-0.2-1.5-0.5-2.7-0.8c-1.6-0.5-2.9-0.9-3.9-1.3c-1-0.4-1.9-1-2.6-1.9c-0.7-0.8-1.1-1.9-1.1-3.3c0-1.9,0.8-3.3,2.3-4.3
		s3.5-1.5,6.1-1.5c2.4,0,4.3,0.5,5.8,1.5s2.3,2.5,2.3,4.5v0.4h-4.3v-0.3c0-0.8-0.3-1.4-1-1.8c-0.7-0.4-1.6-0.7-2.8-0.7
		c-1.3,0-2.2,0.2-2.9,0.5c-0.7,0.3-1,0.8-1,1.4c0,0.5,0.2,0.9,0.6,1.2c0.4,0.3,0.9,0.6,1.5,0.8s1.4,0.5,2.5,0.8c1.6,0.4,3,0.9,4,1.3
		c1,0.4,2,1.1,2.7,1.9c0.8,0.8,1.1,1.9,1.1,3.3c0,2.2-0.8,3.8-2.4,4.9c-1.6,1-3.7,1.6-6.4,1.6C8.3,154.7,6.9,154.4,5.6,153.9z"/>
	<path class="st1" d="M23.4,153.3c-0.9-0.9-1.4-2.3-1.4-4.2v-10.6h4.1v9.7c0,1,0.2,1.7,0.7,2.1c0.5,0.4,1.1,0.7,2,0.7
		c0.9,0,1.7-0.3,2.3-1c0.6-0.6,0.9-1.5,0.9-2.4v-9.1h4.1v15.8h-3.5l-0.3-2.1h-0.2c-1.3,1.6-2.9,2.4-4.9,2.4
		C25.6,154.7,24.4,154.2,23.4,153.3z"/>
	<path class="st1" d="M40.5,138.5H44l0.3,2.1h0.2c0.5-0.8,1.2-1.4,2-1.8c0.8-0.4,1.8-0.6,2.8-0.6c2,0,3.5,0.7,4.6,2.1
		s1.7,3.4,1.7,6.2c0,2.7-0.6,4.8-1.7,6.2c-1.1,1.4-2.6,2.1-4.4,2.1c-1.1,0-2-0.2-2.8-0.6c-0.8-0.4-1.4-0.9-1.9-1.6h-0.2v7h-4.1
		V138.5z M50.5,150c0.5-0.7,0.8-1.8,0.8-3.3v-0.5c0-1.5-0.3-2.6-0.8-3.3c-0.5-0.7-1.4-1.1-2.6-1.1c-2.2,0-3.4,1.5-3.4,4.4v0.5
		c0,3,1.1,4.5,3.4,4.5C49.2,151.1,50,150.7,50.5,150z"/>
	<path class="st1" d="M58.8,138.5h3.5l0.3,2.1h0.2c0.5-0.8,1.2-1.4,2-1.8c0.8-0.4,1.8-0.6,2.8-0.6c2,0,3.5,0.7,4.6,2.1
		s1.7,3.4,1.7,6.2c0,2.7-0.6,4.8-1.7,6.2c-1.1,1.4-2.6,2.1-4.4,2.1c-1.1,0-2-0.2-2.8-0.6c-0.8-0.4-1.4-0.9-1.9-1.6h-0.2v7h-4.1
		V138.5z M68.9,150c0.5-0.7,0.8-1.8,0.8-3.3v-0.5c0-1.5-0.3-2.6-0.8-3.3c-0.5-0.7-1.4-1.1-2.6-1.1c-2.2,0-3.4,1.5-3.4,4.4v0.5
		c0,3,1.1,4.5,3.4,4.5C67.5,151.1,68.4,150.7,68.9,150z"/>
	<path class="st1" d="M78.1,152.6c-1.3-1.3-2-3.4-2-6.2c0-2.8,0.7-4.9,2-6.2c1.3-1.3,3.3-2,6-2c2.7,0,4.7,0.7,6,2s2,3.4,2,6.2
		c0,2.8-0.7,4.9-2,6.2c-1.3,1.3-3.3,2-6,2C81.4,154.7,79.4,154,78.1,152.6z M87.1,150.1c0.6-0.8,0.9-1.9,0.9-3.5v-0.5
		c0-1.6-0.3-2.7-0.9-3.5c-0.6-0.8-1.6-1.2-2.9-1.2s-2.3,0.4-2.9,1.2c-0.6,0.8-0.9,1.9-0.9,3.5v0.5c0,1.6,0.3,2.7,0.9,3.5
		c0.6,0.8,1.6,1.2,2.9,1.2S86.5,150.9,87.1,150.1z"/>
	<path class="st1" d="M95.5,138.5H99l0.3,2.5h0.2c0.3-0.9,0.8-1.6,1.3-2.1c0.5-0.5,1.2-0.8,2.1-0.8c0.4,0,0.7,0,1,0.1
		c0.3,0.1,0.5,0.1,0.6,0.2v3.8h-1.1c-1.3,0-2.3,0.4-2.9,1.1c-0.6,0.7-0.9,1.8-0.9,3.3v7.6h-4.1V138.5z"/>
	<path class="st1" d="M108.2,153.5c-0.6-0.8-1-1.8-1-3v-8.5h-1.9v-3.4h2l0.7-4.4h3.3v4.4h2.7v3.4h-2.7v8.1c0,0.9,0.4,1.3,1.3,1.3
		h1.4v2.9c-0.3,0.1-0.8,0.2-1.3,0.3c-0.5,0.1-1,0.2-1.4,0.2C109.9,154.7,108.8,154.3,108.2,153.5z"/>
	<path class="st1" d="M125.3,133.7h4.2l7.9,11.2c0.2,0.2,0.4,0.6,0.7,1c0.3,0.5,0.5,0.8,0.5,1l0.1-0.1c0-0.2,0-0.4,0-0.8
		c0-0.4,0-0.7,0-1v-11.4h4.2v20.6h-4.2l-7.9-11.3c-0.2-0.3-0.5-0.7-0.7-1.2c-0.2-0.4-0.4-0.7-0.5-0.8l-0.1,0.1c0,0.1,0,0.4,0,0.8
		c0,0.4,0,0.7,0,1v11.4h-4.2V133.7z"/>
	<path class="st1" d="M147.9,152.6c-1.2-1.3-1.9-3.4-1.9-6.2c0-2.8,0.6-4.9,1.9-6.2c1.2-1.3,3.1-2,5.7-2c2.3,0,4.1,0.7,5.2,2
		c1.2,1.4,1.7,3.4,1.7,6.2v1h-10.4c0,1.4,0.3,2.4,0.8,3.1c0.5,0.7,1.4,1,2.6,1c0.9,0,1.6-0.2,2.1-0.7c0.5-0.5,0.8-1.2,0.8-2h4
		c0,2-0.6,3.5-1.9,4.5c-1.3,1-3,1.5-5.1,1.5C151.1,154.7,149.2,154,147.9,152.6z M156.4,144.6c0-2.2-0.9-3.3-2.7-3.3
		c-1,0-1.8,0.3-2.4,0.8c-0.5,0.5-0.9,1.4-1,2.5H156.4z"/>
	<path class="st1" d="M164.8,153.5c-0.6-0.8-1-1.8-1-3v-8.5H162v-3.4h2l0.7-4.4h3.3v4.4h2.7v3.4H168v8.1c0,0.9,0.4,1.3,1.3,1.3h1.4
		v2.9c-0.3,0.1-0.8,0.2-1.3,0.3c-0.5,0.1-1,0.2-1.4,0.2C166.5,154.7,165.5,154.3,164.8,153.5z"/>
	<path class="st1" d="M171.8,138.5h4.2l1.7,6.5c0.1,0.5,0.3,1.2,0.5,2.3c0.2,1.1,0.4,1.8,0.4,2.2h0.1c0.1-0.3,0.2-1,0.4-1.9
		s0.4-1.8,0.6-2.6l1.6-6.5h4.2l1.7,6.5c0.2,0.6,0.3,1.4,0.6,2.4c0.2,1,0.4,1.7,0.4,2h0.1c0.1-0.3,0.2-0.9,0.4-1.9s0.4-1.8,0.6-2.5
		l1.6-6.5h3.9l-4.7,15.8h-4.3l-1.8-7.5c-0.2-0.6-0.3-1.3-0.5-2c-0.1-0.7-0.2-1.2-0.3-1.4h-0.1c0,0.2-0.1,0.7-0.2,1.4
		c-0.1,0.7-0.3,1.4-0.4,2l-1.9,7.6h-4.3L171.8,138.5z"/>
	<path class="st1" d="M198.1,152.6c-1.3-1.3-2-3.4-2-6.2c0-2.8,0.7-4.9,2-6.2s3.3-2,6-2s4.7,0.7,6,2s2,3.4,2,6.2
		c0,2.8-0.7,4.9-2,6.2c-1.3,1.3-3.3,2-6,2S199.4,154,198.1,152.6z M207.1,150.1c0.6-0.8,0.9-1.9,0.9-3.5v-0.5c0-1.6-0.3-2.7-0.9-3.5
		c-0.6-0.8-1.6-1.2-2.9-1.2s-2.3,0.4-2.9,1.2c-0.6,0.8-0.9,1.9-0.9,3.5v0.5c0,1.6,0.3,2.7,0.9,3.5c0.6,0.8,1.6,1.2,2.9,1.2
		S206.5,150.9,207.1,150.1z"/>
	<path class="st1" d="M215.5,138.5h3.5l0.3,2.5h0.2c0.3-0.9,0.8-1.6,1.3-2.1c0.5-0.5,1.2-0.8,2.1-0.8c0.4,0,0.7,0,1,0.1
		c0.3,0.1,0.5,0.1,0.6,0.2v3.8h-1.1c-1.3,0-2.3,0.4-2.9,1.1c-0.6,0.7-0.9,1.8-0.9,3.3v7.6h-4.1V138.5z"/>
	<path class="st1" d="M227.1,132.6h4.1v12.2l5.2-6.3h4.7l-5.2,6.1l5.5,9.7h-4.7l-3.5-6.7l-2.1,2v4.7h-4.1V132.6z"/>
</g>
<g class="st0">
	<path class="st2" d="M6.1,77.4v8.5h-5V63.1h5v8.5h22.4v5.8H6.1z"/>
	<path class="st2" d="M1.1,59.6v-5.8H12V41.9H1.1v-5.8h27.4v5.8H17v11.9h11.6v5.8C28.6,59.6,1.1,59.6,1.1,59.6z"/>
	<path class="st2" d="M1.1,30.7V9.1H6v15.8h6v-14h5v14h6.6v-16h4.9v21.8H1.1z"/>
</g>
<g class="st0">
	<path class="st2" d="M88.4,85.4c-8.4,0-15.6-1.5-21.5-4.4c-6-3-10.5-7.6-13.7-13.9s-4.7-14.4-4.7-24.3C48.4,28.3,52,17.6,59,10.7
		c7-7,16.8-10.4,29.4-10.4c6.8,0,12.9,1.2,18.4,3.5s9.8,5.8,13.1,10.5c3.2,4.7,4.9,10.6,4.9,17.8h-16c0-4-0.9-7.4-2.6-10.1
		c-1.7-2.8-4.1-4.9-7.1-6.3s-6.5-2.2-10.4-2.2c-5.4,0-10,1.1-13.6,3.2s-6.3,5.3-8,9.4c-1.7,4.2-2.6,9.3-2.6,15.5v2.6
		c0,6.2,0.9,11.4,2.6,15.6s4.4,7.3,7.9,9.4c3.6,2.1,8.1,3.1,13.6,3.1c4.2,0,7.8-0.7,10.9-2.1s5.5-3.5,7.3-6.2
		c1.7-2.8,2.6-6.1,2.6-10.1h15.4c0,7.2-1.6,13.1-4.8,17.8s-7.5,8.2-13,10.4C101.5,84.3,95.3,85.4,88.4,85.4z"/>
	<path class="st2" d="M169.4,85.4c-4.6,0-8.9-0.5-13.1-1.5c-4.2-1-7.8-2.6-11-4.7s-5.7-4.8-7.6-7.9c-1.8-3.2-2.8-6.9-2.8-11.2
		c0-0.5,0-1,0.1-1.4c0-0.5,0.1-0.8,0.1-1.1h15.7c0,0.2,0,0.5-0.1,0.9c0,0.4-0.1,0.8-0.1,1.1c0,2.6,0.8,4.9,2.3,6.8s3.7,3.3,6.6,4.3
		c2.9,1,6.3,1.5,10.2,1.5c2.6,0,5-0.2,7-0.5s3.8-0.8,5.3-1.4s2.7-1.3,3.7-2.2s1.7-1.8,2.1-2.8c0.4-1,0.7-2.2,0.7-3.4
		c0-2.3-0.7-4.2-2.2-5.8c-1.4-1.5-3.4-2.8-5.8-3.8c-2.4-1-5.2-2-8.3-2.8s-6.2-1.7-9.5-2.6c-3.2-0.9-6.4-1.9-9.5-3.2
		c-3.1-1.2-5.8-2.7-8.3-4.5c-2.4-1.8-4.4-4-5.8-6.7c-1.4-2.7-2.2-5.9-2.2-9.7s0.8-7.2,2.5-10.1c1.6-2.9,4-5.3,7-7.1
		c3-1.9,6.5-3.3,10.5-4.2S165.3,0,170,0c4.4,0,8.5,0.5,12.4,1.4s7.3,2.4,10.3,4.3c3,2,5.3,4.4,7,7.4s2.5,6.6,2.5,10.7v1.4h-15.5
		v-0.9c0-2.3-0.7-4.3-2.1-5.9c-1.4-1.6-3.4-2.8-5.9-3.7s-5.5-1.3-8.8-1.3c-3.6,0-6.7,0.3-9.2,1c-2.6,0.7-4.5,1.7-5.9,3s-2,2.9-2,4.9
		s0.7,3.7,2.2,5c1.4,1.4,3.4,2.5,5.8,3.5c2.4,1,5.2,1.8,8.3,2.6s6.2,1.7,9.5,2.6c3.2,0.9,6.4,2,9.5,3.2s5.8,2.7,8.3,4.5
		c2.4,1.8,4.4,4,5.8,6.7c1.4,2.6,2.2,5.8,2.2,9.5c0,6.2-1.5,11.1-4.5,14.9c-3,3.8-7.1,6.5-12.4,8.2
		C182.1,84.6,176.1,85.4,169.4,85.4z"/>
	<path class="st2" d="M249.4,85.4c-4.6,0-8.9-0.5-13.1-1.5c-4.2-1-7.8-2.6-11-4.7s-5.7-4.8-7.6-7.9c-1.8-3.2-2.8-6.9-2.8-11.2
		c0-0.5,0-1,0.1-1.4c0-0.5,0.1-0.8,0.1-1.1h15.7c0,0.2,0,0.5-0.1,0.9c0,0.4-0.1,0.8-0.1,1.1c0,2.6,0.8,4.9,2.3,6.8s3.7,3.3,6.6,4.3
		c2.9,1,6.3,1.5,10.2,1.5c2.6,0,5-0.2,7-0.5s3.8-0.8,5.3-1.4s2.7-1.3,3.7-2.2s1.7-1.8,2.1-2.8s0.7-2.2,0.7-3.4
		c0-2.3-0.7-4.2-2.2-5.8c-1.4-1.5-3.4-2.8-5.8-3.8s-5.2-2-8.3-2.8s-6.2-1.7-9.5-2.6c-3.2-0.9-6.4-1.9-9.5-3.2
		c-3.1-1.2-5.8-2.7-8.3-4.5c-2.4-1.8-4.4-4-5.8-6.7c-1.4-2.7-2.2-5.9-2.2-9.7s0.8-7.2,2.5-10.1c1.6-2.9,4-5.3,7-7.1
		c3-1.9,6.5-3.3,10.5-4.2S245.3,0,250,0c4.4,0,8.5,0.5,12.4,1.4s7.3,2.4,10.3,4.3c3,2,5.3,4.4,7,7.4s2.5,6.6,2.5,10.7v1.4h-15.5
		v-0.9c0-2.3-0.7-4.3-2.1-5.9s-3.4-2.8-5.9-3.7s-5.5-1.3-8.8-1.3c-3.6,0-6.7,0.3-9.2,1c-2.6,0.7-4.5,1.7-5.9,3s-2,2.9-2,4.9
		s0.7,3.7,2.2,5c1.4,1.4,3.4,2.5,5.8,3.5c2.4,1,5.2,1.8,8.3,2.6s6.2,1.7,9.5,2.6c3.2,0.9,6.4,2,9.5,3.2s5.8,2.7,8.3,4.5
		c2.4,1.8,4.4,4,5.8,6.7c1.4,2.6,2.2,5.8,2.2,9.5c0,6.2-1.5,11.1-4.5,14.9c-3,3.8-7.1,6.5-12.4,8.2
		C262.1,84.6,256.2,85.4,249.4,85.4z"/>
	<path class="st2" d="M298.8,84V1.7h14.9l35.2,48.6c0.4,0.5,0.9,1.1,1.4,2c0.6,0.8,1.1,1.7,1.6,2.5s0.8,1.4,1,1.9h0.6
		c0-1.1,0-2.2,0-3.2s0-2.1,0-3.1V1.7h15V84h-14.8l-35.3-49c-0.6-1-1.4-2.1-2.2-3.5c-0.8-1.4-1.4-2.4-1.7-2.9h-0.6c0,1,0,2.1,0,3.2
		s0,2.2,0,3.3v49h-15.1V84z"/>
</g>
</svg>
