<?xml version="1.0" encoding="utf-8"?>
<!-- Generator: Adobe Illustrator 26.5.3, SVG Export Plug-In . SVG Version: 6.00 Build 0)  -->
<svg version="1.1" id="Layer_3" xmlns="http://www.w3.org/2000/svg" xmlns:xlink="http://www.w3.org/1999/xlink" x="0px" y="0px"
	 viewBox="0 0 625.6 283.7" style="enable-background:new 0 0 625.6 283.7;" xml:space="preserve">
<style type="text/css">
	.st0{fill:#48C0B9;}
</style>
<path id="Path_3771" class="st0" d="M261.2,95.9c-35.4-13.4-74.9,4.4-88.3,39.8c-13-4.9-27.4-4.9-40.4,0
	c-13.4-35.4-52.9-53.2-88.3-39.8C17.6,105.9,0,131.4,0,159.9v117.7c0,3.4,2.8,6.1,6.1,6.1c3.4,0,6.1-2.7,6.1-6.1V159.9
	c0-31.1,25.2-56.3,56.2-56.3c23.9,0,45.2,15.1,53.1,37.7c-15.9,10.4-25.4,28.2-25.4,47.1v74.8c0,11.2,9.2,20.3,20.4,20.3
	c11.2,0,20.3-9.1,20.3-20.3V159.9c0-4.1-0.4-8.3-1.1-12.4c10.8-4.5,23-4.5,33.8,0c-0.7,4.1-1.1,8.2-1.1,12.4l0,103.4
	c0,11.2,9.1,20.4,20.3,20.4c11.2,0,20.4-9.1,20.4-20.3c0,0,0-0.1,0-0.1v-74.8c0.1-19-9.5-36.7-25.4-47.2
	c10.3-29.3,42.3-44.8,71.7-34.5c22.6,7.9,37.7,29.2,37.7,53.1v117.6c0,3.4,2.7,6.1,6.1,6.1c3.4,0,6.1-2.7,6.1-6.1V159.9
	C305.5,131.5,287.9,106,261.2,95.9z M181,154.4c10.2,8.4,16,20.9,16,34.1v74.8c0,0.1,0,0.2,0,0.3c-0.1,4.5-3.8,8.1-8.3,8
	c-4.5-0.1-8.1-3.8-8-8.3l0,0l0-103.4C180.8,158.1,180.9,156.2,181,154.4z M124.5,154.5c0.2,1.8,0.3,3.6,0.3,5.5v103.4
	c0,4.5-3.7,8.1-8.2,8.1c-4.5,0-8.1-3.6-8.1-8.1v-74.8C108.5,175.4,114.3,162.9,124.5,154.5L124.5,154.5z M152.8,129
	c19.9,0,36-16.1,36-36l0,0c0-19.9-16.1-36-36-36c-19.9,0-36,16.1-36,36C116.7,112.9,132.9,129,152.8,129L152.8,129z M152.8,69.1
	L152.8,69.1c13.2,0,23.8,10.7,23.8,23.8c0,13.2-10.7,23.8-23.8,23.8c-13.2,0-23.8-10.7-23.8-23.8c0,0,0,0,0,0
	C129,79.8,139.6,69.1,152.8,69.1L152.8,69.1z M68.5,87.5c24.2,0,43.7-19.6,43.7-43.7C112.2,19.6,92.7,0,68.5,0
	C44.3,0,24.7,19.6,24.7,43.7v0C24.8,67.9,44.3,87.5,68.5,87.5L68.5,87.5z M68.5,12.2L68.5,12.2c17.4,0,31.5,14.1,31.5,31.5
	c0,17.4-14.1,31.5-31.5,31.5C51.1,75.3,37,61.1,37,43.7C37,26.3,51.1,12.2,68.5,12.2L68.5,12.2z M237,87.5
	c24.2,0,43.7-19.6,43.7-43.7C280.8,19.6,261.2,0,237,0c-24.2,0-43.7,19.6-43.7,43.7v0C193.3,67.9,212.9,87.5,237,87.5L237,87.5z
	 M268.5,43.7c0,17.4-14.1,31.5-31.5,31.5s-31.5-14.1-31.5-31.5c0-17.4,14.1-31.5,31.5-31.5c0,0,0,0,0,0l0,0
	C254.4,12.2,268.5,26.3,268.5,43.7L268.5,43.7z M581.3,95.9c-35.4-13.4-74.9,4.4-88.3,39.8c-13-4.9-27.4-4.9-40.4,0
	c-13.4-35.4-52.9-53.2-88.3-39.8c-26.6,10.1-44.3,35.6-44.3,64v117.7c0,3.4,2.8,6.1,6.1,6.1c3.4,0,6.1-2.7,6.1-6.1V159.9
	c0-31.1,25.2-56.3,56.2-56.3c23.9,0,45.2,15.1,53.1,37.7c-15.9,10.4-25.4,28.2-25.4,47.1v74.8c0,11.2,9.1,20.4,20.3,20.4
	c11.2,0,20.4-9.1,20.4-20.3c0,0,0-0.1,0-0.1V159.9c0-4.1-0.4-8.3-1.1-12.4c10.8-4.5,23-4.5,33.8,0c-0.7,4.1-1.1,8.2-1.1,12.4
	l0,103.4c0,11.2,9.1,20.4,20.3,20.4c11.2,0,20.4-9.1,20.4-20.3c0,0,0-0.1,0-0.1v-74.8c0.1-19-9.5-36.7-25.4-47.2
	c10.3-29.3,42.3-44.8,71.7-34.5c22.6,7.9,37.7,29.2,37.7,53.1v117.6c0,3.4,2.7,6.1,6.1,6.1c3.4,0,6.1-2.7,6.1-6.1V159.9
	C625.6,131.5,608,106,581.3,95.9L581.3,95.9z M501.1,154.4c10.2,8.4,16,20.9,16,34.1v74.8c0,0.1,0,0.2,0,0.3c-0.1,4.5-3.8,8.1-8.3,8
	c-4.5-0.1-8.1-3.8-8-8.3l0,0l0-103.4C500.9,158.1,500.9,156.2,501.1,154.4L501.1,154.4z M444.6,154.5c0.2,1.8,0.3,3.6,0.3,5.5v103.4
	c0,4.5-3.7,8.1-8.2,8.1c-4.5,0-8.1-3.6-8.1-8.1v-74.8C428.6,175.4,434.4,162.9,444.6,154.5L444.6,154.5z M472.9,129
	c19.9,0,36-16.1,36-36l0,0c0-19.9-16.1-36-36-36c-19.9,0-36,16.1-36,36C436.8,112.9,453,129,472.9,129L472.9,129z M449.1,92.9
	c0-13.2,10.7-23.8,23.8-23.8c0,0,0,0,0,0l0,0c13.2,0,23.8,10.7,23.8,23.8c0,13.2-10.7,23.8-23.8,23.8S449.1,106.1,449.1,92.9
	C449.1,92.9,449.1,92.9,449.1,92.9L449.1,92.9z M388.6,87.5c24.2,0,43.7-19.6,43.7-43.7c0-24.2-19.6-43.7-43.7-43.7
	c-24.2,0-43.7,19.6-43.7,43.7v0C344.9,67.9,364.4,87.5,388.6,87.5L388.6,87.5z M420.1,43.8c0,17.4-14.1,31.5-31.5,31.5
	c-17.4,0-31.5-14.1-31.5-31.5c0-17.4,14.1-31.5,31.5-31.5l0,0l0,0C406,12.3,420.1,26.4,420.1,43.8L420.1,43.8z M557.1,87.5
	c24.2,0,43.7-19.6,43.7-43.7S581.3,0,557.1,0c-24.2,0-43.7,19.6-43.7,43.7v0C513.4,67.9,533,87.5,557.1,87.5L557.1,87.5z
	 M588.6,43.8c0,17.4-14.1,31.5-31.5,31.5s-31.5-14.1-31.5-31.5s14.1-31.5,31.5-31.5l0,0l0,0C574.5,12.3,588.6,26.4,588.6,43.8
	L588.6,43.8z"/>
</svg>
