<?xml version="1.0" encoding="utf-8"?>
<!-- Generator: Adobe Illustrator 26.5.3, SVG Export Plug-In . SVG Version: 6.00 Build 0)  -->
<svg version="1.1" id="Layer_1" xmlns="http://www.w3.org/2000/svg" xmlns:xlink="http://www.w3.org/1999/xlink" x="0px" y="0px"
	 viewBox="0 0 92.9 86.3" style="enable-background:new 0 0 92.9 86.3;" xml:space="preserve">
<style type="text/css">
	.st0{fill:#48C0B9;}
</style>
<path id="Path_3772" class="st0" d="M79.4,29.1c-10.8-4.1-22.8,1.3-26.8,12.1c-4-1.5-8.3-1.5-12.3,0c-4.1-10.8-16.1-16.2-26.8-12.1
	C5.4,32.2,0,40,0,48.6v35.8c0,1,0.8,1.9,1.9,1.9c1,0,1.8-0.8,1.9-1.9V48.6c0-9.4,7.7-17.1,17.1-17.1c7.3,0,13.8,4.6,16.1,11.5
	c-4.8,3.2-7.7,8.6-7.7,14.3v22.7c0,3.4,2.8,6.2,6.2,6.2c3.4,0,6.2-2.8,6.2-6.2c0,0,0,0,0,0V48.6c0-1.3-0.1-2.5-0.3-3.8
	c3.3-1.4,7-1.4,10.3,0c-0.2,1.2-0.3,2.5-0.3,3.8l0,31.4c0,3.4,2.8,6.2,6.2,6.2c3.4,0,6.2-2.8,6.2-6.2c0,0,0,0,0,0V57.3
	c0-5.8-2.9-11.2-7.7-14.3c3.1-8.9,12.9-13.6,21.8-10.5c6.9,2.4,11.5,8.9,11.5,16.1v35.8c0,1,0.8,1.9,1.9,1.9s1.9-0.8,1.9-1.9V48.6
	C92.9,40,87.5,32.2,79.4,29.1L79.4,29.1z M55,46.9c3.1,2.6,4.9,6.4,4.9,10.4v22.7c0,0,0,0.1,0,0.1c0,1.4-1.2,2.5-2.5,2.4
	s-2.5-1.2-2.4-2.5l0,0l0-31.4C55,48.1,55,47.5,55,46.9L55,46.9z M37.8,47c0.1,0.6,0.1,1.1,0.1,1.7v31.4c0,1.4-1.1,2.5-2.5,2.5
	c-1.4,0-2.5-1.1-2.5-2.5V57.3C33,53.3,34.8,49.5,37.8,47L37.8,47z M46.4,39.2c6,0,11-4.9,11-11l0,0c0-6.1-4.9-11-11-11
	c-6.1,0-11,4.9-11,11C35.5,34.3,40.4,39.2,46.4,39.2L46.4,39.2z M39.2,28.3c0-4,3.2-7.2,7.2-7.2c0,0,0,0,0,0l0,0
	c4,0,7.2,3.2,7.2,7.2s-3.2,7.2-7.2,7.2S39.2,32.3,39.2,28.3C39.2,28.3,39.2,28.3,39.2,28.3L39.2,28.3z M20.8,26.6
	c7.3,0,13.3-6,13.3-13.3C34.1,6,28.2,0,20.8,0C13.5,0,7.5,6,7.5,13.3v0C7.5,20.6,13.5,26.6,20.8,26.6L20.8,26.6z M30.4,13.3
	c0,5.3-4.3,9.6-9.6,9.6c-5.3,0-9.6-4.3-9.6-9.6c0-5.3,4.3-9.6,9.6-9.6l0,0l0,0C26.1,3.7,30.4,8,30.4,13.3L30.4,13.3z M72.1,26.6
	c7.3,0,13.3-6,13.3-13.3S79.4,0,72.1,0c-7.3,0-13.3,6-13.3,13.3v0C58.8,20.6,64.7,26.6,72.1,26.6L72.1,26.6z M81.6,13.3
	c0,5.3-4.3,9.6-9.6,9.6s-9.6-4.3-9.6-9.6s4.3-9.6,9.6-9.6l0,0l0,0C77.4,3.7,81.6,8,81.6,13.3L81.6,13.3z"/>
</svg>
