<?xml version="1.0" encoding="UTF-8"?><svg id="Layer_2" xmlns="http://www.w3.org/2000/svg" viewBox="0 0 1872.56 239.82"><defs><style>.cls-1{fill:#fff;}.cls-2{fill:#cd0c2e;}.cls-3{fill:#cd0d2f;}</style></defs><g id="OOD"><g><path class="cls-1" d="M1226.24,156.37c0,12.55-.05,25.09,.02,37.64,.04,7.21,1.62,9,8.63,8.96,14.02-.07,13.56-.05,13.48,13.89-.01,2.65,.03,5.3,0,7.95-.09,7.53-1.16,8.69-8.57,8.7-22.09,.05-44.18,.03-66.27,.03-2.12,0-4.24-.08-6.36-.04-4.77,.09-7.25-2.01-7.15-6.99,.11-5.65,.08-11.31,0-16.96-.07-4.48,2.2-6.65,6.49-6.43,16.87,.85,13.91-4.3,13.98-15.42,.12-19.26,.08-38.52-.01-57.78-.02-3.51-.11-7.14-.96-10.51-2.59-10.28-8.23-18.13-19.28-20.24-13.65-2.6-25.71,.43-34.69,11.76-7.16,9.04-9,19.93-9.25,30.97-.4,17.66-.19,35.34-.12,53.01,.02,6.09,1.82,8.15,7.97,8.01,15.41-.34,13.46,1.45,13.51,14.39,.06,17.48,1.45,16.25-16.38,16.25-19.44,0-38.88,0-58.31,0q-12.78,0-12.78-13.03c0-3.71,.06-7.42,.02-11.13-.05-4.15,1.97-6.22,6.1-6.28,.18,0,.35-.02,.53-.03q14.62-.98,14.62-15.41c0-17.85,.02-35.7-.02-53.54,0-2.82-.13-5.67-.55-8.45-2.25-15.02-10.68-24.71-23.19-26.87-14.38-2.48-28.32,4.24-35.34,16.99-5.37,9.75-6.64,20.47-6.86,31.28-.31,14.84-.13,29.69-.06,44.53,.04,8.17,1.78,9.77,10.12,9.87,1.77,.02,3.53,.04,5.3,.04,3.91,.01,5.93,2.07,5.99,5.88,.1,6.36,.11,12.72,0,19.08-.06,3.87-2.22,5.73-6.09,5.73-25.09-.02-50.18-.03-75.28,0-4.59,0-6.88-2.17-6.88-6.77,0-5.48,.02-10.96-.04-16.43-.04-3.65,1.63-5.64,5.32-5.83,.53-.03,1.06-.08,1.59-.11q13.62-.73,13.62-14.18c0-25.45,.01-50.89,0-76.34,0-9.68-1.33-10.95-11.04-10.99-1.77,0-3.53-.03-5.3-.07-3.65-.08-5.6-2.03-5.65-5.61-.09-6.53-.09-13.07,.01-19.61,.06-3.69,2.26-5.37,5.84-5.37,17.14,0,34.28,0,51.42,0,4.36,0,6.47,2.18,6.54,6.52,.06,3.88-.04,7.8,.44,11.64,.52,4.1,2.61,4.68,5.67,1.94,.39-.35,.74-.76,1.07-1.17,20.01-24.39,45.77-27.74,74.34-20.02,10.15,2.74,17.41,9.81,23.77,17.84,4.74,5.99,6.46,6.03,11.18-.15,9.71-12.73,22.78-19.87,38.47-20.57,11.15-.5,22.72,.08,33.56,2.56,21.52,4.93,33.57,19.89,36.05,41.86,.3,2.63,.67,5.28,.69,7.92,.07,12.37,.03,24.74,.03,37.11,.03,0,.07,0,.1,0Z"/><path class="cls-1" d="M521.86,119.53c0-23.5,.02-47-.01-70.5-.01-9.26-1.51-10.69-10.83-10.73-3.71-.02-7.42-.02-11.13-.04-4.03-.02-6.35-1.9-6.38-6.07-.04-6.54-.04-13.07,0-19.61,.02-3.7,2.08-5.44,5.65-5.58,1.41-.06,2.83-.11,4.24-.11,40.11,0,80.22-.22,120.33,.08,20.94,.16,41.09,4.72,59.67,14.65,26.9,14.37,42.52,37.35,48.11,66.89,4.81,25.47,4.58,50.99-3.82,75.92-10.75,31.9-33.13,51.87-64.64,62.15-15.22,4.97-30.94,7.04-46.97,7.01-37.46-.09-74.92-.02-112.38-.04-8.85,0-9.63-.82-9.65-9.72-.01-5.3,.05-10.6,.03-15.9-.01-4.4,2.16-6.49,6.54-6.42,2.83,.04,5.65-.02,8.48-.02,11.95-.01,12.76-.8,12.76-12.51,0-23.15,0-46.3,0-69.44Zm46.42,.53c0,24.02-.05,48.05,.03,72.07,.02,7.7,1.76,9.33,9.43,9.35,12.01,.04,24.03,.15,36.03-.02,30.81-.43,54.97-18.46,64.24-47.72,6.42-20.26,6.59-40.79,1.48-61.19-6.96-27.77-24.34-45.9-53.02-50.31-15.76-2.42-32-1.78-48.03-2.24-8.78-.25-10.14,1.32-10.15,10.11-.03,23.32-.01,46.63,0,69.95Z"/><path class="cls-1" d="M1847.74,101.33c0,30.56,0,61.12,0,91.67,0,8.33,1.55,9.96,9.85,10,15.77,.08,14.93-1.28,14.96,15.53,.03,16.52,.3,15-14.94,15.02-13.07,.02-26.14,.02-39.21,0-10.37-.02-10.83-.52-10.89-10.66-.01-2.64,.05-5.33-.38-7.92-.62-3.68-2.69-4.34-5.55-1.89-.93,.8-1.78,1.72-2.55,2.69-15.51,19.57-36.6,24.34-59.9,21.54-29.77-3.58-50.03-22.46-58.07-54.04-6.68-26.21-5.32-52.33,4.99-77.46,12.65-30.83,40.25-43.12,71.42-40.78,15.67,1.18,28.94,7.36,38.76,20.13,1.01,1.31,3.14,1.77,4.75,2.62,.63-1.58,1.78-3.16,1.8-4.74,.17-15.36,.2-30.73,.14-46.09-.01-4.02-2.39-6.14-6.35-6.33-3.53-.17-7.06-.19-10.59-.27-3.83-.09-5.94-1.92-5.94-5.87,0-6.18,0-12.36,.03-18.55,.03-3.92,2.18-5.88,5.98-5.88,18.55-.05,37.09-.07,55.64,0,5.77,.02,6.17,4.18,6.04,8.55,0,.18,0,.35,0,.53,0,30.73,0,61.47,0,92.2Zm-122.62,50.84c.53,.11,1.06,.21,1.58,.32-.48,11.28,1.22,22.21,5.58,32.63,2.9,6.94,6.95,13.07,13.52,17.21,20.83,13.15,51.3,.1,57.41-25.14,2.14-8.83,3.2-18.13,3.24-27.22,.06-14.15-3.08-27.57-12.38-39.08-14.29-17.69-52.06-19.14-62.19,9.98-3.48,10.01-4.58,20.84-6.76,31.3Z"/><path class="cls-2" d="M123.7,3.12c48.18-.96,96.54,32.49,112.14,80.5,13.18,40.55,6.39,78.5-20.34,111.88-25.54,31.88-59.89,45.84-100.19,43.51-30.11-1.74-56.1-14.18-77.08-36.23-5.93-6.23-5.52-8.39,2.07-12.03,10.78-5.17,21.72-10.02,32.45-15.31,4.84-2.38,8.84-2.19,13.19,1.15,10.82,8.29,23.36,12.62,36.83,12.77,14.85,.17,28.55-4.59,40.14-14.05,17.57-14.34,27.17-33.13,26.45-55.78-.84-26.34-13.49-46.41-37.09-58.6-22.85-11.8-45.31-9.88-66.41,4.58-5.55,3.8-10.01,4.23-15.91,1.02-9.88-5.37-20.21-9.92-30.31-14.88-6.57-3.23-7.2-5.28-2.4-10.59C53.68,22.86,73.98,11.07,98.06,6.25c8.42-1.68,17.09-2.12,25.64-3.13Z"/><path class="cls-1" d="M438.54,156.14c0,12.55-.03,25.09,.01,37.64,.03,7.49,1.59,9.24,8.94,9.21,13.31-.05,13.3-.3,13.24,13.62-.08,18.45,1.38,16.94-16.82,16.95-20.68,.01-41.35,.03-62.03-.01-8.52-.02-9.53-1.07-9.56-9.39-.02-4.77,.07-9.54-.01-14.31-.07-4.31,1.79-6.41,6.23-6.76,14.28-1.15,14.28-1.24,14.28-15.66,0-18.38,.06-36.76-.06-55.14-.03-3.86-.24-7.84-1.22-11.54-3.57-13.47-12.69-21.35-25.13-22.25-15.27-1.11-28.49,6.56-34.09,20.91-2.45,6.29-4.05,13.28-4.28,20-.59,17.3-.24,34.63-.18,51.95,.03,8.68,1.52,10.06,10.29,10.13,9.32,.08,10.14,.92,10.15,10.45,0,4.24-.1,8.49,.02,12.72,.15,5.02-1.97,7.58-7.18,7.57-24.92-.04-49.83-.02-74.75,0-4.1,0-6.32-1.86-6.35-6.03-.05-5.65-.05-11.31-.05-16.96,0-4.14,2.07-6.17,6.22-6.14,2.65,.02,5.3,.02,7.95-.1,6.13-.28,7.84-1.92,7.88-8.11,.1-13.08,.04-26.15,.04-39.23,0-14.67,.03-29.34-.01-44-.03-8.48-1.56-10-9.78-10.08q-12.35-.12-12.35-12.37c0-4.06,.01-8.13,.08-12.19,.07-4.06,2.02-6.14,6.25-6.13,16.96,.05,33.93,.04,50.89,0,4.63,0,6.81,2.23,6.78,6.83-.02,3.18-.14,6.39,.22,9.53,.21,1.77,1.32,3.43,2.02,5.14,1.72-.96,3.96-1.51,5.09-2.94,8.43-10.63,19.06-18.05,32.22-21.09,15.98-3.69,31.98-3.3,47.34,3.1,10.48,4.37,17.39,12.35,21.66,22.82,5.2,12.74,5.5,26.19,5.95,39.6,.25,7.41,.04,14.84,.04,22.26h.03Z"/><path class="cls-1" d="M1486.7,152.93c0-13.78,.04-27.57,0-41.35-.03-8.26-1.71-9.88-9.98-10.01q-13.01-.2-13.01-13.39c0-3.71,0-7.42,.08-11.13,.08-3.75,1.88-6.08,5.81-6.09,17.32-.04,34.63-.03,51.95,0,3.67,0,5.52,2.02,5.66,5.6,.16,4.06,0,8.14,.4,12.18,.15,1.53,1.13,3.42,2.35,4.21,.64,.42,2.85-.9,3.9-1.91,3.94-3.78,7.46-8.03,11.55-11.63,19.79-17.43,56.61-15.87,73.72-5.85,12.42,7.27,18.36,18.83,20.85,32.33,1.34,7.26,1.98,14.73,2.07,22.12,.26,21.73,.08,43.47,.1,65.21,0,8.07,1.57,9.64,9.53,9.81q12.61,.28,12.62,13.15c0,2.83,.02,5.66,0,8.48-.06,7.66-1.16,8.82-9,8.88-10.07,.08-20.15,.03-30.22,.03-13.78,0-27.57,.05-41.35-.03-6.51-.04-7.75-1.33-7.85-7.81-.09-5.48,.01-10.96,.01-16.43,0-4.13,2-6.23,6.17-6.19,.53,0,1.06-.04,1.59-.06q13.8-.39,13.8-14.02c0-17.49,.13-34.99-.08-52.48-.06-5.08-.59-10.27-1.78-15.2-2.79-11.51-9.52-19.88-21.58-22.23-12.94-2.52-24.18,1.01-32.64,11.61-7.18,8.99-9.58,19.69-9.84,30.77-.39,16.78-.15,33.57-.08,50.36,.03,7.82,1.88,9.52,9.85,9.63,1.77,.03,3.53,.02,5.3,.06,3.87,.09,5.9,2.13,5.96,5.95,.1,5.83,0,11.66,.1,17.49,.1,5.13-2.29,7.33-7.42,7.28-13.43-.12-26.86-.02-40.29-.02-11.13,0-22.27,.07-33.4-.04-6.38-.07-7.71-1.51-7.8-7.94-.07-4.95,.04-9.9-.01-14.84-.04-4.15,1.94-6.24,6.08-6.3,3-.05,6.01,0,9.01-.15,6.1-.31,7.82-1.98,7.86-8.15,.1-13.96,.03-27.92,.04-41.88Z"/><path class="cls-1" d="M1414.36,162.34c0,10.6-.05,21.21,.02,31.81,.05,6.82,1.73,8.87,8.35,8.77,13.37-.21,12.34,1.57,12.33,12.97,0,3.89-.01,7.78-.09,11.66-.07,3.84-2.04,5.91-5.94,5.91-16.96,.01-33.93,.01-50.89-.02-4.09,0-6.18-2.15-6.18-6.27,0-.71,.11-1.46-.09-2.11-.65-2.08-1.43-4.13-2.15-6.19-2.08,1.03-4.71,1.55-6.15,3.15-19.62,21.8-60.21,22.73-83.13,6.22-9.78-7.05-15.58-16.68-17.9-28.44-2.16-10.94-2.1-21.9,1.55-32.47,6.11-17.66,20.15-26.21,37.19-30.63,18.83-4.88,38.14-4.74,57.41-4.8,12.44-.04,14.1-1.82,13.12-14.24-1.11-14.1-8.35-22.08-22.38-23.89-5.39-.7-10.96-.8-16.37-.32-11.53,1.02-19.52,7.11-22.65,18.43-1.5,5.43-4.46,7.41-9.88,7.25-9.01-.25-18.03,.04-27.04-.15-5.81-.12-7.18-1.95-6.25-7.72,3.28-20.28,14.8-33.91,34.33-39.79,23.44-7.05,47.54-7.61,71.29-2.28,24.85,5.57,37.9,21.5,40.02,47.09,1.27,15.29,1.41,30.68,2.05,46.03-.19,0-.39,.02-.58,.02Zm-58.98-3.72s0-.06,0-.09c-2.82,0-5.71-.39-8.46,.07-9.5,1.61-19.31,2.46-28.33,5.58-10.09,3.49-14.21,12.84-13.22,24.57,.78,9.21,6.85,15.92,16.89,18.65,25.47,6.94,53.22-16.44,50.79-42.76-.35-3.79-2.26-5.87-6.03-6-3.88-.13-7.76-.03-11.64-.03Z"/><path class="cls-1" d="M855.46,166.52c-16.26,0-32.51-.04-48.77,.02-9.13,.03-10.82,2.55-9.01,11.35,5.97,29.05,36.52,35.4,55.14,27.66,6.68-2.78,11.54-7.53,14.33-14.16,2.07-4.91,5.46-6.88,10.74-6.73,8.65,.25,17.32,0,25.97,.11,6.87,.09,8.14,1.88,6.05,8.56-5.73,18.34-17.57,31.3-35.28,38.53-26.64,10.88-53.57,10.4-80.1-.14-20.51-8.15-34.33-23.22-41.42-44.17-7.17-21.15-8.25-42.67-1.81-64.13,9.76-32.57,38.79-54.24,73.65-55.7,15.88-.67,31.48,.4,46.08,7.44,20.98,10.12,34.08,26.76,38.71,49.43,2.32,11.35,2.9,23.08,3.78,34.67,.44,5.77-1.28,7.18-7.18,7.21-16.96,.09-33.93,.03-50.89,.03v.03Zm-22.34-29.23s0-.03,0-.04c9.69,0,19.39,.05,29.08-.02,4.46-.03,7.9-1.79,7.26-6.88-1.55-12.29-6.26-22.79-18.11-28.6-22.49-11.03-48.43,1.38-53.88,25.71-1.53,6.85,.52,9.67,7.61,9.79,9.34,.17,18.68,.04,28.02,.04Z"/><path class="cls-3" d="M.12,121.66c0-10.6-.35-21.21,.16-31.79,.21-4.36,1.3-9.24,3.64-12.8,4.38-6.67,10.31-8.13,17.6-4.6,26.87,13.03,53.71,26.13,80.29,39.74,10.96,5.61,10.77,15.55-.42,21.24-18.97,9.66-38.34,18.53-57.56,27.68-6.66,3.17-13.29,6.42-20.1,9.23-12.77,5.27-23.2-1.48-23.54-15.32-.28-11.12-.06-22.26-.06-33.38Z"/></g></g></svg>