<?xml version="1.0" encoding="utf-8"?>
<!-- Generator: Adobe Illustrator 26.5.3, SVG Export Plug-In . SVG Version: 6.00 Build 0)  -->
<svg version="1.1" id="Layer_1" xmlns="http://www.w3.org/2000/svg" xmlns:xlink="http://www.w3.org/1999/xlink" x="0px" y="0px"
	 viewBox="0 0 89.7 68.7" style="enable-background:new 0 0 89.7 68.7;" xml:space="preserve">
<style type="text/css">
	.st0{fill:#168698;}
	.st1{fill:#232323;}
	.st2{fill:#FFFFFF;}
</style>
<g id="pegasus" transform="translate(0.027 -1)">
	<g id="Group_1517" transform="translate(-0.027 1)">
		<path id="Path_3785" class="st0" d="M49.8,68.7l-2-0.7c0,0,0.1-0.4,0.3-0.8c0.3-0.7,0.5-1.2,0.9-1.7c0.4-0.5,0.8-0.9,1.3-1.3
			c0.5-0.4,1.1-0.8,1.6-1.1c0.5-0.3,1.3-0.7,1.8-0.9c0.5-0.3,1.4-0.5,1.8-0.8c0.5-0.1,1.4-0.5,2-0.7c0.4-0.1,0.9-0.3,1.3-0.4
			l0.5-0.1c0.5-0.1,1.2-0.4,1.7-0.7c0.4-0.1,1.1-0.4,1.4-0.7c0.4-0.1,0.7-0.4,1.1-0.7c0.1-0.1,0.4-0.3,0.5-0.5
			c0-0.1,0.1-0.3,0.1-0.4s-0.1-0.4-0.1-0.5c-0.3-0.4-0.5-0.7-0.8-1.1c-0.5-0.5-1.1-0.9-1.7-1.3l-1.1-0.8l1.2-1.7l1.1,0.8
			c0.7,0.5,1.3,1.1,1.8,1.6c0.4,0.4,0.8,0.9,1.2,1.4c0.3,0.5,0.4,1.1,0.4,1.6s-0.1,1.1-0.4,1.4c-0.3,0.4-0.7,0.8-1.1,1.1
			s-0.9,0.5-1.3,0.8c-0.4,0.1-1.1,0.5-1.6,0.7c-0.4,0.1-1.2,0.4-1.7,0.7l-0.5,0.1c-0.4,0.1-1.1,0.4-1.3,0.4
			c-0.5,0.1-1.3,0.5-1.8,0.7s-1.3,0.5-1.7,0.7c-0.4,0.1-1.2,0.5-1.6,0.8c-0.5,0.3-0.9,0.5-1.3,0.9c-0.4,0.3-0.7,0.7-0.9,0.9
			c-0.3,0.4-0.4,0.7-0.5,1.1C49.9,68.3,49.8,68.7,49.8,68.7z M3.6,65.8l-0.4-2l0.9-0.3c0.1,0,0.3-0.1,0.4-0.1l-1.3-1.1l0.5-0.7
			l1.2-1.4c0.4-0.4,0.9-1.1,1.2-1.4c0.3-0.4,0.9-1.2,1.2-1.6c0.3-0.4,0.9-1.2,1.2-1.7s0.9-1.2,1.3-1.7c0.4-0.4,0.9-1.2,1.3-1.7
			c0.4-0.4,1.1-1.2,1.4-1.6c0.4-0.4,1.1-1.2,1.4-1.6s1.2-1.1,1.6-1.4s1.2-0.9,1.7-1.3c0.5-0.4,1.2-0.8,1.8-1.2
			c0.5-0.3,1.4-0.8,2-0.9c0.5-0.3,1.4-0.5,2-0.8c0.7-0.3,1.3-0.4,2.1-0.5c-0.4-0.3-0.8-0.7-1.2-1.1c-0.5-0.5-1.1-1.2-1.4-1.8
			c-0.4-0.7-0.7-1.3-0.8-2c-0.1-0.7-0.3-1.3-0.3-2c0-0.7,0.1-1.3,0.3-2c0.1-0.7,0.3-1.3,0.5-2c0.1-0.5,0.5-1.4,0.8-2s0.7-1.4,0.9-2
			c0.3-0.5,0.7-1.4,0.9-2c0.3-0.5,0.7-1.3,0.9-1.8c0.3-0.5,0.5-1.3,0.8-1.8c0.1-0.4,0.4-1.2,0.5-1.7c0.1-0.5,0.1-1.1,0.3-1.6
			c0-0.5,0-0.9-0.1-1.4c-0.1-0.4-0.3-0.8-0.4-1.2l-0.1-0.1c-0.3,0.3-0.5,0.5-0.9,0.8c-0.4,0.3-0.7,0.5-1.1,0.7
			c-0.3,0.1-0.8,0.4-1.2,0.5c-0.4,0.1-0.8,0.3-1.2,0.4c-0.4,0.1-0.9,0.3-1.3,0.4c-0.4,0.1-0.9,0.3-1.3,0.3c-0.4,0.1-1.1,0.1-1.4,0.3
			c-0.4,0-1.1,0.1-1.4,0.3c-0.4,0-1.1,0.1-1.4,0.1s-1.1,0.1-1.4,0.1c-0.4,0-0.9,0.1-1.3,0.3c-0.4,0.1-0.7,0.1-0.7,0.1l-0.3-2.1
			c0,0,0.3,0,0.7-0.1s1.1-0.1,1.4-0.3c0.4,0,1.1-0.1,1.4-0.3c0.4,0,1.1-0.1,1.4-0.1s1.1-0.1,1.4-0.1s0.9-0.1,1.3-0.3
			s0.9-0.1,1.3-0.3s0.9-0.3,1.2-0.3l1.1-0.4c0.3-0.1,0.7-0.3,0.9-0.4c0.3-0.1,0.5-0.3,0.8-0.5c0.3-0.1,0.5-0.4,0.7-0.7
			c0.1-0.3,0.4-0.4,0.5-0.7s0.3-0.5,0.4-0.8c0-0.4,0-0.7,0.1-1.1c0-0.4,0.1-0.8,0.1-1.2v-0.8h2.1v0.8c0,0.5,0,1.1-0.1,1.6
			c-0.1,0.5-0.3,0.9-0.4,1.4c-0.1,0.4-0.3,0.7-0.4,0.9l0.5-0.3l0.4,0.8c0.3,0.5,0.5,1.2,0.7,1.8s0.1,1.3,0.1,2s-0.1,1.3-0.3,2
			s-0.4,1.3-0.7,2c-0.1,0.5-0.5,1.3-0.8,2c-0.3,0.5-0.7,1.4-0.9,2s-0.7,1.4-0.9,2c-0.3,0.5-0.7,1.4-0.8,1.8
			c-0.3,0.5-0.5,1.3-0.7,1.8c-0.1,0.5-0.4,1.2-0.4,1.7C24,35.2,24,35.7,24,36.3c0,0.5,0,1.1,0.1,1.6c0.1,0.5,0.4,1.1,0.5,1.4
			c0.3,0.5,0.7,0.9,1.1,1.4c0.5,0.5,1.1,0.9,1.7,1.4c0.7,0.4,1.1,0.8,1.1,0.8l-0.1,0.1h0.4v2.1h-1.1c-0.7,0-1.3,0.1-2,0.1
			c-0.7,0.1-1.3,0.3-1.8,0.4c-0.7,0.1-1.2,0.4-1.8,0.7c-0.5,0.3-1.2,0.7-1.7,0.9c-0.4,0.3-1.2,0.8-1.6,1.1c-0.4,0.4-1.2,0.9-1.6,1.2
			c-0.4,0.4-1.1,0.9-1.4,1.3c-0.4,0.4-1.1,1.1-1.4,1.4c-0.4,0.4-1.1,1.2-1.3,1.6c-0.4,0.4-0.9,1.2-1.3,1.6c-0.4,0.4-0.9,1.2-1.3,1.7
			c-0.4,0.5-1.1,0.8-1.3,1.2C8.6,58.9,8,59.6,7.8,60c-0.3,0.4-0.9,1.2-1.2,1.6c-0.3,0.4-0.8,1.1-1.2,1.4l-0.1,0.1
			c0.1-0.1,0.4-0.1,0.5-0.3c0.5-0.3,1.1-0.5,1.6-0.9c0.4-0.3,1.1-0.8,1.4-1.2c0.5-0.4,0.9-0.9,1.4-1.3c0.3-0.3,0.9-0.9,1.3-1.4
			c0.4-0.4,1.1-1.2,1.4-1.7c0.4-0.4,1.1-1.2,1.4-1.7c0.4-0.5,1.2-1.3,1.6-1.7s1.2-1.2,1.7-1.6c0.7-0.5,1.3-1.1,2-1.4
			c0.7-0.5,1.4-0.9,2.2-1.3c0.8-0.4,1.6-0.7,2.5-0.9c0.9-0.3,1.8-0.5,2.8-0.7h0.1c0.9-0.1,1.8-0.1,2.8-0.1h0.5
			c0.9,0,1.8,0.1,2.8,0.1l0.9,0.1c0.7,0.1,1.1,0.1,1.3,0.1h0.1l0.1-0.1c0.1-0.1,0.1-0.4,0.1-0.5c0-0.3,0.1-0.7,0.1-0.9
			c0-0.4,0-0.7,0-1.1c0-0.3,0-0.5,0-0.5l2.1-0.1c0,0,0,0.3,0,0.7s0,0.8,0,1.2c0,0.4-0.1,0.8-0.1,1.2c-0.1,0.4-0.3,0.8-0.4,1.2
			c0.1,0,0.3,0.1,0.5,0.1c0.4,0.1,1.1,0.4,1.3,0.4c0.4,0.1,1.1,0.3,1.4,0.4c0.4,0.1,1.1,0.3,1.4,0.4c0.4,0.1,1.2,0.3,1.6,0.4
			c0.4,0.1,1.2,0.3,1.6,0.3c0.4,0.1,1.2,0.1,1.6,0.3c0.4,0,1.2,0.1,1.6,0.1c0.4,0,1.2,0.1,1.6,0.1c0.4,0,1.2,0,1.6,0
			c0.4,0,1.2,0,1.6,0s1.2-0.1,1.6-0.1s1.2-0.1,1.4-0.3c0.3-0.1,1.1-0.1,1.4-0.3c0.4-0.1,1.1-0.3,1.3-0.4c0.4-0.1,0.9-0.3,1.3-0.5
			l0.7-0.3l0.8,2l-0.7,0.3c-0.4,0.1-1.1,0.4-1.4,0.5c-0.5,0.1-1.1,0.3-1.6,0.4c-0.4,0.1-1.2,0.3-1.6,0.4c-0.4,0.1-1.1,0.3-1.6,0.4
			c-0.4,0-1.2,0.1-1.7,0.1c-0.5,0-1.2,0-1.7,0h-0.8l0.1,0.3c0,0-0.3,0.1-0.7,0.4c-0.4,0.3-1.1,0.5-1.6,0.7c-0.4,0.1-1.2,0.4-1.6,0.7
			s-1.2,0.4-1.7,0.5L44,56l-0.4,0.1c-0.5,0.1-1.1,0.3-1.4,0.4c-0.5,0.1-1.3,0.4-1.8,0.5c-0.5,0.1-1.3,0.4-1.7,0.5
			c-0.5,0.1-1.2,0.4-1.7,0.5c-0.4,0.1-1.2,0.4-1.7,0.7c-0.4,0.1-1.2,0.5-1.6,0.7s-1.1,0.5-1.4,0.8c-0.4,0.3-0.9,0.5-1.3,0.9
			c-0.4,0.3-0.8,0.7-1.2,0.9c-0.7,0.7-1.2,1.4-1.7,2.2c-0.1,0.4-0.4,0.7-0.4,0.7L25.7,64c0,0,0.1-0.3,0.4-0.7
			c0.3-0.5,0.5-1.1,0.9-1.4c0.4-0.5,0.8-0.9,1.2-1.3c0.4-0.4,0.9-0.8,1.3-1.2c0.5-0.4,0.9-0.7,1.4-0.9c0.4-0.3,1.2-0.7,1.6-0.9
			c0.5-0.3,1.2-0.5,1.7-0.8c0.5-0.3,1.3-0.5,1.7-0.7c0.5-0.1,1.3-0.4,1.8-0.7c0.5-0.1,1.3-0.4,1.8-0.5c0.5-0.1,1.3-0.4,1.8-0.5
			c0.4-0.1,0.9-0.3,1.4-0.4h0.5c0.5-0.1,1.2-0.4,1.7-0.5c0.4-0.1,1.2-0.4,1.6-0.5c0.1-0.1,0.4-0.1,0.7-0.3c-0.3,0-0.4,0-0.7-0.1
			c-0.5-0.1-1.2-0.1-1.7-0.3c-0.5-0.1-1.2-0.3-1.7-0.3c-0.5,0-1.2-0.3-1.6-0.4c-0.4-0.1-1.2-0.3-1.6-0.4c-0.4-0.1-1.1-0.3-1.4-0.4
			c-0.4-0.1-1.1-0.3-1.4-0.4c-0.4-0.1-0.7-0.3-0.7-0.3l0.5-1.4c-0.3,0.3-0.5,0.4-0.8,0.5c-0.3,0.1-0.7,0.1-0.9,0.1l0,0
			c-0.1,0-0.8-0.1-1.4-0.1L33,49.1C32.3,49,31.3,49,30.5,49H30c-0.8,0-1.7,0-2.5,0.1h-0.1c-0.8,0.1-1.6,0.3-2.4,0.5
			c-0.8,0.3-1.4,0.5-2.2,0.9c-0.7,0.4-1.3,0.7-2,1.2c-0.5,0.4-1.3,0.9-1.7,1.3c-0.4,0.4-1.2,1.1-1.6,1.4s-1.1,1.2-1.4,1.6
			c-0.4,0.5-1.1,1.2-1.4,1.7l-1.4,1.6c-0.4,0.4-1.1,1.2-1.4,1.6c-0.4,0.4-1.1,1.1-1.6,1.4c-0.5,0.5-1.1,0.9-1.7,1.3
			c-0.5,0.4-1.2,0.8-1.8,1.1c-0.7,0.3-1.3,0.5-2.1,0.7L3.6,65.8z M66.9,54.1l-1.1-1.7l2.2-1.4c0.7-0.4,1.4-0.9,2.1-1.4l0.8-0.7
			c0.7-0.5,1.2-1.2,1.8-1.8l0.4-0.5c0.5-0.7,1.1-1.3,1.4-2.1l0.1-0.4c0.4-0.8,0.8-1.6,1.2-2.4v-0.1c0.3-0.8,0.5-1.6,0.7-2.5
			c0.1-0.8,0.1-1.6,0.1-2.5c0-0.8-0.1-1.6-0.4-2.4c-0.3-0.8-0.5-1.4-0.8-2.1c-0.4-0.7-0.8-1.3-1.3-1.8s-1.2-1.1-1.8-1.6l0,0
			c-0.7-0.4-1.4-0.8-2.1-1.2l-0.4-0.1c-0.8-0.3-1.6-0.5-2.4-0.7l-0.7-0.1c-0.8-0.1-1.6-0.1-2.5-0.1h-1.2c-0.8,0-1.7,0.1-2.5,0.3
			l-1.8,0.3c-0.8,0.1-1.6,0.4-2.5,0.5l-3.6,1.1l-0.7-2l3.6-1.1c0.9-0.3,1.8-0.4,2.8-0.7l1.7-0.3c0.9-0.1,1.8-0.3,2.8-0.3h1.2
			c0.9,0,1.8,0.1,2.8,0.3l0.7,0.1c0.9,0.1,1.8,0.4,2.8,0.8l0.3,0.1c0.9,0.4,1.7,0.8,2.6,1.3l0,0c0.8,0.5,1.6,1.2,2.2,1.8
			s1.2,1.4,1.6,2.2c0.4,0.8,0.8,1.7,1.1,2.6c0.3,0.9,0.4,1.8,0.4,2.8c0,0.9,0,2-0.3,2.9c-0.1,0.9-0.4,2-0.8,2.9v0.1
			c-0.4,0.9-0.8,1.8-1.3,2.6l0.3,0.5c-0.5,0.8-1.1,1.6-1.7,2.4l-0.4,0.5c-0.7,0.8-1.3,1.4-2,2L71.5,51c-0.8,0.7-1.4,1.2-2.2,1.7
			L66.9,54.1z M1.6,48.3c-0.1,0-0.4,0-0.5-0.1c-0.4-0.1-0.7-0.4-0.8-0.8C0.1,47.3,0,47,0,46.7c0-0.3,0-0.5,0-0.8
			c0-0.3,0.1-0.7,0.3-0.9c0.1-0.4,0.3-0.7,0.4-1.1c0.1-0.3,0.3-0.8,0.4-1.2s0.4-0.9,0.5-1.2s0.4-0.9,0.7-1.3S2.8,39.4,3,39
			s0.7-0.9,0.8-1.3c0.3-0.4,0.7-0.9,0.9-1.3s0.7-0.9,0.9-1.3c0.3-0.4,0.8-0.9,1.1-1.3c0.3-0.4,0.8-0.9,1.1-1.2
			c0.3-0.4,0.8-0.9,1.1-1.2c0.3-0.3,0.8-0.8,1.2-1.1c0.4-0.3,0.9-0.7,1.2-0.9c0.3-0.3,0.9-0.7,1.2-0.8c0.4-0.1,0.9-0.5,1.2-0.7
			c0.4-0.1,0.8-0.3,1.3-0.4c0.4-0.1,0.9-0.1,1.3-0.1s0.9,0,1.3,0.1c0.4,0.1,0.9,0.3,1.3,0.5s0.8,0.5,1.2,0.8
			c0.4,0.4,0.8,0.7,1.1,1.2c0.4,0.5,0.7,0.9,0.9,1.4c0.3,0.4,0.4,0.8,0.4,0.8l-1.8,1.1c0,0-0.1-0.4-0.4-0.8
			c-0.3-0.4-0.5-0.8-0.8-1.2c-0.3-0.3-0.5-0.5-0.8-0.8c-0.3-0.3-0.5-0.4-0.8-0.5c-0.3-0.1-0.5-0.3-0.8-0.3c-0.3,0-0.5-0.1-0.8-0.1
			c-0.3,0-0.5,0-0.9,0.1c-0.3,0.1-0.7,0.1-0.9,0.3s-0.7,0.4-1.1,0.5c-0.3,0.1-0.8,0.4-1.1,0.7c-0.4,0.3-0.7,0.5-1.1,0.8
			c-0.3,0.3-0.8,0.7-1.1,0.9c-0.3,0.3-0.8,0.8-1.1,1.1c-0.3,0.4-0.8,0.8-1.1,1.2c-0.3,0.3-0.7,0.9-0.9,1.2c-0.3,0.4-0.7,0.9-0.9,1.3
			S5.5,38.6,5.3,39s-0.5,0.9-0.8,1.3S4,41.2,3.8,41.5c-0.1,0.4-0.4,0.9-0.7,1.2c-0.1,0.3-0.4,0.8-0.5,1.2c-0.1,0.3-0.3,0.8-0.4,1.1
			S2,45.6,2,45.8c0,0.1-0.1,0.3-0.1,0.5c0.1-0.1,0.3-0.1,0.4-0.3c0.3-0.1,0.7-0.5,0.9-0.8C3.4,45,4,44.5,4.3,44.1L5,43.5l1.4,1.4
			l-0.7,0.7c-0.4,0.4-0.9,0.9-1.2,1.2c-0.4,0.3-0.8,0.7-1.1,0.9s-0.7,0.4-0.9,0.7c-0.3,0.1-0.5,0.3-0.9,0.4
			C1.8,48.3,1.7,48.3,1.6,48.3z M87.6,29.8V29c0-0.5-0.1-0.9-0.3-1.4c-0.1-0.4-0.3-0.9-0.4-1.3c-0.1-0.4-0.4-0.8-0.7-1.2
			c-0.3-0.4-0.5-0.7-0.8-1.1c-0.3-0.3-0.7-0.7-0.9-0.9c-0.4-0.3-0.7-0.5-1.1-0.8c-0.3-0.1-0.9-0.4-1.2-0.5c-0.3-0.1-0.9-0.3-1.2-0.4
			c-0.4-0.1-0.9-0.1-1.3-0.3c-0.4,0-0.8,0-1.3,0c-0.4,0-0.8,0.1-1.3,0.3c-0.4,0.1-0.8,0.3-1.2,0.4c-0.4,0.1-0.8,0.4-1.2,0.7
			c-0.4,0.3-0.8,0.5-1.1,0.9c-0.4,0.4-0.7,0.8-0.9,1.2l-0.5,0.8l-1.7-1.2l0.5-0.8c0.4-0.5,0.8-1.1,1.2-1.4c0.4-0.4,0.9-0.8,1.3-1.2
			c0.5-0.3,0.9-0.5,1.4-0.8c1.1-0.4,2.1-0.8,3.2-0.8c0.4,0,1.2,0,1.6,0c1.1,0.1,2.1,0.4,3.2,0.8c0.5,0.3,0.9,0.4,1.4,0.7
			c0.9,0.5,1.8,1.2,2.5,2c0.3,0.4,0.8,0.9,1.1,1.3c0.3,0.5,0.5,0.9,0.8,1.4c0.3,0.5,0.4,1.1,0.5,1.6c0.1,0.5,0.3,1.2,0.3,1.7
			l0.1,0.8L87.6,29.8z M46.1,29.8l-1.8-0.9l0.7-1.2c0.4-0.8,0.8-1.6,1.1-2.4c0.3-0.7,0.7-1.7,0.8-2.4s0.4-1.7,0.4-2.4
			c0.1-0.7,0.1-1.7,0.1-2.4s-0.1-1.6-0.1-2.2c-0.1-0.7-0.3-1.4-0.4-2.1c-0.3-0.7-0.4-1.3-0.7-2s-0.7-1.2-1.1-1.7
			c-0.4-0.5-0.8-1.1-1.3-1.6c-0.5-0.5-0.9-0.9-1.6-1.3c-0.5-0.4-1.2-0.8-1.8-1.1c-0.7-0.3-1.3-0.5-2.1-0.8c-0.8-0.1-1.6-0.3-2.2-0.4
			l0,0c-0.8,0-1.6,0-2.5,0h-0.3c-0.8,0-1.7,0.1-2.5,0.4L29,5.7l-0.4-2l1.8-0.4c0.9-0.1,1.8-0.3,2.8-0.4h0.3c0.9,0,1.8,0,2.8,0l0,0
			c0.9,0.1,1.8,0.3,2.6,0.4c0.8,0.3,1.6,0.5,2.4,0.9c0.9,0.3,1.6,0.7,2.2,1.2c0.5,0.4,0.9,0.8,1.4,1.2l0.4-0.4
			c0.4-0.3,0.8-0.5,1.2-0.8c0.4-0.3,0.9-0.5,1.2-0.7c0.4-0.1,0.9-0.4,1.3-0.5c0.4-0.1,0.9-0.4,1.3-0.4c0.4-0.1,0.9-0.3,1.3-0.4
			c0.4-0.1,0.9-0.1,1.3-0.3c0.4,0,0.9-0.1,1.3-0.1s0.9-0.1,1.3-0.1s0.9,0,1.3,0s0.9,0,1.3,0h1.3c0.4,0,0.9,0,1.2,0h1.4
			c0.4,0,0.9,0,1.3,0h2V5h-2c-0.4,0-0.9,0-1.3,0h-1.4c-0.4,0-0.9,0-1.2,0h-1.3c-0.4,0-0.9,0-1.3,0S56,5,55.6,5s-0.9,0.1-1.3,0.1
			s-0.8,0.1-1.2,0.1c-0.4,0-0.9,0.1-1.2,0.3c-0.4,0.1-0.9,0.3-1.2,0.3c-0.3,0.1-0.8,0.3-1.2,0.4c-0.3,0.1-0.8,0.4-1.1,0.5
			c-0.4,0.1-0.7,0.4-1.1,0.7C47,7.6,46.7,7.8,46.3,8L46,8.3c0.1,0.3,0.4,0.5,0.5,0.7c0.4,0.7,0.8,1.3,1.2,2.1
			c0.3,0.8,0.7,1.4,0.8,2.2c0.3,0.8,0.4,1.6,0.5,2.4c0.1,0.8,0.1,1.7,0.1,2.5c0,0.9,0,1.7-0.1,2.6c-0.1,0.9-0.3,1.7-0.5,2.6
			c-0.1,0.7-0.5,1.8-0.8,2.6c-0.4,0.9-0.8,1.7-1.2,2.6L46.1,29.8z M49.9,27.3L49.5,25c-0.1-1.1-0.3-2-0.3-3v-0.3
			c0-0.9,0.1-2,0.3-2.9c0.1-0.9,0.4-1.8,0.8-2.6c0.4-0.8,0.8-1.6,1.3-2.2c0.5-0.7,1.1-1.3,1.7-1.8c0.7-0.5,1.3-1.1,2.1-1.4
			c0.8-0.4,1.4-0.8,2.2-1.1c0.8-0.3,1.7-0.5,2.5-0.7c0.7-0.1,1.8-0.4,2.6-0.4h0.1c0.8-0.1,2-0.1,2.6-0.1h0.1c0.8,0,2,0,2.8,0h0.1
			c0.8,0,2,0.1,2.6,0.1h0.3c0.8,0.1,2,0.1,2.6,0.3h0.3C75.1,9,76.2,9.1,77,9.2h0.1c0.8,0.1,2,0.4,2.6,0.4l1.3,0.3L80.7,12l-1.3-0.3
			c-0.7-0.1-1.8-0.4-2.6-0.4h-0.1c-0.8-0.1-1.8-0.3-2.6-0.4h-0.3c-0.7-0.1-1.8-0.3-2.6-0.3h-0.3c-0.7-0.1-1.8-0.1-2.6-0.1h-0.1
			c-0.7,0-1.8,0-2.5,0h-0.1c-0.7,0-1.8,0.1-2.5,0.1h-0.1c-0.7,0.1-1.8,0.3-2.4,0.4c-0.7,0.1-1.7,0.4-2.2,0.7c-0.5,0.3-1.4,0.7-2,0.9
			c-0.7,0.4-1.2,0.8-1.7,1.2c-0.5,0.4-0.9,0.9-1.4,1.4c-0.4,0.5-0.8,1.2-1.1,1.8c-0.3,0.8-0.5,1.4-0.7,2.2c-0.1,0.8-0.3,1.7-0.3,2.5
			v0.3c0,0.9,0.1,1.8,0.1,2.6l0.4,2.2L49.9,27.3z M9.5,15.5l-0.8-2c0,0,0.3-0.1,0.7-0.3c0.3-0.1,0.8-0.4,1.2-0.5
			c0.3-0.1,0.8-0.5,1.2-0.7c0.4-0.1,0.8-0.5,1.1-0.8c0.3-0.3,0.8-0.5,1.1-0.8c0.3-0.3,0.8-0.7,1.1-0.9c0.1-0.1,0.4-0.4,0.7-0.5
			l0.3-0.3c0.3-0.3,0.8-0.7,1.1-0.9s0.8-0.7,1.1-0.9s0.8-0.7,1.1-0.8c0.4-0.3,0.8-0.5,1.2-0.8c0.4-0.1,0.9-0.3,1.3-0.5
			c0.4-0.3,0.9-0.4,1.3-0.5c0.1,0,0.4-0.1,0.5-0.1l0,0c0,0,0.1-0.1,0.1-0.4c0.3-0.4,0.4-0.8,0.7-1.2c0.3-0.4,0.7-0.8,1.1-1.1
			c0.4-0.3,0.8-0.7,1.2-0.8c0.5-0.3,0.9-0.4,1.4-0.5C28.2,0.1,28.6,0,28.6,0L29,2c0,0-0.3,0.1-0.7,0.1c-0.4,0.1-0.7,0.3-1.1,0.4
			C27,2.6,26.7,2.9,26.5,3c-0.3,0.3-0.4,0.4-0.7,0.7c0.4,0,1.1,0,1.4,0c0.4,0,0.8,0,0.8,0l-0.1,2.1c0,0-0.4,0-0.8,0
			c-0.4,0-0.9,0-1.3,0S25,5.9,24.6,5.9c-0.4,0.1-0.9,0.3-1.2,0.3c-0.4,0.3-0.8,0.4-1.1,0.5s-0.8,0.4-1.1,0.5
			c-0.3,0.1-0.8,0.4-1.1,0.7C20,8,19.5,8.4,19.2,8.7s-0.8,0.7-1.1,0.8l-1.1,0.9l-0.4,0.4c-0.3,0.1-0.5,0.4-0.7,0.5
			c-0.3,0.3-0.8,0.7-1.1,0.9c-0.3,0.3-0.8,0.7-1.2,0.9c-0.3,0.3-0.8,0.7-1.2,0.8c-0.4,0.3-0.9,0.5-1.3,0.8c-0.4,0.3-0.9,0.5-1.3,0.7
			C9.7,15.4,9.5,15.5,9.5,15.5z"/>
		<path id="Path_3786" class="st1" d="M61.8,61.1l-4.1-6.2l-7.5-9.7L31.9,42l-9.3,3l-10.7-2.4l0.3-1.2l10.3,2.2l7.5-2.4L23,35.6
			l-10.4-3L2.4,32.9l-0.1-1.2l10.3-0.5l10.9,3.2l7.5,6.2l-0.5,0.5l0.4-0.1l2-14.6h0.1l-4.3-4.1l-8.3-9.1L9.1,18.8l-0.5-1.2l12.1-6.1
			l9.1,9.9l4.1,4l21.1,3.7l-3.6,15l10.1,6.5l7.4,8l-0.9,0.9l-7.2-7.9l-7.8-5l5.9,7.8l4.1,6.2L61.8,61.1z M32.3,40.8l17.8,3L53.3,30
			l-19.2-3.3L32.3,40.8z"/>
		<path id="Path_3787" class="st1" d="M35.4,26.2c-0.1-0.9-0.9-1.6-1.8-1.6c-0.9,0-1.6,0.9-1.6,1.8c0.1,0.9,0.8,1.6,1.7,1.6
			C34.8,28,35.4,27.1,35.4,26.2L35.4,26.2z"/>
		<path id="Path_3788" d="M29.6,21.6c0-0.5-0.4-0.9-0.9-0.9c-0.5,0-0.9,0.4-1.1,0.9c0,0.5,0.4,0.9,0.9,1.1
			C29.1,22.6,29.6,22.3,29.6,21.6L29.6,21.6z"/>
		<path id="Path_3789" class="st1" d="M22,11.9c0-0.9-0.8-1.6-1.7-1.4c-0.9,0-1.6,0.8-1.4,1.7c0,0.8,0.8,1.4,1.6,1.4
			C21.3,13.6,22,12.8,22,11.9L22,11.9z"/>
		<path id="Path_3790" class="st1" d="M32.9,41.3c0-0.8-0.7-1.3-1.4-1.3c-0.8,0-1.3,0.7-1.3,1.4c0,0.8,0.7,1.3,1.4,1.3
			S32.9,42.1,32.9,41.3z"/>
		<path id="Path_3791" class="st1" d="M55.7,29.5c-0.1-1.1-0.9-1.8-2-1.7s-1.8,0.9-1.7,2c0.1,0.9,0.9,1.7,1.8,1.7
			C54.9,31.5,55.8,30.7,55.7,29.5z"/>
		<path id="Path_3792" class="st1" d="M52.3,44.4c-0.1-0.9-0.9-1.7-1.8-1.6c-0.9,0.1-1.7,0.9-1.6,1.8c0.1,0.9,0.8,1.6,1.7,1.6
			C51.6,46.2,52.4,45.4,52.3,44.4L52.3,44.4z"/>
		<path id="Path_3793" class="st1" d="M62.1,51.1c0-0.8-0.5-1.4-1.3-1.4c-0.8,0.1-1.4,0.8-1.3,1.6c0,0.7,0.7,1.3,1.3,1.3
			C61.6,52.5,62.1,51.9,62.1,51.1L62.1,51.1z"/>
		<path id="Path_3794" class="st1" d="M68.9,58.2c0-0.7-0.5-1.3-1.2-1.3c-0.7,0-1.3,0.5-1.4,1.2c0,0.7,0.5,1.3,1.2,1.4
			C68.2,59.5,68.9,59,68.9,58.2C68.9,58.3,68.9,58.2,68.9,58.2z"/>
		<path id="Path_3795" class="st1" d="M59,54.9c0-0.5-0.4-0.9-0.9-0.9s-0.9,0.5-0.9,1.1c0,0.5,0.4,0.8,0.9,0.9
			C58.6,55.8,59,55.3,59,54.9z"/>
		<path id="Path_3796" class="st1" d="M63.1,61.4c0-0.5-0.4-0.9-0.9-0.9s-0.9,0.5-0.9,1.1c0,0.5,0.4,0.8,0.9,0.9
			C62.7,62.3,63.1,61.9,63.1,61.4z"/>
		<path id="Path_3797" d="M23.3,44.1c0-0.4-0.3-0.7-0.7-0.7c-0.4,0-0.8,0.3-0.8,0.7c0,0.4,0.3,0.8,0.7,0.8S23.2,44.6,23.3,44.1
			C23.3,44.2,23.3,44.1,23.3,44.1z"/>
		<path id="Path_3798" class="st1" d="M24.5,35.4c0-0.7-0.5-1.3-1.2-1.3s-1.3,0.5-1.4,1.2c0,0.7,0.5,1.3,1.2,1.4
			C23.8,36.7,24.4,36.2,24.5,35.4C24.5,35.6,24.5,35.4,24.5,35.4z"/>
		<path id="Path_3799" class="st1" d="M13.4,31.6c0-0.5-0.4-0.9-0.9-0.9s-0.9,0.4-1.1,0.9c0,0.5,0.4,0.9,0.9,1.1
			C12.9,32.8,13.3,32.1,13.4,31.6L13.4,31.6z"/>
		<path id="Path_3800" class="st2" d="M13.3,41.6c0-0.8-0.7-1.3-1.4-1.3s-1.3,0.7-1.3,1.4s0.7,1.3,1.4,1.3
			C12.6,43.1,13.3,42.4,13.3,41.6z"/>
		<path id="Path_3801" class="st1" d="M3.4,32.4c0-0.7-0.4-1.1-1.1-1.2c-0.7,0-1.1,0.7-1.1,1.3c0,0.5,0.5,1.1,1.1,1.1
			C3,33.4,3.4,32.9,3.4,32.4L3.4,32.4L3.4,32.4z"/>
		<path id="Path_3802" class="st1" d="M10.7,18.2c-0.1-1.1-0.9-1.8-2-1.7c-1.1,0.1-1.8,0.9-1.7,2c0.1,0.9,0.9,1.7,1.8,1.7
			C9.9,20.1,10.8,19.2,10.7,18.2z"/>
	</g>
</g>
</svg>
