<?xml version="1.0" encoding="utf-8"?>
<!-- Generator: Adobe Illustrator 26.5.3, SVG Export Plug-In . SVG Version: 6.00 Build 0)  -->
<svg version="1.1" id="Layer_1" xmlns="http://www.w3.org/2000/svg" xmlns:xlink="http://www.w3.org/1999/xlink" x="0px" y="0px"
	 viewBox="0 0 287.4 52.2" style="enable-background:new 0 0 287.4 52.2;" xml:space="preserve">
<style type="text/css">
	.st0{fill:#168698;}
	.st1{fill:#232323;}
	.st2{fill:#FFFFFF;}
</style>
<g id="pegasus" transform="translate(0.027 -1)">
	<g id="Group_1517" transform="translate(-0.027 1)">
		<path id="Path_3785" class="st0" d="M37.8,52.2l-1.5-0.5c0,0,0.1-0.3,0.2-0.6c0.2-0.5,0.4-0.9,0.7-1.3c0.3-0.4,0.6-0.7,1-1
			c0.4-0.3,0.8-0.6,1.2-0.8c0.4-0.2,1-0.5,1.4-0.7s1.1-0.4,1.4-0.6c0.4-0.1,1.1-0.4,1.5-0.5c0.3-0.1,0.7-0.2,1-0.3l0.4-0.1
			c0.4-0.1,0.9-0.3,1.3-0.5c0.3-0.1,0.8-0.3,1.1-0.5c0.3-0.1,0.5-0.3,0.8-0.5c0.1-0.1,0.3-0.2,0.4-0.4c0-0.1,0.1-0.2,0.1-0.3
			c0-0.1-0.1-0.3-0.1-0.4c-0.2-0.3-0.4-0.5-0.6-0.8c-0.4-0.4-0.8-0.7-1.3-1l-0.8-0.6l0.9-1.3l0.8,0.6c0.5,0.4,1,0.8,1.4,1.2
			c0.3,0.3,0.6,0.7,0.9,1.1c0.2,0.4,0.3,0.8,0.3,1.2c0,0.4-0.1,0.8-0.3,1.1c-0.2,0.3-0.5,0.6-0.8,0.8c-0.3,0.2-0.7,0.4-1,0.6
			c-0.3,0.1-0.8,0.4-1.2,0.5c-0.3,0.1-0.9,0.3-1.3,0.5l-0.4,0.1c-0.3,0.1-0.8,0.3-1,0.3c-0.4,0.1-1,0.4-1.4,0.5s-1,0.4-1.3,0.5
			c-0.3,0.1-0.9,0.4-1.2,0.6c-0.4,0.2-0.7,0.4-1,0.7c-0.3,0.2-0.5,0.5-0.7,0.7c-0.2,0.3-0.3,0.5-0.4,0.8
			C37.9,51.9,37.8,52.2,37.8,52.2z M2.7,50l-0.3-1.5l0.7-0.2c0.1,0,0.2-0.1,0.3-0.1l-1-0.8l0.4-0.5l0.9-1.1C4,45.5,4.4,45,4.6,44.7
			s0.7-0.9,0.9-1.2s0.7-0.9,0.9-1.3s0.7-0.9,1-1.3c0.3-0.3,0.7-0.9,1-1.3c0.3-0.3,0.8-0.9,1.1-1.2c0.3-0.3,0.8-0.9,1.1-1.2
			c0.3-0.3,0.9-0.8,1.2-1.1c0.3-0.3,0.9-0.7,1.3-1c0.4-0.3,0.9-0.6,1.4-0.9c0.4-0.2,1.1-0.6,1.5-0.7c0.4-0.2,1.1-0.4,1.5-0.6
			c0.5-0.2,1-0.3,1.6-0.4c-0.3-0.2-0.6-0.5-0.9-0.8c-0.4-0.4-0.8-0.9-1.1-1.4c-0.3-0.5-0.5-1-0.6-1.5c-0.1-0.5-0.2-1-0.2-1.5
			c0-0.5,0.1-1,0.2-1.5c0.1-0.5,0.2-1,0.4-1.5c0.1-0.4,0.4-1.1,0.6-1.5c0.2-0.4,0.5-1.1,0.7-1.5c0.2-0.4,0.5-1.1,0.7-1.5
			c0.2-0.4,0.5-1,0.7-1.4s0.4-1,0.6-1.4c0.1-0.3,0.3-0.9,0.4-1.3c0.1-0.4,0.1-0.8,0.2-1.2c0-0.4,0-0.7-0.1-1.1
			c-0.1-0.3-0.2-0.6-0.3-0.9l-0.1-0.1c-0.2,0.2-0.4,0.4-0.7,0.6c-0.3,0.2-0.5,0.4-0.8,0.5c-0.2,0.1-0.6,0.3-0.9,0.4
			c-0.3,0.1-0.6,0.2-0.9,0.3c-0.3,0.1-0.7,0.2-1,0.3c-0.3,0.1-0.7,0.2-1,0.2c-0.3,0.1-0.8,0.1-1.1,0.2c-0.3,0-0.8,0.1-1.1,0.2
			c-0.3,0-0.8,0.1-1.1,0.1c-0.3,0-0.8,0.1-1.1,0.1s-0.7,0.1-1,0.2c-0.3,0.1-0.5,0.1-0.5,0.1L8.9,14c0,0,0.2,0,0.5-0.1
			c0.3-0.1,0.8-0.1,1.1-0.2c0.3,0,0.8-0.1,1.1-0.2c0.3,0,0.8-0.1,1.1-0.1s0.8-0.1,1.1-0.1c0.3,0,0.7-0.1,1-0.2s0.7-0.1,1-0.2
			s0.7-0.2,0.9-0.2l0.8-0.3c0.2-0.1,0.5-0.2,0.7-0.3c0.2-0.1,0.4-0.2,0.6-0.4c0.2-0.1,0.4-0.3,0.5-0.5c0.1-0.2,0.3-0.3,0.4-0.5
			c0.1-0.2,0.2-0.4,0.3-0.6C20,9.8,20,9.6,20.1,9.3c0-0.3,0.1-0.6,0.1-0.9V7.8l1.6,0v0.6c0,0.4,0,0.8-0.1,1.2
			c-0.1,0.4-0.2,0.7-0.3,1.1c-0.1,0.3-0.2,0.5-0.3,0.7l0.4-0.2l0.3,0.6c0.2,0.4,0.4,0.9,0.5,1.4c0.1,0.5,0.1,1,0.1,1.5
			c0,0.5-0.1,1-0.2,1.5c-0.1,0.5-0.3,1-0.5,1.5c-0.1,0.4-0.4,1-0.6,1.5c-0.2,0.4-0.5,1.1-0.7,1.5s-0.5,1.1-0.7,1.5
			c-0.2,0.4-0.5,1.1-0.6,1.4c-0.2,0.4-0.4,1-0.5,1.4c-0.1,0.4-0.3,0.9-0.3,1.3c-0.1,0.4-0.1,0.8-0.1,1.3c0,0.4,0,0.8,0.1,1.2
			c0.1,0.4,0.3,0.8,0.4,1.1c0.2,0.4,0.5,0.7,0.8,1.1c0.4,0.4,0.8,0.7,1.3,1.1c0.5,0.3,0.8,0.6,0.8,0.6l-0.1,0.1h0.3l0,1.6l-0.8,0
			c-0.5,0-1,0.1-1.5,0.1c-0.5,0.1-1,0.2-1.4,0.3c-0.5,0.1-0.9,0.3-1.4,0.5c-0.4,0.2-0.9,0.5-1.3,0.7c-0.3,0.2-0.9,0.6-1.2,0.8
			c-0.3,0.3-0.9,0.7-1.2,0.9c-0.3,0.3-0.8,0.7-1.1,1c-0.3,0.3-0.8,0.8-1.1,1.1c-0.3,0.3-0.8,0.9-1,1.2c-0.3,0.3-0.7,0.9-1,1.2
			c-0.3,0.3-0.7,0.9-1,1.3S7,44.1,6.8,44.4c-0.3,0.3-0.7,0.9-0.9,1.2S5.2,46.5,5,46.8s-0.6,0.8-0.9,1.1L4,48
			c0.1-0.1,0.3-0.1,0.4-0.2c0.4-0.2,0.8-0.4,1.2-0.7c0.3-0.2,0.8-0.6,1.1-0.9c0.4-0.3,0.7-0.7,1.1-1C8,45,8.5,44.5,8.8,44.1
			c0.3-0.3,0.8-0.9,1.1-1.3c0.3-0.3,0.8-0.9,1.1-1.3c0.3-0.4,0.9-1,1.2-1.3c0.3-0.3,0.9-0.9,1.3-1.2c0.5-0.4,1-0.8,1.5-1.1
			c0.5-0.4,1.1-0.7,1.7-1c0.6-0.3,1.2-0.5,1.9-0.7c0.7-0.2,1.4-0.4,2.1-0.5l0.1,0c0.7-0.1,1.4-0.1,2.1-0.1h0.4
			c0.7,0,1.4,0.1,2.1,0.1l0.7,0.1c0.5,0.1,0.8,0.1,1,0.1c0,0,0.1,0,0.1,0l0.1-0.1c0.1-0.1,0.1-0.3,0.1-0.4c0-0.2,0.1-0.5,0.1-0.7
			c0-0.3,0-0.5,0-0.8c0-0.2,0-0.4,0-0.4l1.6-0.1c0,0,0,0.2,0,0.5c0,0.3,0,0.6,0,0.9c0,0.3-0.1,0.6-0.1,0.9c-0.1,0.3-0.2,0.6-0.3,0.9
			c0.1,0,0.2,0.1,0.4,0.1c0.3,0.1,0.8,0.3,1,0.3c0.3,0.1,0.8,0.2,1.1,0.3c0.3,0.1,0.8,0.2,1.1,0.3c0.3,0.1,0.9,0.2,1.2,0.3
			s0.9,0.2,1.2,0.2c0.3,0.1,0.9,0.1,1.2,0.2c0.3,0,0.9,0.1,1.2,0.1c0.3,0,0.9,0.1,1.2,0.1c0.3,0,0.9,0,1.2,0s0.9,0,1.2,0
			c0.3,0,0.9-0.1,1.2-0.1c0.3,0,0.9-0.1,1.1-0.2s0.8-0.1,1.1-0.2s0.8-0.2,1-0.3c0.3-0.1,0.7-0.2,1-0.4l0.5-0.2l0.6,1.5l-0.5,0.2
			c-0.3,0.1-0.8,0.3-1.1,0.4c-0.4,0.1-0.8,0.2-1.2,0.3c-0.3,0.1-0.9,0.2-1.2,0.3S42.4,40,42,40.1c-0.3,0-0.9,0.1-1.3,0.1
			s-0.9,0-1.3,0h-0.6l0.1,0.2c0,0-0.2,0.1-0.5,0.3s-0.8,0.4-1.2,0.5c-0.3,0.1-0.9,0.3-1.2,0.5s-0.9,0.3-1.3,0.4l-1.3,0.4l-0.3,0.1
			c-0.4,0.1-0.8,0.2-1.1,0.3c-0.4,0.1-1,0.3-1.4,0.4c-0.4,0.1-1,0.3-1.3,0.4c-0.4,0.1-0.9,0.3-1.3,0.4c-0.3,0.1-0.9,0.3-1.3,0.5
			c-0.3,0.1-0.9,0.4-1.2,0.5c-0.3,0.1-0.8,0.4-1.1,0.6c-0.3,0.2-0.7,0.4-1,0.7c-0.3,0.2-0.6,0.5-0.9,0.7c-0.5,0.5-0.9,1.1-1.3,1.7
			c-0.1,0.3-0.3,0.5-0.3,0.5l-1.4-0.7c0,0,0.1-0.2,0.3-0.5c0.2-0.4,0.4-0.8,0.7-1.1c0.3-0.4,0.6-0.7,0.9-1c0.3-0.3,0.7-0.6,1-0.9
			c0.4-0.3,0.7-0.5,1.1-0.7c0.3-0.2,0.9-0.5,1.2-0.7c0.4-0.2,0.9-0.4,1.3-0.6s1-0.4,1.3-0.5c0.4-0.1,1-0.3,1.4-0.5
			c0.4-0.1,1-0.3,1.4-0.4c0.4-0.1,1-0.3,1.4-0.4c0.3-0.1,0.7-0.2,1.1-0.3L33,41c0.4-0.1,0.9-0.3,1.3-0.4c0.3-0.1,0.9-0.3,1.2-0.4
			c0.1-0.1,0.3-0.1,0.5-0.2c-0.2,0-0.3,0-0.5-0.1c-0.4-0.1-0.9-0.1-1.3-0.2c-0.4-0.1-0.9-0.2-1.3-0.2s-0.9-0.2-1.2-0.3
			c-0.3-0.1-0.9-0.2-1.2-0.3s-0.8-0.2-1.1-0.3c-0.3-0.1-0.8-0.2-1.1-0.3c-0.3-0.1-0.5-0.2-0.5-0.2l0.4-1.1c-0.2,0.2-0.4,0.3-0.6,0.4
			c-0.2,0.1-0.5,0.1-0.7,0.1h0c-0.1,0-0.6-0.1-1.1-0.1l-0.7-0.1c-0.6-0.1-1.3-0.1-1.9-0.1h-0.4c-0.6,0-1.3,0-1.9,0.1l-0.1,0
			c-0.6,0.1-1.2,0.2-1.8,0.4c-0.6,0.2-1.1,0.4-1.7,0.7c-0.5,0.3-1,0.5-1.5,0.9c-0.4,0.3-1,0.7-1.3,1s-0.9,0.8-1.2,1.1
			c-0.3,0.3-0.8,0.9-1.1,1.2c-0.3,0.4-0.8,0.9-1.1,1.3L10,45.1c-0.3,0.3-0.8,0.9-1.1,1.2c-0.3,0.3-0.8,0.8-1.2,1.1
			c-0.4,0.4-0.8,0.7-1.3,1c-0.4,0.3-0.9,0.6-1.4,0.8c-0.5,0.2-1,0.4-1.6,0.5L2.7,50z M50.8,41.1l-0.8-1.3l1.7-1.1
			c0.5-0.3,1.1-0.7,1.6-1.1l0.6-0.5c0.5-0.4,0.9-0.9,1.4-1.4l0.3-0.4c0.4-0.5,0.8-1,1.1-1.6l0.1-0.3c0.3-0.6,0.6-1.2,0.9-1.8l0-0.1
			c0.2-0.6,0.4-1.2,0.5-1.9c0.1-0.6,0.1-1.2,0.1-1.9c0-0.6-0.1-1.2-0.3-1.8c-0.2-0.6-0.4-1.1-0.6-1.6c-0.3-0.5-0.6-1-1-1.4
			c-0.4-0.4-0.9-0.8-1.4-1.2l0,0c-0.5-0.3-1.1-0.6-1.6-0.9l-0.3-0.1c-0.6-0.2-1.2-0.4-1.8-0.5l-0.5-0.1c-0.6-0.1-1.2-0.1-1.9-0.1
			l-0.9,0c-0.6,0-1.3,0.1-1.9,0.2l-1.4,0.2c-0.6,0.1-1.2,0.3-1.9,0.4l-2.7,0.8l-0.5-1.5l2.7-0.8c0.7-0.2,1.4-0.3,2.1-0.5l1.3-0.2
			c0.7-0.1,1.4-0.2,2.1-0.2l0.9,0c0.7,0,1.4,0.1,2.1,0.2l0.5,0.1c0.7,0.1,1.4,0.3,2.1,0.6l0.2,0.1c0.7,0.3,1.3,0.6,2,1l0,0
			c0.6,0.4,1.2,0.9,1.7,1.4c0.5,0.5,0.9,1.1,1.2,1.7c0.3,0.6,0.6,1.3,0.8,2c0.2,0.7,0.3,1.4,0.3,2.1c0,0.7,0,1.5-0.2,2.2
			c-0.1,0.7-0.3,1.5-0.6,2.2l0,0.1c-0.3,0.7-0.6,1.4-1,2L58,34.5c-0.4,0.6-0.8,1.2-1.3,1.8l-0.3,0.4c-0.5,0.6-1,1.1-1.5,1.5
			l-0.6,0.5c-0.6,0.5-1.1,0.9-1.7,1.3L50.8,41.1z M1.2,36.7c-0.1,0-0.3,0-0.4-0.1c-0.3-0.1-0.5-0.3-0.6-0.6C0.1,35.9,0,35.7,0,35.5
			c0-0.2,0-0.4,0-0.6c0-0.2,0.1-0.5,0.2-0.7c0.1-0.3,0.2-0.5,0.3-0.8c0.1-0.2,0.2-0.6,0.3-0.9c0.1-0.3,0.3-0.7,0.4-0.9
			s0.3-0.7,0.5-1s0.4-0.7,0.6-1s0.5-0.7,0.6-1c0.2-0.3,0.5-0.7,0.7-1s0.5-0.7,0.7-1c0.2-0.3,0.6-0.7,0.8-1c0.2-0.3,0.6-0.7,0.8-0.9
			c0.2-0.3,0.6-0.7,0.8-0.9s0.6-0.6,0.9-0.8s0.7-0.5,0.9-0.7s0.7-0.5,0.9-0.6c0.3-0.1,0.7-0.4,0.9-0.5c0.3-0.1,0.6-0.2,1-0.3
			c0.3-0.1,0.7-0.1,1-0.1c0.3,0,0.7,0,1,0.1c0.3,0.1,0.7,0.2,1,0.4c0.3,0.2,0.6,0.4,0.9,0.6c0.3,0.3,0.6,0.5,0.8,0.9
			c0.3,0.4,0.5,0.7,0.7,1.1c0.2,0.3,0.3,0.6,0.3,0.6l-1.4,0.8c0,0-0.1-0.3-0.3-0.6c-0.2-0.3-0.4-0.6-0.6-0.9
			c-0.2-0.2-0.4-0.4-0.6-0.6c-0.2-0.2-0.4-0.3-0.6-0.4c-0.2-0.1-0.4-0.2-0.6-0.2c-0.2,0-0.4-0.1-0.6-0.1c-0.2,0-0.4,0-0.7,0.1
			c-0.2,0.1-0.5,0.1-0.7,0.2c-0.2,0.1-0.5,0.3-0.8,0.4c-0.2,0.1-0.6,0.3-0.8,0.5c-0.3,0.2-0.5,0.4-0.8,0.6c-0.2,0.2-0.6,0.5-0.8,0.7
			c-0.2,0.2-0.6,0.6-0.8,0.8c-0.2,0.3-0.6,0.6-0.8,0.9c-0.2,0.2-0.5,0.7-0.7,0.9c-0.2,0.3-0.5,0.7-0.7,1c-0.2,0.3-0.5,0.7-0.7,1
			c-0.2,0.3-0.4,0.7-0.6,1c-0.2,0.3-0.4,0.7-0.5,0.9c-0.1,0.3-0.3,0.7-0.5,0.9c-0.1,0.2-0.3,0.6-0.4,0.9c-0.1,0.2-0.2,0.6-0.3,0.8
			s-0.2,0.5-0.2,0.7c0,0.1-0.1,0.2-0.1,0.4c0.1-0.1,0.2-0.1,0.3-0.2c0.2-0.1,0.5-0.4,0.7-0.6c0.2-0.2,0.6-0.6,0.9-0.9l0.5-0.5
			l1.1,1.1l-0.5,0.5c-0.3,0.3-0.7,0.7-0.9,0.9c-0.3,0.2-0.6,0.5-0.8,0.7c-0.2,0.2-0.5,0.3-0.7,0.5c-0.2,0.1-0.4,0.2-0.7,0.3
			C1.4,36.7,1.3,36.7,1.2,36.7z M66.5,22.6L66.5,22c0-0.4-0.1-0.7-0.2-1.1c-0.1-0.3-0.2-0.7-0.3-1c-0.1-0.3-0.3-0.6-0.5-0.9
			c-0.2-0.3-0.4-0.5-0.6-0.8c-0.2-0.2-0.5-0.5-0.7-0.7c-0.3-0.2-0.5-0.4-0.8-0.6c-0.2-0.1-0.7-0.3-0.9-0.4s-0.7-0.2-0.9-0.3
			c-0.3-0.1-0.7-0.1-1-0.2c-0.3,0-0.6,0-1,0c-0.3,0-0.6,0.1-1,0.2c-0.3,0.1-0.6,0.2-0.9,0.3c-0.3,0.1-0.6,0.3-0.9,0.5
			c-0.3,0.2-0.6,0.4-0.8,0.7c-0.3,0.3-0.5,0.6-0.7,0.9l-0.4,0.6l-1.3-0.9l0.4-0.6c0.3-0.4,0.6-0.8,0.9-1.1c0.3-0.3,0.7-0.6,1-0.9
			c0.4-0.2,0.7-0.4,1.1-0.6c0.8-0.3,1.6-0.6,2.4-0.6c0.3,0,0.9,0,1.2,0c0.8,0.1,1.6,0.3,2.4,0.6c0.4,0.2,0.7,0.3,1.1,0.5
			c0.7,0.4,1.4,0.9,1.9,1.5c0.2,0.3,0.6,0.7,0.8,1c0.2,0.4,0.4,0.7,0.6,1.1c0.2,0.4,0.3,0.8,0.4,1.2c0.1,0.4,0.2,0.9,0.2,1.3
			l0.1,0.6L66.5,22.6z M35,22.6l-1.4-0.7l0.5-0.9c0.3-0.6,0.6-1.2,0.8-1.8c0.2-0.5,0.5-1.3,0.6-1.8s0.3-1.3,0.3-1.8
			c0.1-0.5,0.1-1.3,0.1-1.8c0-0.5-0.1-1.2-0.1-1.7c-0.1-0.5-0.2-1.1-0.3-1.6c-0.2-0.5-0.3-1-0.5-1.5c-0.2-0.5-0.5-0.9-0.8-1.3
			c-0.3-0.4-0.6-0.8-1-1.2c-0.4-0.4-0.7-0.7-1.2-1c-0.4-0.3-0.9-0.6-1.4-0.8c-0.5-0.2-1-0.4-1.6-0.6c-0.6-0.1-1.2-0.2-1.7-0.3h0
			c-0.6,0-1.2,0-1.9,0l-0.2,0c-0.6,0-1.3,0.1-1.9,0.3L22,4.3l-0.3-1.5l1.4-0.3c0.7-0.1,1.4-0.2,2.1-0.3l0.2,0c0.7,0,1.4,0,2.1,0h0
			c0.7,0.1,1.4,0.2,2,0.3c0.6,0.2,1.2,0.4,1.8,0.7C32,3.4,32.5,3.7,33,4.1c0.4,0.3,0.7,0.6,1.1,0.9l0.3-0.3c0.3-0.2,0.6-0.4,0.9-0.6
			c0.3-0.2,0.7-0.4,0.9-0.5c0.3-0.1,0.7-0.3,1-0.4c0.3-0.1,0.7-0.3,1-0.3c0.3-0.1,0.7-0.2,1-0.3c0.3-0.1,0.7-0.1,1-0.2
			c0.3,0,0.7-0.1,1-0.1c0.3,0,0.7-0.1,1-0.1c0.3,0,0.7,0,1,0s0.7,0,1,0h1c0.3,0,0.7,0,0.9,0l1.1,0c0.3,0,0.7,0,1,0h1.5l0,1.6h-1.5
			c-0.3,0-0.7,0-1,0l-1.1,0c-0.3,0-0.7,0-0.9,0h-1c-0.3,0-0.7,0-1,0c-0.3,0-0.7,0-1,0c-0.3,0-0.7,0.1-1,0.1c-0.3,0-0.6,0.1-0.9,0.1
			c-0.3,0-0.7,0.1-0.9,0.2c-0.3,0.1-0.7,0.2-0.9,0.2c-0.2,0.1-0.6,0.2-0.9,0.3c-0.2,0.1-0.6,0.3-0.8,0.4c-0.3,0.1-0.5,0.3-0.8,0.5
			c-0.3,0.2-0.5,0.3-0.8,0.5l-0.3,0.2c0.1,0.2,0.3,0.4,0.4,0.5c0.3,0.5,0.6,1,0.9,1.6c0.2,0.6,0.5,1.1,0.6,1.7
			c0.2,0.6,0.3,1.2,0.4,1.8c0.1,0.6,0.1,1.3,0.1,1.9c0,0.7,0,1.3-0.1,2c-0.1,0.7-0.2,1.3-0.4,2c-0.1,0.5-0.4,1.4-0.6,2
			c-0.3,0.7-0.6,1.3-0.9,2L35,22.6z M37.9,20.7L37.6,19c-0.1-0.8-0.2-1.5-0.2-2.3v-0.2c0-0.7,0.1-1.5,0.2-2.2c0.1-0.7,0.3-1.4,0.6-2
			c0.3-0.6,0.6-1.2,1-1.7c0.4-0.5,0.8-1,1.3-1.4c0.5-0.4,1-0.8,1.6-1.1c0.6-0.3,1.1-0.6,1.7-0.8c0.6-0.2,1.3-0.4,1.9-0.5
			c0.5-0.1,1.4-0.3,2-0.3h0.1c0.6-0.1,1.5-0.1,2-0.1h0.1c0.6,0,1.5,0,2.1,0h0.1c0.6,0,1.5,0.1,2,0.1l0.2,0c0.6,0.1,1.5,0.1,2,0.2
			l0.2,0c0.5,0.1,1.4,0.2,2,0.3l0.1,0c0.6,0.1,1.5,0.3,2,0.3l1,0.2l-0.3,1.6l-1-0.2c-0.5-0.1-1.4-0.3-2-0.3l-0.1,0
			c-0.6-0.1-1.4-0.2-2-0.3l-0.2,0c-0.5-0.1-1.4-0.2-2-0.2l-0.2,0c-0.5-0.1-1.4-0.1-2-0.1h-0.1c-0.5,0-1.4,0-1.9,0h-0.1
			c-0.5,0-1.4,0.1-1.9,0.1h-0.1c-0.5,0.1-1.4,0.2-1.8,0.3c-0.5,0.1-1.3,0.3-1.7,0.5c-0.4,0.2-1.1,0.5-1.5,0.7
			c-0.5,0.3-0.9,0.6-1.3,0.9c-0.4,0.3-0.7,0.7-1.1,1.1c-0.3,0.4-0.6,0.9-0.8,1.4c-0.2,0.6-0.4,1.1-0.5,1.7c-0.1,0.6-0.2,1.3-0.2,1.9
			v0.2c0,0.7,0.1,1.4,0.1,2l0.3,1.7L37.9,20.7z M7.2,11.8l-0.6-1.5c0,0,0.2-0.1,0.5-0.2C7.3,10,7.7,9.8,8,9.7
			c0.2-0.1,0.6-0.4,0.9-0.5s0.6-0.4,0.8-0.6c0.2-0.2,0.6-0.4,0.8-0.6s0.6-0.5,0.8-0.7c0.1-0.1,0.3-0.3,0.5-0.4L12,6.7
			c0.2-0.2,0.6-0.5,0.8-0.7s0.6-0.5,0.8-0.7c0.2-0.2,0.6-0.5,0.8-0.6c0.3-0.2,0.6-0.4,0.9-0.6C15.6,4,16,3.9,16.3,3.7
			c0.3-0.2,0.7-0.3,1-0.4c0.1,0,0.3-0.1,0.4-0.1h0c0,0,0.1-0.1,0.1-0.3C18,2.6,18.1,2.3,18.3,2c0.2-0.3,0.5-0.6,0.8-0.8
			c0.3-0.2,0.6-0.5,0.9-0.6c0.4-0.2,0.7-0.3,1.1-0.4C21.4,0.1,21.7,0,21.7,0L22,1.5c0,0-0.2,0.1-0.5,0.1c-0.3,0.1-0.5,0.2-0.8,0.3
			c-0.2,0.1-0.4,0.3-0.6,0.4c-0.2,0.2-0.3,0.3-0.5,0.5c0.3,0,0.8,0,1.1,0c0.3,0,0.6,0,0.6,0l-0.1,1.6c0,0-0.3,0-0.6,0
			c-0.3,0-0.7,0-1,0c-0.3,0-0.6,0.1-0.9,0.1c-0.3,0.1-0.7,0.2-0.9,0.2C17.5,4.9,17.2,5,17,5.1c-0.2,0.1-0.6,0.3-0.8,0.4
			c-0.2,0.1-0.6,0.3-0.8,0.5c-0.2,0.1-0.6,0.4-0.8,0.6c-0.2,0.2-0.6,0.5-0.8,0.6l-0.8,0.7l-0.3,0.3c-0.2,0.1-0.4,0.3-0.5,0.4
			c-0.2,0.2-0.6,0.5-0.8,0.7s-0.6,0.5-0.9,0.7c-0.2,0.2-0.6,0.5-0.9,0.6c-0.3,0.2-0.7,0.4-1,0.6s-0.7,0.4-1,0.5
			C7.4,11.7,7.2,11.8,7.2,11.8z"/>
		<path id="Path_3786" class="st1" d="M46.9,46.4l-3.1-4.7l-5.7-7.4l-13.9-2.4l-7.1,2.3l-8.1-1.8l0.2-0.9l7.8,1.7l5.7-1.8L17.5,27
			l-7.9-2.3L1.8,25l-0.1-0.9l7.8-0.4l8.3,2.4l5.7,4.7l-0.4,0.4l0.3-0.1L24.9,20l0.1,0l-3.3-3.1L15.4,10l-8.5,4.3l-0.4-0.9l9.2-4.6
			l6.9,7.5l3.1,3l16,2.8L39,33.5l7.7,4.9l5.6,6.1l-0.7,0.7l-5.5-6l-5.9-3.8l4.5,5.9l3.1,4.7L46.9,46.4z M24.5,31L38,33.3l2.5-10.5
			l-14.6-2.5L24.5,31z"/>
		<path id="Path_3787" class="st1" d="M26.9,19.9c-0.1-0.7-0.7-1.2-1.4-1.2s-1.2,0.7-1.2,1.4c0.1,0.7,0.6,1.2,1.3,1.2
			C26.4,21.3,26.9,20.6,26.9,19.9C26.9,19.9,26.9,19.9,26.9,19.9z"/>
		<path id="Path_3788" d="M22.5,16.4c0-0.4-0.3-0.7-0.7-0.7c-0.4,0-0.7,0.3-0.8,0.7c0,0.4,0.3,0.7,0.7,0.8
			C22.1,17.2,22.5,16.9,22.5,16.4C22.5,16.4,22.5,16.4,22.5,16.4z"/>
		<path id="Path_3789" class="st1" d="M16.7,9c0-0.7-0.6-1.2-1.3-1.1c-0.7,0-1.2,0.6-1.1,1.3c0,0.6,0.6,1.1,1.2,1.1
			C16.2,10.3,16.7,9.7,16.7,9C16.7,9,16.7,9,16.7,9z"/>
		<path id="Path_3790" class="st1" d="M25,31.4c0-0.6-0.5-1-1.1-1c-0.6,0-1,0.5-1,1.1c0,0.6,0.5,1,1.1,1C24.6,32.5,25,32,25,31.4z"
			/>
		<path id="Path_3791" class="st1" d="M42.3,22.4c-0.1-0.8-0.7-1.4-1.5-1.3s-1.4,0.7-1.3,1.5c0.1,0.7,0.7,1.3,1.4,1.3
			C41.7,23.9,42.4,23.3,42.3,22.4z"/>
		<path id="Path_3792" class="st1" d="M39.7,33.7c-0.1-0.7-0.7-1.3-1.4-1.2c-0.7,0.1-1.3,0.7-1.2,1.4c0.1,0.7,0.6,1.2,1.3,1.2
			C39.2,35.1,39.8,34.5,39.7,33.7C39.7,33.7,39.7,33.7,39.7,33.7z"/>
		<path id="Path_3793" class="st1" d="M47.2,38.8c0-0.6-0.4-1.1-1-1.1c-0.6,0.1-1.1,0.6-1,1.2c0,0.5,0.5,1,1,1
			C46.8,39.9,47.2,39.4,47.2,38.8L47.2,38.8z"/>
		<path id="Path_3794" class="st1" d="M52.3,44.2c0-0.5-0.4-1-0.9-1c-0.5,0-1,0.4-1.1,0.9c0,0.5,0.4,1,0.9,1.1
			C51.8,45.2,52.3,44.8,52.3,44.2C52.3,44.3,52.3,44.2,52.3,44.2z"/>
		<path id="Path_3795" class="st1" d="M44.8,41.7c0-0.4-0.3-0.7-0.7-0.7c-0.4,0-0.7,0.4-0.7,0.8c0,0.4,0.3,0.6,0.7,0.7
			C44.5,42.4,44.8,42,44.8,41.7z"/>
		<path id="Path_3796" class="st1" d="M47.9,46.6c0-0.4-0.3-0.7-0.7-0.7c-0.4,0-0.7,0.4-0.7,0.8c0,0.4,0.3,0.6,0.7,0.7
			C47.6,47.3,47.9,47,47.9,46.6z"/>
		<path id="Path_3797" d="M17.7,33.5c0-0.3-0.2-0.5-0.5-0.5c-0.3,0-0.6,0.2-0.6,0.5c0,0.3,0.2,0.6,0.5,0.6
			C17.4,34.1,17.6,33.9,17.7,33.5C17.7,33.6,17.7,33.5,17.7,33.5z"/>
		<path id="Path_3798" class="st1" d="M18.6,26.9c0-0.5-0.4-1-0.9-1c-0.5,0-1,0.4-1.1,0.9c0,0.5,0.4,1,0.9,1.1
			C18.1,27.9,18.5,27.5,18.6,26.9C18.6,27,18.6,26.9,18.6,26.9z"/>
		<path id="Path_3799" class="st1" d="M10.2,24c0-0.4-0.3-0.7-0.7-0.7c-0.4,0-0.7,0.3-0.8,0.7c0,0.4,0.3,0.7,0.7,0.8
			S10.1,24.4,10.2,24C10.2,24,10.2,24,10.2,24z"/>
		<path id="Path_3800" class="st2" d="M10.1,31.6c0-0.6-0.5-1-1.1-1c-0.6,0-1,0.5-1,1.1c0,0.6,0.5,1,1.1,1
			C9.6,32.7,10.1,32.2,10.1,31.6z"/>
		<path id="Path_3801" class="st1" d="M2.6,24.6c0-0.5-0.3-0.8-0.8-0.9c-0.5,0-0.8,0.5-0.8,1c0,0.4,0.4,0.8,0.8,0.8
			C2.3,25.4,2.6,25,2.6,24.6C2.6,24.6,2.6,24.6,2.6,24.6L2.6,24.6z"/>
		<path id="Path_3802" class="st1" d="M8.1,13.8c-0.1-0.8-0.7-1.4-1.5-1.3c-0.8,0.1-1.4,0.7-1.3,1.5c0.1,0.7,0.7,1.3,1.4,1.3
			C7.5,15.3,8.2,14.6,8.1,13.8z"/>
	</g>
</g>
<g id="JYWEfN_00000016777136064678112490000010725716087421272461_">
	<g>
		<path class="st1" d="M164.9,28.9c0,3.7,0,7.4,0,11.1c0,2-0.5,4-1.4,5.9c-1,2-2.4,3.5-4.5,4.3c-5.5,2.1-11,2.1-16.5-0.4
			c-1.5-0.7-2.7-1.7-3.5-3.1c-0.9-1.6-0.6-3.2,0.5-4.1c1.2-0.9,2.8-0.8,4.1,0.4c0.6,0.6,1.2,1.2,1.7,1.8c2.2,2.2,7.3,2.8,9.9,1
			c0.8-0.6,1.7-1.6,1.9-2.5c0.4-1.9,0.4-4,0.6-6c0-0.4-0.2-0.6-0.6-0.3c-0.2,0.1-0.4,0.4-0.5,0.5c-5.8,5.4-14.4,3.8-17.6-3.6
			c-2-4.6-2.2-9.5-0.3-14.3c3.1-7.7,13.2-8.9,18.2-3.5c0.2,0.3,0.4,0.5,0.7,0.7c0.1,0.1,0.4-0.1,0.5-0.2c0.2-0.6,0.2-1.2,0.4-1.7
			c0.5-1.5,1.5-2.2,3-2.2c1.5,0,2.4,0.7,2.8,2.3c0.3,1,0.3,2,0.3,3C165,21.6,164.9,25.3,164.9,28.9
			C164.9,28.9,164.9,28.9,164.9,28.9L164.9,28.9z M144.4,26.3c0.3,1.6,0.4,2.9,0.7,4.2c0.8,2.7,2.5,4.4,5.3,4.7
			c2.7,0.3,4.7-0.8,6.2-3c2-3,1.8-8.8-0.4-11.7c-1.4-1.9-3.4-2.8-5.7-2.6c-2.4,0.3-4.3,1.6-5.1,3.9C145,23.4,144.8,24.9,144.4,26.3
			L144.4,26.3z"/>
		<path class="st1" d="M75.7,22c0-4.1,0-8.3,0-12.4c0-0.6,0-1.2,0-1.8C75.9,4.3,77,3,80.5,2.9c4.6-0.1,9.3-0.1,13.9,0.1
			c5.4,0.3,9.2,3.7,10,9c0.9,6-1.5,12-9.3,13.3c-1.8,0.3-3.7,0.4-5.5,0.5c-1.7,0.1-3.4,0-5.1,0c-0.9,0-1.2,0.4-1.2,1.2
			c0,2.8,0,5.6,0,8.3c0,0.9,0,1.9-0.2,2.8c-0.4,1.8-1.9,2.9-3.6,2.9c-1.8,0-3-0.9-3.5-2.7c-0.3-1-0.3-2-0.3-3
			C75.7,30.9,75.7,26.4,75.7,22L75.7,22z M87.7,8.4c0,0.1,0,0.1,0,0.2c-1,0-2,0-3,0c-1-0.1-1.3,0.4-1.3,1.4c0,2.9,0,5.9,0,8.8
			c0,0.9,0.3,1.4,1.3,1.4c2.5-0.1,5-0.2,7.5-0.4c0.7-0.1,1.4-0.4,2.1-0.8c2.1-1.2,2.6-3.1,2.3-5.4s-1.2-3.9-3.5-4.4
			C91.3,8.8,89.5,8.6,87.7,8.4L87.7,8.4z"/>
		<path class="st1" d="M195.5,27.4c-0.3,3.2-0.3,6.4,0.7,9.5c0.6,1.9,0,3.1-1.5,3.9c-1.4,0.7-2.7,0.4-4-1c-0.7-0.7-1.3-2-2-2.1
			c-0.8-0.1-1.7,0.9-2.6,1.4c-2.8,1.7-5.9,2.3-9.2,2c-5.2-0.6-8.5-5.5-6.9-10.2c0.8-2.2,2.4-3.7,4.5-4.4c2.6-0.8,5.2-1.4,7.8-2
			c1.6-0.4,3.3-0.8,4.9-1.2c0.8-0.2,1.1-0.6,1-1.5c-0.2-1.8-1-3.9-3.6-4.1c-3.5-0.3-6.3,0.3-8.3,3.5c-0.4,0.7-1.1,1.4-1.8,1.6
			c-2,0.5-3.8-0.8-3.6-3c0.2-2.2,1.4-3.8,3.2-4.9c1.6-0.9,3.4-1.6,5.1-2c3.2-0.6,6.6-0.6,9.8,0.3c3.1,0.9,5.2,2.8,5.7,6.1
			C195.2,22,195.2,24.7,195.5,27.4L195.5,27.4z M188.3,29.3c0-0.3,0-0.5,0-0.8c0-1.2-0.2-1.4-1.3-1.1c-2.1,0.5-4.3,0.9-6.4,1.5
			c-1,0.3-1.9,0.7-2.7,1.2c-1.5,1.1-1.7,2.9-0.6,4.5c0.8,1.1,1.9,1.7,3.2,1.8C185,36.9,188.2,34,188.3,29.3L188.3,29.3z"/>
		<path class="st1" d="M122.4,28.6c-2.4,0-4.7,0-7.1,0c-0.9,0-1.2,0.4-1.1,1.3c0.4,4.5,4.2,7.9,9.1,6.3c1.5-0.5,2.9-1.7,4.3-2.6
			c0.6-0.4,1-0.9,1.5-1.3c1-0.7,2-0.8,3.1-0.2c0.8,0.5,1.2,1.7,0.7,3c-0.3,0.8-0.9,1.7-1.5,2.3c-1.5,1.7-3.4,2.7-5.6,3.3
			c-3.3,0.9-6.7,0.9-10-0.1c-4.2-1.3-6.9-4.1-8.2-8.3c-1-3.5-1-7,0-10.5c1.3-4.3,4.1-7.3,8.6-8.5c4.6-1.2,9-1,12.9,2.2
			c2.9,2.4,4.4,5.5,4.3,9.3c0,2.2-0.8,3.3-3,3.7c-1.1,0.2-2.2,0.2-3.3,0.2C125.6,28.6,124,28.6,122.4,28.6L122.4,28.6L122.4,28.6z
			 M120.5,24.7c1.8,0,3.5,0,5.3,0c0.5,0,1.1-0.1,1-0.8c-0.4-3.2-1.9-6.1-6-6.3c-3.5-0.2-6.6,2.8-6.5,6.3c0,0.6,0.3,0.9,0.9,0.9
			C116.9,24.7,118.7,24.7,120.5,24.7L120.5,24.7z"/>
		<path class="st1" d="M255.7,27c0,3,0,6.1,0,9.1c0,0.8,0,1.5-0.1,2.3c-0.3,1.7-1.3,2.6-2.8,2.7c-1.6,0.1-2.7-0.6-3.3-2.2
			c-0.3-0.6-0.5-1.3-0.7-2c-0.5,0.5-1,0.9-1.5,1.4c-2.8,2.6-6.1,3.2-9.6,2.6c-3.9-0.6-6.6-3.6-6.8-7.7c-0.2-5.6-0.1-11.3-0.1-17
			c0-2.2,1.3-3.5,3.1-3.6c1.7-0.1,3,0.8,3.4,2.4c0.3,1,0.3,2.2,0.4,3.3c0.1,3,0,6.1,0,9.1c0,1.3,0,2.7,0.2,4c0.6,3.7,3.6,5.2,7,3.6
			c2.3-1.1,3.5-2.9,3.5-5.4c0.1-3.7,0.1-7.4,0.1-11.1c0-1.1,0.1-2.2,0.3-3.3c0.4-1.7,1.6-2.6,3.3-2.6c1.6,0,2.9,1,3.2,2.7
			c0.2,0.7,0.1,1.5,0.1,2.3C255.7,20.7,255.7,23.8,255.7,27L255.7,27z"/>
		<path class="st1" d="M212.1,41.1c-2.2,0.1-4.9-0.5-7.5-2c-1.7-1.1-3-2.4-3.4-4.5c-0.3-1.5,0.2-2.8,1.4-3.4
			c1.3-0.6,2.6-0.3,3.6,0.9c0.3,0.3,0.5,0.7,0.7,1c1.7,2.9,4.4,3.8,7.6,3.3c0.9-0.1,1.8-0.5,2.5-1c1.5-1,1.6-3,0.2-4.1
			c-0.8-0.7-1.9-1.2-2.9-1.5c-2.1-0.7-4.4-1.2-6.5-2c-1.3-0.4-2.5-1-3.6-1.8c-3.4-2.4-3.9-6.7-1.2-9.9c1.6-1.9,3.8-2.8,6.1-3.3
			c3.3-0.6,6.6-0.3,9.7,0.9c1.6,0.6,3,1.6,4,3c1.1,1.6,1,3.3-0.2,4.3c-1.2,1-3,0.9-4.4-0.4c-0.7-0.6-1.3-1.4-1.9-2
			c-1.9-1.9-4.2-1.9-6.6-1.2c-1.1,0.4-1.9,1.1-1.9,2.4c0,1.2,0.7,1.9,1.7,2.3c1.6,0.6,3.2,1,4.8,1.6c2.1,0.7,4.2,1.2,6.2,2.1
			c2,0.9,3.6,2.2,4.2,4.5c0.9,3.1-0.6,7-3.5,8.8C219.1,40.5,216.4,41.1,212.1,41.1L212.1,41.1z"/>
		<path class="st1" d="M273.3,41.1c-3.1,0.1-5.9-0.5-8.5-2.1c-1.7-1.1-2.9-2.5-3.3-4.6c-0.3-1.4,0.3-2.6,1.4-3.2
			c1.3-0.6,2.6-0.3,3.6,0.8c0.4,0.4,0.7,1,1,1.5c2.2,3.3,5.3,3.3,8,2.9c0.6-0.1,1.3-0.5,1.8-0.9c1.5-1.1,1.7-3,0.3-4.1
			c-0.8-0.7-1.8-1.2-2.8-1.5c-2.2-0.8-4.5-1.3-6.7-2.1c-1.3-0.4-2.5-1.1-3.6-1.8c-3.2-2.3-3.7-6.5-1.2-9.6c1.7-2.1,4-3.1,6.5-3.5
			c3.1-0.5,6.2-0.3,9.2,0.8c1.8,0.7,3.3,1.7,4.4,3.3c1,1.5,0.9,3.2-0.3,4.1c-1.1,0.9-3.2,1-4.4-0.3c-0.6-0.6-1.2-1.2-1.7-1.9
			c-1.8-2-4.1-2.1-6.5-1.5c-1.5,0.4-2.2,1.3-2.2,2.4c0,1.3,0.8,2,1.9,2.4c1.6,0.6,3.2,1,4.8,1.5c2,0.6,4,1.2,6,2.1
			c2,0.9,3.5,2.2,4.2,4.4c0.8,2.4-0.3,7-3.4,8.8C279.1,40.7,276.2,41.2,273.3,41.1L273.3,41.1z"/>
	</g>
</g>
</svg>
