<?xml version="1.0" encoding="utf-8"?>
<!-- Generator: Adobe Illustrator 26.5.3, SVG Export Plug-In . SVG Version: 6.00 Build 0)  -->
<svg version="1.1" id="Layer_2_00000083771458484531917690000014151358262388880272_"
	 xmlns="http://www.w3.org/2000/svg" xmlns:xlink="http://www.w3.org/1999/xlink" x="0px" y="0px" viewBox="0 0 1581.1 287"
	 style="enable-background:new 0 0 1581.1 287;" xml:space="preserve">
<style type="text/css">
	.st0{fill:#5ED3CA;}
	.st1{fill:#FFFFFF;}
</style>
<g id="pegasus">
	<g>
		<path class="st0" d="M207.8,288.2l-8.3-2.6c0,0,0.4-1.4,1-3.1c0.7-2.2,2.2-5.2,3.6-7.1c1.3-1.7,3.6-4.2,5.4-5.7
			c1.7-1.4,4.6-3.4,6.7-4.6c2-1.2,5.3-2.8,7.5-3.8c2.2-1,5.8-2.4,7.9-3.2c2.2-0.8,5.8-2.1,8.1-2.8c1.6-0.5,3.8-1.3,5.7-1.9l2-0.7
			c2.1-0.7,5.2-1.8,7.1-2.5c1.8-0.7,4.5-1.8,5.9-2.5c1.4-0.6,3.4-1.8,4.3-2.5c0.8-0.6,1.9-1.7,2.2-2.1c0.2-0.3,0.4-1,0.4-1.4
			c0-0.3-0.4-1.5-0.7-2.2c-0.5-0.9-2.1-2.9-3.4-4.2c-1.4-1.4-4.6-4-6.9-5.7l-4.5-3.3l5.1-7.1l4.6,3.3c2.7,1.9,6.1,4.8,7.9,6.5
			c1.6,1.6,3.8,4.3,4.9,6.2c0.9,1.6,1.9,4.4,1.8,6.5c0,2-0.8,4.5-1.9,6.1c-1,1.5-3,3.4-4.3,4.3c-1.4,1-3.8,2.4-5.6,3.3
			c-1.7,0.8-4.6,2-6.6,2.8c-1.9,0.7-5.2,1.9-7.4,2.6l-2,0.7c-1.9,0.6-4.2,1.4-5.7,1.9c-2.1,0.7-5.6,2-7.8,2.8
			c-2.2,0.8-5.6,2.2-7.4,3c-1.9,0.8-4.9,2.4-6.7,3.4c-1.6,0.9-4.2,2.7-5.5,3.8c-1.3,1-3.1,3-3.9,4.1c-0.8,1.1-1.9,3.3-2.3,4.5
			C208.3,286.8,207.8,288.2,207.8,288.2z M15,276.1l-1.9-8.5l4.1-0.9c0.6-0.1,1.2-0.3,1.9-0.5l-5.5-4.5l2.3-2.9
			c1.3-1.6,3.4-4.2,4.7-5.8c1.3-1.7,3.4-4.5,4.8-6.3c1.4-1.8,3.6-4.8,5-6.7c1.4-1.9,3.7-5,5.2-6.9c1.5-1.9,3.9-5,5.4-7
			c1.5-1.9,4-5,5.7-7c1.6-1.9,4.3-5,6-6.8c1.6-1.8,4.4-4.7,6.3-6.5c1.7-1.7,4.7-4.4,6.7-6.1c1.8-1.6,5-4.1,7.1-5.6
			c2-1.5,5.4-3.7,7.6-4.9c2.2-1.3,5.8-3.1,8-4.1c2.3-1,6.1-2.4,8.5-3.2c2.4-0.7,6.1-1.6,8.7-2c-1.9-1.5-3.6-3.1-4.8-4.3
			c-2-2.1-4.5-5.5-5.8-7.8c-1.3-2.3-2.7-6-3.2-8.3c-0.5-2.3-1-6.1-0.9-8.5c0-2.4,0.4-6.1,0.9-8.5c0.5-2.4,1.4-6.1,2.2-8.4
			c0.8-2.3,2.2-6.1,3.1-8.3c0.9-2.1,2.5-5.8,3.6-8.2c1-2.2,2.7-5.8,3.8-8c1-2.2,2.7-5.7,3.6-7.8c0.9-2.1,2.3-5.5,3.1-7.5
			c0.7-1.9,1.7-5.2,2.2-7.1c0.4-1.8,0.9-4.8,1-6.5c0.1-1.6,0-4.3-0.3-5.8c-0.3-1.4-1.1-3.9-1.8-5.2l-0.3-0.5c-1,1.1-2.6,2.5-3.7,3.3
			c-1.2,0.9-3.2,2.2-4.5,2.9c-1.3,0.7-3.5,1.7-4.9,2.3c-1.5,0.6-3.7,1.4-5.2,1.8c-1.4,0.4-3.9,1.1-5.5,1.4c-1.5,0.3-4,0.9-5.7,1.2
			c-1.6,0.3-4.2,0.7-5.8,1c-1.6,0.2-4.2,0.6-5.9,0.9c-1.6,0.2-4.2,0.6-5.9,0.8c-1.6,0.2-4.2,0.6-5.8,0.8c-1.6,0.2-4.1,0.7-5.6,0.9
			c-1.6,0.3-2.9,0.5-2.9,0.5L49,78.1c0,0,1.3-0.2,2.8-0.5c1.6-0.3,4.2-0.7,5.9-1c1.6-0.2,4.3-0.6,5.9-0.9c1.6-0.2,4.2-0.6,5.8-0.8
			c1.6-0.2,4.2-0.6,5.8-0.8c1.5-0.2,4-0.6,5.5-0.9c1.5-0.3,3.9-0.8,5.3-1.1c1.4-0.3,3.6-0.9,4.9-1.3c1.2-0.4,3.3-1.1,4.5-1.5
			c1.2-0.5,3-1.3,4-1.8c1-0.5,2.6-1.5,3.4-2.2c0.8-0.6,2.2-1.8,2.8-2.5c0.6-0.7,1.7-2.1,2.2-2.9c0.5-0.8,1.3-2.5,1.6-3.5
			c0.4-1,0.9-3,1.1-4.2c0.2-1.2,0.4-3.6,0.4-5.1c0-1.7,0-3.1,0-3.1l8.7-0.1c0,0,0,1.4,0,3.2c0,2-0.2,4.8-0.5,6.5
			c-0.3,1.7-0.9,4.3-1.5,5.8c-0.4,1.2-1.2,2.8-1.9,4.1l2.3-1.2l1.6,3.1c1.1,2.1,2.3,5.4,2.7,7.7c0.4,2.3,0.6,5.7,0.5,8
			c-0.1,2.2-0.7,5.7-1.3,8c-0.6,2.2-1.6,5.8-2.5,8c-0.8,2.1-2.2,5.7-3.3,8c-1,2.2-2.6,5.8-3.7,8c-1.1,2.2-2.8,5.8-3.8,8
			c-1.1,2.3-2.6,5.8-3.5,7.9c-0.9,2-2.2,5.5-2.9,7.7c-0.7,2-1.5,5.4-1.9,7.4c-0.4,1.9-0.7,5.1-0.7,6.9c0,1.8,0.3,4.8,0.7,6.5
			c0.4,1.6,1.5,4.5,2.4,6.1c0.9,1.6,3,4.4,4.5,5.9c1.5,1.6,4.8,4.3,7.1,5.8c2.5,1.7,4.6,3.1,4.6,3.1l-0.3,0.4l1.7,0l0.2,8.7
			l-4.6,0.1c-2.3,0-6.2,0.4-8.4,0.7c-2.2,0.3-5.8,1.2-7.9,1.8c-2.1,0.6-5.5,1.9-7.5,2.8c-2,0.9-5.2,2.6-7.2,3.7
			c-1.9,1.1-5,3.2-6.8,4.5c-1.9,1.4-4.9,3.7-6.5,5.2c-1.7,1.4-4.5,4-6.3,5.7c-1.7,1.7-4.4,4.5-6,6.2c-1.6,1.8-4.2,4.7-5.7,6.6
			c-1.6,1.9-4.1,5-5.5,6.7c-1.5,1.9-3.9,5-5.3,6.9c-1.4,1.9-3.7,5-5.1,6.8c-1.4,1.9-3.6,4.9-5,6.7c-1.4,1.8-3.6,4.7-4.9,6.4
			c-1.3,1.7-3.5,4.4-4.8,6l-0.7,0.9c0.8-0.3,1.6-0.6,2.2-0.9c1.9-0.9,4.8-2.5,6.4-3.6c1.7-1.2,4.5-3.3,6.1-4.7
			c1.6-1.4,4.3-4,5.8-5.7c1.6-1.7,4.2-4.6,5.8-6.4c1.6-1.9,4.2-5,5.9-6.9c1.6-1.9,4.4-5.1,6.1-7.1c1.8-2.1,4.8-5.3,6.6-7.1
			c1.9-1.9,5.1-5,7.2-6.8c2.1-1.8,5.7-4.6,8.1-6.2c2.4-1.6,6.4-4,9.1-5.3c2.7-1.3,7.2-3.1,10.3-4.1c3.1-1,8.1-2.1,11.3-2.6l0.8-0.1
			c3.3-0.5,8.4-0.8,11.6-0.8h2.2c3.2,0,8.4,0.4,11.6,0.8l4.1,0.6c2.5,0.3,4.6,0.6,5.5,0.7c0.1,0,0.3-0.1,0.4-0.1
			c0.1-0.1,0.3-0.3,0.4-0.4c0.2-0.3,0.6-1.5,0.8-2.3c0.2-1,0.4-2.8,0.4-3.9c0.1-1.2,0.1-3.3,0-4.5c-0.1-1.3-0.1-2.4-0.1-2.4l8.7-0.4
			c0,0,0.1,1.1,0.1,2.5c0.1,1.4,0.1,3.8,0,5.2c-0.1,1.5-0.3,3.8-0.6,5.2c-0.3,1.4-1,3.4-1.7,4.8c0.5,0.2,1.3,0.4,2.2,0.7
			c1.6,0.5,4.2,1.4,5.7,1.8c1.7,0.5,4.4,1.3,6,1.7c1.7,0.5,4.5,1.2,6.3,1.6c1.8,0.4,4.8,1.1,6.5,1.4c1.7,0.3,4.7,0.9,6.6,1.2
			c1.8,0.3,4.8,0.7,6.7,1c1.9,0.2,4.9,0.6,6.7,0.7c1.8,0.2,4.9,0.4,6.7,0.5c1.9,0.1,4.9,0.2,6.7,0.2c1.8,0,4.9-0.1,6.6-0.2
			c1.8-0.1,4.7-0.3,6.4-0.5c1.8-0.2,4.7-0.6,6.3-0.9c1.6-0.3,4.4-0.8,6-1.2c1.6-0.4,4.2-1.1,5.7-1.6c1.5-0.5,4-1.4,5.4-2.1l2.8-1.2
			l3.5,8l-2.8,1.2c-1.7,0.7-4.4,1.8-6.1,2.3c-1.7,0.6-4.5,1.4-6.4,1.8c-1.9,0.4-4.8,1.1-6.6,1.4c-1.8,0.3-4.8,0.7-6.8,0.9
			c-1.8,0.2-5,0.4-6.9,0.5c-1.9,0.1-5,0.2-7,0.2c-0.9,0-2.1,0-3.3,0l0.6,1.2c0,0-1.3,0.7-2.9,1.5c-1.6,0.8-4.4,2.1-6.4,2.9
			c-1.8,0.8-4.9,1.9-6.8,2.6c-1.9,0.7-5.1,1.7-7.1,2.4c-2,0.6-5.3,1.6-7.3,2.2l-1.4,0.4c-2,0.6-4.4,1.3-6.1,1.8
			c-2.1,0.6-5.4,1.6-7.5,2.2c-2.2,0.6-5.5,1.6-7.4,2.2c-2,0.6-5.2,1.7-7.2,2.4c-1.9,0.7-5.1,1.9-7,2.6c-1.8,0.7-4.8,2-6.5,2.9
			c-1.6,0.8-4.4,2.2-6,3.2c-1.5,0.9-4,2.5-5.4,3.6c-1.3,1-3.5,2.8-4.7,4c-1.1,1.1-3,3.2-3.9,4.5c-0.9,1.2-2.4,3.6-3.1,5
			c-0.8,1.7-1.5,3-1.5,3l-7.8-4c0,0,0.7-1.3,1.5-3c0.9-1.9,2.7-4.7,3.9-6.3c1.2-1.7,3.4-4.1,4.8-5.5c1.4-1.4,3.9-3.5,5.6-4.8
			c1.7-1.3,4.4-3.1,6.2-4.1c1.9-1.1,4.8-2.7,6.7-3.6c2-0.9,5.1-2.3,7.1-3.1c2-0.8,5.3-2,7.3-2.7c2.1-0.7,5.5-1.8,7.5-2.5
			c2-0.6,5.4-1.6,7.6-2.3c2.1-0.6,5.5-1.6,7.6-2.2c1.6-0.5,4.1-1.2,6-1.7l1.4-0.4c2-0.6,5.2-1.6,7.2-2.2c1.9-0.6,5-1.6,6.8-2.3
			c0.8-0.3,1.9-0.7,2.9-1.1c-0.9-0.1-1.8-0.2-2.5-0.3c-2-0.3-5.1-0.7-7-1c-2-0.3-5.1-0.9-6.9-1.3c-1.8-0.4-4.8-1-6.7-1.5
			c-1.8-0.4-4.8-1.2-6.5-1.6c-1.7-0.4-4.5-1.2-6.3-1.8c-1.6-0.5-4.3-1.3-6-1.9c-1.6-0.5-2.8-1-2.8-1l2-6.1c-1,1-2.1,1.8-3.2,2.2
			c-0.7,0.3-2.5,0.9-4.1,0.8c0,0-0.1,0-0.1,0c-0.4,0-3.4-0.4-6.2-0.8l-4.1-0.6c-2.8-0.4-7.6-0.7-10.4-0.7h-2.2
			c-2.8,0-7.5,0.3-10.3,0.7l-0.8,0.1c-2.8,0.4-7.3,1.4-9.9,2.3c-2.7,0.8-6.8,2.5-9.1,3.6c-2.3,1.1-6,3.3-8.1,4.7
			c-2.1,1.4-5.4,4-7.3,5.6c-1.9,1.6-4.9,4.5-6.7,6.3c-1.7,1.7-4.5,4.8-6.3,6.7c-1.7,2-4.4,5.1-6,7c-1.6,1.9-4.3,5.1-5.9,7
			c-1.7,1.9-4.4,5-6,6.7c-1.7,1.8-4.6,4.6-6.4,6.2c-1.8,1.7-4.9,4-6.9,5.4c-2,1.4-5.4,3.3-7.7,4.3c-2.4,1.1-6.2,2.3-8.7,2.9
			L15,276.1z M148.4,199L148.4,199C148.4,199,148.4,199,148.4,199z M149.2,198.8C149.2,198.8,149.2,198.8,149.2,198.8
			C149.2,198.8,149.2,198.8,149.2,198.8z M279.4,227.4l-4.6-7.4l9.6-6c2.4-1.5,6.4-4.4,8.6-6.3l3.2-2.7c2.2-1.9,5.7-5.4,7.6-7.6
			l1.8-2.1c1.9-2.2,4.8-6.2,6.3-8.8l0.8-1.4c1.5-2.5,3.7-7,4.8-9.8l0.2-0.5c1.1-2.8,2.4-7.6,2.9-10.4c0.5-2.9,0.8-7.6,0.8-10.3
			c-0.1-2.7-0.7-7.2-1.4-9.7c-0.7-2.5-2.3-6.6-3.5-8.8c-1.2-2.3-3.8-5.9-5.5-7.8c-1.8-1.9-5.3-4.9-7.5-6.5l-0.2-0.1
			c-2.3-1.6-6.4-3.7-9-4.7l-1.4-0.5c-2.6-1-7.1-2.2-9.8-2.7l-3-0.5c-2.8-0.5-7.4-0.8-10.2-0.8l-5.1,0.1c-2.8,0-7.5,0.4-10.3,0.9
			L247,114c-2.8,0.5-7.5,1.5-10.2,2.4l-15,4.5l-2.5-8.4l15-4.5c3.1-0.9,8.2-2.1,11.3-2.6l7.3-1.2c3.3-0.5,8.4-1,11.6-1l5.1-0.1
			c3.3,0,8.5,0.4,11.7,0.9l3,0.5c3.3,0.6,8.4,1.9,11.5,3.1l1.3,0.5c3.2,1.2,7.9,3.7,10.8,5.6l0.2,0.1c2.9,1.9,6.9,5.4,9.1,7.8
			c2.2,2.4,5.2,6.6,6.8,9.5c1.5,2.8,3.4,7.6,4.2,10.8c0.8,3.2,1.6,8.3,1.7,11.6c0.1,3.3-0.3,8.7-0.9,12.1c-0.6,3.4-2.1,8.7-3.3,12
			l-0.2,0.6c-1.3,3.3-3.7,8.2-5.4,11.2l-0.8,1.4c-1.8,3-5,7.4-7.2,10l-1.8,2.1c-2.2,2.6-5.9,6.3-8.5,8.5l-3.2,2.7
			c-2.6,2.2-6.8,5.3-9.6,7.1L279.4,227.4z M6.6,203.1c-0.7,0-1.5-0.1-2.2-0.3c-1.4-0.5-2.8-1.7-3.5-3.1c-0.6-1.2-0.9-2.7-0.9-3.6
			c-0.1-1,0.1-2.6,0.2-3.5c0.2-1,0.5-2.6,0.9-3.8c0.3-1.1,0.9-3,1.4-4.2c0.5-1.3,1.3-3.4,1.9-4.7c0.6-1.4,1.6-3.6,2.3-5
			c0.7-1.4,1.9-3.8,2.7-5.3c0.8-1.5,2.2-3.9,3.1-5.5c0.9-1.6,2.5-4.1,3.4-5.6c0.9-1.4,2.6-4,3.7-5.6c1.1-1.6,2.9-4.1,4-5.6
			c1.2-1.6,3.1-4.1,4.3-5.4c1.2-1.4,3.2-3.7,4.5-5.2c1.3-1.4,3.3-3.6,4.6-4.9c1.3-1.3,3.4-3.2,4.8-4.4c1.4-1.2,3.6-2.9,5-3.9
			c1.4-1,3.6-2.5,5-3.3c1.5-0.8,3.7-2,5.2-2.6c1.5-0.6,3.8-1.4,5.3-1.7c1.6-0.4,3.9-0.6,5.4-0.7c1.6,0,3.9,0.2,5.4,0.6
			c1.5,0.3,3.8,1.2,5.3,2c1.5,0.8,3.6,2.2,4.9,3.4c1.3,1.1,3.2,3.2,4.4,4.7c1.1,1.5,2.8,4.1,3.9,6.1c0.9,1.7,1.7,3.1,1.7,3.1
			l-7.7,4.2c0,0-0.8-1.4-1.7-3.1c-0.8-1.5-2.3-3.8-3.1-4.9c-0.8-1.1-2.3-2.7-3.2-3.5c-0.8-0.7-2.3-1.8-3.2-2.2
			c-0.8-0.4-2.4-1-3.2-1.2c-0.9-0.2-2.5-0.4-3.4-0.4c-0.9,0-2.7,0.2-3.6,0.4c-1.1,0.2-2.9,0.8-3.9,1.3c-1.1,0.5-3,1.4-4.2,2.1
			c-1.1,0.7-3.1,1.9-4.3,2.8c-1.2,0.8-3.2,2.4-4.4,3.5c-1.2,1-3.2,2.9-4.4,4c-1.2,1.2-3.1,3.2-4.3,4.5c-1.2,1.4-3.1,3.5-4.2,4.9
			c-1.1,1.3-2.9,3.6-4,5.1c-1,1.4-2.8,3.8-3.8,5.3c-1,1.4-2.6,3.8-3.6,5.4c-0.9,1.5-2.4,3.9-3.3,5.3c-0.9,1.5-2.2,3.8-2.9,5.2
			c-0.8,1.4-1.9,3.7-2.6,5c-0.6,1.3-1.6,3.4-2.2,4.7c-0.5,1.3-1.3,3.1-1.7,4.2c-0.4,1.1-0.9,2.7-1.2,3.6c-0.2,0.6-0.4,1.4-0.5,2
			c0.5-0.4,1.2-0.8,1.7-1.2c0.9-0.7,2.6-2.2,3.8-3.3c1.1-1,3.2-3.2,4.7-4.7l2.7-2.8l6.3,6l-2.7,2.8c-1.6,1.7-3.8,3.9-5.1,5.1
			c-1.4,1.3-3.3,2.9-4.3,3.8c-1.1,0.8-2.7,2-3.8,2.6c-0.9,0.5-2.4,1.2-3.6,1.5C8.4,203,7.6,203.1,6.6,203.1z M366.1,125.6l-0.3-3.4
			c-0.1-1.6-0.6-4.3-1-5.8c-0.4-1.5-1.3-4-1.9-5.3c-0.6-1.4-1.9-3.6-2.7-4.8c-0.8-1.2-2.4-3.2-3.4-4.3c-1-1-2.9-2.8-4-3.7
			c-1.1-0.9-3.3-2.4-4.5-3.1c-1.3-0.7-3.6-1.9-4.9-2.4c-1.3-0.5-3.8-1.3-5.2-1.7c-1.4-0.3-3.9-0.7-5.3-0.9c-1.4-0.1-3.9-0.1-5.3,0
			c-1.4,0.1-3.9,0.5-5.3,0.9c-1.4,0.3-3.8,1.2-5.1,1.8c-1.3,0.6-3.6,1.9-4.8,2.7c-1.2,0.9-3.4,2.6-4.5,3.8c-1.1,1.1-3,3.4-4.1,4.9
			l-2.1,3.1l-7.2-5l2.1-3.1c1.4-2,3.6-4.6,5.1-6.1c1.5-1.5,4-3.6,5.7-4.8c1.7-1.1,4.4-2.7,6.2-3.5c1.8-0.8,4.7-1.8,6.6-2.3
			c1.9-0.5,4.8-0.9,6.7-1.1c1.9-0.1,4.9-0.1,6.7,0c1.9,0.2,4.8,0.6,6.6,1.1c1.8,0.4,4.7,1.3,6.4,2c1.7,0.7,4.4,2,6,2.9
			c1.7,1,4.1,2.6,5.6,3.8c1.5,1.2,3.7,3.2,5,4.6c1.3,1.5,3.2,3.8,4.3,5.4c1.1,1.6,2.6,4.2,3.4,6.1c0.8,1.9,1.9,4.8,2.4,6.8
			c0.5,1.9,1.1,5.1,1.2,7.2l0.3,3.4L366.1,125.6z M192.6,125.1l-7.7-4.1l2.7-5.1c1.4-2.6,3.5-7.1,4.5-9.8c1-2.7,2.5-7.2,3.2-9.9
			c0.7-2.7,1.5-7.2,1.9-9.9c0.3-2.6,0.6-7.1,0.6-9.7c0-2.5-0.3-6.8-0.6-9.4c-0.3-2.5-1.2-6.5-1.8-8.8c-0.7-2.3-2-6.1-3-8.2
			c-1-2.1-2.9-5.5-4.2-7.4c-1.3-1.9-3.7-4.9-5.3-6.5c-1.6-1.7-4.5-4.2-6.4-5.5c-1.9-1.3-5.3-3.3-7.5-4.4c-2.2-1-6.1-2.4-8.6-3.1
			c-2.5-0.6-6.8-1.4-9.6-1.7c0,0-0.1,0-0.1,0c-2.8-0.2-7.5-0.3-10.3-0.1l-1.1,0.1c-2.8,0.2-7.6,0.8-10.3,1.4l-7.8,1.6l-1.8-8.5
			l7.8-1.6c3.2-0.7,8.3-1.4,11.5-1.6l1.1-0.1c3.3-0.2,8.3-0.2,11.6,0.1c0,0,0.1,0,0.1,0c3.3,0.3,8.2,1.1,11.2,1.9
			c3,0.8,7.4,2.4,10.1,3.6c2.6,1.2,6.5,3.5,8.8,5.2c1.7,1.2,3.9,3.1,5.8,4.8l1.9-1.5c1.3-1.1,3.5-2.6,4.9-3.5
			c1.4-0.9,3.6-2.1,5.1-2.9c1.4-0.7,3.7-1.7,5.3-2.4c1.4-0.6,3.8-1.4,5.4-1.9c1.5-0.4,3.9-1.1,5.5-1.4c1.5-0.3,3.9-0.8,5.5-1
			c1.5-0.2,4-0.6,5.6-0.7c1.5-0.2,4-0.4,5.6-0.4c1.6-0.1,4.1-0.2,5.6-0.2c1.5,0,4-0.1,5.7-0.1c1.5,0,4.1,0,5.6,0
			c1.4,0,3.6,0.1,5.1,0.1l6.1,0.1c1.5,0,4,0.1,5.5,0.1c1.5,0,4,0,5.5,0c1.5,0,2.8,0,2.8,0l0.1,8.7c0,0-1.2,0-2.7,0
			c-1.6,0-4.1,0-5.7,0c-1.6,0-4.1-0.1-5.7-0.1l-6.1-0.1c-1.5,0-3.7-0.1-5.1-0.1c-1.5,0-4,0-5.5,0c-1.6,0-4,0-5.4,0.1
			c-1.6,0-4,0.1-5.4,0.2c-1.5,0.1-3.9,0.3-5.3,0.4c-1.4,0.1-3.8,0.4-5.1,0.7c-1.4,0.2-3.7,0.7-5,0.9c-1.4,0.3-3.6,0.9-4.8,1.3
			c-1.3,0.4-3.5,1.1-4.7,1.6c-1.2,0.5-3.2,1.4-4.5,2c-1.2,0.6-3.2,1.7-4.3,2.5c-1.2,0.7-3.1,2.1-4.2,3l-1.4,1.1
			c0.8,1.1,1.6,2.1,2.2,3c1.6,2.3,3.7,6.1,4.9,8.7c1.2,2.5,2.7,6.7,3.5,9.4c0.8,2.8,1.7,7.2,2.1,10.1c0.4,2.9,0.7,7.5,0.7,10.5
			c0,3.1-0.3,7.8-0.7,10.8c-0.4,3-1.3,7.9-2.1,11c-0.8,3-2.3,7.9-3.5,10.9c-1.2,3.1-3.4,7.9-5,10.8L192.6,125.1z M208.3,115.1
			l-1.4-9.4c-0.5-3.4-0.9-9-0.9-12.5v-1.2c0-3.6,0.5-9,1.2-12.3c0.7-3.4,2.1-8.3,3.3-11.2c1.2-2.9,3.6-7,5.4-9.4
			c1.8-2.4,4.9-5.7,7.1-7.6c2.2-1.9,6-4.5,8.6-5.9c2.5-1.4,6.8-3.3,9.6-4.3c2.8-1,7.5-2.3,10.5-2.9c2.9-0.6,7.9-1.4,11.1-1.8
			c0.1,0,0.2,0,0.3,0c3.1-0.3,8-0.7,11.1-0.8l0.5,0c3.3-0.1,8.3-0.1,11.3,0.1l0.8,0c3.1,0.1,8.1,0.4,11.2,0.7l0.9,0.1
			c3.2,0.3,8.2,0.8,11.2,1.2l0.9,0.1c2.9,0.4,7.9,1.1,11.1,1.6l0.6,0.1c3.1,0.5,8,1.4,11,1.9l5.6,1.1l-1.6,8.6l-5.6-1
			c-2.9-0.6-7.8-1.4-10.8-1.9l-0.6-0.1c-3.1-0.5-7.9-1.2-10.8-1.6l-0.9-0.1c-2.8-0.4-7.7-0.9-10.8-1.2l-0.9-0.1
			c-3-0.3-7.8-0.6-10.8-0.7l-0.8,0c-2.9-0.1-7.7-0.1-10.7-0.1l-0.5,0c-3,0.1-7.9,0.4-10.7,0.7c-0.1,0-0.2,0-0.4,0
			c-2.9,0.3-7.5,1.1-10,1.6c-2.7,0.6-7,1.8-9.4,2.6c-2.4,0.9-6.2,2.6-8.4,3.7c-2.1,1.1-5.3,3.4-7.1,4.9c-1.7,1.4-4.4,4.3-5.8,6.2
			c-1.4,1.8-3.4,5.4-4.3,7.6c-1,2.3-2.3,6.6-2.8,9.4c-0.5,2.8-1,7.7-1,10.7v1.2c0,3.1,0.4,8.2,0.8,11.2l1.4,9.4L208.3,115.1z
			 M39.6,66.1l-3.4-8c0,0,1.2-0.5,2.7-1.2c1.4-0.6,3.7-1.7,5-2.4c1.3-0.7,3.4-2,4.7-2.8c1.3-0.8,3.4-2.3,4.5-3.1
			c1.2-0.9,3.2-2.4,4.4-3.4c1.2-1,3.2-2.6,4.3-3.6c0.8-0.6,1.8-1.5,2.8-2.4l1.5-1.3c1.2-1,3.2-2.7,4.4-3.7c1.2-1,3.1-2.6,4.4-3.6
			c1.2-1,3.3-2.5,4.6-3.4c1.4-1,3.5-2.3,4.9-3.1c1.3-0.8,3.6-2,5.2-2.7c1.5-0.7,3.9-1.7,5.5-2.2c0.6-0.2,1.4-0.5,2.3-0.7l-0.1,0
			c0,0,0.4-0.8,0.8-1.8c0.5-1.3,1.7-3.3,2.7-4.7c1.1-1.5,2.9-3.5,4.2-4.6c1.4-1.2,3.6-2.7,5.2-3.5c1.7-0.8,4.3-1.8,6.2-2.2
			c1.5-0.4,2.8-0.7,2.8-0.7l2,8.5c0,0-1.3,0.3-2.8,0.7c-1.2,0.3-3.2,1-4.2,1.5c-1,0.5-2.7,1.6-3.5,2.3c-0.7,0.6-1.8,1.8-2.5,2.7
			c1.8-0.1,4.3-0.1,6,0c1.8,0.1,3.3,0.2,3.3,0.2l-0.6,8.7c0,0-1.5-0.1-3.2-0.2c-1.6-0.1-4.2-0.1-5.7,0c-1.4,0.1-3.9,0.4-5.2,0.7
			c-1.4,0.3-3.6,0.9-4.9,1.3c-1.3,0.4-3.4,1.3-4.6,1.9c-1.2,0.6-3.2,1.6-4.5,2.4c-1.1,0.7-3.1,1.9-4.3,2.8c-1.2,0.8-3.1,2.3-4.2,3.1
			c-1.2,1-3.1,2.5-4.2,3.4c-1.2,1-3.1,2.6-4.3,3.6L70.4,46c-1,0.8-2.1,1.8-2.8,2.4c-1.2,1-3.2,2.7-4.5,3.7c-1.3,1-3.4,2.7-4.7,3.6
			c-1.3,1-3.5,2.5-5,3.4c-1.5,1-3.8,2.3-5.3,3.1c-1.5,0.8-4,2-5.7,2.7C40.8,65.6,39.6,66.1,39.6,66.1z"/>
		<path class="st1" d="M257.8,256.5L241,230.8L209.9,190l-76.5-13.4l-39.1,12.6L50,179.5l1.1-5.1l43,9.5l31.2-10.1l-29.3-24.5
			l-43.7-12.6L10,138.8l-0.3-5.2l43.1-2.2l45.6,13.1l31.2,26l-2,2.3l1.8-0.6l7.8-61.1l0.8,0.1l-18-17.3L84.7,56L37.8,79.7L35.5,75
			l50.4-25.5l38,41l17.2,16.5l88.3,15.3l-15.1,63l42.4,27l31,33.4l-3.8,3.6l-30.5-32.9l-32.6-20.8l24.5,32.3l16.9,25.7L257.8,256.5z
			 M134.8,171.5l74.3,13l13.9-58l-80.6-14L134.8,171.5z"/>
		<path class="st1" d="M148,110.5c0-4.2-3.1-7.6-7-7.6s-7,3.4-7,7.6s3.1,7.6,7,7.6S148,114.6,148,110.5L148,110.5z"/>
		<path d="M123.7,91.3c0-2.1-1.6-3.9-3.6-3.9s-3.6,1.7-3.6,3.9s1.6,3.9,3.6,3.9S123.7,93.5,123.7,91.3L123.7,91.3z"/>
		<path class="st1" d="M92,50.6c0-4-3-7.2-6.7-7.2s-6.7,3.2-6.7,7.2s3,7.2,6.7,7.2S92,54.6,92,50.6C92,50.6,92,50.6,92,50.6z"/>
		<path class="st1" d="M137.7,173.7c0-3.4-2.6-6.2-5.8-6.2s-5.8,2.8-5.8,6.2s2.6,6.2,5.8,6.2S137.7,177.1,137.7,173.7L137.7,173.7z"
			/>
		<path class="st1" d="M233,124.5c0-4.6-3.5-8.4-7.8-8.4s-7.8,3.8-7.8,8.4s3.5,8.4,7.8,8.4S233,129.1,233,124.5L233,124.5z"/>
		<path class="st1" d="M218.6,186.5c0-4.3-3.2-7.8-7.2-7.8s-7.2,3.5-7.2,7.8s3.2,7.8,7.2,7.8S218.6,190.8,218.6,186.5L218.6,186.5z"
			/>
		<path class="st1" d="M259.7,214.4c0-3.3-2.5-6.1-5.6-6.1s-5.6,2.7-5.6,6.1s2.5,6.1,5.6,6.1C257.2,220.4,259.7,217.7,259.7,214.4
			L259.7,214.4z"/>
		<path class="st1" d="M287.8,244.3c0-2.9-2.2-5.4-5-5.4s-5,2.4-5,5.4s2.2,5.4,5,5.4S287.8,247.3,287.8,244.3L287.8,244.3z"/>
		<path class="st1" d="M246.6,230.3c0-2.1-1.6-3.9-3.6-3.9s-3.6,1.7-3.6,3.9s1.6,3.9,3.6,3.9S246.6,232.4,246.6,230.3L246.6,230.3z"
			/>
		<path class="st1" d="M263.5,257.3c0-2.1-1.6-3.9-3.6-3.9s-3.6,1.7-3.6,3.9s1.6,3.9,3.6,3.9S263.5,259.4,263.5,257.3L263.5,257.3z"
			/>
		<path d="M97.1,185.5c0-1.7-1.3-3-2.8-3s-2.8,1.4-2.8,3s1.3,3,2.8,3S97.1,187.1,97.1,185.5L97.1,185.5z"/>
		<path class="st1" d="M102.2,149.1c0-2.9-2.2-5.4-5-5.4s-5,2.4-5,5.4s2.2,5.4,5,5.4S102.2,152.1,102.2,149.1L102.2,149.1z"/>
		<path class="st1" d="M56,132.9c0-2.1-1.6-3.9-3.6-3.9s-3.6,1.7-3.6,3.9s1.6,3.9,3.6,3.9S56,135.1,56,132.9L56,132.9z"/>
		<path class="st1" d="M55.4,174.8c0-3.4-2.6-6.2-5.8-6.2s-5.8,2.8-5.8,6.2s2.6,6.2,5.8,6.2S55.4,178.2,55.4,174.8L55.4,174.8z"/>
		<path class="st1" d="M14.3,136.1c0-2.6-2-4.8-4.4-4.8s-4.4,2.1-4.4,4.8s2,4.8,4.4,4.8S14.3,138.8,14.3,136.1L14.3,136.1z"/>
		<path class="st1" d="M44.8,76.9c0-4.6-3.5-8.4-7.8-8.4s-7.8,3.7-7.8,8.4s3.5,8.4,7.8,8.4S44.8,81.5,44.8,76.9L44.8,76.9z"/>
		<g id="JYWEfN">
			<g>
				<path class="st1" d="M911.3,158.6c0,20.6,0.2,41.3-0.1,61.9c-0.1,11.3-2.6,22.3-7.6,32.6c-5.3,11-13.3,19.4-24.8,23.7
					c-30.8,11.6-61.4,11.4-91.5-2.4c-8.3-3.8-15.1-9.5-19.6-17.5c-4.9-8.8-3.5-17.9,3-23c6.5-5.1,15.7-4.4,23,2.1
					c3.5,3.1,6.4,6.9,9.7,10.2c12.5,12.4,40.4,15.7,54.9,5.6c4.7-3.2,9.5-8.7,10.7-14c2.4-10.8,2.5-22.2,3.3-33.3
					c0.2-2.2-1.2-3.4-3.5-1.8c-1.1,0.8-2,2-3,3c-32.2,30.1-80.1,20.9-97.7-19.8c-11.2-25.8-12.1-52.6-1.5-79.4
					c17.1-43,73.4-49.7,101.4-19.6c1.3,1.4,2.4,2.9,3.9,4.1c0.5,0.3,2.5-0.3,2.7-0.9c0.9-3.1,1.2-6.5,2.3-9.5
					c3-8.4,8.6-12.3,16.9-12.2c8.6,0.1,13.5,3.7,15.8,12.9c1.4,5.4,1.8,11.1,1.9,16.7c0.2,20.2,0.1,40.4,0.1,60.5
					C911.5,158.6,911.4,158.6,911.3,158.6L911.3,158.6z M797.7,144.2c1.5,8.7,2,16.2,4,23.4c4.2,14.8,14,24.4,29.5,26.3
					c14.8,1.9,26.4-4.6,34.6-16.8c11.3-16.8,10.2-49-2-65.2c-8-10.6-18.7-15.6-31.7-14.3c-13.6,1.4-23.7,8.8-28.3,21.9
					C800.9,127.8,799.5,136.6,797.7,144.2L797.7,144.2z"/>
				<path class="st1" d="M415.7,120c0-23,0-46,0-69c0-3.3-0.1-6.6,0-9.8c0.9-19.6,7.1-26.6,26.4-26.9c25.8-0.4,51.6-0.5,77.4,0.7
					c30.2,1.4,51.1,20.5,55.4,50.2c4.8,33.6-8.5,66.6-51.5,73.7c-10.1,1.7-20.5,2.2-30.7,2.7c-9.4,0.4-18.8,0.2-28.1,0.1
					c-4.9-0.1-6.5,2-6.5,6.8c0.2,15.5,0.1,31,0,46.4c0,5.1,0,10.4-1,15.4c-2.2,10.1-10.3,16.3-20.1,16.2
					c-9.9-0.1-16.5-4.9-19.2-15.2c-1.4-5.4-1.8-11.1-1.9-16.7C415.6,169.7,415.7,144.9,415.7,120L415.7,120z M482.1,44.7
					c0,0.3-0.1,0.7-0.1,1c-5.6,0-11.2,0.2-16.8-0.1c-5.6-0.3-7.1,2.5-7.1,7.6c0.2,16.3,0.2,32.7,0,49c0,5.2,1.9,7.9,7.3,7.6
					c14-0.8,27.9-1.3,41.9-2.5c4-0.4,8-2.4,11.7-4.4c11.8-6.6,14.2-17.5,12.9-29.9c-1.3-12.4-6.8-21.6-19.4-24.2
					C502.5,46.7,492.2,46,482.1,44.7L482.1,44.7z"/>
				<path class="st1" d="M1081.4,150.1c-1.4,17.9-1.6,35.6,4.1,52.9c3.5,10.4,0,17.2-8.2,21.5c-7.6,4-15.1,2.1-22.5-5.7
					c-3.8-4-7-10.9-11.2-11.4c-4.4-0.6-9.6,4.8-14.3,7.7c-15.8,9.6-33,12.9-51.3,10.9c-28.7-3.2-47.3-30.8-38.4-56.8
					c4.2-12.4,13.1-20.8,25.1-24.7c14.2-4.6,28.9-7.6,43.5-11.1c9.1-2.2,18.2-4.4,27.3-6.6c4.2-1,6.1-3.6,5.6-8.2
					c-1.1-10-5.8-21.7-20.2-22.9c-19.2-1.6-35.3,1.5-46,19.6c-2.2,3.8-6.1,7.9-10,9c-10.9,2.9-21.2-4.2-20-16.5
					c1.2-12.4,8-21.3,17.9-27c8.8-5,18.7-9.1,28.6-10.9c18-3.2,36.5-3.3,54.4,1.7c17.2,4.8,29,15.7,31.7,33.8
					C1079.7,120.2,1080.1,135.2,1081.4,150.1L1081.4,150.1z M1041.4,161.1c0-1.4,0-2.8,0-4.2c-0.2-6.9-1-7.6-7.2-6.2
					c-11.8,2.7-23.7,5.2-35.4,8.4c-5.3,1.5-10.7,3.7-15.1,6.9c-8.4,6.3-9.5,16.1-3.6,24.9c4.2,6.2,10.3,9.2,17.7,9.9
					C1023.1,203.1,1040.7,187.1,1041.4,161.1L1041.4,161.1z"/>
				<path class="st1" d="M675.2,156.9c-13.1,0-26.3,0.1-39.4,0c-5,0-6.6,2.4-6.1,7c2.5,24.9,23.2,43.8,50.8,34.8
					c8.6-2.8,16-9.4,23.7-14.5c3.1-2.1,5.5-5.2,8.4-7.4c5.4-4.1,11.2-4.5,17-0.9c4.7,2.9,6.7,9.5,3.9,16.4c-1.8,4.7-4.8,9.2-8.1,13
					c-8.3,9.4-19.1,15-31.1,18.2c-18.5,4.9-37.2,4.8-55.5-0.7c-23.2-7-38.5-22.9-45.5-45.9c-5.8-19.2-5.8-39,0-58.2
					c7.2-24.1,22.9-40.8,47.7-47c25.5-6.4,50.2-5.4,71.9,12.3c16.3,13.3,24.3,30.5,24.1,51.5c-0.2,12.5-4.7,18.2-16.9,20.3
					c-6,1-12.1,1.1-18.2,1.2C693,156.9,684.1,156.8,675.2,156.9L675.2,156.9L675.2,156.9z M664.4,135.3c9.8,0,19.7,0,29.5,0
					c3,0,6-0.7,5.4-4.6c-2.5-17.8-10.6-34-33.1-35.3c-19.3-1.1-36.5,15.5-36.4,34.9c0,3.6,1.9,5,5.1,5
					C644.7,135.3,654.6,135.2,664.4,135.3L664.4,135.3z"/>
				<path class="st1" d="M1416,147.9c0,16.9,0,33.8,0,50.7c0,4.2,0.1,8.5-0.6,12.6c-1.6,9.3-7.4,14.6-15.8,15.2
					c-8.9,0.6-14.8-3.3-18.2-12.3c-1.4-3.6-2.7-7.3-4-11c-2.7,2.6-5.3,5.2-8.1,7.8c-15.3,14.2-33.8,17.9-53.6,14.6
					c-21.7-3.6-36.8-20-37.6-42.9c-1.2-31.4-0.7-62.8-0.3-94.3c0.2-12.4,7-19.2,17.5-19.8c9.2-0.5,16.8,4.5,19,13.4
					c1.4,5.8,1.9,12,2,18.1c0.3,16.9,0,33.8,0.2,50.7c0.1,7.5,0,15.1,1.2,22.5c3.4,20.4,20.2,28.7,38.9,19.8
					c12.6-6,19.3-16.2,19.7-30c0.5-20.6,0.4-41.3,0.8-61.9c0.1-6.1,0.6-12.2,1.9-18.1c2.1-9.5,9-14.5,18.2-14.3
					c9.1,0.1,16.1,5.6,18,14.8c0.9,4.1,0.8,8.4,0.8,12.6C1416.1,113.2,1416,130.5,1416,147.9L1416,147.9z"/>
				<path class="st1" d="M1173.8,226.6c-12.1,0.3-27.5-2.6-41.6-11.3c-9.5-5.9-16.5-13.6-18.9-24.9c-1.8-8.6,1-15.6,7.8-19
					c7-3.5,14.6-1.7,20,4.9c1.5,1.8,2.7,3.8,3.9,5.8c9.7,16.1,24.5,21,42.1,18.6c4.9-0.7,10-2.7,14.1-5.5c8.2-5.6,8.9-16.4,1.3-22.9
					c-4.4-3.8-10.3-6.4-15.9-8.3c-11.9-4.1-24.3-6.9-36.2-11.1c-7-2.4-14-5.7-20.1-9.9c-19.1-13.3-21.6-37.4-6.5-55.2
					c9-10.6,21-15.8,34-18.1c18.3-3.2,36.5-1.9,53.9,5c8.8,3.5,16.7,8.7,22.2,16.7c6.2,9,5.6,18.6-1.2,24.1
					c-6.8,5.5-16.9,4.8-24.2-2c-3.8-3.5-7-7.6-10.6-11.2c-10.6-10.6-23.3-10.7-36.5-6.4c-6.1,2-10.7,5.9-10.8,13.1
					c-0.2,6.7,4.1,10.5,9.5,12.6c8.7,3.3,17.8,5.8,26.6,8.7c11.5,3.8,23.4,6.9,34.4,11.7c10.9,4.8,19.8,12.4,23.3,24.8
					c5,17.5-3.4,39.1-19.3,48.8C1212.7,223.1,1197.9,226.6,1173.8,226.6L1173.8,226.6z"/>
				<path class="st1" d="M1513.8,226.4c-17,0.6-32.9-2.6-47.2-11.7c-9.4-6-16.1-14.1-18.2-25.5c-1.4-7.8,1.5-14.5,7.8-17.8
					c7-3.6,14.7-1.9,20,4.6c2.1,2.5,3.8,5.3,5.6,8.1c12.3,18.6,29.4,18.2,44.6,16.1c3.5-0.5,7.1-2.6,10-4.8c8.1-5.9,9.2-16.4,1.7-23
					c-4.4-3.9-10.2-6.5-15.8-8.4c-12.4-4.2-25.2-7.2-37.5-11.5c-7-2.5-13.9-5.9-19.8-10.2c-17.8-12.9-20.3-36-6.7-53.3
					c9.3-11.8,22.2-17.3,36.2-19.6c17.3-2.7,34.6-1.6,51.2,4.6c9.8,3.7,18.5,9.2,24.3,18.2c5.5,8.6,4.8,17.7-1.6,23
					c-6.3,5.2-17.8,5.6-24.3-1.6c-3.2-3.5-6.4-6.8-9.6-10.3c-10.1-11.2-22.9-11.8-36.2-8.3c-8.1,2.2-12.2,7.4-12.3,13.5
					c-0.2,7.4,4.7,11.2,10.5,13.3c8.8,3.2,17.8,5.5,26.7,8.4c11.1,3.6,22.4,6.7,33.1,11.4c10.9,4.8,19.6,12.4,23.5,24.6
					c4.3,13.2-1.5,38.8-19.1,49C1546,224,1530.2,226.9,1513.8,226.4L1513.8,226.4z"/>
			</g>
		</g>
	</g>
</g>
</svg>
