<?xml version="1.0" encoding="utf-8"?>
<!-- Generator: Adobe Illustrator 26.5.3, SVG Export Plug-In . SVG Version: 6.00 Build 0)  -->
<svg version="1.1" id="Layer_1" xmlns="http://www.w3.org/2000/svg" xmlns:xlink="http://www.w3.org/1999/xlink" x="0px" y="0px"
	 viewBox="0 0 299.6 99" style="enable-background:new 0 0 299.6 99;" xml:space="preserve">
<style type="text/css">
	.st0{fill:#168698;}
	.st1{fill:#232323;}
	.st2{fill:#FFFFFF;}
</style>
<g id="pegasus" transform="translate(0.027 -1)">
	<g id="Group_1517" transform="translate(-0.027 1)">
		<path id="Path_3785" class="st0" d="M159,52.2l-1.5-0.5c0,0,0.1-0.3,0.2-0.6c0.2-0.5,0.4-0.9,0.7-1.3c0.3-0.4,0.6-0.7,1-1
			c0.4-0.3,0.8-0.6,1.2-0.8c0.4-0.2,1-0.5,1.4-0.7c0.4-0.2,1.1-0.4,1.4-0.6c0.4-0.1,1.1-0.4,1.5-0.5c0.3-0.1,0.7-0.2,1-0.3l0.4-0.1
			c0.4-0.1,0.9-0.3,1.3-0.5c0.3-0.1,0.8-0.3,1.1-0.5c0.3-0.1,0.5-0.3,0.8-0.5c0.1-0.1,0.3-0.2,0.4-0.4c0-0.1,0.1-0.2,0.1-0.3
			s-0.1-0.3-0.1-0.4c-0.2-0.3-0.4-0.5-0.6-0.8c-0.4-0.4-0.8-0.7-1.3-1l-0.8-0.6l0.9-1.3l0.8,0.6c0.5,0.4,1,0.8,1.4,1.2
			c0.3,0.3,0.6,0.7,0.9,1.1c0.2,0.4,0.3,0.8,0.3,1.2s-0.1,0.8-0.3,1.1c-0.2,0.3-0.5,0.6-0.8,0.8s-0.7,0.4-1,0.6
			c-0.3,0.1-0.8,0.4-1.2,0.5c-0.3,0.1-0.9,0.3-1.3,0.5l-0.4,0.1c-0.3,0.1-0.8,0.3-1,0.3c-0.4,0.1-1,0.4-1.4,0.5
			c-0.4,0.1-1,0.4-1.3,0.5s-0.9,0.4-1.2,0.6c-0.4,0.2-0.7,0.4-1,0.7c-0.3,0.2-0.5,0.5-0.7,0.7c-0.2,0.3-0.3,0.5-0.4,0.8
			C159.1,51.9,159,52.2,159,52.2z M123.9,50l-0.3-1.5l0.7-0.2c0.1,0,0.2-0.1,0.3-0.1l-1-0.8l0.4-0.5l0.9-1.1
			c0.3-0.3,0.7-0.8,0.9-1.1c0.2-0.3,0.7-0.9,0.9-1.2c0.2-0.3,0.7-0.9,0.9-1.3c0.2-0.4,0.7-0.9,1-1.3c0.3-0.3,0.7-0.9,1-1.3
			c0.3-0.3,0.8-0.9,1.1-1.2s0.8-0.9,1.1-1.2c0.3-0.3,0.9-0.8,1.2-1.1c0.3-0.3,0.9-0.7,1.3-1c0.4-0.3,0.9-0.6,1.4-0.9
			c0.4-0.2,1.1-0.6,1.5-0.7c0.4-0.2,1.1-0.4,1.5-0.6c0.5-0.2,1-0.3,1.6-0.4c-0.3-0.2-0.6-0.5-0.9-0.8c-0.4-0.4-0.8-0.9-1.1-1.4
			c-0.3-0.5-0.5-1-0.6-1.5c-0.1-0.5-0.2-1-0.2-1.5s0.1-1,0.2-1.5c0.1-0.5,0.2-1,0.4-1.5c0.1-0.4,0.4-1.1,0.6-1.5s0.5-1.1,0.7-1.5
			s0.5-1.1,0.7-1.5c0.2-0.4,0.5-1,0.7-1.4c0.2-0.4,0.4-1,0.6-1.4c0.1-0.3,0.3-0.9,0.4-1.3c0.1-0.4,0.1-0.8,0.2-1.2
			c0-0.4,0-0.7-0.1-1.1c-0.1-0.3-0.2-0.6-0.3-0.9l-0.1-0.1c-0.2,0.2-0.4,0.4-0.7,0.6c-0.3,0.2-0.5,0.4-0.8,0.5
			c-0.2,0.1-0.6,0.3-0.9,0.4c-0.3,0.1-0.6,0.2-0.9,0.3s-0.7,0.2-1,0.3s-0.7,0.2-1,0.2c-0.3,0.1-0.8,0.1-1.1,0.2
			c-0.3,0-0.8,0.1-1.1,0.2c-0.3,0-0.8,0.1-1.1,0.1s-0.8,0.1-1.1,0.1c-0.3,0-0.7,0.1-1,0.2c-0.3,0.1-0.5,0.1-0.5,0.1l-0.2-1.6
			c0,0,0.2,0,0.5-0.1s0.8-0.1,1.1-0.2c0.3,0,0.8-0.1,1.1-0.2c0.3,0,0.8-0.1,1.1-0.1s0.8-0.1,1.1-0.1c0.3,0,0.7-0.1,1-0.2
			c0.3-0.1,0.7-0.1,1-0.2s0.7-0.2,0.9-0.2l0.8-0.3c0.2-0.1,0.5-0.2,0.7-0.3s0.4-0.2,0.6-0.4c0.2-0.1,0.4-0.3,0.5-0.5
			c0.1-0.2,0.3-0.3,0.4-0.5s0.2-0.4,0.3-0.6c0-0.3,0-0.5,0.1-0.8c0-0.3,0.1-0.6,0.1-0.9V7.8h1.6v0.6c0,0.4,0,0.8-0.1,1.2
			s-0.2,0.7-0.3,1.1c-0.1,0.3-0.2,0.5-0.3,0.7l0.4-0.2l0.3,0.6c0.2,0.4,0.4,0.9,0.5,1.4c0.1,0.5,0.1,1,0.1,1.5s-0.1,1-0.2,1.5
			s-0.3,1-0.5,1.5c-0.1,0.4-0.4,1-0.6,1.5c-0.2,0.4-0.5,1.1-0.7,1.5s-0.5,1.1-0.7,1.5s-0.5,1.1-0.6,1.4c-0.2,0.4-0.4,1-0.5,1.4
			c-0.1,0.4-0.3,0.9-0.3,1.3c-0.1,0.4-0.1,0.8-0.1,1.3c0,0.4,0,0.8,0.1,1.2c0.1,0.4,0.3,0.8,0.4,1.1c0.2,0.4,0.5,0.7,0.8,1.1
			c0.4,0.4,0.8,0.7,1.3,1.1c0.5,0.3,0.8,0.6,0.8,0.6l-0.1,0.1h0.3v1.6h-0.8c-0.5,0-1,0.1-1.5,0.1c-0.5,0.1-1,0.2-1.4,0.3
			c-0.5,0.1-0.9,0.3-1.4,0.5c-0.4,0.2-0.9,0.5-1.3,0.7c-0.3,0.2-0.9,0.6-1.2,0.8c-0.3,0.3-0.9,0.7-1.2,0.9c-0.3,0.3-0.8,0.7-1.1,1
			s-0.8,0.8-1.1,1.1c-0.3,0.3-0.8,0.9-1,1.2c-0.3,0.3-0.7,0.9-1,1.2c-0.3,0.3-0.7,0.9-1,1.3c-0.3,0.4-0.8,0.6-1,0.9
			c-0.3,0.3-0.7,0.9-0.9,1.2c-0.2,0.3-0.7,0.9-0.9,1.2c-0.2,0.3-0.6,0.8-0.9,1.1l-0.1,0.1c0.1-0.1,0.3-0.1,0.4-0.2
			c0.4-0.2,0.8-0.4,1.2-0.7c0.3-0.2,0.8-0.6,1.1-0.9c0.4-0.3,0.7-0.7,1.1-1c0.2-0.2,0.7-0.7,1-1.1c0.3-0.3,0.8-0.9,1.1-1.3
			c0.3-0.3,0.8-0.9,1.1-1.3c0.3-0.4,0.9-1,1.2-1.3s0.9-0.9,1.3-1.2c0.5-0.4,1-0.8,1.5-1.1c0.5-0.4,1.1-0.7,1.7-1s1.2-0.5,1.9-0.7
			c0.7-0.2,1.4-0.4,2.1-0.5h0.1c0.7-0.1,1.4-0.1,2.1-0.1h0.4c0.7,0,1.4,0.1,2.1,0.1l0.7,0.1c0.5,0.1,0.8,0.1,1,0.1h0.1l0.1-0.1
			c0.1-0.1,0.1-0.3,0.1-0.4c0-0.2,0.1-0.5,0.1-0.7c0-0.3,0-0.5,0-0.8c0-0.2,0-0.4,0-0.4l1.6-0.1c0,0,0,0.2,0,0.5s0,0.6,0,0.9
			c0,0.3-0.1,0.6-0.1,0.9c-0.1,0.3-0.2,0.6-0.3,0.9c0.1,0,0.2,0.1,0.4,0.1c0.3,0.1,0.8,0.3,1,0.3c0.3,0.1,0.8,0.2,1.1,0.3
			s0.8,0.2,1.1,0.3s0.9,0.2,1.2,0.3s0.9,0.2,1.2,0.2c0.3,0.1,0.9,0.1,1.2,0.2c0.3,0,0.9,0.1,1.2,0.1s0.9,0.1,1.2,0.1s0.9,0,1.2,0
			c0.3,0,0.9,0,1.2,0c0.3,0,0.9-0.1,1.2-0.1s0.9-0.1,1.1-0.2s0.8-0.1,1.1-0.2s0.8-0.2,1-0.3c0.3-0.1,0.7-0.2,1-0.4l0.5-0.2l0.6,1.5
			l-0.5,0.2c-0.3,0.1-0.8,0.3-1.1,0.4c-0.4,0.1-0.8,0.2-1.2,0.3c-0.3,0.1-0.9,0.2-1.2,0.3c-0.3,0.1-0.8,0.2-1.2,0.3
			c-0.3,0-0.9,0.1-1.3,0.1s-0.9,0-1.3,0H160l0.1,0.2c0,0-0.2,0.1-0.5,0.3c-0.3,0.2-0.8,0.4-1.2,0.5c-0.3,0.1-0.9,0.3-1.2,0.5
			s-0.9,0.3-1.3,0.4l-1.3,0.4l-0.3,0.1c-0.4,0.1-0.8,0.2-1.1,0.3c-0.4,0.1-1,0.3-1.4,0.4c-0.4,0.1-1,0.3-1.3,0.4
			c-0.4,0.1-0.9,0.3-1.3,0.4c-0.3,0.1-0.9,0.3-1.3,0.5c-0.3,0.1-0.9,0.4-1.2,0.5s-0.8,0.4-1.1,0.6c-0.3,0.2-0.7,0.4-1,0.7
			c-0.3,0.2-0.6,0.5-0.9,0.7c-0.5,0.5-0.9,1.1-1.3,1.7c-0.1,0.3-0.3,0.5-0.3,0.5l-1.4-0.7c0,0,0.1-0.2,0.3-0.5
			c0.2-0.4,0.4-0.8,0.7-1.1c0.3-0.4,0.6-0.7,0.9-1c0.3-0.3,0.7-0.6,1-0.9c0.4-0.3,0.7-0.5,1.1-0.7c0.3-0.2,0.9-0.5,1.2-0.7
			c0.4-0.2,0.9-0.4,1.3-0.6c0.4-0.2,1-0.4,1.3-0.5c0.4-0.1,1-0.3,1.4-0.5c0.4-0.1,1-0.3,1.4-0.4c0.4-0.1,1-0.3,1.4-0.4
			c0.3-0.1,0.7-0.2,1.1-0.3h0.4c0.4-0.1,0.9-0.3,1.3-0.4c0.3-0.1,0.9-0.3,1.2-0.4c0.1-0.1,0.3-0.1,0.5-0.2c-0.2,0-0.3,0-0.5-0.1
			c-0.4-0.1-0.9-0.1-1.3-0.2c-0.4-0.1-0.9-0.2-1.3-0.2c-0.4,0-0.9-0.2-1.2-0.3s-0.9-0.2-1.2-0.3s-0.8-0.2-1.1-0.3s-0.8-0.2-1.1-0.3
			c-0.3-0.1-0.5-0.2-0.5-0.2l0.4-1.1c-0.2,0.2-0.4,0.3-0.6,0.4c-0.2,0.1-0.5,0.1-0.7,0.1l0,0c-0.1,0-0.6-0.1-1.1-0.1l-0.7-0.1
			c-0.6-0.1-1.3-0.1-1.9-0.1H144c-0.6,0-1.3,0-1.9,0.1H142c-0.6,0.1-1.2,0.2-1.8,0.4c-0.6,0.2-1.1,0.4-1.7,0.7
			c-0.5,0.3-1,0.5-1.5,0.9c-0.4,0.3-1,0.7-1.3,1c-0.3,0.3-0.9,0.8-1.2,1.1c-0.3,0.3-0.8,0.9-1.1,1.2c-0.3,0.4-0.8,0.9-1.1,1.3
			l-1.1,1.2c-0.3,0.3-0.8,0.9-1.1,1.2s-0.8,0.8-1.2,1.1c-0.4,0.4-0.8,0.7-1.3,1c-0.4,0.3-0.9,0.6-1.4,0.8s-1,0.4-1.6,0.5L123.9,50z
			 M172,41.1l-0.8-1.3l1.7-1.1c0.5-0.3,1.1-0.7,1.6-1.1l0.6-0.5c0.5-0.4,0.9-0.9,1.4-1.4l0.3-0.4c0.4-0.5,0.8-1,1.1-1.6l0.1-0.3
			c0.3-0.6,0.6-1.2,0.9-1.8v-0.1c0.2-0.6,0.4-1.2,0.5-1.9c0.1-0.6,0.1-1.2,0.1-1.9c0-0.6-0.1-1.2-0.3-1.8c-0.2-0.6-0.4-1.1-0.6-1.6
			c-0.3-0.5-0.6-1-1-1.4c-0.4-0.4-0.9-0.8-1.4-1.2l0,0c-0.5-0.3-1.1-0.6-1.6-0.9l-0.3-0.1c-0.6-0.2-1.2-0.4-1.8-0.5l-0.5-0.1
			c-0.6-0.1-1.2-0.1-1.9-0.1h-0.9c-0.6,0-1.3,0.1-1.9,0.2l-1.4,0.2c-0.6,0.1-1.2,0.3-1.9,0.4l-2.7,0.8l-0.5-1.5l2.7-0.8
			c0.7-0.2,1.4-0.3,2.1-0.5l1.3-0.2c0.7-0.1,1.4-0.2,2.1-0.2h0.9c0.7,0,1.4,0.1,2.1,0.2l0.5,0.1c0.7,0.1,1.4,0.3,2.1,0.6l0.2,0.1
			c0.7,0.3,1.3,0.6,2,1l0,0c0.6,0.4,1.2,0.9,1.7,1.4s0.9,1.1,1.2,1.7s0.6,1.3,0.8,2s0.3,1.4,0.3,2.1s0,1.5-0.2,2.2
			c-0.1,0.7-0.3,1.5-0.6,2.2v0.1c-0.3,0.7-0.6,1.4-1,2l0.2,0.4c-0.4,0.6-0.8,1.2-1.3,1.8l-0.3,0.4c-0.5,0.6-1,1.1-1.5,1.5l-0.6,0.5
			c-0.6,0.5-1.1,0.9-1.7,1.3L172,41.1z M122.4,36.7c-0.1,0-0.3,0-0.4-0.1c-0.3-0.1-0.5-0.3-0.6-0.6c-0.1-0.1-0.2-0.3-0.2-0.5
			s0-0.4,0-0.6c0-0.2,0.1-0.5,0.2-0.7c0.1-0.3,0.2-0.5,0.3-0.8c0.1-0.2,0.2-0.6,0.3-0.9c0.1-0.3,0.3-0.7,0.4-0.9s0.3-0.7,0.5-1
			s0.4-0.7,0.6-1c0.2-0.3,0.5-0.7,0.6-1c0.2-0.3,0.5-0.7,0.7-1c0.2-0.3,0.5-0.7,0.7-1c0.2-0.3,0.6-0.7,0.8-1
			c0.2-0.3,0.6-0.7,0.8-0.9c0.2-0.3,0.6-0.7,0.8-0.9s0.6-0.6,0.9-0.8c0.3-0.2,0.7-0.5,0.9-0.7s0.7-0.5,0.9-0.6
			c0.3-0.1,0.7-0.4,0.9-0.5c0.3-0.1,0.6-0.2,1-0.3c0.3-0.1,0.7-0.1,1-0.1c0.3,0,0.7,0,1,0.1c0.3,0.1,0.7,0.2,1,0.4
			c0.3,0.2,0.6,0.4,0.9,0.6c0.3,0.3,0.6,0.5,0.8,0.9c0.3,0.4,0.5,0.7,0.7,1.1c0.2,0.3,0.3,0.6,0.3,0.6l-1.4,0.8c0,0-0.1-0.3-0.3-0.6
			c-0.2-0.3-0.4-0.6-0.6-0.9c-0.2-0.2-0.4-0.4-0.6-0.6c-0.2-0.2-0.4-0.3-0.6-0.4s-0.4-0.2-0.6-0.2s-0.4-0.1-0.6-0.1
			c-0.2,0-0.4,0-0.7,0.1c-0.2,0.1-0.5,0.1-0.7,0.2s-0.5,0.3-0.8,0.4c-0.2,0.1-0.6,0.3-0.8,0.5c-0.3,0.2-0.5,0.4-0.8,0.6
			c-0.2,0.2-0.6,0.5-0.8,0.7s-0.6,0.6-0.8,0.8c-0.2,0.3-0.6,0.6-0.8,0.9c-0.2,0.2-0.5,0.7-0.7,0.9c-0.2,0.3-0.5,0.7-0.7,1
			c-0.2,0.3-0.5,0.7-0.7,1c-0.2,0.3-0.4,0.7-0.6,1s-0.4,0.7-0.5,0.9c-0.1,0.3-0.3,0.7-0.5,0.9c-0.1,0.2-0.3,0.6-0.4,0.9
			c-0.1,0.2-0.2,0.6-0.3,0.8c-0.1,0.2-0.2,0.5-0.2,0.7c0,0.1-0.1,0.2-0.1,0.4c0.1-0.1,0.2-0.1,0.3-0.2c0.2-0.1,0.5-0.4,0.7-0.6
			c0.2-0.2,0.6-0.6,0.9-0.9L125,33l1.1,1.1l-0.5,0.5c-0.3,0.3-0.7,0.7-0.9,0.9c-0.3,0.2-0.6,0.5-0.8,0.7c-0.2,0.2-0.5,0.3-0.7,0.5
			c-0.2,0.1-0.4,0.2-0.7,0.3C122.6,36.7,122.5,36.7,122.4,36.7z M187.7,22.6V22c0-0.4-0.1-0.7-0.2-1.1c-0.1-0.3-0.2-0.7-0.3-1
			s-0.3-0.6-0.5-0.9s-0.4-0.5-0.6-0.8c-0.2-0.2-0.5-0.5-0.7-0.7c-0.3-0.2-0.5-0.4-0.8-0.6c-0.2-0.1-0.7-0.3-0.9-0.4
			s-0.7-0.2-0.9-0.3c-0.3-0.1-0.7-0.1-1-0.2c-0.3,0-0.6,0-1,0c-0.3,0-0.6,0.1-1,0.2c-0.3,0.1-0.6,0.2-0.9,0.3
			c-0.3,0.1-0.6,0.3-0.9,0.5s-0.6,0.4-0.8,0.7c-0.3,0.3-0.5,0.6-0.7,0.9l-0.4,0.6l-1.3-0.9l0.4-0.6c0.3-0.4,0.6-0.8,0.9-1.1
			c0.3-0.3,0.7-0.6,1-0.9c0.4-0.2,0.7-0.4,1.1-0.6c0.8-0.3,1.6-0.6,2.4-0.6c0.3,0,0.9,0,1.2,0c0.8,0.1,1.6,0.3,2.4,0.6
			c0.4,0.2,0.7,0.3,1.1,0.5c0.7,0.4,1.4,0.9,1.9,1.5c0.2,0.3,0.6,0.7,0.8,1c0.2,0.4,0.4,0.7,0.6,1.1s0.3,0.8,0.4,1.2
			c0.1,0.4,0.2,0.9,0.2,1.3l0.1,0.6L187.7,22.6z M156.2,22.6l-1.4-0.7l0.5-0.9c0.3-0.6,0.6-1.2,0.8-1.8c0.2-0.5,0.5-1.3,0.6-1.8
			c0.1-0.5,0.3-1.3,0.3-1.8c0.1-0.5,0.1-1.3,0.1-1.8s-0.1-1.2-0.1-1.7c-0.1-0.5-0.2-1.1-0.3-1.6c-0.2-0.5-0.3-1-0.5-1.5
			c-0.2-0.5-0.5-0.9-0.8-1.3c-0.3-0.4-0.6-0.8-1-1.2c-0.4-0.4-0.7-0.7-1.2-1c-0.4-0.3-0.9-0.6-1.4-0.8c-0.5-0.2-1-0.4-1.6-0.6
			c-0.6-0.1-1.2-0.2-1.7-0.3l0,0c-0.6,0-1.2,0-1.9,0h-0.2c-0.6,0-1.3,0.1-1.9,0.3l-1.3,0.2l-0.3-1.5l1.4-0.3
			c0.7-0.1,1.4-0.2,2.1-0.3h0.2c0.7,0,1.4,0,2.1,0l0,0c0.7,0.1,1.4,0.2,2,0.3c0.6,0.2,1.2,0.4,1.8,0.7c0.7,0.2,1.2,0.5,1.7,0.9
			c0.4,0.3,0.7,0.6,1.1,0.9l0.3-0.3c0.3-0.2,0.6-0.4,0.9-0.6c0.3-0.2,0.7-0.4,0.9-0.5c0.3-0.1,0.7-0.3,1-0.4c0.3-0.1,0.7-0.3,1-0.3
			c0.3-0.1,0.7-0.2,1-0.3s0.7-0.1,1-0.2c0.3,0,0.7-0.1,1-0.1s0.7-0.1,1-0.1s0.7,0,1,0s0.7,0,1,0h1c0.3,0,0.7,0,0.9,0h1.1
			c0.3,0,0.7,0,1,0h1.5v1.6h-1.5c-0.3,0-0.7,0-1,0h-1.1c-0.3,0-0.7,0-0.9,0h-1c-0.3,0-0.7,0-1,0s-0.7,0-1,0s-0.7,0.1-1,0.1
			S161.8,4,161.5,4s-0.7,0.1-0.9,0.2c-0.3,0.1-0.7,0.2-0.9,0.2c-0.2,0.1-0.6,0.2-0.9,0.3c-0.2,0.1-0.6,0.3-0.8,0.4
			c-0.3,0.1-0.5,0.3-0.8,0.5c-0.3,0.2-0.5,0.3-0.8,0.5l-0.3,0.2c0.1,0.2,0.3,0.4,0.4,0.5c0.3,0.5,0.6,1,0.9,1.6
			c0.2,0.6,0.5,1.1,0.6,1.7c0.2,0.6,0.3,1.2,0.4,1.8s0.1,1.3,0.1,1.9c0,0.7,0,1.3-0.1,2c-0.1,0.7-0.2,1.3-0.4,2
			c-0.1,0.5-0.4,1.4-0.6,2c-0.3,0.7-0.6,1.3-0.9,2L156.2,22.6z M159.1,20.7l-0.3-1.7c-0.1-0.8-0.2-1.5-0.2-2.3v-0.2
			c0-0.7,0.1-1.5,0.2-2.2c0.1-0.7,0.3-1.4,0.6-2s0.6-1.2,1-1.7c0.4-0.5,0.8-1,1.3-1.4s1-0.8,1.6-1.1c0.6-0.3,1.1-0.6,1.7-0.8
			c0.6-0.2,1.3-0.4,1.9-0.5c0.5-0.1,1.4-0.3,2-0.3h0.1c0.6-0.1,1.5-0.1,2-0.1h0.1c0.6,0,1.5,0,2.1,0h0.1c0.6,0,1.5,0.1,2,0.1h0.2
			c0.6,0.1,1.5,0.1,2,0.2h0.2c0.5,0.1,1.4,0.2,2,0.3h0.1c0.6,0.1,1.5,0.3,2,0.3l1,0.2l-0.3,1.6l-1-0.2c-0.5-0.1-1.4-0.3-2-0.3h-0.1
			c-0.6-0.1-1.4-0.2-2-0.3h-0.2c-0.5-0.1-1.4-0.2-2-0.2H175C174.5,8,173.6,8,173,8h-0.1c-0.5,0-1.4,0-1.9,0h-0.1
			c-0.5,0-1.4,0.1-1.9,0.1h-0.1c-0.5,0.1-1.4,0.2-1.8,0.3c-0.5,0.1-1.3,0.3-1.7,0.5c-0.4,0.2-1.1,0.5-1.5,0.7
			c-0.5,0.3-0.9,0.6-1.3,0.9c-0.4,0.3-0.7,0.7-1.1,1.1c-0.3,0.4-0.6,0.9-0.8,1.4c-0.2,0.6-0.4,1.1-0.5,1.7c-0.1,0.6-0.2,1.3-0.2,1.9
			v0.2c0,0.7,0.1,1.4,0.1,2l0.3,1.7L159.1,20.7z M128.4,11.8l-0.6-1.5c0,0,0.2-0.1,0.5-0.2c0.2-0.1,0.6-0.3,0.9-0.4
			c0.2-0.1,0.6-0.4,0.9-0.5s0.6-0.4,0.8-0.6c0.2-0.2,0.6-0.4,0.8-0.6s0.6-0.5,0.8-0.7c0.1-0.1,0.3-0.3,0.5-0.4l0.2-0.2
			c0.2-0.2,0.6-0.5,0.8-0.7c0.2-0.2,0.6-0.5,0.8-0.7c0.2-0.2,0.6-0.5,0.8-0.6c0.3-0.2,0.6-0.4,0.9-0.6c0.3-0.1,0.7-0.2,1-0.4
			c0.3-0.2,0.7-0.3,1-0.4c0.1,0,0.3-0.1,0.4-0.1l0,0c0,0,0.1-0.1,0.1-0.3c0.2-0.3,0.3-0.6,0.5-0.9c0.2-0.3,0.5-0.6,0.8-0.8
			c0.3-0.2,0.6-0.5,0.9-0.6c0.4-0.2,0.7-0.3,1.1-0.4c0.3-0.1,0.6-0.2,0.6-0.2l0.3,1.5c0,0-0.2,0.1-0.5,0.1c-0.3,0.1-0.5,0.2-0.8,0.3
			c-0.2,0.1-0.4,0.3-0.6,0.4c-0.2,0.2-0.3,0.3-0.5,0.5c0.3,0,0.8,0,1.1,0s0.6,0,0.6,0l-0.1,1.6c0,0-0.3,0-0.6,0c-0.3,0-0.7,0-1,0
			c-0.3,0-0.6,0.1-0.9,0.1c-0.3,0.1-0.7,0.2-0.9,0.2c-0.3,0.2-0.6,0.3-0.8,0.4s-0.6,0.3-0.8,0.4s-0.6,0.3-0.8,0.5
			c-0.2,0.1-0.6,0.4-0.8,0.6c-0.2,0.2-0.6,0.5-0.8,0.6l-0.8,0.7l-0.3,0.3c-0.2,0.1-0.4,0.3-0.5,0.4c-0.2,0.2-0.6,0.5-0.8,0.7
			s-0.6,0.5-0.9,0.7c-0.2,0.2-0.6,0.5-0.9,0.6c-0.3,0.2-0.7,0.4-1,0.6c-0.3,0.2-0.7,0.4-1,0.5C128.6,11.7,128.4,11.8,128.4,11.8z"/>
		<path id="Path_3786" class="st1" d="M168.1,46.4l-3.1-4.7l-5.7-7.4l-13.9-2.4l-7.1,2.3l-8.1-1.8l0.2-0.9l7.8,1.7l5.7-1.8l-5.2-4.4
			l-7.9-2.3L123,25l-0.1-0.9l7.8-0.4l8.3,2.4l5.7,4.7l-0.4,0.4l0.3-0.1l1.5-11.1h0.1l-3.3-3.1l-6.3-6.9l-8.5,4.3l-0.4-0.9l9.2-4.6
			l6.9,7.5l3.1,3l16,2.8l-2.7,11.4l7.7,4.9l5.6,6.1l-0.7,0.7l-5.5-6l-5.9-3.8l4.5,5.9L169,46L168.1,46.4z M145.7,31l13.5,2.3
			l2.5-10.5l-14.6-2.5L145.7,31z"/>
		<path id="Path_3787" class="st1" d="M148.1,19.9c-0.1-0.7-0.7-1.2-1.4-1.2s-1.2,0.7-1.2,1.4c0.1,0.7,0.6,1.2,1.3,1.2
			C147.6,21.3,148.1,20.6,148.1,19.9L148.1,19.9z"/>
		<path id="Path_3788" d="M143.7,16.4c0-0.4-0.3-0.7-0.7-0.7c-0.4,0-0.7,0.3-0.8,0.7c0,0.4,0.3,0.7,0.7,0.8
			C143.3,17.2,143.7,16.9,143.7,16.4L143.7,16.4z"/>
		<path id="Path_3789" class="st1" d="M137.9,9c0-0.7-0.6-1.2-1.3-1.1c-0.7,0-1.2,0.6-1.1,1.3c0,0.6,0.6,1.1,1.2,1.1
			C137.4,10.3,137.9,9.7,137.9,9L137.9,9z"/>
		<path id="Path_3790" class="st1" d="M146.2,31.4c0-0.6-0.5-1-1.1-1c-0.6,0-1,0.5-1,1.1c0,0.6,0.5,1,1.1,1
			C145.8,32.5,146.2,32,146.2,31.4z"/>
		<path id="Path_3791" class="st1" d="M163.5,22.4c-0.1-0.8-0.7-1.4-1.5-1.3c-0.8,0.1-1.4,0.7-1.3,1.5c0.1,0.7,0.7,1.3,1.4,1.3
			C162.9,23.9,163.6,23.3,163.5,22.4z"/>
		<path id="Path_3792" class="st1" d="M160.9,33.7c-0.1-0.7-0.7-1.3-1.4-1.2c-0.7,0.1-1.3,0.7-1.2,1.4c0.1,0.7,0.6,1.2,1.3,1.2
			C160.4,35.1,161,34.5,160.9,33.7L160.9,33.7z"/>
		<path id="Path_3793" class="st1" d="M168.4,38.8c0-0.6-0.4-1.1-1-1.1c-0.6,0.1-1.1,0.6-1,1.2c0,0.5,0.5,1,1,1
			C168,39.9,168.4,39.4,168.4,38.8L168.4,38.8z"/>
		<path id="Path_3794" class="st1" d="M173.5,44.2c0-0.5-0.4-1-0.9-1s-1,0.4-1.1,0.9c0,0.5,0.4,1,0.9,1.1
			C173,45.2,173.5,44.8,173.5,44.2C173.5,44.3,173.5,44.2,173.5,44.2z"/>
		<path id="Path_3795" class="st1" d="M166,41.7c0-0.4-0.3-0.7-0.7-0.7c-0.4,0-0.7,0.4-0.7,0.8c0,0.4,0.3,0.6,0.7,0.7
			C165.7,42.4,166,42,166,41.7z"/>
		<path id="Path_3796" class="st1" d="M169.1,46.6c0-0.4-0.3-0.7-0.7-0.7c-0.4,0-0.7,0.4-0.7,0.8c0,0.4,0.3,0.6,0.7,0.7
			C168.8,47.3,169.1,47,169.1,46.6z"/>
		<path id="Path_3797" d="M138.9,33.5c0-0.3-0.2-0.5-0.5-0.5s-0.6,0.2-0.6,0.5s0.2,0.6,0.5,0.6C138.6,34.1,138.8,33.9,138.9,33.5
			C138.9,33.6,138.9,33.5,138.9,33.5z"/>
		<path id="Path_3798" class="st1" d="M139.8,26.9c0-0.5-0.4-1-0.9-1s-1,0.4-1.1,0.9c0,0.5,0.4,1,0.9,1.1
			C139.3,27.9,139.7,27.5,139.8,26.9C139.8,27,139.8,26.9,139.8,26.9z"/>
		<path id="Path_3799" class="st1" d="M131.4,24c0-0.4-0.3-0.7-0.7-0.7c-0.4,0-0.7,0.3-0.8,0.7c0,0.4,0.3,0.7,0.7,0.8
			C131,24.9,131.3,24.4,131.4,24L131.4,24z"/>
		<path id="Path_3800" class="st2" d="M131.3,31.6c0-0.6-0.5-1-1.1-1c-0.6,0-1,0.5-1,1.1c0,0.6,0.5,1,1.1,1
			C130.8,32.7,131.3,32.2,131.3,31.6z"/>
		<path id="Path_3801" class="st1" d="M123.8,24.6c0-0.5-0.3-0.8-0.8-0.9c-0.5,0-0.8,0.5-0.8,1c0,0.4,0.4,0.8,0.8,0.8
			C123.5,25.4,123.8,25,123.8,24.6L123.8,24.6L123.8,24.6z"/>
		<path id="Path_3802" class="st1" d="M129.3,13.8c-0.1-0.8-0.7-1.4-1.5-1.3c-0.8,0.1-1.4,0.7-1.3,1.5c0.1,0.7,0.7,1.3,1.4,1.3
			C128.7,15.3,129.4,14.6,129.3,13.8z"/>
	</g>
</g>
<g id="JYWEfN_00000016777136064678112490000010725716087421272461_">
	<g>
		<path class="st1" d="M143.1,75.8c0,3.7,0,7.4,0,11.1c0,2-0.5,4-1.4,5.9c-1,2-2.4,3.5-4.5,4.3c-5.5,2.1-11,2.1-16.5-0.4
			c-1.5-0.7-2.7-1.7-3.5-3.1c-0.9-1.6-0.6-3.2,0.5-4.1c1.2-0.9,2.8-0.8,4.1,0.4c0.6,0.6,1.2,1.2,1.7,1.8c2.2,2.2,7.3,2.8,9.9,1
			c0.8-0.6,1.7-1.6,1.9-2.5c0.4-1.9,0.4-4,0.6-6c0-0.4-0.2-0.6-0.6-0.3c-0.2,0.1-0.4,0.4-0.5,0.5c-5.8,5.4-14.4,3.8-17.6-3.6
			c-2-4.6-2.2-9.5-0.3-14.3c3.1-7.7,13.2-8.9,18.2-3.5c0.2,0.3,0.4,0.5,0.7,0.7c0.1,0.1,0.4-0.1,0.5-0.2c0.2-0.6,0.2-1.2,0.4-1.7
			c0.5-1.5,1.5-2.2,3-2.2s2.4,0.7,2.8,2.3c0.3,1,0.3,2,0.3,3C143.2,68.5,143.1,72.2,143.1,75.8L143.1,75.8L143.1,75.8z M122.6,73.2
			c0.3,1.6,0.4,2.9,0.7,4.2c0.8,2.7,2.5,4.4,5.3,4.7c2.7,0.3,4.7-0.8,6.2-3c2-3,1.8-8.8-0.4-11.7c-1.4-1.9-3.4-2.8-5.7-2.6
			c-2.4,0.3-4.3,1.6-5.1,3.9C123.2,70.3,123,71.8,122.6,73.2L122.6,73.2z"/>
		<path class="st1" d="M53.9,68.9c0-4.1,0-8.3,0-12.4c0-0.6,0-1.2,0-1.8c0.2-3.5,1.3-4.8,4.8-4.9c4.6-0.1,9.3-0.1,13.9,0.1
			c5.4,0.3,9.2,3.7,10,9c0.9,6-1.5,12-9.3,13.3c-1.8,0.3-3.7,0.4-5.5,0.5c-1.7,0.1-3.4,0-5.1,0c-0.9,0-1.2,0.4-1.2,1.2
			c0,2.8,0,5.6,0,8.3c0,0.9,0,1.9-0.2,2.8c-0.4,1.8-1.9,2.9-3.6,2.9c-1.8,0-3-0.9-3.5-2.7c-0.3-1-0.3-2-0.3-3
			C53.9,77.8,53.9,73.3,53.9,68.9L53.9,68.9z M65.9,55.3c0,0.1,0,0.1,0,0.2c-1,0-2,0-3,0c-1-0.1-1.3,0.4-1.3,1.4c0,2.9,0,5.9,0,8.8
			c0,0.9,0.3,1.4,1.3,1.4c2.5-0.1,5-0.2,7.5-0.4c0.7-0.1,1.4-0.4,2.1-0.8c2.1-1.2,2.6-3.1,2.3-5.4s-1.2-3.9-3.5-4.4
			C69.5,55.7,67.7,55.5,65.9,55.3L65.9,55.3z"/>
		<path class="st1" d="M173.7,74.3c-0.3,3.2-0.3,6.4,0.7,9.5c0.6,1.9,0,3.1-1.5,3.9c-1.4,0.7-2.7,0.4-4-1c-0.7-0.7-1.3-2-2-2.1
			c-0.8-0.1-1.7,0.9-2.6,1.4c-2.8,1.7-5.9,2.3-9.2,2c-5.2-0.6-8.5-5.5-6.9-10.2c0.8-2.2,2.4-3.7,4.5-4.4c2.6-0.8,5.2-1.4,7.8-2
			c1.6-0.4,3.3-0.8,4.9-1.2c0.8-0.2,1.1-0.6,1-1.5c-0.2-1.8-1-3.9-3.6-4.1c-3.5-0.3-6.3,0.3-8.3,3.5c-0.4,0.7-1.1,1.4-1.8,1.6
			c-2,0.5-3.8-0.8-3.6-3c0.2-2.2,1.4-3.8,3.2-4.9c1.6-0.9,3.4-1.6,5.1-2c3.2-0.6,6.6-0.6,9.8,0.3c3.1,0.9,5.2,2.8,5.7,6.1
			C173.4,68.9,173.4,71.6,173.7,74.3L173.7,74.3z M166.5,76.2c0-0.3,0-0.5,0-0.8c0-1.2-0.2-1.4-1.3-1.1c-2.1,0.5-4.3,0.9-6.4,1.5
			c-1,0.3-1.9,0.7-2.7,1.2c-1.5,1.1-1.7,2.9-0.6,4.5c0.8,1.1,1.9,1.7,3.2,1.8C163.2,83.8,166.4,80.9,166.5,76.2L166.5,76.2z"/>
		<path class="st1" d="M100.6,75.5c-2.4,0-4.7,0-7.1,0c-0.9,0-1.2,0.4-1.1,1.3c0.4,4.5,4.2,7.9,9.1,6.3c1.5-0.5,2.9-1.7,4.3-2.6
			c0.6-0.4,1-0.9,1.5-1.3c1-0.7,2-0.8,3.1-0.2c0.8,0.5,1.2,1.7,0.7,3c-0.3,0.8-0.9,1.7-1.5,2.3c-1.5,1.7-3.4,2.7-5.6,3.3
			c-3.3,0.9-6.7,0.9-10-0.1c-4.2-1.3-6.9-4.1-8.2-8.3c-1-3.5-1-7,0-10.5c1.3-4.3,4.1-7.3,8.6-8.5c4.6-1.2,9-1,12.9,2.2
			c2.9,2.4,4.4,5.5,4.3,9.3c0,2.2-0.8,3.3-3,3.7c-1.1,0.2-2.2,0.2-3.3,0.2C103.8,75.5,102.2,75.5,100.6,75.5L100.6,75.5L100.6,75.5z
			 M98.7,71.6c1.8,0,3.5,0,5.3,0c0.5,0,1.1-0.1,1-0.8c-0.4-3.2-1.9-6.1-6-6.3c-3.5-0.2-6.6,2.8-6.5,6.3c0,0.6,0.3,0.9,0.9,0.9
			C95.1,71.6,96.9,71.6,98.7,71.6L98.7,71.6z"/>
		<path class="st1" d="M233.9,73.9c0,3,0,6.1,0,9.1c0,0.8,0,1.5-0.1,2.3c-0.3,1.7-1.3,2.6-2.8,2.7c-1.6,0.1-2.7-0.6-3.3-2.2
			c-0.3-0.6-0.5-1.3-0.7-2c-0.5,0.5-1,0.9-1.5,1.4c-2.8,2.6-6.1,3.2-9.6,2.6c-3.9-0.6-6.6-3.6-6.8-7.7c-0.2-5.6-0.1-11.3-0.1-17
			c0-2.2,1.3-3.5,3.1-3.6c1.7-0.1,3,0.8,3.4,2.4c0.3,1,0.3,2.2,0.4,3.3c0.1,3,0,6.1,0,9.1c0,1.3,0,2.7,0.2,4c0.6,3.7,3.6,5.2,7,3.6
			c2.3-1.1,3.5-2.9,3.5-5.4c0.1-3.7,0.1-7.4,0.1-11.1c0-1.1,0.1-2.2,0.3-3.3c0.4-1.7,1.6-2.6,3.3-2.6c1.6,0,2.9,1,3.2,2.7
			c0.2,0.7,0.1,1.5,0.1,2.3C233.9,67.6,233.9,70.7,233.9,73.9L233.9,73.9z"/>
		<path class="st1" d="M190.3,88c-2.2,0.1-4.9-0.5-7.5-2c-1.7-1.1-3-2.4-3.4-4.5c-0.3-1.5,0.2-2.8,1.4-3.4c1.3-0.6,2.6-0.3,3.6,0.9
			c0.3,0.3,0.5,0.7,0.7,1c1.7,2.9,4.4,3.8,7.6,3.3c0.9-0.1,1.8-0.5,2.5-1c1.5-1,1.6-3,0.2-4.1c-0.8-0.7-1.9-1.2-2.9-1.5
			c-2.1-0.7-4.4-1.2-6.5-2c-1.3-0.4-2.5-1-3.6-1.8c-3.4-2.4-3.9-6.7-1.2-9.9c1.6-1.9,3.8-2.8,6.1-3.3c3.3-0.6,6.6-0.3,9.7,0.9
			c1.6,0.6,3,1.6,4,3c1.1,1.6,1,3.3-0.2,4.3s-3,0.9-4.4-0.4c-0.7-0.6-1.3-1.4-1.9-2c-1.9-1.9-4.2-1.9-6.6-1.2
			c-1.1,0.4-1.9,1.1-1.9,2.4c0,1.2,0.7,1.9,1.7,2.3c1.6,0.6,3.2,1,4.8,1.6c2.1,0.7,4.2,1.2,6.2,2.1s3.6,2.2,4.2,4.5
			c0.9,3.1-0.6,7-3.5,8.8C197.3,87.4,194.6,88,190.3,88L190.3,88z"/>
		<path class="st1" d="M251.5,88c-3.1,0.1-5.9-0.5-8.5-2.1c-1.7-1.1-2.9-2.5-3.3-4.6c-0.3-1.4,0.3-2.6,1.4-3.2
			c1.3-0.6,2.6-0.3,3.6,0.8c0.4,0.4,0.7,1,1,1.5c2.2,3.3,5.3,3.3,8,2.9c0.6-0.1,1.3-0.5,1.8-0.9c1.5-1.1,1.7-3,0.3-4.1
			c-0.8-0.7-1.8-1.2-2.8-1.5c-2.2-0.8-4.5-1.3-6.7-2.1c-1.3-0.4-2.5-1.1-3.6-1.8c-3.2-2.3-3.7-6.5-1.2-9.6c1.7-2.1,4-3.1,6.5-3.5
			c3.1-0.5,6.2-0.3,9.2,0.8c1.8,0.7,3.3,1.7,4.4,3.3c1,1.5,0.9,3.2-0.3,4.1c-1.1,0.9-3.2,1-4.4-0.3c-0.6-0.6-1.2-1.2-1.7-1.9
			c-1.8-2-4.1-2.1-6.5-1.5c-1.5,0.4-2.2,1.3-2.2,2.4c0,1.3,0.8,2,1.9,2.4c1.6,0.6,3.2,1,4.8,1.5c2,0.6,4,1.2,6,2.1
			c2,0.9,3.5,2.2,4.2,4.4c0.8,2.4-0.3,7-3.4,8.8C257.3,87.6,254.4,88.1,251.5,88L251.5,88z"/>
	</g>
</g>
</svg>
