<?xml version="1.0" encoding="utf-8"?>
<!-- Generator: Adobe Illustrator 26.5.3, SVG Export Plug-In . SVG Version: 6.00 Build 0)  -->
<svg version="1.1" id="Layer_1" xmlns="http://www.w3.org/2000/svg" xmlns:xlink="http://www.w3.org/1999/xlink" x="0px" y="0px"
	 viewBox="0 0 208.2 72" style="enable-background:new 0 0 208.2 72;" xml:space="preserve">
<style type="text/css">
	.st0{enable-background:new    ;}
	.st1{fill:#232323;}
</style>
<g class="st0">
	<path class="st1" d="M24.4,25.7c-2-1.3-3-3.3-3-5.9l0-0.8h4.2c0,0.1,0,0.1,0,0.3c0,0.1,0,0.3,0,0.5c0,1.4,0.6,2.5,1.8,3.2
		c1.2,0.7,2.8,1.1,4.8,1.1c2.2,0,3.9-0.3,5-1c1.1-0.7,1.7-1.6,1.7-2.8c0-0.9-0.3-1.6-0.9-2.2c-0.6-0.6-1.4-1-2.3-1.4
		c-0.9-0.3-2.2-0.7-3.8-1.2c-2-0.5-3.7-1.1-5-1.6c-1.3-0.5-2.4-1.3-3.3-2.3S22,9.5,22,7.8c0-2.3,0.9-4,2.8-5.2
		c1.9-1.2,4.3-1.8,7.4-1.8c3,0,5.4,0.6,7.2,1.9c1.9,1.2,2.8,3.1,2.8,5.6v0.5h-4.1V8.2c0-1.2-0.5-2.1-1.6-2.8c-1.1-0.7-2.5-1-4.2-1
		c-1.9,0-3.3,0.3-4.4,0.8s-1.6,1.4-1.6,2.4c0,0.8,0.3,1.4,0.9,1.9c0.6,0.5,1.4,0.9,2.3,1.3c0.9,0.3,2.1,0.7,3.7,1.1
		c2.1,0.6,3.8,1.1,5.1,1.6c1.3,0.5,2.4,1.3,3.3,2.3c0.9,1,1.4,2.3,1.4,3.9c0,2.8-1,4.8-2.9,6.1c-1.9,1.3-4.6,1.9-7.9,1.9
		C29,27.7,26.4,27,24.4,25.7z"/>
	<path class="st1" d="M49.8,24.3c-2.1-2.2-3.2-5.6-3.2-10.1c0-4.5,1.1-7.8,3.2-10.1c2.1-2.2,5.3-3.3,9.4-3.3c3.4,0,6.1,0.8,8.2,2.5
		c2.1,1.7,3.1,4.1,3.1,7.4h-4.3c0-2-0.6-3.6-1.9-4.7c-1.3-1.1-3-1.6-5.1-1.6c-2.8,0-4.9,0.8-6.3,2.3c-1.3,1.5-2,4-2.1,7.3v0.4
		c0,3.4,0.7,5.8,2,7.4s3.5,2.3,6.3,2.3c2.2,0,4-0.5,5.2-1.6c1.3-1.1,1.9-2.6,1.9-4.7h4.1c0,3.3-1,5.7-3.1,7.4
		c-2.1,1.7-4.8,2.5-8.2,2.5C55,27.7,51.9,26.5,49.8,24.3z"/>
	<path class="st1" d="M75.3,1.3h4.2v25.9h-4.2V1.3z"/>
	<path class="st1" d="M85.5,1.3h20.1v3.6H89.7v7.3h14.3v3.6H89.7v7.9h16.1v3.6H85.5V1.3z"/>
	<path class="st1" d="M110.7,1.3h3.9l12.6,16.9c0.3,0.4,0.6,0.9,1.1,1.6l0.2-0.1l0-1.9V1.3h4v25.9h-3.8L116,10.1
		c-0.2-0.3-0.4-0.6-0.6-0.9c-0.2-0.4-0.4-0.6-0.5-0.8l-0.2,0l0,1.9v16.8h-4V1.3z"/>
	<path class="st1" d="M140.1,24.3c-2.1-2.2-3.2-5.6-3.2-10.1c0-4.5,1.1-7.8,3.2-10.1c2.1-2.2,5.3-3.3,9.4-3.3c3.4,0,6.1,0.8,8.2,2.5
		c2.1,1.7,3.1,4.1,3.1,7.4h-4.3c0-2-0.6-3.6-1.9-4.7c-1.3-1.1-3-1.6-5.1-1.6c-2.8,0-4.9,0.8-6.3,2.3c-1.3,1.5-2,4-2.1,7.3v0.4
		c0,3.4,0.7,5.8,2,7.4s3.5,2.3,6.3,2.3c2.2,0,4-0.5,5.2-1.6c1.3-1.1,1.9-2.6,1.9-4.7h4.1c0,3.3-1,5.7-3.1,7.4
		c-2.1,1.7-4.8,2.5-8.2,2.5C145.4,27.7,142.2,26.5,140.1,24.3z"/>
	<path class="st1" d="M165.3,1.3h20.1v3.6h-15.9v7.3h14.3v3.6h-14.3v7.9h16.1v3.6h-20.3V1.3z"/>
</g>
<g class="st0">
	<path class="st1" d="M13.9,55.5h12.9v13.7h-3.1l-0.3-2.9c-2.1,2.2-5,3.3-8.9,3.3c-4.2,0-7.4-1.1-9.5-3.3c-2.2-2.2-3.3-5.6-3.3-10.1
		c0-4.5,1.1-7.8,3.4-10.1c2.2-2.2,5.5-3.3,9.8-3.3c2.3,0,4.4,0.3,6.2,1c1.8,0.7,3.2,1.7,4.3,3.1s1.6,3.1,1.6,5.1h-4.3
		c0-1.9-0.7-3.3-2.1-4.3c-1.4-1-3.2-1.5-5.5-1.5c-3,0-5.2,0.8-6.7,2.3c-1.5,1.5-2.2,4-2.2,7.4v0.4c0,3.4,0.7,5.8,2.1,7.4
		c1.4,1.5,3.6,2.3,6.4,2.3c2.6,0,4.7-0.6,6-1.7c1.4-1.1,2.1-2.8,2.1-5.1v-0.2h-8.8V55.5z"/>
	<path class="st1" d="M39.7,43.3H45l10.1,25.9h-4.5l-2.4-6.3h-12l-2.3,6.3h-4.3L39.7,43.3z M46.9,59.3L44,51.7l-1.7-4.8h-0.2
		l-1.7,4.8l-2.9,7.7H46.9z"/>
	<path class="st1" d="M61.9,46.9h-8.6v-3.6h21.4v3.6h-8.6v22.3h-4.2V46.9z"/>
	<path class="st1" d="M78.4,43.3h20.1v3.6H82.6v7.3h14.3v3.6H82.6v7.9h16.1v3.6H78.4V43.3z"/>
	<path class="st1" d="M101.1,43.3h4.4l4.8,17.6c0.2,0.7,0.3,1.4,0.5,2.2c0.2,0.8,0.3,1.3,0.4,1.6h0.2l0.7-3.9l3.9-17.6h5.6l4,17.6
		c0.2,0.7,0.3,1.5,0.5,2.2c0.2,0.8,0.3,1.3,0.3,1.6h0.2c0.1-0.3,0.2-0.9,0.4-1.6s0.3-1.5,0.5-2.2l4.7-17.6h4l-7.3,25.9h-5.3
		l-4.2-17.7c-0.2-0.7-0.3-1.4-0.5-2.3c-0.2-0.9-0.3-1.5-0.3-1.7h-0.2c-0.1,0.3-0.2,0.9-0.3,1.8c-0.2,0.9-0.3,1.7-0.4,2.2l-4.1,17.7
		h-5.3L101.1,43.3z"/>
	<path class="st1" d="M145.2,43.3h5.3l10.1,25.9h-4.5l-2.4-6.3h-12l-2.3,6.3h-4.3L145.2,43.3z M152.3,59.3l-2.8-7.6l-1.7-4.8h-0.2
		l-1.7,4.8l-2.9,7.7H152.3z"/>
	<path class="st1" d="M168.3,58.6l-10.1-15.3h4.9l7.3,11.5h0.2l7.3-11.5h4.7l-10.1,15.3v10.7h-4.2V58.6z"/>
	<path class="st1" d="M187.8,67.7c-2-1.3-3-3.3-3-5.9l0-0.8h4.2c0,0.1,0,0.1,0,0.3s0,0.3,0,0.5c0,1.4,0.6,2.5,1.8,3.2
		c1.2,0.7,2.8,1.1,4.8,1.1c2.2,0,3.9-0.3,5-1s1.7-1.6,1.7-2.8c0-0.9-0.3-1.6-0.9-2.2c-0.6-0.6-1.4-1-2.3-1.4
		c-0.9-0.3-2.2-0.7-3.8-1.2c-2-0.5-3.7-1.1-5-1.6c-1.3-0.5-2.4-1.3-3.3-2.3c-0.9-1-1.4-2.3-1.4-3.9c0-2.3,0.9-4,2.8-5.2
		c1.9-1.2,4.3-1.8,7.4-1.8c3,0,5.4,0.6,7.2,1.9c1.9,1.2,2.8,3.1,2.8,5.6v0.5h-4.1v-0.5c0-1.2-0.5-2.1-1.6-2.8c-1.1-0.7-2.5-1-4.2-1
		c-1.9,0-3.3,0.3-4.4,0.8s-1.6,1.4-1.6,2.4c0,0.8,0.3,1.4,0.9,1.9c0.6,0.5,1.4,0.9,2.3,1.3c0.9,0.3,2.1,0.7,3.7,1.1
		c2.1,0.6,3.8,1.1,5.1,1.6c1.3,0.5,2.4,1.3,3.3,2.3c0.9,1,1.4,2.3,1.4,3.9c0,2.8-1,4.8-2.9,6.1c-1.9,1.3-4.6,1.9-7.9,1.9
		C192.4,69.7,189.8,69,187.8,67.7z"/>
</g>
</svg>
