<?xml version="1.0" encoding="UTF-8"?>
<svg id="Layer_1" xmlns="http://www.w3.org/2000/svg" version="1.1" viewBox="0 0 71.7 71.7">
  <!-- Generator: Adobe Illustrator 30.3.0, SVG Export Plug-In . SVG Version: 2.1.3 Build 182)  -->
  <defs>
    <style>
      .st0 {
        fill: #e75e24;
      }
    </style>
  </defs>
  <g id="Group_1812">
    <path id="Path_4575" class="st0" d="M3.1,71.2h-1.7C1.4,31.9,32.9,0,71.7,0v1.8C33.9,1.7,3.1,32.9,3.1,71.2"/>
    <path id="Path_4576" class="st0" d="M8.9,71.2h-1.7C7.2,35.2,36.1,5.9,71.7,5.9v1.8c-34.6,0-62.7,28.5-62.7,63.5"/>
    <path id="Path_4577" class="st0" d="M14.7,71.2h-1.7c0-32.8,26.3-59.4,58.7-59.4v1.8c-31.4,0-56.9,25.9-56.9,57.7"/>
    <path id="Path_4578" class="st0" d="M20.5,71.2h-1.7c0-29.5,23.7-53.5,52.9-53.5v1.8c-28.2,0-51.1,23.2-51.1,51.8"/>
    <path id="Path_4579" class="st0" d="M26.3,71.2h-1.7c0-26.3,21.1-47.7,47.1-47.7v1.8c-25,0-45.3,20.6-45.3,45.9"/>
    <path id="Path_4580" class="st0" d="M32.1,71.2h-1.7c0-23,18.5-41.8,41.3-41.8v1.8c-21.8,0-39.5,18-39.5,40"/>
    <path id="Path_4581" class="st0" d="M38,71.2h-1.7c0-19.8,15.9-35.9,35.4-35.9v1.8c-18.7.1-33.8,15.4-33.7,34.1"/>
    <path id="Path_4582" class="st0" d="M43.8,71.2h-1.7c0-16.5,13.2-29.9,29.6-30v1.8c-15.5.1-28,12.8-27.9,28.3"/>
    <path id="Path_4583" class="st0" d="M49.6,71.2h-1.7c0-13.2,10.6-24,23.8-24.1v1.8c-12.3,0-22.2,10.1-22.1,22.4"/>
    <path id="Path_4584" class="st0" d="M55.4,71.2h-1.7c0-10,8-18.2,18-18.3v1.8c-9.1,0-16.3,7.4-16.3,16.5"/>
    <path id="Path_4585" class="st0" d="M61.2,71.2h-1.7c0-6.8,5.4-12.3,12.2-12.4v1.8c-5.8,0-10.5,4.8-10.5,10.6"/>
    <path id="Path_4586" class="st0" d="M67,71.2h-1.7c0-3.6,2.9-6.5,6.4-6.5v1.8c-2.6,0-4.7,2.1-4.7,4.7"/>
    <path id="Path_4587" class="st0" d="M2.1,67.4c1.2,0,2.1.9,2.1,2.1,0,1.2-.9,2.1-2.1,2.1-1.2,0-2.1-.9-2.1-2.1,0,0,0,0,0,0,0-1.2.9-2.1,2.1-2.1h0"/>
    <path id="Path_4588" class="st0" d="M8,67.4c1.2,0,2.1.9,2.1,2.1,0,1.2-.9,2.1-2.1,2.1-1.2,0-2.1-.9-2.1-2.1,0,0,0,0,0,0,0-1.2.9-2.1,2.1-2.1h0"/>
    <path id="Path_4589" class="st0" d="M14,67.4c1.2,0,2.1.9,2.1,2.1,0,1.2-.9,2.1-2.1,2.1-1.2,0-2.1-.9-2.1-2.1,0,0,0,0,0,0,0-1.2.9-2.1,2.1-2.1h0"/>
    <path id="Path_4590" class="st0" d="M19.7,67.4c1.2,0,2.1.9,2.1,2.1,0,1.2-.9,2.1-2.1,2.1-1.2,0-2.1-.9-2.1-2.1,0,0,0,0,0,0,0-1.2.9-2.1,2.1-2.1h0"/>
    <path id="Path_4591" class="st0" d="M25.3,67.4c1.2,0,2.1.9,2.1,2.1,0,1.2-.9,2.1-2.1,2.1-1.2,0-2.1-.9-2.1-2.1,0,0,0,0,0,0,0-1.2.9-2.1,2.1-2.1h0"/>
    <path id="Path_4592" class="st0" d="M31.5,67.4c1.2,0,2.1.9,2.1,2.1,0,1.2-.9,2.1-2.1,2.1-1.2,0-2.1-.9-2.1-2.1,0,0,0,0,0,0,0-1.2.9-2.1,2.1-2.1h0"/>
    <path id="Path_4593" class="st0" d="M36.9,67.4c1.2,0,2.1.9,2.1,2.1,0,1.2-.9,2.1-2.1,2.1-1.2,0-2.1-.9-2.1-2.1,0,0,0,0,0,0,0-1.2.9-2.1,2.1-2.1h0"/>
    <path id="Path_4594" class="st0" d="M43,67.4c1.2,0,2.1.9,2.1,2.1,0,1.2-.9,2.1-2.1,2.1-1.2,0-2.1-.9-2.1-2.1,0,0,0,0,0,0,0-1.2.9-2.1,2.1-2.1h0"/>
    <path id="Path_4595" class="st0" d="M48.7,67.4c1.2,0,2.1.9,2.1,2.1,0,1.2-.9,2.1-2.1,2.1-1.2,0-2.1-.9-2.1-2.1,0,0,0,0,0,0,0-1.2.9-2.1,2.1-2.1h0"/>
    <path id="Path_4596" class="st0" d="M54.3,67.4c1.2,0,2.1.9,2.1,2.1,0,1.2-.9,2.1-2.1,2.1-1.2,0-2.1-.9-2.1-2.1,0,0,0,0,0,0,0-1.2.9-2.1,2.1-2.1h0"/>
    <path id="Path_4597" class="st0" d="M60.4,67.4c1.2,0,2.1.9,2.1,2.1,0,1.2-.9,2.1-2.1,2.1-1.2,0-2.1-.9-2.1-2.1,0,0,0,0,0,0,0-1.2.9-2.1,2.1-2.1h0"/>
    <path id="Path_4598" class="st0" d="M66.4,67.4c1.2,0,2.1.9,2.1,2.1,0,1.2-.9,2.1-2.1,2.1-1.2,0-2.1-.9-2.1-2.1,0,0,0,0,0,0,0-1.2.9-2.1,2.1-2.1h0"/>
  </g>
</svg>