<?xml version="1.0" encoding="UTF-8"?>
<svg id="Layer_1" xmlns="http://www.w3.org/2000/svg" xmlns:xlink="http://www.w3.org/1999/xlink" version="1.1" viewBox="0 0 502.1 71.7">
  <!-- Generator: Adobe Illustrator 30.3.0, SVG Export Plug-In . SVG Version: 2.1.3 Build 182)  -->
  <defs>
    <style>
      .st0 {
        fill: none;
      }

      .st1 {
        fill: #004b5c;
      }

      .st2 {
        fill: #e75e24;
      }

      .st3 {
        fill: #007386;
      }

      .st4 {
        fill: #ffaf2d;
      }

      .st5 {
        fill: #4cb9af;
      }

      .st6 {
        clip-path: url(#clippath);
      }
    </style>
    <clipPath id="clippath">
      <rect class="st0" x=".1" y="0" width="502" height="87.6"/>
    </clipPath>
  </defs>
  <g id="Group_1786">
    <g id="Group_1783">
      <g id="Group_1787">
        <path id="Path_4551" class="st5" d="M72.1,3.1v-1.7c39.2,0,71.2,31.5,71.2,70.3h-1.8c0-37.8-31.1-68.5-69.4-68.5"/>
        <path id="Path_4552" class="st5" d="M72.1,8.9v-1.7c36,0,65.3,28.9,65.3,64.5h-1.8c0-34.6-28.5-62.7-63.5-62.7"/>
        <path id="Path_4553" class="st5" d="M72.1,14.7v-1.7c32.8,0,59.4,26.3,59.4,58.7h-1.8c0-31.4-25.9-56.9-57.7-56.9"/>
        <path id="Path_4554" class="st5" d="M72.1,20.5v-1.7c29.5,0,53.5,23.7,53.5,52.9h-1.8c0-28.2-23.2-51.1-51.8-51.1"/>
        <path id="Path_4555" class="st5" d="M72.1,26.3v-1.7c26.3,0,47.7,21.1,47.7,47.1h-1.8c0-25-20.6-45.3-45.9-45.3"/>
        <path id="Path_4556" class="st5" d="M72.1,32.1v-1.7c23,0,41.8,18.5,41.8,41.3h-1.8c0-21.8-18-39.5-40-39.5"/>
        <path id="Path_4557" class="st5" d="M72.1,38v-1.7c19.8,0,35.9,15.9,35.9,35.4h-1.8c-.1-18.7-15.4-33.8-34.1-33.7"/>
        <path id="Path_4558" class="st5" d="M72.1,43.8v-1.7c16.5,0,29.9,13.2,30,29.6h-1.8c-.1-15.5-12.8-28-28.3-27.9"/>
        <path id="Path_4559" class="st5" d="M72.1,49.6v-1.7c13.2,0,24,10.6,24.1,23.8h-1.8c0-12.3-10.1-22.2-22.4-22.1"/>
        <path id="Path_4560" class="st5" d="M72.1,55.4v-1.7c10,0,18.2,8,18.3,18h-1.8c0-9.1-7.4-16.3-16.5-16.3"/>
        <path id="Path_4561" class="st5" d="M72.1,61.2v-1.7c6.8,0,12.3,5.4,12.4,12.2h-1.8c0-5.8-4.8-10.5-10.6-10.5"/>
        <path id="Path_4562" class="st5" d="M72.1,67v-1.7c3.6,0,6.5,2.9,6.5,6.4h-1.8c0-2.6-2.1-4.7-4.7-4.7"/>
        <path id="Path_4563" class="st5" d="M75.9,2.1c0,1.2-.9,2.1-2.1,2.1-1.2,0-2.1-.9-2.1-2.1S72.6,0,73.8,0c0,0,0,0,0,0,1.2,0,2.1.9,2.1,2.1,0,0,0,0,0,0"/>
        <path id="Path_4564" class="st5" d="M75.9,8c0,1.2-.9,2.1-2.1,2.1-1.2,0-2.1-.9-2.1-2.1s.9-2.1,2.1-2.1c0,0,0,0,0,0,1.2,0,2.1.9,2.1,2.1,0,0,0,0,0,0"/>
        <path id="Path_4565" class="st5" d="M75.9,14c0,1.2-.9,2.1-2.1,2.1-1.2,0-2.1-.9-2.1-2.1s.9-2.1,2.1-2.1c0,0,0,0,0,0,1.2,0,2.1.9,2.1,2.1,0,0,0,0,0,0"/>
        <path id="Path_4566" class="st5" d="M75.9,19.7c0,1.2-.9,2.1-2.1,2.1-1.2,0-2.1-.9-2.1-2.1s.9-2.1,2.1-2.1c0,0,0,0,0,0,1.2,0,2.1.9,2.1,2.1,0,0,0,0,0,0"/>
        <path id="Path_4567" class="st5" d="M75.9,25.3c0,1.2-.9,2.1-2.1,2.1-1.2,0-2.1-.9-2.1-2.1s.9-2.1,2.1-2.1c0,0,0,0,0,0,1.2,0,2.1.9,2.1,2.1,0,0,0,0,0,0"/>
        <path id="Path_4568" class="st5" d="M75.9,31.5c0,1.2-.9,2.1-2.1,2.1-1.2,0-2.1-.9-2.1-2.1s.9-2.1,2.1-2.1c0,0,0,0,0,0,1.2,0,2.1.9,2.1,2.1,0,0,0,0,0,0"/>
        <path id="Path_4569" class="st5" d="M75.9,36.9c0,1.2-.9,2.1-2.1,2.1-1.2,0-2.1-.9-2.1-2.1s.9-2.1,2.1-2.1c0,0,0,0,0,0,1.2,0,2.1.9,2.1,2.1,0,0,0,0,0,0"/>
        <path id="Path_4570" class="st5" d="M75.9,43c0,1.2-.9,2.1-2.1,2.1-1.2,0-2.1-.9-2.1-2.1s.9-2.1,2.1-2.1c0,0,0,0,0,0,1.2,0,2.1.9,2.1,2.1,0,0,0,0,0,0"/>
        <path id="Path_4571" class="st5" d="M75.9,48.7c0,1.2-.9,2.1-2.1,2.1-1.2,0-2.1-.9-2.1-2.1s.9-2.1,2.1-2.1c0,0,0,0,0,0,1.2,0,2.1.9,2.1,2.1,0,0,0,0,0,0"/>
        <path id="Path_4572" class="st5" d="M75.9,54.3c0,1.2-.9,2.1-2.1,2.1-1.2,0-2.1-.9-2.1-2.1s.9-2.1,2.1-2.1c0,0,0,0,0,0,1.2,0,2.1.9,2.1,2.1,0,0,0,0,0,0"/>
        <path id="Path_4573" class="st5" d="M75.9,60.4c0,1.2-.9,2.1-2.1,2.1-1.2,0-2.1-.9-2.1-2.1s.9-2.1,2.1-2.1c0,0,0,0,0,0,1.2,0,2.1.9,2.1,2.1,0,0,0,0,0,0"/>
        <path id="Path_4574" class="st5" d="M75.9,66.4c0,1.2-.9,2.1-2.1,2.1-1.2,0-2.1-.9-2.1-2.1s.9-2.1,2.1-2.1c0,0,0,0,0,0,1.2,0,2.1.9,2.1,2.1,0,0,0,0,0,0"/>
        <g id="Group_1812">
          <path id="Path_4575" class="st1" d="M361.6,71.2h-1.7C359.9,31.9,391.4,0,430.1,0v1.8c-37.8,0-68.5,31.1-68.5,69.4"/>
          <path id="Path_4576" class="st1" d="M367.4,71.2h-1.7c0-36,28.9-65.3,64.5-65.3v1.8c-34.6,0-62.7,28.5-62.7,63.5"/>
          <path id="Path_4577" class="st1" d="M373.2,71.2h-1.7c0-32.8,26.3-59.4,58.7-59.4v1.8c-31.4,0-56.9,25.9-56.9,57.7"/>
          <path id="Path_4578" class="st1" d="M379,71.2h-1.7c0-29.5,23.7-53.5,52.9-53.5v1.8c-28.2,0-51.1,23.2-51.1,51.8"/>
          <path id="Path_4579" class="st1" d="M384.8,71.2h-1.7c0-26.3,21.1-47.7,47.1-47.7v1.8c-25,0-45.3,20.6-45.3,45.9"/>
          <path id="Path_4580" class="st1" d="M390.6,71.2h-1.7c0-23,18.5-41.8,41.3-41.8v1.8c-21.8,0-39.5,18-39.5,40"/>
          <path id="Path_4581" class="st1" d="M396.4,71.2h-1.7c0-19.8,15.9-35.9,35.4-35.9v1.8c-18.7.1-33.8,15.4-33.7,34.1"/>
          <path id="Path_4582" class="st1" d="M402.2,71.2h-1.7c0-16.5,13.2-29.9,29.6-30v1.8c-15.5.1-28,12.8-27.9,28.3"/>
          <path id="Path_4583" class="st1" d="M408,71.2h-1.7c0-13.2,10.6-24,23.8-24.1v1.8c-12.3,0-22.2,10.1-22.1,22.4"/>
          <path id="Path_4584" class="st1" d="M413.8,71.2h-1.7c0-10,8-18.2,18-18.3v1.8c-9.1,0-16.3,7.4-16.3,16.5"/>
          <path id="Path_4585" class="st1" d="M419.6,71.2h-1.7c0-6.8,5.4-12.3,12.2-12.4v1.8c-5.8,0-10.5,4.8-10.5,10.6"/>
          <path id="Path_4586" class="st1" d="M425.4,71.2h-1.7c0-3.6,2.9-6.5,6.4-6.5v1.8c-2.6,0-4.7,2.1-4.7,4.7"/>
          <path id="Path_4587" class="st1" d="M360.6,67.4c1.2,0,2.1.9,2.1,2.1,0,1.2-.9,2.1-2.1,2.1-1.2,0-2.1-.9-2.1-2.1,0,0,0,0,0,0,0-1.2.9-2.1,2.1-2.1h0"/>
          <path id="Path_4588" class="st1" d="M366.4,67.4c1.2,0,2.1.9,2.1,2.1,0,1.2-.9,2.1-2.1,2.1-1.2,0-2.1-.9-2.1-2.1,0,0,0,0,0,0,0-1.2.9-2.1,2.1-2.1h0"/>
          <path id="Path_4589" class="st1" d="M372.4,67.4c1.2,0,2.1.9,2.1,2.1,0,1.2-.9,2.1-2.1,2.1-1.2,0-2.1-.9-2.1-2.1,0,0,0,0,0,0,0-1.2.9-2.1,2.1-2.1h0"/>
          <path id="Path_4590" class="st1" d="M378.2,67.4c1.2,0,2.1.9,2.1,2.1,0,1.2-.9,2.1-2.1,2.1-1.2,0-2.1-.9-2.1-2.1,0,0,0,0,0,0,0-1.2.9-2.1,2.1-2.1h0"/>
          <path id="Path_4591" class="st1" d="M383.8,67.4c1.2,0,2.1.9,2.1,2.1,0,1.2-.9,2.1-2.1,2.1-1.2,0-2.1-.9-2.1-2.1,0,0,0,0,0,0,0-1.2.9-2.1,2.1-2.1h0"/>
          <path id="Path_4592" class="st1" d="M390,67.4c1.2,0,2.1.9,2.1,2.1,0,1.2-.9,2.1-2.1,2.1-1.2,0-2.1-.9-2.1-2.1,0,0,0,0,0,0,0-1.2.9-2.1,2.1-2.1h0"/>
          <path id="Path_4593" class="st1" d="M395.3,67.4c1.2,0,2.1.9,2.1,2.1,0,1.2-.9,2.1-2.1,2.1-1.2,0-2.1-.9-2.1-2.1,0,0,0,0,0,0,0-1.2.9-2.1,2.1-2.1h0"/>
          <path id="Path_4594" class="st1" d="M401.5,67.4c1.2,0,2.1.9,2.1,2.1,0,1.2-.9,2.1-2.1,2.1-1.2,0-2.1-.9-2.1-2.1,0,0,0,0,0,0,0-1.2.9-2.1,2.1-2.1h0"/>
          <path id="Path_4595" class="st1" d="M407.2,67.4c1.2,0,2.1.9,2.1,2.1,0,1.2-.9,2.1-2.1,2.1-1.2,0-2.1-.9-2.1-2.1,0,0,0,0,0,0,0-1.2.9-2.1,2.1-2.1h0"/>
          <path id="Path_4596" class="st1" d="M412.7,67.4c1.2,0,2.1.9,2.1,2.1,0,1.2-.9,2.1-2.1,2.1-1.2,0-2.1-.9-2.1-2.1,0,0,0,0,0,0,0-1.2.9-2.1,2.1-2.1h0"/>
          <path id="Path_4597" class="st1" d="M418.9,67.4c1.2,0,2.1.9,2.1,2.1,0,1.2-.9,2.1-2.1,2.1-1.2,0-2.1-.9-2.1-2.1,0,0,0,0,0,0,0-1.2.9-2.1,2.1-2.1h0"/>
          <path id="Path_4598" class="st1" d="M424.9,67.4c1.2,0,2.1.9,2.1,2.1,0,1.2-.9,2.1-2.1,2.1-1.2,0-2.1-.9-2.1-2.1,0,0,0,0,0,0,0-1.2.9-2.1,2.1-2.1h0"/>
        </g>
        <path id="Path_4623" class="st3" d="M358.3,71.7h-71.7V0c39.6,0,71.7,32.1,71.7,71.7h0"/>
        <path id="Path_4624" class="st2" d="M71.7,0v71.7H0C0,32.1,32.1,0,71.7,0h0"/>
      </g>
    </g>
    <path id="Path_4625" class="st1" d="M143.3,71.7L215,0h-71.7v71.7Z"/>
    <path id="Path_4626" class="st4" d="M215,71.7V0l-71.7,71.7h71.7Z"/>
    <path id="Path_4627" class="st2" d="M430.4,71.7h71.7L430.4,0v71.7Z"/>
    <path id="Path_4628" class="st1" d="M502.1,71.7V0h-71.7l71.7,71.7Z"/>
  </g>
  <g class="st6">
    <g id="Group_1788">
      <path id="Path_4631" class="st5" d="M286.7,35.8C286.7,16,270.6,0,250.8,0s-35.8,16-35.8,35.8,16,35.8,35.8,35.8c19.8,0,35.8-16,35.8-35.8h0"/>
    </g>
  </g>
</svg>